4120 2 0 0
0 5.0 -364.0
1 6.41 -377.64
2 7.5 -349.0
3 8.67 -387.29
4 10.81 -337.08
5 10.42 -398.0
6 14.86 -328.79
7 14.5 -408.75
8 16.0 -99.7
9 16.17 -366.33
10 17.63 -115.69
11 17.42 -351.92
12 18.38 -383.38
13 18.7 -417.73
14 20.81 -88.38
15 20.63 -317.93
16 21.5 -398.62
17 23.57 -342.67
18 24.7 -331.0
19 24.75 -428.69
20 26.5 -77.27
21 26.5 -99.27
22 26.33 -124.44
23 26.26 -369.82
24 27.44 -308.19
25 27.59 -357.0
26 28.23 -386.27
27 28.38 -407.06
28 29.5 -418.2
29 29.5 -112.58
30 30.24 -744.89
31 30.0 -759.4
32 31.75 -439.97
33 31.41 -768.91
34 32.25 -321.81
35 32.81 -731.62
36 33.35 -778.23
37 34.0 -339.89
38 34.5 -426.83
39 35.24 -69.42
40 35.24 -89.42
41 35.21 -298.24
42 35.81 -720.62
43 36.36 -128.86
44 36.42 -789.38
45 37.0 -356.56
46 37.0 -370.6
47 37.0 -380.6
48 37.0 -396.56
49 38.24 -106.95
50 38.83 -413.0
51 39.5 -449.53
52 40.79 -711.43
53 40.17 -752.89
54 40.43 -798.0
55 41.24 -312.0
56 42.57 -738.0
57 43.24 -330.21
58 43.86 -437.79
59 43.03 -768.8
60 43.75 -780.38
61 44.24 -289.32
62 44.41 -425.36
63 45.44 -61.0
64 45.0 -74.9
65 45.0 -84.9
66 45.28 -94.44
67 45.96 -724.69
68 46.24 -120.74
69 46.0 -134.88
70 46.24 -347.53
71 46.24 -387.53
72 46.57 -700.8
73 46.62 -808.53
74 47.24 -366.63
75 47.0 -377.0
76 48.67 -105.92
77 48.24 -405.74
78 49.5 -417.8
79 49.0 -454.73
80 49.31 -788.94
81 50.44 -756.31
82 51.24 -303.21
83 51.39 -317.22
84 52.5 -712.93
85 52.38 -734.06
86 53.5 -745.2
87 53.08 -136.67
88 53.62 -330.47
89 53.86 -439.07
90 53.43 -771.57
91 53.75 -819.28
92 54.24 -280.53
93 55.5 -292.25
94 54.41 -426.55
95 54.86 -466.39
96 54.21 -691.12
97 55.24 -54.58
98 55.0 -69.0
99 55.0 -79.0
100 55.0 -89.0
101 55.75 -98.25
102 56.62 -123.12
103 56.24 -348.84
104 56.44 -388.39
105 56.39 -799.11
106 57.5 -810.5
107 57.24 -368.05
108 57.0 -378.5
109 58.67 -109.33
110 58.44 -406.78
111 58.67 -418.83
112 59.83 -454.53
113 59.81 -783.15
114 60.44 -754.72
115 61.24 -304.84
116 61.39 -318.89
117 61.24 -704.32
118 61.24 -724.32
119 62.67 -740.0
120 62.26 -827.71
121 63.75 -136.88
122 63.62 -332.35
123 63.86 -440.93
124 63.24 -682.53
125 63.86 -770.14
126 64.44 -272.11
127 64.0 -286.0
128 64.5 -293.6
129 64.41 -428.64
130 64.44 -471.31
131 65.24 -48.58
132 65.0 -63.0
133 65.0 -73.0
134 65.0 -83.0
135 65.0 -93.0
136 65.75 -102.38
137 66.81 -125.23
138 66.24 -351.05
139 66.44 -390.61
140 66.24 -799.95
141 66.0 -814.4
142 67.5 -822.0
143 67.24 -370.26
144 67.0 -380.5
145 68.67 -113.58
146 68.44 -409.11
147 68.67 -421.17
148 69.83 -457.0
149 69.81 -784.54
150 70.62 -755.71
151 71.24 -307.37
152 71.39 -321.44
153 71.24 -695.84
154 71.0 -710.3
155 71.0 -720.3
156 71.0 -730.3
157 72.38 -479.53
158 72.67 -741.67
159 72.62 -832.97
160 72.83 -135.67
161 73.62 -335.06
162 73.86 -443.64
163 73.24 -674.37
164 74.17 -685.67
165 73.86 -772.07
166 74.24 -265.26
167 74.0 -279.7
168 74.0 -289.7
169 75.5 -297.25
170 74.41 -431.36
171 75.24 -43.11
172 75.0 -57.5
173 75.0 -67.5
174 75.0 -77.5
175 75.0 -87.5
176 75.0 -97.5
177 75.75 -106.88
178 76.44 -353.44
179 76.44 -393.44
180 76.24 -802.16
181 76.0 -816.6
182 77.5 -824.6
183 77.41 -366.45
184 77.0 -377.6
185 77.0 -383.5
186 78.44 -121.22
187 78.64 -132.07
188 78.24 -412.47
189 79.5 -424.8
190 78.75 -471.13
191 79.41 -457.82
192 79.81 -787.38
193 80.62 -758.59
194 81.24 -310.37
195 81.39 -324.44
196 81.44 -698.33
197 81.0 -712.2
198 81.0 -722.2
199 81.0 -732.2
200 82.75 -486.72
201 82.41 -741.55
202 83.17 -749.67
203 82.44 -836.28
204 83.62 -338.18
205 83.86 -446.79
206 83.24 -667.47
207 83.0 -681.9
208 84.17 -689.0
209 83.86 -775.21
210 84.24 -258.37
211 84.0 -272.8
212 84.0 -282.8
213 84.0 -292.8
214 85.5 -300.5
215 84.41 -434.45
216 85.24 -38.42
217 85.0 -52.8
218 85.0 -62.8
219 85.0 -72.8
220 85.0 -82.8
221 85.0 -92.8
222 85.0 -102.8
223 85.75 -112.25
224 86.44 -396.67
225 86.24 -805.58
226 86.0 -820.0
227 87.5 -828.0
228 87.24 -356.47
229 87.0 -370.9
230 87.0 -380.9
231 87.0 -387.0
232 88.0 -125.63
233 88.24 -415.79
234 89.5 -428.2
235 88.75 -474.5
236 89.41 -461.27
237 89.81 -790.92
238 90.62 -762.24
239 91.44 -313.56
240 91.0 -327.4
241 91.24 -702.47
242 91.0 -716.9
243 91.0 -726.9
244 92.44 -491.64
245 92.24 -741.89
246 93.17 -753.33
247 92.32 -837.05
248 93.75 -341.38
249 93.86 -450.43
250 93.44 -660.89
251 93.0 -674.7
252 93.0 -684.7
253 93.0 -691.75
254 93.86 -779.07
255 94.44 -251.67
256 94.0 -265.5
257 94.0 -275.5
258 94.0 -285.5
259 94.0 -295.5
260 94.5 -303.2
261 94.41 -438.18
262 95.44 -33.67
263 95.0 -47.4
264 95.0 -57.4
265 95.0 -67.4
266 95.0 -77.4
267 95.0 -87.4
268 95.0 -97.4
269 95.0 -107.4
270 95.28 -116.39
271 96.44 -400.5
272 96.24 -809.68
273 96.0 -824.1
274 97.5 -832.4
275 97.44 -359.89
276 97.0 -373.7
277 97.0 -383.7
278 95.83 -389.67
279 93.5 -125.5
280 98.24 -419.68
281 99.5 -432.2
282 98.75 -478.38
283 99.41 -465.18
284 99.81 -795.38
285 100.62 -766.82
286 101.24 -317.89
287 101.39 -332.0
288 101.24 -707.11
289 101.0 -721.5
290 101.0 -731.5
291 102.24 -496.21
292 102.44 -746.22
293 102.0 -757.0
294 102.29 -836.07
295 103.75 -345.38
296 103.86 -454.43
297 103.24 -656.11
298 103.0 -670.5
299 103.0 -680.5
300 103.0 -690.5
301 104.17 -697.67
302 103.86 -783.93
303 104.44 -245.67
304 104.0 -259.5
305 104.0 -269.5
306 104.0 -279.5
307 104.0 -289.5
308 104.0 -299.5
309 104.5 -307.2
310 104.41 -442.18
311 105.44 -29.67
312 105.0 -43.4
313 105.0 -53.4
314 105.0 -63.4
315 105.0 -73.4
316 105.0 -83.4
317 105.0 -93.4
318 105.0 -103.25
319 102.94 -111.39
320 106.44 -404.5
321 106.44 -814.22
322 106.5 -827.25
323 107.44 -363.89
324 107.0 -377.7
325 107.0 -387.7
326 105.83 -393.67
327 108.24 -423.79
328 109.5 -436.4
329 108.75 -482.5
330 109.41 -469.27
331 109.81 -800.38
332 110.62 -771.82
333 111.24 -322.0
334 111.39 -336.11
335 111.24 -712.21
336 111.0 -726.6
337 111.0 -736.6
338 112.0 -500.7
339 112.44 -751.33
340 112.0 -762.25
341 112.0 -832.42
342 113.75 -349.63
343 113.86 -458.64
344 113.24 -651.32
345 113.0 -665.7
346 113.0 -675.7
347 113.0 -685.7
348 113.0 -695.7
349 114.17 -703.0
350 113.86 -789.21
351 114.44 -239.89
352 114.0 -253.7
353 114.0 -263.7
354 114.0 -273.7
355 114.0 -283.7
356 114.0 -293.7
357 114.0 -303.7
358 114.5 -311.4
359 114.41 -446.36
360 115.62 -25.71
361 115.0 -38.8
362 115.0 -48.8
363 115.0 -58.8
364 115.0 -68.8
365 115.0 -78.8
366 115.0 -88.8
367 114.19 -97.73
368 116.44 -408.78
369 116.44 -819.56
370 117.24 -368.68
371 117.0 -383.1
372 117.0 -393.1
373 117.0 -399.5
374 118.24 -428.11
375 119.5 -440.8
376 118.75 -486.88
377 119.41 -473.73
378 119.81 -806.08
379 120.62 -777.53
380 121.44 -326.22
381 121.0 -340.0
382 120.79 -506.47
383 121.44 -717.44
384 121.0 -731.2
385 121.0 -741.2
386 122.41 -750.82
387 122.0 -761.8
388 123.17 -769.0
389 122.29 -826.93
390 123.75 -354.25
391 123.86 -463.29
392 123.44 -646.67
393 123.0 -660.4
394 123.0 -670.4
395 123.0 -680.4
396 123.0 -690.4
397 123.0 -700.4
398 123.0 -707.5
399 123.86 -794.93
400 124.24 -235.0
401 124.0 -249.4
402 124.0 -259.4
403 124.0 -269.4
404 124.0 -279.4
405 124.0 -289.4
406 124.0 -299.4
407 124.0 -309.4
408 125.5 -317.0
409 124.41 -451.09
410 125.44 -22.89
411 125.0 -36.6
412 125.0 -46.6
413 125.0 -56.6
414 125.0 -66.6
415 125.0 -76.6
416 125.0 -86.3
417 121.3 -93.1
418 126.44 -413.5
419 127.44 -372.89
420 127.0 -386.7
421 127.0 -396.7
422 125.83 -402.67
423 128.24 -432.79
424 129.5 -445.4
425 128.24 -492.79
426 129.41 -478.27
427 129.24 -814.58
428 130.62 -783.47
429 131.24 -331.11
430 131.39 -345.22
431 131.24 -509.97
432 131.44 -723.56
433 131.0 -737.3
434 132.41 -746.91
435 132.0 -757.9
436 132.0 -767.9
437 133.17 -775.33
438 133.75 -358.88
439 133.86 -467.93
440 133.44 -642.78
441 133.0 -656.5
442 133.0 -666.5
443 133.0 -676.5
444 133.0 -686.5
445 133.0 -696.5
446 133.0 -706.5
447 133.0 -713.5
448 133.86 -801.07
449 132.83 -820.0
450 134.44 -229.22
451 134.0 -243.0
452 134.0 -253.0
453 134.0 -263.0
454 134.0 -273.0
455 134.0 -283.0
456 134.0 -293.0
457 134.0 -303.0
458 134.0 -313.0
459 134.5 -320.8
460 134.41 -455.73
461 135.44 -20.11
462 135.0 -33.8
463 135.0 -43.8
464 135.0 -53.8
465 135.0 -63.8
466 135.0 -73.8
467 134.33 -83.38
468 136.44 -418.22
469 137.24 -378.11
470 137.0 -392.5
471 137.0 -402.5
472 137.0 -408.5
473 138.44 -437.22
474 138.67 -449.33
475 138.62 -496.82
476 139.41 -483.18
477 140.62 -789.76
478 141.24 -336.11
479 141.39 -350.22
480 141.24 -514.68
481 141.44 -729.78
482 141.0 -813.9
483 142.41 -743.27
484 142.0 -754.2
485 142.0 -764.2
486 142.0 -774.2
487 143.17 -781.67
488 143.75 -363.88
489 143.86 -472.93
490 143.62 -638.71
491 143.0 -651.8
492 143.0 -661.8
493 143.0 -671.8
494 143.0 -681.8
495 143.0 -691.8
496 143.0 -701.8
497 143.0 -711.8
498 142.5 -719.0
499 143.67 -805.83
500 144.44 -224.22
501 144.0 -238.0
502 144.0 -248.0
503 144.0 -258.0
504 144.0 -268.0
505 144.0 -278.0
506 144.0 -288.0
507 144.0 -298.0
508 144.0 -308.0
509 144.0 -318.0
510 144.5 -325.8
511 144.41 -460.73
512 145.83 -16.67
513 145.0 -28.5
514 145.0 -38.5
515 145.0 -48.5
516 145.0 -58.5
517 145.0 -68.5
518 144.17 -79.63
519 146.44 -423.33
520 147.24 -383.32
521 147.0 -397.7
522 147.0 -407.7
523 147.0 -414.0
524 148.44 -442.44
525 148.67 -454.67
526 148.62 -502.06
527 149.41 -488.55
528 150.62 -796.65
529 151.24 -341.53
530 151.39 -355.67
531 151.75 -519.03
532 152.75 -735.63
533 152.0 -748.1
534 152.0 -758.1
535 152.0 -768.1
536 152.0 -778.1
537 151.33 -785.67
538 153.75 -369.38
539 153.86 -478.43
540 153.62 -635.71
541 153.0 -648.8
542 153.0 -658.8
543 153.0 -668.8
544 153.0 -678.8
545 153.0 -688.8
546 153.0 -698.8
547 153.0 -708.8
548 153.0 -718.8
549 151.5 -724.75
550 153.5 -806.88
551 154.24 -220.11
552 154.0 -234.5
553 154.0 -244.5
554 154.0 -254.5
555 154.0 -264.5
556 154.0 -274.5
557 154.0 -284.5
558 154.0 -294.5
559 154.0 -304.5
560 154.0 -314.5
561 154.0 -324.5
562 155.5 -332.25
563 154.41 -466.18
564 155.81 -13.85
565 155.0 -24.7
566 155.0 -34.7
567 155.0 -44.7
568 155.0 -54.7
569 155.0 -64.7
570 155.0 -74.7
571 153.5 -81.5
572 156.44 -428.72
573 157.44 -388.22
574 157.0 -402.0
575 157.0 -412.0
576 155.83 -418.0
577 158.24 -448.21
578 159.5 -461.0
579 158.62 -507.41
580 159.41 -493.82
581 161.44 -346.44
582 161.0 -360.2
583 161.86 -523.29
584 162.75 -742.63
585 162.0 -755.1
586 162.0 -765.1
587 162.0 -775.1
588 162.0 -785.1
589 162.0 -794.65
590 158.9 -801.0
591 163.75 -374.75
592 163.86 -483.79
593 163.62 -632.82
594 163.0 -645.9
595 163.0 -655.9
596 163.0 -665.9
597 163.0 -675.9
598 163.0 -685.9
599 163.0 -695.9
600 163.0 -705.9
601 163.0 -715.9
602 163.0 -725.9
603 161.5 -732.0
604 164.24 -215.53
605 164.0 -229.9
606 164.0 -239.9
607 164.0 -249.9
608 164.0 -259.9
609 164.0 -269.9
610 164.0 -279.9
611 164.0 -289.9
612 164.0 -299.9
613 164.0 -309.9
614 164.0 -319.9
615 164.0 -329.9
616 165.5 -337.75
617 164.41 -471.64
618 165.86 -13.29
619 165.0 -24.6
620 165.0 -34.6
621 165.0 -44.6
622 165.0 -54.6
623 165.0 -64.6
624 165.0 -74.6
625 165.0 -82.95
626 166.44 -434.22
627 167.24 -394.21
628 167.0 -408.6
629 167.0 -418.6
630 167.0 -425.0
631 168.44 -453.33
632 168.67 -465.5
633 168.62 -512.94
634 169.41 -499.45
635 171.24 -352.42
636 171.39 -366.56
637 171.41 -526.95
638 171.13 -958.11
639 172.24 -751.05
640 172.0 -765.4
641 172.0 -775.4
642 172.0 -785.4
643 171.59 -793.73
644 171.93 -972.68
645 173.75 -380.31
646 173.86 -489.36
647 173.75 -629.63
648 173.0 -642.1
649 173.0 -652.1
650 173.0 -662.1
651 173.0 -672.1
652 173.0 -682.1
653 173.0 -692.1
654 173.0 -702.1
655 173.0 -712.1
656 173.0 -722.1
657 173.0 -732.1
658 171.5 -738.6
659 173.41 -945.18
660 174.62 -210.24
661 174.0 -223.4
662 174.0 -233.4
663 174.0 -243.4
664 174.0 -253.4
665 174.0 -263.4
666 174.0 -273.4
667 174.0 -283.4
668 174.0 -293.4
669 174.0 -303.4
670 174.0 -313.4
671 174.0 -323.4
672 174.0 -333.4
673 174.0 -341.33
674 174.41 -477.09
675 175.0 -10.0
676 175.0 -20.0
677 175.0 -30.0
678 175.0 -40.0
679 175.0 -50.0
680 175.0 -60.0
681 175.0 -70.0
682 175.0 -83.05
683 176.44 -439.83
684 177.44 -399.33
685 177.0 -413.1
686 177.0 -423.1
687 175.83 -429.0
688 177.77 -934.87
689 178.24 -459.32
690 179.5 -472.2
691 178.62 -518.53
692 178.79 -981.21
693 179.0 -504.6
694 179.92 -358.0
695 179.5 -371.14
696 181.81 -530.31
697 181.44 -958.35
698 182.62 -757.94
699 182.0 -771.0
700 182.0 -781.0
701 181.19 -789.23
702 182.86 -925.0
703 182.2 -384.6
704 183.58 -493.23
705 183.44 -628.11
706 183.0 -641.8
707 183.0 -651.8
708 183.0 -661.8
709 183.0 -671.8
710 183.0 -681.8
711 183.0 -691.8
712 183.0 -701.8
713 183.0 -711.8
714 183.0 -721.8
715 183.0 -731.8
716 183.0 -741.8
717 181.83 -747.67
718 184.44 -206.33
719 184.0 -220.1
720 184.0 -230.1
721 184.0 -240.1
722 184.0 -250.1
723 184.0 -260.1
724 184.0 -270.1
725 184.0 -280.1
726 184.0 -290.1
727 184.0 -300.1
728 184.0 -310.05
729 183.5 -319.39
730 182.0 -329.25
731 181.5 -338.5
732 180.0 -344.0
733 184.41 -482.64
734 185.0 -10.5
735 185.0 -20.5
736 185.0 -30.5
737 185.0 -40.5
738 185.0 -50.5
739 185.0 -60.5
740 185.0 -70.5
741 185.0 -83.63
742 186.12 -971.54
743 186.44 -442.11
744 186.79 -946.57
745 186.63 -403.31
746 187.0 -417.0
747 187.0 -427.0
748 187.0 -437.0
749 187.79 -914.93
750 188.63 -934.5
751 187.15 -990.06
752 188.3 -458.47
753 188.0 -471.0
754 188.44 -516.11
755 190.0 -501.4
756 191.9 -981.0
757 191.43 -531.5
758 192.25 -959.5
759 192.24 -766.37
760 192.0 -780.7
761 191.59 -787.14
762 193.83 -624.53
763 193.0 -636.4
764 193.0 -646.4
765 193.0 -656.4
766 193.0 -666.4
767 193.0 -676.4
768 193.0 -686.4
769 193.0 -696.4
770 193.0 -706.4
771 193.0 -716.4
772 193.0 -726.4
773 193.0 -736.4
774 193.0 -746.4
775 191.67 -753.33
776 193.7 -905.13
777 194.5 -925.83
778 194.24 -202.53
779 194.0 -216.9
780 194.0 -226.9
781 194.0 -236.9
782 194.0 -246.9
783 194.0 -256.9
784 194.0 -266.9
785 194.0 -276.9
786 194.0 -286.8
787 193.0 -295.38
788 190.25 -304.38
789 194.24 -484.79
790 195.0 -11.9
791 195.0 -21.9
792 195.0 -31.9
793 195.0 -41.9
794 195.0 -51.9
795 195.0 -61.9
796 195.0 -71.9
797 194.56 -84.31
798 197.25 -971.42
799 194.5 -417.8
800 197.0 -427.9
801 197.0 -437.9
802 197.0 -447.9
803 197.3 -941.2
804 198.07 -952.86
805 197.57 -994.73
806 198.33 -458.83
807 198.0 -469.9
808 198.22 -515.89
809 199.77 -498.93
810 199.7 -895.33
811 200.5 -916.0
812 201.14 -984.91
813 201.44 -532.36
814 202.83 -772.67
815 201.17 -783.87
816 203.25 -961.42
817 203.75 -622.88
818 203.0 -635.3
819 203.0 -645.3
820 203.0 -655.3
821 203.0 -665.3
822 203.0 -675.3
823 203.0 -685.3
824 203.0 -695.3
825 203.0 -705.3
826 203.0 -715.3
827 203.0 -725.3
828 203.0 -735.3
829 203.0 -745.3
830 203.0 -755.3
831 201.5 -761.6
832 204.0 -930.17
833 204.24 -198.42
834 204.0 -212.8
835 204.0 -222.8
836 204.0 -232.8
837 204.0 -242.8
838 204.0 -252.8
839 204.0 -262.8
840 204.0 -272.35
841 201.17 -280.75
842 204.7 -478.47
843 205.33 -490.67
844 205.0 -14.5
845 205.0 -24.5
846 205.0 -34.5
847 205.0 -44.5
848 205.0 -54.5
849 205.0 -64.5
850 205.0 -74.5
851 205.0 -83.4
852 205.7 -885.33
853 206.5 -906.0
854 207.0 -975.17
855 205.5 -437.71
856 207.0 -446.7
857 207.3 -944.53
858 207.57 -997.83
859 208.65 -457.31
860 208.21 -468.43
861 208.24 -514.58
862 210.0 -920.0
863 210.35 -497.92
864 211.14 -988.0
865 211.26 -531.85
866 211.7 -874.93
867 212.5 -895.5
868 212.0 -781.85
869 212.5 -955.53
870 213.07 -967.29
871 214.0 -537.25
872 213.75 -621.0
873 213.0 -633.4
874 213.0 -643.4
875 213.0 -653.4
876 213.0 -663.4
877 213.0 -673.4
878 213.0 -683.4
879 213.0 -693.4
880 213.0 -703.4
881 213.0 -713.4
882 213.0 -723.4
883 213.0 -733.4
884 213.0 -743.4
885 213.0 -753.4
886 213.0 -763.4
887 211.5 -769.8
888 214.04 -933.46
889 214.24 -194.53
890 214.0 -208.9
891 214.0 -218.9
892 214.0 -228.9
893 214.0 -238.9
894 214.0 -248.9
895 214.0 -258.8
896 212.13 -266.38
897 214.19 -483.56
898 215.0 -19.1
899 215.0 -29.1
900 215.0 -39.1
901 215.0 -49.1
902 215.0 -59.1
903 215.0 -69.1
904 214.14 -80.07
905 216.04 -909.54
906 217.04 -977.62
907 217.77 -864.67
908 218.58 -885.33
909 217.5 -999.5
910 218.0 -452.5
911 218.0 -462.5
912 218.0 -472.5
913 218.44 -508.5
914 218.28 -522.78
915 219.77 -943.82
916 220.05 -922.18
917 221.0 -989.1
918 221.5 -791.17
919 222.27 -898.77
920 222.64 -855.36
921 223.7 -877.2
922 222.37 -957.93
923 223.07 -969.86
924 223.24 -492.37
925 223.03 -535.61
926 223.83 -618.67
927 223.0 -630.5
928 223.0 -640.5
929 223.0 -650.5
930 223.0 -660.5
931 223.0 -670.5
932 223.0 -680.5
933 223.0 -690.5
934 223.0 -700.5
935 223.0 -710.5
936 223.0 -720.5
937 223.0 -730.5
938 223.0 -740.5
939 223.0 -750.5
940 223.0 -760.5
941 223.0 -770.5
942 222.36 -778.57
943 224.42 -934.33
944 224.24 -190.84
945 224.0 -205.2
946 224.0 -215.2
947 224.0 -225.2
948 224.0 -235.2
949 224.0 -245.2
950 223.59 -253.86
951 225.0 -25.9
952 225.0 -35.9
953 225.0 -45.9
954 225.0 -55.9
955 225.0 -65.75
956 223.32 -75.18
957 226.5 -910.5
958 227.33 -979.58
959 227.21 -541.86
960 227.63 -845.0
961 227.62 -998.59
962 228.0 -460.6
963 228.0 -470.6
964 228.0 -480.6
965 228.83 -507.87
966 228.0 -520.6
967 230.42 -920.33
968 230.1 -800.0
969 230.68 -868.12
970 230.44 -888.39
971 230.88 -948.81
972 231.44 -829.22
973 233.4 -901.1
974 232.67 -961.67
975 233.07 -972.86
976 233.67 -988.25
977 233.83 -490.93
978 233.83 -530.93
979 233.24 -618.58
980 233.0 -632.9
981 233.0 -642.9
982 233.0 -652.9
983 233.0 -662.9
984 233.0 -672.9
985 233.0 -682.9
986 233.0 -692.9
987 233.0 -702.9
988 233.0 -712.9
989 233.0 -722.9
990 233.0 -732.9
991 233.0 -742.9
992 233.0 -752.9
993 233.0 -762.9
994 233.0 -772.9
995 233.0 -782.9
996 234.5 -791.25
997 233.67 -815.42
998 234.8 -856.7
999 233.81 -936.08
1000 234.62 -186.47
1001 234.0 -199.6
1002 234.0 -209.6
1003 234.0 -219.6
1004 234.0 -229.6
1005 234.0 -239.6
1006 233.19 -248.0
1007 232.5 -34.6
1008 233.5 -44.64
1009 233.36 -54.5
1010 231.67 -64.5
1011 237.86 -541.82
1012 237.86 -846.14
1013 237.83 -998.1
1014 238.0 -466.5
1015 238.0 -476.5
1016 238.83 -503.6
1017 238.0 -516.5
1018 239.44 -917.56
1019 239.5 -930.75
1020 240.62 -807.18
1021 240.24 -877.79
1022 240.39 -892.0
1023 241.41 -833.73
1024 242.67 -904.33
1025 242.67 -954.33
1026 242.0 -964.8
1027 242.0 -974.8
1028 242.0 -984.8
1029 243.83 -485.67
1030 243.83 -525.67
1031 243.81 -614.85
1032 243.0 -625.7
1033 243.0 -635.7
1034 243.0 -645.7
1035 243.0 -655.7
1036 243.0 -665.7
1037 243.0 -675.7
1038 243.0 -685.7
1039 243.0 -695.7
1040 243.0 -705.7
1041 243.0 -715.7
1042 243.0 -725.7
1043 243.0 -735.7
1044 243.0 -745.7
1045 243.0 -755.7
1046 243.0 -765.7
1047 243.0 -775.7
1048 243.0 -785.7
1049 243.0 -795.7
1050 243.67 -824.25
1051 243.81 -864.85
1052 243.41 -943.55
1053 244.44 -183.78
1054 244.0 -197.5
1055 244.0 -207.5
1056 244.0 -217.5
1057 244.0 -227.5
1058 244.0 -237.5
1059 243.33 -244.58
1060 247.5 -541.33
1061 247.75 -846.56
1062 247.21 -858.14
1063 247.11 -996.28
1064 248.0 -470.5
1065 248.83 -497.47
1066 248.0 -510.5
1067 249.62 -917.35
1068 249.0 -931.1
1069 250.07 -940.71
1070 250.0 -812.0
1071 250.0 -882.0
1072 250.0 -892.0
1073 252.0 -902.0
1074 252.0 -962.0
1075 252.0 -972.0
1076 252.0 -982.0
1077 253.83 -478.73
1078 253.83 -518.73
1079 253.0 -612.0
1080 253.0 -622.0
1081 253.0 -632.0
1082 253.0 -642.0
1083 253.0 -652.0
1084 253.0 -662.0
1085 253.0 -672.0
1086 253.0 -682.0
1087 253.0 -692.0
1088 253.0 -702.0
1089 253.0 -712.0
1090 253.0 -722.0
1091 253.0 -732.0
1092 253.0 -742.0
1093 253.0 -752.0
1094 253.0 -762.0
1095 253.0 -772.0
1096 253.0 -782.0
1097 253.0 -792.0
1098 253.0 -802.0
1099 253.0 -822.0
1100 253.0 -832.0
1101 253.0 -872.0
1102 253.0 -952.0
1103 254.44 -180.89
1104 254.0 -194.6
1105 254.0 -204.6
1106 254.0 -214.6
1107 254.0 -224.6
1108 254.0 -234.6
1109 253.33 -241.67
1110 257.86 -529.86
1111 257.0 -545.58
1112 257.0 -842.0
1113 257.0 -852.0
1114 257.0 -862.0
1115 257.0 -995.15
1116 258.83 -489.47
1117 258.0 -502.7
1118 259.67 -910.67
1119 259.0 -922.2
1120 259.0 -932.2
1121 259.0 -942.2
1122 260.81 -810.15
1123 260.81 -880.15
1124 260.0 -892.3
1125 262.6 -900.5
1126 262.83 -959.33
1127 262.0 -972.5
1128 262.0 -982.5
1129 263.0 -473.0
1130 263.0 -513.0
1131 263.0 -612.6
1132 263.0 -622.6
1133 263.0 -632.6
1134 263.0 -642.6
1135 263.0 -652.6
1136 263.0 -662.6
1137 263.0 -672.6
1138 263.0 -682.6
1139 263.0 -692.6
1140 263.0 -702.6
1141 263.0 -712.6
1142 263.0 -722.6
1143 263.0 -732.6
1144 263.0 -742.6
1145 263.0 -752.6
1146 263.0 -762.6
1147 263.0 -772.6
1148 263.0 -782.6
1149 263.0 -792.6
1150 262.79 -802.43
1151 263.81 -820.38
1152 263.0 -832.6
1153 263.81 -868.08
1154 263.5 -948.11
1155 264.44 -178.11
1156 264.0 -191.8
1157 264.0 -201.8
1158 264.0 -211.8
1159 264.0 -221.8
1160 264.0 -231.8
1161 263.33 -239.5
1162 267.0 -523.0
1163 267.0 -533.0
1164 267.0 -546.23
1165 267.0 -843.0
1166 267.0 -853.0
1167 267.0 -992.55
1168 268.0 -483.0
1169 268.0 -493.0
1170 268.0 -503.0
1171 269.67 -911.67
1172 269.0 -923.2
1173 269.0 -933.2
1174 270.81 -881.15
1175 272.67 -891.92
1176 271.75 -903.38
1177 272.83 -960.33
1178 272.0 -973.5
1179 272.86 -985.89
1180 273.67 -474.33
1181 273.67 -514.33
1182 273.0 -613.6
1183 273.0 -623.6
1184 273.0 -633.6
1185 273.0 -643.6
1186 273.0 -653.6
1187 273.0 -663.6
1188 273.0 -673.6
1189 273.0 -683.6
1190 273.0 -693.6
1191 273.0 -703.6
1192 273.0 -713.6
1193 273.0 -723.6
1194 273.0 -733.6
1195 273.0 -743.6
1196 273.0 -753.6
1197 273.0 -763.6
1198 273.0 -773.6
1199 273.0 -783.6
1200 273.0 -793.6
1201 273.0 -803.6
1202 273.0 -813.6
1203 273.0 -823.6
1204 273.0 -833.6
1205 273.75 -860.0
1206 272.79 -873.43
1207 273.86 -940.86
1208 271.5 -953.2
1209 274.75 -174.88
1210 274.0 -187.3
1211 274.0 -197.3
1212 274.0 -207.3
1213 274.0 -217.3
1214 274.0 -227.3
1215 273.14 -237.29
1216 277.86 -526.43
1217 277.0 -538.3
1218 276.14 -547.86
1219 277.86 -841.71
1220 278.86 -988.59
1221 278.83 -486.6
1222 278.0 -499.1
1223 278.25 -508.38
1224 279.75 -911.13
1225 279.0 -924.7
1226 282.24 -880.63
1227 282.0 -895.3
1228 283.5 -905.5
1229 282.24 -960.63
1230 282.0 -975.3
1231 283.83 -473.87
1232 283.0 -615.5
1233 283.0 -625.5
1234 283.0 -635.5
1235 283.0 -645.5
1236 283.0 -655.5
1237 283.0 -665.5
1238 283.0 -675.5
1239 283.0 -685.5
1240 283.0 -695.5
1241 283.0 -705.5
1242 283.0 -715.5
1243 283.0 -725.5
1244 283.0 -735.5
1245 283.0 -745.5
1246 283.0 -755.5
1247 283.0 -765.5
1248 283.0 -775.5
1249 283.0 -785.5
1250 283.0 -795.5
1251 283.0 -805.5
1252 283.0 -815.5
1253 283.0 -825.5
1254 283.83 -852.33
1255 283.0 -865.5
1256 283.86 -932.79
1257 283.0 -945.5
1258 284.62 -173.06
1259 284.0 -186.1
1260 284.0 -196.1
1261 284.0 -206.1
1262 284.0 -216.1
1263 284.0 -226.1
1264 283.59 -236.36
1265 285.7 -242.95
1266 287.44 -523.78
1267 287.0 -537.5
1268 286.33 -547.54
1269 287.86 -833.64
1270 288.5 -846.6
1271 287.11 -984.22
1272 288.24 -493.74
1273 288.0 -508.1
1274 288.0 -514.0
1275 289.75 -913.13
1276 292.24 -872.63
1277 292.0 -887.3
1278 292.0 -897.3
1279 293.5 -907.5
1280 292.24 -952.63
1281 292.0 -967.3
1282 293.44 -471.33
1283 293.64 -484.0
1284 293.0 -617.6
1285 293.0 -627.6
1286 293.0 -637.6
1287 293.0 -647.6
1288 293.0 -657.6
1289 293.0 -667.6
1290 293.0 -677.6
1291 293.0 -687.6
1292 293.0 -697.6
1293 293.0 -707.6
1294 293.0 -717.6
1295 293.0 -727.6
1296 293.0 -737.6
1297 293.0 -747.6
1298 293.0 -757.6
1299 293.0 -767.6
1300 293.0 -777.6
1301 293.0 -787.6
1302 293.0 -797.6
1303 293.0 -807.6
1304 293.0 -817.6
1305 293.83 -854.47
1306 293.86 -924.93
1307 293.0 -937.6
1308 294.62 -171.06
1309 294.0 -184.1
1310 294.0 -194.1
1311 294.0 -204.1
1312 294.0 -214.1
1313 294.0 -224.1
1314 294.0 -234.1
1315 294.73 -243.58
1316 295.0 -550.25
1317 297.62 -528.76
1318 297.21 -540.57
1319 297.86 -825.86
1320 297.0 -838.5
1321 298.5 -848.8
1322 297.33 -979.06
1323 298.44 -498.67
1324 298.0 -512.5
1325 296.83 -518.67
1326 302.75 -866.38
1327 302.0 -879.9
1328 302.0 -889.9
1329 302.0 -899.9
1330 302.0 -909.9
1331 302.75 -946.38
1332 302.0 -959.9
1333 303.44 -465.44
1334 303.0 -479.3
1335 303.64 -488.0
1336 303.0 -620.1
1337 303.0 -630.1
1338 303.0 -640.1
1339 303.0 -650.1
1340 303.0 -660.1
1341 303.0 -670.1
1342 303.0 -680.1
1343 303.0 -690.1
1344 303.0 -700.1
1345 303.0 -710.1
1346 303.0 -720.1
1347 303.0 -730.1
1348 303.0 -740.1
1349 303.0 -750.1
1350 303.0 -760.1
1351 303.0 -770.1
1352 303.0 -780.1
1353 303.0 -790.1
1354 303.0 -800.1
1355 303.0 -810.1
1356 303.6 -854.2
1357 303.41 -919.27
1358 303.0 -930.1
1359 301.5 -939.5
1360 304.75 -169.0
1361 304.0 -181.4
1362 304.0 -191.4
1363 304.0 -201.4
1364 304.0 -211.4
1365 304.0 -221.4
1366 304.0 -231.4
1367 304.24 -249.11
1368 304.7 -237.2
1369 305.86 -550.82
1370 307.24 -533.05
1371 308.17 -544.33
1372 307.86 -818.71
1373 307.0 -831.3
1374 307.0 -841.3
1375 308.17 -971.21
1376 304.0 -979.5
1377 308.24 -502.26
1378 308.0 -516.7
1379 308.0 -522.5
1380 312.24 -868.05
1381 312.0 -882.7
1382 312.0 -892.7
1383 312.0 -902.7
1384 312.24 -948.05
1385 313.44 -457.44
1386 313.0 -471.4
1387 313.0 -481.4
1388 313.64 -489.86
1389 313.0 -623.0
1390 313.0 -633.0
1391 313.0 -643.0
1392 313.0 -653.0
1393 313.0 -663.0
1394 313.0 -673.0
1395 313.0 -683.0
1396 313.0 -693.0
1397 313.0 -703.0
1398 313.0 -713.0
1399 313.0 -723.0
1400 313.0 -733.0
1401 313.0 -743.0
1402 313.0 -753.0
1403 313.0 -763.0
1404 313.0 -773.0
1405 313.0 -783.0
1406 313.0 -793.0
1407 313.0 -803.0
1408 313.75 -849.44
1409 313.41 -912.18
1410 313.0 -923.0
1411 313.0 -933.0
1412 314.86 -166.29
1413 314.0 -177.6
1414 314.0 -187.6
1415 314.0 -197.6
1416 314.0 -207.6
1417 314.0 -217.6
1418 314.0 -227.6
1419 314.24 -257.03
1420 315.41 -238.0
1421 313.67 -245.5
1422 315.86 -551.89
1423 317.24 -534.0
1424 318.17 -545.0
1425 317.86 -811.64
1426 317.0 -824.2
1427 317.0 -834.2
1428 318.0 -963.65
1429 314.0 -972.75
1430 318.0 -503.44
1431 318.0 -517.4
1432 318.0 -523.0
1433 322.24 -861.16
1434 322.0 -875.8
1435 322.0 -885.8
1436 322.0 -895.8
1437 322.24 -941.16
1438 323.06 -448.56
1439 323.0 -462.5
1440 323.0 -472.5
1441 323.0 -482.5
1442 324.07 -491.0
1443 323.0 -626.1
1444 323.0 -636.1
1445 323.0 -646.1
1446 323.0 -656.1
1447 323.0 -666.1
1448 323.0 -676.1
1449 323.0 -686.1
1450 323.0 -696.1
1451 323.0 -706.1
1452 323.0 -716.1
1453 323.0 -726.1
1454 323.0 -736.1
1455 323.0 -746.1
1456 323.0 -756.1
1457 323.0 -766.1
1458 323.0 -776.1
1459 323.0 -786.1
1460 323.0 -796.1
1461 323.75 -842.56
1462 323.41 -905.27
1463 323.0 -916.1
1464 323.0 -926.1
1465 324.62 -166.29
1466 324.0 -179.3
1467 324.0 -189.3
1468 324.0 -199.3
1469 324.0 -209.3
1470 324.0 -219.3
1471 324.0 -229.3
1472 324.24 -266.29
1473 325.41 -239.45
1474 325.0 -250.2
1475 323.83 -256.0
1476 325.5 -551.83
1477 327.11 -534.0
1478 328.5 -547.0
1479 327.86 -804.71
1480 327.0 -817.3
1481 327.0 -827.3
1482 327.02 -956.81
1483 328.15 -502.82
1484 328.0 -516.4
1485 329.0 -523.75
1486 331.38 -438.24
1487 332.45 -276.68
1488 332.24 -854.16
1489 332.0 -868.8
1490 332.0 -878.8
1491 332.0 -888.8
1492 332.24 -934.16
1493 333.15 -455.53
1494 333.0 -469.0
1495 333.0 -479.0
1496 333.39 -488.56
1497 333.0 -629.2
1498 333.0 -639.2
1499 333.0 -649.2
1500 333.0 -659.2
1501 333.0 -669.2
1502 333.0 -679.2
1503 333.0 -689.2
1504 333.0 -699.2
1505 333.0 -709.2
1506 333.0 -719.2
1507 333.0 -729.2
1508 333.0 -739.2
1509 333.0 -749.2
1510 333.0 -759.2
1511 333.0 -769.2
1512 333.0 -779.2
1513 333.0 -789.2
1514 333.75 -835.69
1515 333.41 -898.45
1516 333.0 -909.2
1517 333.0 -919.2
1518 334.24 -165.79
1519 334.0 -180.1
1520 334.0 -190.1
1521 334.0 -200.1
1522 334.0 -210.1
1523 334.0 -220.1
1524 334.0 -230.1
1525 335.41 -241.73
1526 335.0 -251.9
1527 335.0 -261.9
1528 336.21 -553.14
1529 337.5 -427.0
1530 336.97 -538.35
1531 337.86 -797.79
1532 337.0 -810.4
1533 337.0 -820.4
1534 336.77 -946.97
1535 338.68 -286.85
1536 338.57 -497.8
1537 338.0 -510.5
1538 338.0 -520.5
1539 338.7 -528.6
1540 341.83 -440.8
1541 343.12 -273.23
1542 342.71 -416.71
1543 342.75 -848.38
1544 342.0 -861.9
1545 342.0 -871.9
1546 342.0 -881.9
1547 342.87 -930.05
1548 343.69 -296.97
1549 343.26 -457.53
1550 343.0 -471.0
1551 343.0 -481.0
1552 344.33 -490.5
1553 343.0 -632.2
1554 343.0 -642.2
1555 343.0 -652.2
1556 343.0 -662.2
1557 343.0 -672.2
1558 343.0 -682.2
1559 343.0 -692.2
1560 343.0 -702.2
1561 343.0 -712.2
1562 343.0 -722.2
1563 343.0 -732.2
1564 343.0 -742.2
1565 343.0 -752.2
1566 343.0 -762.2
1567 343.0 -772.2
1568 343.0 -782.2
1569 343.75 -828.69
1570 341.5 -841.75
1571 343.41 -891.45
1572 343.0 -902.2
1573 343.0 -912.2
1574 341.5 -921.75
1575 344.0 -160.0
1576 344.0 -170.0
1577 344.0 -180.0
1578 344.0 -190.0
1579 344.0 -200.0
1580 344.0 -210.0
1581 344.0 -220.0
1582 344.0 -230.0
1583 345.0 -240.0
1584 345.0 -250.0
1585 345.0 -260.0
1586 346.86 -406.0
1587 346.37 -549.13
1588 347.63 -307.27
1589 347.86 -790.79
1590 347.0 -803.4
1591 347.0 -813.4
1592 348.44 -503.53
1593 348.0 -517.0
1594 348.0 -527.0
1595 347.64 -536.0
1596 350.3 -553.5
1597 349.81 -393.38
1598 349.88 -426.19
1599 350.5 -317.54
1600 351.0 -440.3
1601 352.62 -273.29
1602 352.0 -286.3
1603 352.35 -328.15
1604 352.5 -381.86
1605 352.75 -851.38
1606 352.0 -864.9
1607 352.0 -874.9
1608 349.75 -926.5
1609 353.94 -295.89
1610 353.24 -454.21
1611 353.0 -468.8
1612 353.0 -478.8
1613 353.0 -488.8
1614 353.0 -635.1
1615 353.0 -645.1
1616 353.0 -655.1
1617 353.0 -665.1
1618 353.0 -675.1
1619 353.0 -685.1
1620 353.0 -695.1
1621 353.0 -705.1
1622 353.0 -715.1
1623 353.0 -725.1
1624 353.0 -735.1
1625 353.0 -745.1
1626 353.0 -755.1
1627 353.0 -765.1
1628 353.0 -775.1
1629 353.75 -821.56
1630 353.0 -835.1
1631 351.5 -844.5
1632 353.41 -884.27
1633 353.0 -895.1
1634 353.0 -905.1
1635 353.17 -915.96
1636 354.24 -163.79
1637 354.0 -178.1
1638 354.0 -188.1
1639 354.0 -198.1
1640 354.0 -208.1
1641 354.0 -218.1
1642 354.0 -228.1
1643 354.0 -238.1
1644 354.24 -343.79
1645 354.0 -358.1
1646 354.0 -368.1
1647 355.17 -376.0
1648 355.0 -249.0
1649 355.0 -259.0
1650 356.0 -409.0
1651 357.86 -783.71
1652 357.0 -796.3
1653 357.0 -806.3
1654 358.0 -499.0
1655 358.0 -509.0
1656 358.0 -519.0
1657 358.0 -529.0
1658 358.0 -539.0
1659 358.0 -552.52
1660 359.0 -399.0
1661 359.0 -419.0
1662 359.0 -429.0
1663 360.41 -309.73
1664 361.67 -440.33
1665 362.81 -270.85
1666 362.0 -281.7
1667 362.67 -321.08
1668 362.0 -331.7
1669 362.81 -390.85
1670 362.24 -853.05
1671 362.0 -867.7
1672 363.41 -292.18
1673 362.83 -302.0
1674 363.67 -451.83
1675 363.0 -462.6
1676 363.0 -472.6
1677 363.0 -482.6
1678 363.0 -492.6
1679 363.0 -638.0
1680 363.0 -648.0
1681 363.0 -658.0
1682 363.0 -668.0
1683 363.0 -678.0
1684 363.0 -688.0
1685 363.0 -698.0
1686 363.0 -708.0
1687 363.0 -718.0
1688 363.0 -728.0
1689 363.0 -738.0
1690 363.0 -748.0
1691 363.0 -758.0
1692 363.0 -768.0
1693 363.75 -814.44
1694 363.0 -828.0
1695 363.0 -838.0
1696 363.41 -877.18
1697 363.0 -888.0
1698 363.12 -899.35
1699 359.67 -909.0
1700 364.83 -161.67
1701 364.0 -173.5
1702 364.0 -183.5
1703 364.0 -193.5
1704 364.0 -203.5
1705 364.0 -213.5
1706 364.0 -223.5
1707 364.0 -233.5
1708 364.0 -243.5
1709 364.67 -342.58
1710 364.0 -353.5
1711 364.0 -363.5
1712 364.0 -373.5
1713 363.36 -381.57
1714 365.41 -253.82
1715 364.79 -262.86
1716 366.62 -412.29
1717 367.86 -776.21
1718 367.0 -788.9
1719 367.0 -798.9
1720 368.83 -504.07
1721 368.0 -517.1
1722 368.0 -527.1
1723 368.0 -537.1
1724 368.0 -547.1
1725 367.59 -555.41
1726 369.0 -428.0
1727 371.0 -438.0
1728 372.0 -278.0
1729 372.0 -318.0
1730 372.0 -328.0
1731 372.0 -398.0
1732 372.62 -846.06
1733 372.0 -860.0
1734 373.0 -288.0
1735 373.0 -298.0
1736 373.0 -308.0
1737 373.0 -448.0
1738 373.0 -458.0
1739 373.0 -468.0
1740 373.0 -478.0
1741 373.0 -488.0
1742 373.0 -640.2
1743 373.0 -650.2
1744 373.0 -660.2
1745 373.0 -670.2
1746 373.0 -680.2
1747 373.0 -690.2
1748 373.0 -700.2
1749 373.0 -710.2
1750 373.0 -720.2
1751 373.0 -730.2
1752 373.0 -740.2
1753 373.0 -750.2
1754 373.0 -760.2
1755 373.75 -806.63
1756 373.0 -820.2
1757 373.0 -830.2
1758 371.83 -839.67
1759 373.41 -869.36
1760 373.57 -882.21
1761 370.07 -891.14
1762 374.0 -158.0
1763 374.0 -168.0
1764 374.0 -178.0
1765 374.0 -188.0
1766 374.0 -198.0
1767 374.0 -208.0
1768 374.0 -218.0
1769 374.0 -228.0
1770 374.0 -238.0
1771 374.0 -338.0
1772 374.0 -348.0
1773 374.0 -358.0
1774 374.0 -368.0
1775 374.0 -378.0
1776 374.0 -388.0
1777 375.0 -248.0
1778 375.0 -258.0
1779 375.0 -268.0
1780 376.0 -408.0
1781 376.0 -418.0
1782 377.86 -768.43
1783 377.0 -781.1
1784 377.0 -791.1
1785 378.0 -498.0
1786 378.0 -508.0
1787 378.0 -518.0
1788 378.0 -528.0
1789 378.0 -538.0
1790 378.0 -552.0
1791 379.0 -428.0
1792 381.0 -438.0
1793 382.0 -278.0
1794 382.0 -318.0
1795 382.0 -328.0
1796 382.0 -398.0
1797 382.44 -847.67
1798 383.0 -288.0
1799 383.0 -298.0
1800 383.0 -308.0
1801 383.0 -448.0
1802 383.0 -458.0
1803 383.0 -468.0
1804 383.0 -478.0
1805 383.0 -488.0
1806 383.0 -642.2
1807 383.0 -652.2
1808 383.0 -662.2
1809 383.0 -672.2
1810 383.0 -682.2
1811 383.0 -692.2
1812 383.0 -702.2
1813 383.0 -712.2
1814 383.0 -722.2
1815 383.0 -732.2
1816 383.0 -742.2
1817 383.0 -752.2
1818 383.75 -798.56
1819 383.0 -812.2
1820 383.0 -822.2
1821 383.0 -832.2
1822 383.0 -842.0
1823 383.41 -861.36
1824 382.25 -874.44
1825 384.0 -158.0
1826 384.0 -168.0
1827 384.0 -178.0
1828 384.0 -188.0
1829 384.0 -198.0
1830 384.0 -208.0
1831 384.0 -218.0
1832 384.0 -228.0
1833 384.0 -238.0
1834 384.0 -338.0
1835 384.0 -348.0
1836 384.0 -358.0
1837 384.0 -368.0
1838 384.0 -378.0
1839 384.0 -388.0
1840 385.0 -248.0
1841 385.0 -258.0
1842 385.0 -268.0
1843 386.0 -408.0
1844 386.0 -418.0
1845 387.86 -759.93
1846 387.0 -772.7
1847 387.0 -782.7
1848 388.0 -498.0
1849 388.0 -508.0
1850 388.0 -518.0
1851 388.0 -528.0
1852 388.0 -538.0
1853 388.0 -552.0
1854 389.0 -428.0
1855 391.0 -438.0
1856 392.0 -278.0
1857 392.0 -318.0
1858 392.0 -328.0
1859 392.0 -398.0
1860 393.0 -288.0
1861 393.0 -298.0
1862 393.0 -308.0
1863 393.0 -448.0
1864 393.0 -458.0
1865 393.0 -468.0
1866 393.0 -478.0
1867 393.0 -488.0
1868 393.0 -643.5
1869 393.0 -653.5
1870 393.0 -663.5
1871 393.0 -673.5
1872 393.0 -683.5
1873 393.0 -693.5
1874 393.0 -703.5
1875 393.0 -713.5
1876 393.0 -723.5
1877 393.0 -733.5
1878 393.0 -743.5
1879 393.83 -790.33
1880 393.0 -803.5
1881 393.0 -813.5
1882 393.0 -823.5
1883 393.0 -833.5
1884 393.0 -843.5
1885 393.0 -853.5
1886 392.17 -865.3
1887 394.0 -158.0
1888 394.0 -168.0
1889 394.0 -178.0
1890 394.0 -188.0
1891 394.0 -198.0
1892 394.0 -208.0
1893 394.0 -218.0
1894 394.0 -228.0
1895 394.0 -238.0
1896 394.0 -338.0
1897 394.0 -348.0
1898 394.0 -358.0
1899 394.0 -368.0
1900 394.0 -378.0
1901 394.0 -388.0
1902 395.0 -248.0
1903 395.0 -258.0
1904 395.0 -268.0
1905 396.0 -408.0
1906 396.0 -418.0
1907 397.86 -751.07
1908 397.0 -763.9
1909 397.0 -773.9
1910 398.5 -783.8
1911 398.0 -498.0
1912 398.0 -508.0
1913 398.0 -518.0
1914 398.0 -528.0
1915 398.0 -538.0
1916 398.0 -551.9
1917 399.0 -428.0
1918 401.0 -438.0
1919 402.0 -278.0
1920 402.0 -318.0
1921 402.0 -328.0
1922 402.0 -398.0
1923 403.0 -288.0
1924 403.0 -298.0
1925 403.0 -308.0
1926 403.0 -448.0
1927 403.0 -458.0
1928 403.0 -468.0
1929 403.0 -478.0
1930 403.0 -488.0
1931 403.0 -644.0
1932 403.0 -654.0
1933 403.0 -664.0
1934 403.0 -674.0
1935 403.0 -684.0
1936 403.0 -694.0
1937 403.0 -704.0
1938 403.0 -714.0
1939 403.0 -724.0
1940 403.0 -734.0
1941 403.0 -794.0
1942 403.0 -804.0
1943 403.0 -814.0
1944 403.0 -824.0
1945 403.0 -834.0
1946 403.0 -844.0
1947 403.0 -857.55
1948 404.0 -158.0
1949 404.0 -168.0
1950 404.0 -178.0
1951 404.0 -188.0
1952 404.0 -198.0
1953 404.0 -208.0
1954 404.0 -218.0
1955 404.0 -228.0
1956 404.0 -238.0
1957 404.0 -338.0
1958 404.0 -348.0
1959 404.0 -358.0
1960 404.0 -368.0
1961 404.0 -378.0
1962 404.0 -388.0
1963 405.0 -248.0
1964 405.0 -258.0
1965 405.0 -268.0
1966 406.0 -408.0
1967 406.0 -418.0
1968 407.0 -744.0
1969 407.0 -754.0
1970 407.0 -764.0
1971 407.0 -774.0
1972 407.0 -784.0
1973 408.0 -498.0
1974 408.0 -508.0
1975 408.0 -518.0
1976 408.0 -528.0
1977 408.0 -538.0
1978 408.0 -551.75
1979 409.0 -428.0
1980 411.0 -438.0
1981 412.0 -278.0
1982 412.0 -318.0
1983 412.0 -328.0
1984 412.0 -398.0
1985 413.0 -288.0
1986 413.0 -298.0
1987 413.0 -308.0
1988 413.0 -448.0
1989 413.0 -458.0
1990 413.0 -468.0
1991 413.0 -478.0
1992 413.0 -488.0
1993 413.0 -644.0
1994 413.0 -654.0
1995 413.0 -664.0
1996 413.0 -674.0
1997 413.0 -684.0
1998 413.0 -694.0
1999 413.0 -704.0
2000 413.0 -714.0
2001 413.0 -724.0
2002 413.0 -734.0
2003 413.0 -794.0
2004 413.0 -804.0
2005 413.0 -814.0
2006 413.0 -824.0
2007 413.0 -834.0
2008 413.0 -844.0
2009 412.38 -856.32
2010 414.0 -158.0
2011 414.0 -168.0
2012 414.0 -178.0
2013 414.0 -188.0
2014 414.0 -198.0
2015 414.0 -208.0
2016 414.0 -218.0
2017 414.0 -228.0
2018 414.0 -238.0
2019 414.0 -338.0
2020 414.0 -348.0
2021 414.0 -358.0
2022 414.0 -368.0
2023 414.0 -378.0
2024 414.0 -388.0
2025 415.0 -248.0
2026 415.0 -258.0
2027 415.0 -268.0
2028 416.0 -408.0
2029 416.0 -418.0
2030 417.81 -745.85
2031 417.0 -756.7
2032 417.0 -766.7
2033 417.0 -776.7
2034 417.0 -786.7
2035 418.0 -498.0
2036 418.0 -508.0
2037 418.0 -518.0
2038 418.0 -528.0
2039 418.0 -538.0
2040 418.0 -551.75
2041 419.0 -428.0
2042 421.0 -438.0
2043 422.0 -278.0
2044 422.0 -318.0
2045 422.0 -328.0
2046 422.0 -398.0
2047 423.0 -288.0
2048 423.0 -298.0
2049 423.0 -308.0
2050 423.0 -448.0
2051 423.0 -458.0
2052 423.0 -468.0
2053 423.0 -478.0
2054 423.0 -488.0
2055 423.24 -647.79
2056 423.0 -662.1
2057 423.0 -672.1
2058 423.0 -682.1
2059 423.0 -692.1
2060 423.0 -702.1
2061 423.0 -712.1
2062 423.0 -722.1
2063 423.0 -732.1
2064 424.07 -741.71
2065 423.75 -798.69
2066 423.0 -812.1
2067 423.0 -822.1
2068 423.0 -832.1
2069 423.0 -842.1
2070 423.0 -852.1
2071 423.0 -858.05
2072 424.0 -158.0
2073 424.0 -168.0
2074 424.0 -178.0
2075 424.0 -188.0
2076 424.0 -198.0
2077 424.0 -208.0
2078 424.0 -218.0
2079 424.0 -228.0
2080 424.0 -238.0
2081 424.0 -338.0
2082 424.0 -348.0
2083 424.0 -358.0
2084 424.0 -368.0
2085 424.0 -378.0
2086 424.0 -388.0
2087 425.0 -248.0
2088 425.0 -258.0
2089 425.0 -268.0
2090 426.41 -407.27
2091 426.0 -418.1
2092 427.86 -755.29
2093 427.0 -766.6
2094 427.0 -776.6
2095 427.0 -786.6
2096 428.81 -496.15
2097 428.0 -508.3
2098 428.0 -518.3
2099 428.0 -528.3
2100 428.0 -538.3
2101 428.0 -551.8
2102 429.81 -426.23
2103 431.67 -437.0
2104 432.62 -274.71
2105 432.62 -314.71
2106 432.0 -328.7
2107 432.75 -394.44
2108 433.41 -287.91
2109 433.0 -298.8
2110 431.83 -308.33
2111 433.67 -447.17
2112 433.0 -458.8
2113 433.0 -468.8
2114 433.0 -478.8
2115 433.64 -488.71
2116 433.83 -644.67
2117 433.0 -656.5
2118 433.0 -666.5
2119 433.0 -676.5
2120 433.0 -686.5
2121 433.0 -696.5
2122 433.0 -706.5
2123 433.0 -716.5
2124 433.0 -726.5
2125 433.0 -736.5
2126 433.0 -746.5
2127 433.83 -804.67
2128 433.0 -816.5
2129 433.0 -826.5
2130 433.0 -836.5
2131 433.0 -846.5
2132 432.17 -856.23
2133 434.0 -158.9
2134 434.0 -168.9
2135 434.0 -178.9
2136 434.0 -188.9
2137 434.0 -198.9
2138 434.0 -208.9
2139 434.0 -218.9
2140 434.0 -228.9
2141 434.0 -238.9
2142 434.67 -337.25
2143 434.0 -348.9
2144 434.0 -358.9
2145 434.0 -368.9
2146 434.0 -378.9
2147 435.17 -388.67
2148 435.0 -249.0
2149 435.0 -259.0
2150 436.0 -409.0
2151 437.86 -757.07
2152 437.0 -769.8
2153 437.0 -779.8
2154 437.0 -789.8
2155 438.5 -798.6
2156 438.0 -499.0
2157 438.0 -509.0
2158 438.0 -519.0
2159 438.0 -529.0
2160 438.0 -539.0
2161 438.0 -552.2
2162 439.0 -419.0
2163 441.41 -428.27
2164 442.67 -267.67
2165 442.67 -317.67
2166 442.67 -397.67
2167 443.41 -278.45
2168 443.0 -289.3
2169 443.0 -299.3
2170 442.25 -309.13
2171 443.67 -437.75
2172 443.0 -449.3
2173 443.0 -459.3
2174 443.0 -469.3
2175 443.0 -479.3
2176 443.0 -489.3
2177 443.24 -644.16
2178 443.0 -658.5
2179 443.0 -668.5
2180 443.0 -678.5
2181 443.0 -688.5
2182 443.0 -698.5
2183 443.0 -708.5
2184 443.0 -718.5
2185 443.0 -728.5
2186 443.0 -738.5
2187 444.07 -747.86
2188 443.24 -814.16
2189 443.0 -828.5
2190 443.0 -838.5
2191 443.0 -848.5
2192 442.59 -858.14
2193 444.0 -159.4
2194 444.0 -169.4
2195 444.0 -179.4
2196 444.0 -189.4
2197 444.0 -199.4
2198 444.0 -209.4
2199 444.0 -219.4
2200 444.0 -229.4
2201 444.0 -239.4
2202 444.67 -327.83
2203 444.0 -339.4
2204 444.0 -349.4
2205 444.0 -359.4
2206 444.0 -369.4
2207 444.0 -379.4
2208 443.5 -389.25
2209 445.41 -248.64
2210 444.75 -259.38
2211 446.86 -406.86
2212 447.24 -763.16
2213 447.0 -777.5
2214 447.0 -787.5
2215 447.0 -797.5
2216 448.5 -806.2
2217 448.83 -496.53
2218 448.0 -509.8
2219 448.0 -519.8
2220 448.0 -529.8
2221 448.0 -539.8
2222 448.0 -552.6
2223 450.17 -417.42
2224 450.62 -861.94
2225 453.67 -268.67
2226 453.0 -280.2
2227 453.0 -290.2
2228 453.0 -300.2
2229 453.0 -310.2
2230 453.67 -428.67
2231 453.0 -440.2
2232 453.0 -450.2
2233 453.0 -460.2
2234 453.0 -470.2
2235 453.0 -480.2
2236 453.62 -640.82
2237 453.0 -653.9
2238 453.0 -663.9
2239 453.0 -673.9
2240 453.0 -683.9
2241 453.0 -693.9
2242 453.0 -703.9
2243 453.0 -713.9
2244 453.0 -723.9
2245 453.0 -733.9
2246 453.0 -743.9
2247 453.17 -753.56
2248 453.62 -820.82
2249 453.0 -833.9
2250 453.0 -843.9
2251 453.0 -852.0
2252 454.0 -160.3
2253 454.0 -170.3
2254 454.0 -180.3
2255 454.0 -190.3
2256 454.0 -200.3
2257 454.0 -210.3
2258 454.0 -220.3
2259 454.0 -230.3
2260 454.41 -319.45
2261 454.0 -330.3
2262 454.0 -340.3
2263 454.0 -350.3
2264 454.0 -360.3
2265 454.0 -370.3
2266 454.0 -380.3
2267 454.0 -390.3
2268 455.41 -239.55
2269 455.0 -250.4
2270 454.5 -260.25
2271 456.67 -398.92
2272 457.44 -770.0
2273 457.0 -783.7
2274 457.0 -793.7
2275 457.0 -803.7
2276 457.67 -812.17
2277 458.83 -487.47
2278 458.0 -500.7
2279 458.0 -510.7
2280 458.0 -520.7
2281 458.0 -530.7
2282 458.0 -540.7
2283 458.0 -550.35
2284 459.81 -408.54
2285 459.5 -420.75
2286 460.0 -868.7
2287 463.67 -269.67
2288 463.0 -281.2
2289 463.0 -291.2
2290 463.0 -301.2
2291 463.67 -429.67
2292 463.0 -441.2
2293 463.0 -451.2
2294 463.0 -461.2
2295 463.0 -471.2
2296 463.62 -637.71
2297 463.0 -650.8
2298 463.0 -660.8
2299 463.0 -670.8
2300 463.0 -680.8
2301 463.0 -690.8
2302 463.0 -700.8
2303 463.0 -710.8
2304 463.0 -720.8
2305 463.0 -730.8
2306 463.0 -740.8
2307 463.0 -750.8
2308 463.17 -760.44
2309 463.62 -827.71
2310 463.0 -840.8
2311 463.0 -850.8
2312 463.0 -858.83
2313 464.0 -161.3
2314 464.0 -171.3
2315 464.0 -181.3
2316 464.0 -191.3
2317 464.0 -201.3
2318 464.0 -211.3
2319 464.0 -221.3
2320 464.41 -310.45
2321 464.0 -321.3
2322 464.0 -331.3
2323 464.0 -341.3
2324 464.0 -351.3
2325 464.0 -361.3
2326 464.0 -371.3
2327 464.0 -381.3
2328 465.41 -230.55
2329 465.0 -241.4
2330 465.0 -251.4
2331 464.5 -261.25
2332 466.67 -389.92
2333 467.44 -776.78
2334 467.0 -790.5
2335 467.0 -800.5
2336 467.0 -810.5
2337 467.67 -819.0
2338 468.83 -478.47
2339 468.0 -491.7
2340 468.0 -501.7
2341 468.0 -511.7
2342 468.0 -521.7
2343 468.0 -531.7
2344 467.57 -544.07
2345 469.81 -399.54
2346 469.0 -411.8
2347 469.5 -421.75
2348 469.72 -878.13
2349 471.75 -548.37
2350 473.81 -270.15
2351 473.0 -282.3
2352 473.0 -292.3
2353 473.81 -431.23
2354 473.0 -443.0
2355 473.0 -453.0
2356 473.0 -463.0
2357 473.44 -634.78
2358 473.0 -648.5
2359 473.0 -658.5
2360 473.0 -668.5
2361 473.0 -678.5
2362 473.0 -688.5
2363 473.0 -698.5
2364 473.0 -708.5
2365 473.0 -718.5
2366 473.0 -728.5
2367 473.0 -738.5
2368 473.0 -748.5
2369 473.0 -758.5
2370 473.5 -767.88
2371 473.44 -834.78
2372 473.0 -848.5
2373 473.0 -858.5
2374 473.67 -867.0
2375 474.0 -162.4
2376 474.0 -172.4
2377 474.0 -182.4
2378 474.0 -192.4
2379 474.0 -202.4
2380 474.0 -212.4
2381 474.41 -301.55
2382 474.0 -312.4
2383 474.41 -323.0
2384 473.9 -333.15
2385 473.0 -342.25
2386 473.5 -353.11
2387 473.5 -363.11
2388 474.0 -373.0
2389 475.41 -221.64
2390 475.0 -232.5
2391 475.0 -242.5
2392 475.0 -252.5
2393 474.36 -262.29
2394 476.32 -383.45
2395 477.24 -783.84
2396 477.0 -798.2
2397 477.0 -808.2
2398 477.0 -818.2
2399 478.5 -826.8
2400 478.86 -472.29
2401 478.0 -484.7
2402 478.0 -494.7
2403 478.0 -504.7
2404 478.0 -514.7
2405 478.0 -524.7
2406 478.0 -534.7
2407 479.23 -394.55
2408 479.0 -405.1
2409 479.0 -415.1
2410 480.07 -425.0
2411 479.0 -883.38
2412 481.39 -546.17
2413 483.09 -896.18
2414 483.75 -270.0
2415 483.41 -284.36
2416 483.73 -433.77
2417 483.0 -445.7
2418 483.0 -455.7
2419 484.33 -465.33
2420 483.24 -631.74
2421 483.0 -646.1
2422 483.0 -656.1
2423 483.0 -666.1
2424 483.0 -676.1
2425 483.0 -686.1
2426 483.0 -696.1
2427 483.0 -706.1
2428 483.0 -716.1
2429 483.0 -726.1
2430 483.0 -736.1
2431 483.0 -746.1
2432 483.0 -756.1
2433 483.0 -766.1
2434 484.07 -775.29
2435 483.24 -841.74
2436 483.0 -856.1
2437 483.0 -866.1
2438 484.5 -874.6
2439 484.0 -163.7
2440 484.0 -173.7
2441 484.0 -183.7
2442 484.0 -193.7
2443 484.0 -203.7
2444 484.25 -293.58
2445 481.64 -305.14
2446 479.83 -315.5
2447 485.41 -212.91
2448 485.0 -223.8
2449 485.0 -233.8
2450 485.0 -243.8
2451 485.0 -253.8
2452 485.0 -263.5
2453 487.62 -789.47
2454 487.0 -802.6
2455 487.0 -812.6
2456 487.0 -822.6
2457 487.21 -831.29
2458 488.5 -476.65
2459 488.0 -490.3
2460 488.0 -500.3
2461 488.0 -510.3
2462 488.0 -520.3
2463 488.0 -530.3
2464 486.0 -403.5
2465 488.0 -413.5
2466 489.5 -421.75
2467 491.0 -544.95
2468 491.44 -907.81
2469 492.62 -887.71
2470 490.5 -896.75
2471 493.31 -272.0
2472 493.77 -431.33
2473 493.0 -444.2
2474 493.0 -454.2
2475 493.25 -463.25
2476 493.44 -627.78
2477 493.0 -641.5
2478 493.0 -651.5
2479 493.0 -661.5
2480 493.0 -671.5
2481 493.0 -681.5
2482 493.0 -691.5
2483 493.0 -701.5
2484 493.0 -711.5
2485 493.0 -721.5
2486 493.0 -731.5
2487 493.0 -741.5
2488 493.0 -751.5
2489 493.0 -761.5
2490 493.0 -771.5
2491 493.5 -780.88
2492 493.44 -847.78
2493 493.0 -861.5
2494 493.0 -871.5
2495 491.83 -877.33
2496 494.0 -165.2
2497 494.0 -175.2
2498 494.0 -185.2
2499 494.0 -195.2
2500 489.83 -285.83
2501 495.41 -204.55
2502 495.0 -215.4
2503 495.0 -225.4
2504 495.0 -235.4
2505 495.0 -245.4
2506 495.0 -255.4
2507 497.24 -796.63
2508 497.0 -811.0
2509 497.0 -821.0
2510 497.0 -831.0
2511 498.5 -839.4
2512 498.79 -471.21
2513 498.0 -483.8
2514 498.0 -493.8
2515 498.0 -503.8
2516 498.0 -513.8
2517 498.0 -523.8
2518 498.0 -533.8
2519 498.66 -917.53
2520 501.43 -544.33
2521 502.24 -894.84
2522 503.5 -907.8
2523 502.97 -262.74
2524 502.0 -433.75
2525 503.0 -443.1
2526 503.0 -453.1
2527 503.64 -463.0
2528 503.62 -623.71
2529 503.0 -636.8
2530 503.0 -646.8
2531 503.0 -656.8
2532 503.0 -666.8
2533 503.0 -676.8
2534 503.0 -686.8
2535 503.0 -696.8
2536 503.0 -706.8
2537 503.0 -716.8
2538 503.0 -726.8
2539 503.0 -736.8
2540 503.0 -746.8
2541 503.0 -756.8
2542 503.0 -766.8
2543 503.0 -776.8
2544 503.17 -786.44
2545 503.62 -853.71
2546 503.0 -866.8
2547 503.0 -876.8
2548 501.5 -882.75
2549 504.0 -166.8
2550 504.0 -176.8
2551 504.0 -186.8
2552 505.41 -196.18
2553 505.0 -207.0
2554 505.0 -217.0
2555 505.0 -227.0
2556 505.0 -237.0
2557 505.0 -247.0
2558 505.0 -256.38
2559 505.22 -928.11
2560 507.44 -802.78
2561 507.0 -816.5
2562 507.0 -826.5
2563 507.0 -836.5
2564 507.67 -845.0
2565 508.38 -477.31
2566 508.0 -490.2
2567 508.0 -500.2
2568 508.0 -510.2
2569 508.0 -520.2
2570 508.0 -530.2
2571 509.17 -541.11
2572 512.0 -544.5
2573 512.62 -900.47
2574 512.0 -913.6
2575 512.0 -923.6
2576 513.0 -446.4
2577 513.0 -456.4
2578 513.0 -466.4
2579 513.44 -620.56
2580 513.0 -634.3
2581 513.0 -644.3
2582 513.0 -654.3
2583 513.0 -664.3
2584 513.0 -674.3
2585 513.0 -684.3
2586 513.0 -694.3
2587 513.0 -704.3
2588 513.0 -714.3
2589 513.0 -724.3
2590 513.0 -734.3
2591 513.0 -744.3
2592 513.0 -754.3
2593 513.0 -764.3
2594 513.0 -774.3
2595 513.0 -784.3
2596 513.5 -793.63
2597 513.44 -860.56
2598 513.0 -874.3
2599 513.0 -884.3
2600 511.83 -890.33
2601 513.44 -939.97
2602 514.0 -168.5
2603 514.0 -178.5
2604 515.41 -187.91
2605 515.0 -198.7
2606 515.0 -208.7
2607 515.0 -218.7
2608 515.0 -228.7
2609 515.0 -238.7
2610 514.17 -250.37
2611 517.62 -808.71
2612 517.0 -821.8
2613 517.0 -831.8
2614 517.0 -841.8
2615 517.21 -850.43
2616 518.83 -478.0
2617 518.0 -490.7
2618 518.0 -500.7
2619 518.0 -510.7
2620 518.0 -520.7
2621 518.0 -530.7
2622 518.4 -541.9
2623 521.07 -950.6
2624 522.24 -907.84
2625 522.0 -922.2
2626 522.0 -932.2
2627 523.0 -454.4
2628 523.0 -464.4
2629 524.33 -544.0
2630 523.62 -616.71
2631 523.0 -629.8
2632 523.0 -639.8
2633 523.0 -649.8
2634 523.0 -659.8
2635 523.0 -669.8
2636 523.0 -679.8
2637 523.0 -689.8
2638 523.0 -699.8
2639 523.0 -709.8
2640 523.0 -719.8
2641 523.0 -729.8
2642 523.0 -739.8
2643 523.0 -749.8
2644 523.0 -759.8
2645 523.0 -769.8
2646 523.0 -779.8
2647 523.0 -789.8
2648 523.17 -799.44
2649 523.62 -866.71
2650 523.0 -879.8
2651 523.0 -889.8
2652 521.5 -895.75
2653 524.0 -170.5
2654 525.41 -179.91
2655 525.0 -190.7
2656 525.0 -200.7
2657 525.0 -210.7
2658 525.0 -220.7
2659 525.0 -230.7
2660 524.17 -242.53
2661 527.44 -815.89
2662 527.0 -829.6
2663 527.0 -839.6
2664 527.0 -849.6
2665 527.67 -858.17
2666 528.83 -474.87
2667 528.0 -487.7
2668 528.0 -497.7
2669 528.0 -507.7
2670 528.0 -517.7
2671 528.0 -527.7
2672 528.05 -538.23
2673 529.09 -41.74
2674 530.44 -945.0
2675 529.33 -958.92
2676 531.35 -55.73
2677 532.73 -30.62
2678 532.75 -913.63
2679 532.0 -926.1
2680 531.33 -933.67
2681 533.0 -460.4
2682 533.62 -613.71
2683 533.0 -626.8
2684 533.0 -636.8
2685 533.0 -646.8
2686 533.0 -656.8
2687 533.0 -666.8
2688 533.0 -676.8
2689 533.0 -686.8
2690 533.0 -696.8
2691 533.0 -706.8
2692 533.0 -716.8
2693 533.0 -726.8
2694 533.0 -736.8
2695 533.0 -746.8
2696 533.0 -756.8
2697 533.0 -766.8
2698 533.0 -776.8
2699 533.0 -786.8
2700 533.0 -796.8
2701 533.17 -806.44
2702 533.62 -873.71
2703 533.0 -886.8
2704 533.0 -896.8
2705 531.5 -902.75
2706 534.71 -65.21
2707 534.5 -541.31
2708 535.25 -966.22
2709 535.0 -172.8
2710 535.0 -182.8
2711 535.0 -192.8
2712 535.0 -202.8
2713 535.0 -212.8
2714 535.0 -222.8
2715 534.76 -235.97
2716 537.44 -822.89
2717 537.0 -836.6
2718 537.0 -846.6
2719 537.0 -856.6
2720 537.67 -865.17
2721 538.83 -469.47
2722 538.0 -482.5
2723 538.0 -492.5
2724 538.0 -502.5
2725 538.0 -512.5
2726 538.0 -522.5
2727 538.0 -532.5
2728 539.62 -22.47
2729 539.88 -43.19
2730 540.75 -951.38
2731 542.75 -920.75
2732 542.0 -933.2
2733 541.33 -940.67
2734 543.03 -72.71
2735 543.62 -610.94
2736 543.0 -624.0
2737 543.0 -634.0
2738 543.0 -644.0
2739 543.0 -654.0
2740 543.0 -664.0
2741 543.0 -674.0
2742 543.0 -684.0
2743 543.0 -694.0
2744 543.0 -704.0
2745 543.0 -714.0
2746 543.0 -724.0
2747 543.0 -734.0
2748 543.0 -744.0
2749 543.0 -754.0
2750 543.0 -764.0
2751 543.0 -774.0
2752 543.0 -784.0
2753 543.0 -794.0
2754 543.0 -804.0
2755 543.17 -813.67
2756 543.62 -880.94
2757 543.0 -894.0
2758 543.0 -904.0
2759 541.5 -910.0
2760 544.83 -58.2
2761 544.5 -538.5
2762 544.0 -971.13
2763 545.0 -175.0
2764 545.0 -185.0
2765 545.0 -195.0
2766 545.0 -205.0
2767 545.0 -215.0
2768 545.0 -225.0
2769 545.0 -233.85
2770 547.62 -830.06
2771 547.0 -843.1
2772 547.0 -853.1
2773 547.0 -863.1
2774 547.21 -871.86
2775 548.0 -465.4
2776 548.0 -475.4
2777 548.0 -485.4
2778 548.0 -495.4
2779 548.0 -505.4
2780 548.0 -515.4
2781 548.0 -525.4
2782 549.24 -17.21
2783 549.0 -31.6
2784 549.0 -41.6
2785 550.33 -50.33
2786 550.83 -958.53
2787 552.62 -928.94
2788 552.0 -942.0
2789 551.5 -949.2
2790 553.0 -74.85
2791 553.44 -609.11
2792 553.0 -622.8
2793 553.0 -632.8
2794 553.0 -642.8
2795 553.0 -652.8
2796 553.0 -662.8
2797 553.0 -672.8
2798 553.0 -682.8
2799 553.0 -692.8
2800 553.0 -702.8
2801 553.0 -712.8
2802 553.0 -722.8
2803 553.0 -732.8
2804 553.0 -742.8
2805 553.0 -752.8
2806 553.0 -762.8
2807 553.0 -772.8
2808 553.0 -782.8
2809 553.0 -792.8
2810 553.0 -802.8
2811 553.0 -812.8
2812 553.5 -822.25
2813 553.44 -889.11
2814 553.0 -902.8
2815 553.0 -912.8
2816 551.83 -918.67
2817 553.24 -978.58
2818 554.41 -61.27
2819 554.83 -532.87
2820 556.0 -966.0
2821 555.0 -177.5
2822 555.0 -187.5
2823 555.0 -197.5
2824 555.0 -207.5
2825 555.0 -217.5
2826 555.0 -230.88
2827 557.44 -838.33
2828 557.0 -852.0
2829 557.0 -862.0
2830 557.0 -872.0
2831 557.67 -880.67
2832 558.0 -466.9
2833 558.0 -476.9
2834 558.0 -486.9
2835 558.0 -496.9
2836 558.0 -506.9
2837 558.0 -516.9
2838 560.0 -528.17
2839 559.62 -12.82
2840 559.0 -25.9
2841 559.0 -35.9
2842 559.0 -45.9
2843 559.25 -55.13
2844 562.62 -937.29
2845 562.0 -950.3
2846 562.0 -960.3
2847 563.86 -79.07
2848 563.44 -607.44
2849 563.0 -621.1
2850 563.0 -631.1
2851 563.0 -641.1
2852 563.0 -651.1
2853 563.0 -661.1
2854 563.0 -671.1
2855 563.0 -681.1
2856 563.0 -691.1
2857 563.0 -701.1
2858 563.0 -711.1
2859 563.0 -721.1
2860 563.0 -731.1
2861 563.0 -741.1
2862 563.0 -751.1
2863 563.0 -761.1
2864 563.0 -771.1
2865 563.0 -781.1
2866 563.0 -791.1
2867 563.0 -801.1
2868 563.0 -811.1
2869 563.0 -821.1
2870 563.5 -830.63
2871 563.44 -897.44
2872 563.0 -911.1
2873 563.0 -921.1
2874 561.83 -926.67
2875 563.56 -984.13
2876 564.41 -68.45
2877 564.42 -532.46
2878 564.67 -970.25
2879 565.0 -180.0
2880 565.0 -190.0
2881 565.0 -200.0
2882 565.0 -210.0
2883 565.0 -220.0
2884 564.38 -232.18
2885 567.83 -845.67
2886 567.0 -857.5
2887 567.0 -867.5
2888 567.0 -877.5
2889 566.94 -887.0
2890 568.75 -470.0
2891 568.0 -482.4
2892 568.0 -492.4
2893 568.0 -502.4
2894 568.0 -512.4
2895 568.0 -522.4
2896 569.83 -9.67
2897 569.0 -21.5
2898 569.0 -31.5
2899 569.0 -41.5
2900 569.0 -51.5
2901 569.0 -61.5
2902 572.0 -942.0
2903 572.0 -952.0
2904 573.24 -79.18
2905 573.0 -602.0
2906 573.0 -612.0
2907 573.0 -622.0
2908 573.0 -632.0
2909 573.0 -642.0
2910 573.0 -652.0
2911 573.0 -662.0
2912 573.0 -672.0
2913 573.0 -682.0
2914 573.0 -692.0
2915 573.0 -702.0
2916 573.0 -712.0
2917 573.0 -722.0
2918 573.0 -732.0
2919 573.0 -742.0
2920 573.0 -752.0
2921 573.0 -762.0
2922 573.0 -772.0
2923 573.0 -782.0
2924 573.0 -792.0
2925 573.0 -802.0
2926 573.0 -812.0
2927 573.0 -822.0
2928 573.0 -832.0
2929 573.0 -902.0
2930 573.0 -912.0
2931 573.0 -922.0
2932 573.0 -932.0
2933 573.0 -985.8
2934 574.5 -530.37
2935 574.0 -962.0
2936 574.0 -972.0
2937 575.0 -182.8
2938 575.0 -192.8
2939 575.0 -202.8
2940 575.0 -212.8
2941 575.0 -222.8
2942 575.0 -232.6
2943 577.0 -842.0
2944 577.0 -852.0
2945 577.0 -862.0
2946 577.0 -872.0
2947 577.0 -882.0
2948 577.0 -892.0
2949 578.24 -469.05
2950 578.0 -483.4
2951 578.0 -493.4
2952 578.0 -503.4
2953 578.0 -513.4
2954 579.33 -522.33
2955 579.75 -9.0
2956 579.0 -21.4
2957 579.0 -31.4
2958 579.0 -41.4
2959 579.0 -51.4
2960 579.0 -61.4
2961 579.0 -71.4
2962 582.0 -942.0
2963 582.0 -952.0
2964 583.86 -79.54
2965 583.0 -612.0
2966 583.0 -622.0
2967 583.0 -632.0
2968 583.0 -642.0
2969 583.0 -652.0
2970 583.0 -662.0
2971 583.0 -672.0
2972 583.0 -682.0
2973 583.0 -692.0
2974 583.0 -702.0
2975 583.0 -712.0
2976 583.0 -722.0
2977 583.0 -732.0
2978 583.0 -742.0
2979 583.0 -752.0
2980 583.0 -762.0
2981 583.0 -772.0
2982 583.0 -782.0
2983 583.0 -792.0
2984 583.0 -802.0
2985 583.0 -812.0
2986 583.0 -822.0
2987 583.0 -832.0
2988 583.0 -902.0
2989 583.0 -912.0
2990 583.0 -922.0
2991 583.0 -932.0
2992 582.17 -984.93
2993 583.95 -529.5
2994 584.0 -962.0
2995 584.0 -972.0
2996 585.0 -185.7
2997 585.0 -195.7
2998 585.0 -205.7
2999 585.0 -215.7
3000 585.0 -225.7
3001 585.58 -236.67
3002 587.0 -842.0
3003 587.0 -852.0
3004 587.0 -862.0
3005 587.0 -872.0
3006 587.0 -882.0
3007 587.0 -892.0
3008 588.24 -465.11
3009 588.0 -479.5
3010 588.0 -489.5
3011 588.0 -499.5
3012 588.0 -509.5
3013 588.0 -519.5
3014 588.81 -993.15
3015 589.0 -5.1
3016 589.0 -15.1
3017 589.0 -25.1
3018 589.0 -35.1
3019 589.0 -45.1
3020 589.0 -55.1
3021 589.0 -65.1
3022 592.0 -942.0
3023 592.0 -952.0
3024 593.18 -75.84
3025 593.0 -602.0
3026 593.0 -612.0
3027 593.0 -622.0
3028 593.0 -632.0
3029 593.0 -642.0
3030 593.0 -652.0
3031 593.0 -662.0
3032 593.0 -672.0
3033 593.0 -682.0
3034 593.0 -692.0
3035 593.0 -702.0
3036 593.0 -712.0
3037 593.0 -722.0
3038 593.0 -732.0
3039 593.0 -742.0
3040 593.0 -752.0
3041 593.0 -762.0
3042 593.0 -772.0
3043 593.0 -782.0
3044 593.0 -792.0
3045 593.0 -802.0
3046 593.0 -812.0
3047 593.0 -822.0
3048 593.0 -832.0
3049 593.0 -902.0
3050 593.0 -912.0
3051 593.0 -922.0
3052 593.0 -932.0
3053 593.0 -982.0
3054 594.0 -526.3
3055 594.41 -961.27
3056 594.0 -972.1
3057 595.0 -188.8
3058 595.0 -198.8
3059 595.0 -208.8
3060 595.0 -218.8
3061 595.0 -228.8
3062 594.56 -241.25
3063 597.86 -839.71
3064 597.0 -852.4
3065 597.0 -862.4
3066 597.0 -872.4
3067 597.0 -882.4
3068 597.0 -892.4
3069 598.24 -459.26
3070 598.0 -473.7
3071 598.0 -483.7
3072 598.0 -493.7
3073 598.0 -503.7
3074 598.0 -513.7
3075 599.5 -521.8
3076 598.5 -993.06
3077 599.0 -6.1
3078 599.0 -16.1
3079 599.0 -26.1
3080 599.0 -36.1
3081 599.0 -46.1
3082 599.0 -56.1
3083 602.24 -938.21
3084 602.39 -952.89
3085 603.86 -63.79
3086 603.0 -76.25
3087 603.44 -245.64
3088 603.0 -613.1
3089 603.0 -623.1
3090 603.0 -633.1
3091 603.0 -643.1
3092 603.0 -653.1
3093 603.0 -663.1
3094 603.0 -673.1
3095 603.0 -683.1
3096 603.0 -693.1
3097 603.0 -703.1
3098 603.0 -713.1
3099 603.0 -723.1
3100 603.0 -733.1
3101 603.0 -743.1
3102 603.0 -753.1
3103 603.0 -763.1
3104 603.0 -773.1
3105 603.0 -783.1
3106 603.0 -793.1
3107 603.0 -803.1
3108 603.0 -813.1
3109 603.0 -823.1
3110 603.41 -902.27
3111 603.0 -913.1
3112 603.0 -923.1
3113 604.67 -961.67
3114 604.0 -973.2
3115 605.0 -191.9
3116 605.0 -201.9
3117 605.0 -211.9
3118 605.0 -221.9
3119 605.0 -231.9
3120 604.83 -524.92
3121 607.86 -830.79
3122 607.0 -843.5
3123 607.0 -853.5
3124 607.0 -863.5
3125 607.0 -873.5
3126 607.0 -883.5
3127 606.94 -893.44
3128 608.24 -451.0
3129 608.0 -465.5
3130 608.0 -475.5
3131 608.0 -485.5
3132 608.0 -495.5
3133 608.0 -505.5
3134 608.39 -515.0
3135 608.86 -980.86
3136 608.0 -996.92
3137 609.0 -7.4
3138 609.0 -17.4
3139 609.0 -27.4
3140 609.0 -37.4
3141 609.0 -47.4
3142 612.67 -932.67
3143 612.0 -944.2
3144 613.86 -55.43
3145 613.0 -68.1
3146 613.0 -77.15
3147 613.18 -240.74
3148 613.0 -604.3
3149 613.0 -614.3
3150 613.0 -624.3
3151 613.0 -634.3
3152 613.0 -644.3
3153 613.0 -654.3
3154 613.0 -664.3
3155 613.0 -674.3
3156 613.0 -684.3
3157 613.0 -694.3
3158 613.0 -704.3
3159 613.0 -714.3
3160 613.0 -724.3
3161 613.0 -734.3
3162 613.0 -744.3
3163 613.0 -754.3
3164 613.0 -764.3
3165 613.0 -774.3
3166 613.0 -784.3
3167 613.0 -794.3
3168 613.0 -804.3
3169 613.0 -814.3
3170 613.81 -902.15
3171 613.0 -914.3
3172 612.25 -924.13
3173 614.21 -255.21
3174 614.67 -952.83
3175 614.0 -964.4
3176 615.0 -195.0
3177 615.0 -205.0
3178 615.0 -215.0
3179 615.0 -225.0
3180 615.86 -519.68
3181 617.86 -821.93
3182 617.0 -834.7
3183 617.0 -844.7
3184 617.0 -854.7
3185 617.0 -864.7
3186 617.0 -874.7
3187 617.0 -884.7
3188 617.21 -894.57
3189 618.06 -441.67
3190 618.0 -455.6
3191 618.0 -465.6
3192 618.0 -475.6
3193 618.0 -485.6
3194 618.0 -495.6
3195 618.0 -505.6
3196 620.0 -515.25
3197 618.86 -972.0
3198 618.0 -984.8
3199 618.0 -998.25
3200 619.0 -9.3
3201 619.0 -19.3
3202 619.0 -29.3
3203 619.0 -39.3
3204 620.75 -262.22
3205 622.86 -932.71
3206 623.86 -47.57
3207 623.0 -60.2
3208 622.33 -71.5
3209 623.44 -233.22
3210 623.0 -605.5
3211 623.0 -615.5
3212 623.0 -625.5
3213 623.0 -635.5
3214 623.0 -645.5
3215 623.0 -655.5
3216 623.0 -665.5
3217 623.0 -675.5
3218 623.0 -685.5
3219 623.0 -695.5
3220 623.0 -705.5
3221 623.0 -715.5
3222 623.0 -725.5
3223 623.0 -735.5
3224 623.0 -745.5
3225 623.0 -755.5
3226 623.0 -765.5
3227 623.0 -775.5
3228 623.0 -785.5
3229 623.41 -796.14
3230 622.5 -805.44
3231 623.83 -903.0
3232 623.0 -916.0
3233 621.67 -926.0
3234 624.41 -247.0
3235 624.67 -944.83
3236 624.0 -956.1
3237 625.67 -78.29
3238 625.0 -198.2
3239 625.0 -208.2
3240 625.0 -218.2
3241 626.38 -431.06
3242 627.62 -273.74
3243 625.0 -816.67
3244 626.5 -827.89
3245 627.0 -837.8
3246 627.0 -847.8
3247 627.0 -857.8
3248 627.0 -867.8
3249 627.0 -877.8
3250 627.0 -887.8
3251 628.5 -898.6
3252 628.22 -448.83
3253 628.0 -462.8
3254 628.0 -472.8
3255 628.0 -482.8
3256 628.0 -492.8
3257 628.0 -502.8
3258 628.05 -513.05
3259 627.83 -518.58
3260 628.86 -966.07
3261 628.0 -978.3
3262 628.0 -988.3
3263 627.5 -999.75
3264 629.0 -11.8
3265 629.0 -21.8
3266 629.0 -31.8
3267 630.75 -256.31
3268 632.5 -419.71
3269 633.86 -40.29
3270 633.0 -52.9
3271 633.0 -62.9
3272 633.44 -226.39
3273 633.0 -606.9
3274 633.0 -616.9
3275 633.0 -626.9
3276 633.0 -636.9
3277 633.0 -646.9
3278 633.0 -656.9
3279 633.0 -666.9
3280 633.0 -676.9
3281 633.0 -686.9
3282 633.0 -696.9
3283 633.0 -706.9
3284 633.0 -716.9
3285 633.0 -726.9
3286 633.0 -736.9
3287 633.0 -746.9
3288 633.0 -756.9
3289 633.0 -766.9
3290 633.86 -779.04
3291 630.5 -788.83
3292 633.75 -906.75
3293 633.0 -920.3
3294 633.0 -930.3
3295 634.41 -240.18
3296 634.3 -942.53
3297 634.5 -954.25
3298 635.27 -72.62
3299 635.0 -201.3
3300 635.0 -211.3
3301 635.44 -286.42
3302 637.07 -84.25
3303 636.83 -433.2
3304 637.75 -268.37
3305 637.57 -410.36
3306 634.5 -844.6
3307 636.5 -854.78
3308 637.0 -864.3
3309 637.0 -874.3
3310 637.0 -884.3
3311 637.25 -893.38
3312 638.26 -449.65
3313 638.0 -463.2
3314 638.0 -473.2
3315 638.0 -483.2
3316 638.0 -493.2
3317 638.0 -503.2
3318 637.65 -513.08
3319 638.58 -963.77
3320 638.0 -975.5
3321 638.0 -985.5
3322 637.96 -996.69
3323 639.0 -14.6
3324 639.0 -24.6
3325 639.0 -1001.81
3326 640.75 -249.31
3327 641.5 -263.25
3328 640.83 -299.27
3329 641.86 -399.21
3330 643.86 -33.21
3331 643.0 -45.8
3332 643.0 -55.8
3333 643.44 -219.5
3334 643.81 -311.12
3335 643.0 -608.5
3336 643.0 -618.5
3337 643.0 -628.5
3338 643.0 -638.5
3339 643.0 -648.5
3340 643.0 -658.5
3341 643.0 -668.5
3342 643.0 -678.5
3343 643.0 -688.5
3344 643.0 -698.5
3345 643.0 -708.5
3346 643.0 -718.5
3347 643.0 -728.5
3348 643.0 -738.5
3349 643.0 -748.5
3350 643.0 -758.5
3351 643.62 -771.88
3352 639.25 -779.25
3353 643.63 -904.5
3354 643.0 -917.7
3355 643.0 -927.7
3356 644.41 -233.45
3357 644.57 -387.86
3358 644.33 -938.58
3359 644.0 -949.6
3360 645.67 -65.08
3361 645.0 -204.5
3362 645.44 -280.22
3363 646.41 -76.0
3364 645.17 -88.7
3365 646.81 -322.42
3366 646.24 -420.37
3367 646.0 -434.9
3368 647.57 -372.4
3369 645.0 -866.5
3370 647.0 -876.1
3371 647.0 -886.1
3372 647.67 -894.67
3373 648.67 -333.96
3374 648.0 -446.88
3375 648.0 -459.7
3376 648.0 -469.7
3377 648.0 -479.7
3378 648.0 -489.7
3379 648.0 -499.7
3380 648.0 -509.5
3381 648.24 -963.37
3382 648.0 -977.9
3383 648.0 -987.9
3384 649.0 -17.9
3385 649.41 -345.0
3386 649.0 -355.8
3387 648.33 -365.5
3388 648.9 -998.73
3389 650.75 -242.69
3390 650.0 -256.2
3391 650.0 -266.2
3392 650.83 -293.13
3393 651.83 -94.9
3394 651.62 -402.59
3395 653.86 -26.86
3396 653.0 -39.4
3397 653.0 -49.4
3398 653.62 -213.29
3399 653.81 -305.15
3400 653.0 -610.2
3401 653.0 -620.2
3402 653.0 -630.2
3403 653.0 -640.2
3404 653.0 -650.2
3405 653.0 -660.2
3406 653.0 -670.2
3407 653.0 -680.2
3408 653.0 -690.2
3409 653.0 -700.2
3410 653.0 -710.2
3411 653.0 -720.2
3412 653.0 -730.2
3413 653.0 -740.2
3414 653.0 -750.2
3415 653.0 -760.2
3416 653.0 -773.23
3417 653.75 -903.5
3418 653.0 -916.9
3419 653.0 -926.9
3420 654.41 -226.73
3421 654.62 -383.59
3422 654.42 -937.67
3423 654.0 -948.7
3424 655.67 -58.67
3425 656.17 -208.0
3426 655.83 -274.73
3427 656.41 -69.73
3428 656.0 -80.5
3429 656.81 -316.15
3430 656.83 -415.13
3431 656.0 -428.2
3432 655.0 -884.5
3433 657.67 -892.5
3434 658.67 -327.33
3435 658.67 -437.33
3436 658.0 -448.8
3437 658.0 -458.8
3438 658.0 -468.8
3439 658.0 -478.8
3440 658.0 -488.8
3441 658.41 -499.45
3442 657.5 -506.56
3443 658.38 -962.24
3444 658.0 -975.8
3445 658.0 -985.8
3446 659.44 -105.78
3447 659.41 -338.45
3448 659.0 -349.2
3449 659.0 -359.2
3450 659.0 -369.2
3451 658.9 -996.27
3452 660.75 -236.0
3453 660.0 -249.5
3454 660.0 -259.5
3455 660.83 -286.47
3456 661.83 -89.4
3457 661.62 -396.0
3458 663.0 -23.2
3459 663.0 -33.2
3460 663.0 -43.2
3461 663.81 -298.62
3462 663.0 -611.9
3463 663.0 -621.9
3464 663.0 -631.9
3465 663.0 -641.9
3466 663.0 -651.9
3467 663.0 -661.9
3468 663.0 -671.9
3469 663.0 -681.9
3470 663.0 -691.9
3471 663.0 -701.9
3472 663.0 -711.9
3473 663.0 -721.9
3474 663.0 -731.9
3475 663.0 -741.9
3476 663.0 -751.9
3477 663.0 -761.9
3478 663.0 -774.7
3479 663.0 -903.58
3480 663.0 -914.6
3481 663.0 -924.6
3482 664.24 -216.37
3483 664.83 -378.0
3484 664.42 -935.17
3485 664.0 -946.3
3486 665.07 -956.43
3487 665.67 -52.75
3488 665.83 -268.4
3489 666.41 -63.73
3490 666.0 -74.5
3491 666.81 -309.69
3492 666.83 -408.67
3493 666.0 -421.7
3494 668.67 -321.08
3495 668.67 -431.08
3496 668.0 -442.5
3497 668.0 -452.5
3498 668.0 -462.5
3499 668.0 -472.5
3500 668.0 -482.5
3501 668.0 -492.5
3502 667.33 -502.13
3503 668.44 -969.44
3504 668.0 -983.5
3505 669.18 -102.16
3506 669.41 -332.0
3507 669.0 -342.8
3508 669.0 -352.8
3509 669.0 -362.8
3510 668.59 -992.23
3511 670.03 -117.07
3512 670.75 -229.69
3513 670.0 -243.2
3514 670.0 -253.2
3515 670.83 -280.13
3516 671.83 -83.73
3517 671.62 -389.59
3518 673.0 -27.6
3519 673.0 -37.6
3520 673.81 -292.31
3521 673.0 -613.9
3522 673.0 -623.9
3523 673.0 -633.9
3524 673.0 -643.9
3525 673.0 -653.9
3526 673.0 -663.9
3527 673.0 -673.9
3528 673.0 -683.9
3529 673.0 -693.9
3530 673.0 -703.9
3531 673.0 -713.9
3532 673.0 -723.9
3533 673.0 -733.9
3534 673.0 -743.9
3535 673.0 -753.9
3536 673.0 -763.9
3537 673.0 -777.0
3538 670.5 -912.0
3539 673.0 -922.1
3540 674.0 -214.6
3541 674.83 -371.6
3542 674.33 -933.25
3543 674.0 -944.2
3544 674.0 -954.2
3545 675.67 -47.17
3546 675.83 -262.0
3547 676.41 -58.27
3548 676.0 -69.0
3549 676.75 -123.69
3550 676.81 -303.38
3551 676.83 -402.4
3552 676.0 -415.4
3553 678.67 -314.67
3554 678.67 -424.67
3555 678.0 -436.1
3556 678.0 -446.1
3557 678.0 -456.1
3558 678.0 -466.1
3559 678.0 -476.1
3560 678.0 -486.1
3561 677.19 -496.81
3562 678.22 -967.94
3563 678.05 -981.32
3564 679.44 -96.06
3565 679.41 -325.73
3566 679.0 -336.5
3567 679.0 -346.5
3568 679.0 -356.5
3569 675.0 -988.25
3570 680.41 -110.09
3571 680.75 -223.31
3572 680.0 -236.8
3573 680.0 -246.8
3574 680.83 -273.73
3575 681.83 -78.2
3576 681.62 -383.29
3577 683.0 -32.2
3578 683.81 -285.92
3579 683.0 -616.1
3580 683.0 -626.1
3581 683.0 -636.1
3582 683.0 -646.1
3583 683.0 -656.1
3584 683.0 -666.1
3585 683.0 -676.1
3586 683.0 -686.1
3587 683.0 -696.1
3588 683.0 -706.1
3589 683.0 -716.1
3590 683.0 -726.1
3591 683.0 -736.1
3592 683.0 -746.1
3593 683.0 -756.1
3594 683.0 -766.1
3595 682.38 -778.85
3596 684.83 -365.27
3597 681.0 -935.0
3598 682.5 -945.14
3599 683.63 -955.13
3600 685.67 -41.92
3601 685.83 -255.6
3602 686.41 -53.0
3603 686.0 -63.7
3604 686.08 -121.82
3605 686.81 -297.0
3606 686.83 -396.0
3607 686.0 -409.0
3608 688.67 -308.42
3609 688.67 -418.42
3610 688.0 -429.8
3611 688.0 -439.8
3612 688.0 -449.8
3613 688.0 -459.8
3614 688.0 -469.8
3615 688.0 -479.8
3616 687.25 -491.75
3617 685.3 -965.9
3618 683.83 -974.5
3619 689.44 -91.22
3620 689.81 -131.35
3621 689.41 -319.45
3622 689.0 -330.2
3623 689.0 -340.2
3624 689.0 -350.2
3625 690.41 -105.18
3626 690.0 -220.6
3627 690.0 -230.6
3628 690.0 -240.6
3629 690.83 -267.6
3630 690.62 -782.85
3631 691.83 -73.6
3632 691.62 -377.12
3633 693.81 -279.69
3634 693.0 -618.5
3635 693.0 -628.5
3636 693.0 -638.5
3637 693.0 -648.5
3638 693.0 -658.5
3639 693.0 -668.5
3640 693.0 -678.5
3641 693.0 -688.5
3642 693.0 -698.5
3643 693.0 -708.5
3644 693.0 -718.5
3645 693.0 -728.5
3646 693.0 -738.5
3647 693.0 -748.5
3648 693.0 -758.5
3649 693.0 -768.5
3650 694.83 -359.07
3651 695.0 -38.6
3652 695.83 -249.47
3653 696.41 -48.55
3654 696.0 -59.2
3655 696.75 -115.88
3656 696.81 -290.92
3657 696.83 -389.87
3658 696.0 -402.9
3659 698.67 -302.33
3660 698.67 -412.33
3661 698.0 -423.7
3662 698.0 -433.7
3663 698.0 -443.7
3664 698.0 -453.7
3665 698.0 -463.7
3666 698.0 -473.7
3667 697.38 -486.21
3668 699.44 -86.72
3669 698.91 -130.26
3670 699.41 -313.36
3671 699.0 -324.1
3672 699.0 -334.1
3673 699.0 -344.1
3674 700.41 -100.82
3675 700.0 -224.5
3676 700.0 -234.5
3677 700.83 -261.53
3678 700.62 -776.35
3679 700.79 -791.93
3680 701.83 -69.27
3681 701.62 -371.06
3682 703.81 -273.85
3683 703.0 -621.1
3684 703.0 -631.1
3685 703.0 -641.1
3686 703.0 -651.1
3687 703.0 -661.1
3688 703.0 -671.1
3689 703.0 -681.1
3690 703.0 -691.1
3691 703.0 -701.1
3692 703.0 -711.1
3693 703.0 -721.1
3694 703.0 -731.1
3695 703.0 -741.1
3696 703.0 -751.1
3697 703.0 -761.1
3698 704.83 -353.2
3699 705.83 -243.73
3700 706.0 -45.1
3701 706.0 -55.1
3702 706.75 -111.81
3703 706.81 -285.15
3704 706.83 -384.13
3705 706.0 -397.1
3706 708.67 -296.5
3707 708.67 -406.5
3708 708.0 -417.9
3709 708.0 -427.9
3710 708.0 -437.9
3711 708.0 -447.9
3712 708.0 -457.9
3713 708.0 -467.9
3714 707.56 -480.78
3715 709.44 -82.83
3716 709.0 -126.66
3717 709.41 -307.55
3718 709.0 -318.3
3719 709.0 -328.3
3720 709.0 -338.3
3721 710.41 -97.09
3722 710.0 -228.8
3723 710.83 -255.8
3724 710.62 -769.29
3725 710.0 -783.2
3726 709.76 -796.18
3727 711.83 -65.67
3728 711.62 -365.35
3729 711.83 -132.78
3730 713.81 -268.15
3731 713.0 -624.2
3732 713.0 -634.2
3733 713.0 -644.2
3734 713.0 -654.2
3735 713.0 -664.2
3736 713.0 -674.2
3737 713.0 -684.2
3738 713.0 -694.2
3739 713.0 -704.2
3740 713.0 -714.2
3741 713.0 -724.2
3742 713.0 -734.2
3743 713.0 -744.2
3744 713.0 -754.2
3745 714.83 -347.67
3746 715.83 -238.07
3747 716.0 -52.0
3748 716.75 -108.81
3749 716.81 -279.46
3750 716.83 -378.47
3751 716.0 -391.4
3752 718.67 -290.92
3753 718.67 -400.92
3754 718.0 -412.3
3755 718.0 -422.3
3756 718.0 -432.3
3757 718.0 -442.3
3758 718.0 -452.3
3759 718.0 -462.3
3760 717.56 -475.14
3761 719.44 -80.17
3762 719.81 -122.58
3763 719.41 -302.09
3764 719.0 -312.8
3765 719.0 -322.8
3766 719.0 -332.8
3767 719.24 -800.13
3768 720.41 -94.55
3769 720.83 -250.2
3770 720.62 -762.35
3771 720.0 -776.3
3772 720.0 -786.3
3773 721.83 -63.27
3774 721.62 -359.82
3775 721.75 -129.94
3776 723.81 -262.69
3777 723.0 -627.3
3778 723.0 -637.3
3779 723.0 -647.3
3780 723.0 -657.3
3781 723.0 -667.3
3782 723.0 -677.3
3783 723.0 -687.3
3784 723.0 -697.3
3785 723.0 -707.3
3786 723.0 -717.3
3787 723.0 -727.3
3788 723.0 -737.3
3789 723.0 -747.3
3790 724.83 -342.07
3791 725.0 -235.5
3792 726.75 -106.88
3793 726.81 -274.08
3794 726.83 -373.07
3795 726.0 -386.0
3796 728.67 -285.67
3797 728.67 -395.67
3798 728.0 -407.0
3799 728.0 -417.0
3800 728.0 -427.0
3801 728.0 -437.0
3802 728.0 -447.0
3803 728.0 -457.0
3804 727.25 -469.13
3805 729.44 -78.61
3806 729.57 -121.67
3807 729.41 -296.82
3808 729.0 -307.5
3809 729.0 -317.5
3810 729.0 -327.5
3811 729.0 -796.35
3812 730.41 -93.09
3813 730.83 -245.07
3814 730.62 -755.88
3815 730.0 -769.8
3816 730.0 -779.8
3817 730.0 -789.5
3818 731.0 -64.5
3819 731.62 -354.71
3820 731.67 -807.83
3821 733.81 -257.62
3822 733.0 -630.9
3823 733.0 -640.9
3824 733.0 -650.9
3825 733.0 -660.9
3826 733.0 -670.9
3827 733.0 -680.9
3828 733.0 -690.9
3829 733.0 -700.9
3830 733.0 -710.9
3831 733.0 -720.9
3832 733.0 -730.9
3833 733.0 -740.9
3834 735.33 -123.17
3835 734.83 -337.07
3836 736.75 -106.0
3837 736.81 -269.23
3838 736.83 -368.2
3839 736.0 -381.1
3840 738.67 -280.92
3841 738.67 -390.92
3842 738.0 -402.2
3843 738.0 -412.2
3844 738.0 -422.2
3845 738.0 -432.2
3846 738.0 -442.2
3847 738.0 -452.2
3848 737.17 -463.43
3849 739.0 -78.88
3850 740.39 -115.72
3851 739.41 -292.0
3852 739.0 -302.7
3853 739.0 -312.7
3854 739.0 -322.7
3855 740.4 -90.9
3856 740.0 -243.3
3857 740.62 -749.82
3858 740.0 -763.7
3859 740.0 -773.7
3860 740.0 -783.7
3861 740.0 -793.7
3862 741.62 -350.06
3863 741.41 -803.36
3864 741.0 -813.25
3865 743.81 -253.0
3866 743.0 -634.9
3867 743.0 -644.9
3868 743.0 -654.9
3869 743.0 -664.9
3870 743.0 -674.9
3871 743.0 -684.9
3872 743.0 -694.9
3873 743.0 -704.9
3874 743.0 -714.9
3875 743.0 -724.9
3876 743.0 -734.9
3877 744.83 -332.6
3878 745.86 -105.14
3879 746.81 -264.77
3880 746.83 -363.73
3881 746.0 -376.6
3882 748.67 -276.42
3883 748.67 -386.42
3884 748.0 -397.7
3885 748.0 -407.7
3886 748.0 -417.7
3887 748.0 -427.7
3888 748.0 -437.7
3889 748.0 -447.7
3890 747.19 -457.31
3891 749.41 -287.64
3892 749.0 -298.3
3893 749.0 -308.3
3894 749.0 -318.3
3895 747.0 -87.25
3896 747.17 -95.0
3897 750.62 -744.18
3898 750.0 -758.0
3899 750.0 -768.0
3900 750.0 -778.0
3901 750.0 -788.0
3902 751.62 -345.76
3903 751.41 -797.82
3904 750.59 -809.09
3905 752.41 -816.82
3906 753.0 -250.8
3907 753.0 -639.5
3908 753.0 -649.5
3909 753.0 -659.5
3910 753.0 -669.5
3911 753.0 -679.5
3912 753.0 -689.5
3913 753.0 -699.5
3914 753.0 -709.5
3915 753.0 -719.5
3916 753.0 -729.5
3917 754.83 -328.6
3918 756.81 -260.77
3919 756.83 -359.8
3920 756.0 -372.6
3921 758.67 -272.67
3922 758.67 -382.67
3923 758.0 -393.9
3924 758.0 -403.9
3925 758.0 -413.9
3926 758.0 -423.9
3927 758.0 -433.9
3928 758.05 -444.18
3929 755.5 -450.7
3930 759.41 -283.82
3931 759.0 -294.5
3932 759.0 -304.5
3933 759.0 -314.5
3934 760.62 -739.18
3935 760.0 -753.0
3936 760.0 -763.0
3937 760.0 -773.0
3938 760.0 -783.0
3939 761.62 -342.06
3940 761.41 -792.82
3941 761.0 -803.5
3942 761.82 -816.21
3943 763.0 -644.5
3944 763.0 -654.5
3945 763.0 -664.5
3946 763.0 -674.5
3947 763.0 -684.5
3948 763.0 -694.5
3949 763.0 -704.5
3950 763.0 -714.5
3951 763.0 -724.5
3952 764.83 -325.07
3953 766.0 -259.2
3954 766.83 -356.47
3955 766.0 -369.2
3956 768.67 -269.42
3957 768.67 -379.42
3958 768.0 -390.6
3959 768.0 -400.6
3960 768.0 -410.6
3961 768.0 -420.6
3962 768.0 -430.55
3963 766.75 -440.08
3964 769.41 -280.82
3965 769.0 -291.4
3966 769.0 -301.4
3967 769.0 -311.4
3968 770.62 -734.76
3969 770.0 -748.5
3970 770.0 -758.5
3971 770.0 -768.5
3972 770.0 -778.5
3973 770.0 -818.45
3974 771.62 -339.24
3975 771.41 -788.45
3976 771.0 -799.1
3977 772.41 -809.0
3978 773.0 -650.3
3979 773.0 -660.3
3980 773.0 -670.3
3981 773.0 -680.3
3982 773.0 -690.3
3983 773.0 -700.3
3984 773.0 -710.3
3985 773.0 -720.3
3986 774.83 -322.53
3987 776.83 -354.27
3988 776.0 -366.9
3989 778.0 -268.5
3990 778.67 -377.33
3991 778.0 -388.5
3992 778.0 -398.5
3993 778.0 -408.5
3994 778.0 -418.5
3995 776.73 -428.85
3996 779.41 -278.73
3997 779.0 -289.3
3998 779.0 -299.3
3999 779.0 -309.3
4000 780.62 -731.12
4001 780.0 -744.8
4002 780.0 -754.8
4003 780.0 -764.8
4004 780.0 -774.8
4005 779.77 -815.14
4006 781.62 -337.41
4007 781.41 -784.91
4008 781.0 -795.5
4009 782.41 -805.68
4010 783.0 -657.0
4011 783.0 -667.0
4012 783.0 -677.0
4013 783.0 -687.0
4014 783.0 -697.0
4015 783.0 -707.0
4016 783.0 -717.0
4017 784.83 -321.13
4018 786.83 -353.0
4019 786.0 -365.5
4020 788.67 -376.5
4021 788.0 -387.5
4022 788.0 -397.5
4023 788.0 -407.3
4024 786.33 -417.38
4025 789.0 -278.5
4026 789.0 -288.5
4027 789.0 -298.5
4028 789.0 -308.5
4029 790.62 -728.76
4030 790.0 -742.4
4031 790.0 -752.4
4032 790.0 -762.4
4033 790.0 -772.4
4034 789.36 -810.14
4035 791.38 -336.56
4036 791.41 -782.64
4037 791.0 -793.2
4038 792.41 -802.73
4039 793.0 -664.9
4040 793.0 -674.9
4041 793.0 -684.9
4042 793.0 -694.9
4043 793.0 -704.9
4044 793.0 -714.9
4045 794.57 -321.0
4046 796.57 -351.67
4047 796.0 -364.3
4048 798.65 -375.08
4049 798.0 -386.8
4050 798.0 -396.05
4051 795.07 -405.86
4052 798.0 -288.75
4053 799.0 -298.1
4054 799.0 -308.1
4055 800.62 -728.0
4056 800.0 -741.5
4057 800.0 -751.5
4058 800.0 -761.5
4059 800.0 -771.5
4060 801.5 -336.53
4061 801.41 -782.0
4062 801.0 -792.05
4063 800.5 -799.38
4064 803.0 -674.5
4065 803.0 -684.5
4066 803.0 -694.5
4067 803.0 -704.5
4068 803.0 -714.5
4069 804.43 -320.21
4070 806.56 -353.56
4071 806.39 -366.89
4072 808.0 -376.46
4073 804.7 -388.1
4074 807.0 -302.33
4075 809.25 -312.25
4076 810.44 -727.44
4077 810.0 -740.5
4078 810.0 -750.5
4079 810.0 -760.5
4080 810.0 -770.5
4081 811.44 -331.13
4082 811.64 -343.29
4083 811.81 -780.15
4084 808.5 -788.9
4085 812.0 -685.13
4086 813.0 -694.5
4087 813.0 -704.5
4088 812.83 -714.11
4089 812.5 -320.0
4090 814.07 -353.21
4091 812.5 -363.33
4092 820.17 -729.44
4093 820.0 -743.5
4094 820.0 -753.5
4095 820.33 -763.75
4096 816.5 -331.0
4097 816.5 -341.0
4098 817.67 -774.58
4099 821.0 -699.17
4100 823.0 -709.5
4101 823.0 -718.63
4102 828.25 -730.25
4103 827.5 -742.0
4104 826.3 -753.0
4105 828.5 -717.0
4106 553.09 -541.28
4107 667.75 -209.09
4108 649.2 -204.04
4109 682.93 -128.15
4110 674.5 -214.15
4111 583.44 -603.67
4112 603.67 -600.3
4113 36.65632634740493 -119.14981580201488
4114 647.0479508803576 -410.91051607065936
4115 62.16855497960645 -714.5592080314522
4116 249.3932000905387 -532.6262775011318
4117 311.03517763157896 -957.3582421052631
4118 71.52694046394143 -465.8092668833434
4119 36.18982448893799 -79.51822913306025
