0 2 0 0
549 0
0 3388 3451
1 3325 3388
2 63 97
3 39 63
4 20 39
5 14 20
6 8 10
7 8 14
8 3818 3849
9 3849 3895
10 4024 4051
11 311 360
12 4034 4063
13 3569 3618
14 4063 4084
15 4102 4103
16 644 692
17 638 644
18 805 858
19 3747 3818
20 3895 3896
21 3878 3896
22 3850 3878
23 4039 4064
24 3995 4024
25 0 2
26 262 311
27 97 131
28 4084 4098
29 4095 4104
30 4095 4098
31 4102 4105
32 638 659
33 159 203
34 692 751
35 751 805
36 2790 2847
37 2653 2709
38 24 41
39 3264 3323
40 3384 3458
41 4096 4097
42 4072 4091
43 4072 4073
44 3834 3850
45 3722 3791
46 3963 3995
47 4010 4039
48 3329 3357
49 3683 3731
50 564 675
51 410 512
52 360 410
53 200 244
54 32 51
55 389 449
56 4103 4104
57 3510 3569
58 247 294
59 203 247
60 4107 4110
61 3571 4110
62 3571 3626
63 3626 3675
64 3675 3722
65 2904 2964
66 2439 2496
67 2375 2439
68 2676 2706
69 2782 2839
70 2677 2728
71 2728 2782
72 2734 2790
73 2706 2734
74 10 22
75 3077 3137
76 2896 3015
77 3458 3518
78 3518 3577
79 3577 3651
80 4090 4097
81 4090 4091
82 4050 4051
83 4050 4073
84 4074 4089
85 4089 4096
86 3906 3953
87 2523 2610
88 3301 3328
89 3328 3334
90 291 382
91 5 7
92 1 5
93 7 13
94 799 800
95 800 855
96 729 788
97 512 564
98 2673 2677
99 2673 2676
100 351 400
101 303 351
102 171 216
103 279 319
104 2444 2445
105 2444 2500
106 531 583
107 637 696
108 583 637
109 157 200
110 13 19
111 2466 2524
112 2465 2466
113 1385 1438
114 1438 1529
115 659 688
116 688 702
117 294 341
118 3617 3618
119 4005 4034
120 3864 3905
121 3451 3510
122 3273 3335
123 73 91
124 2964 3086
125 3775 3834
126 3729 3775
127 2709 2763
128 2839 2896
129 2847 2904
130 2602 2653
131 92 126
132 61 92
133 41 61
134 3015 3077
135 3238 3299
136 3299 4108
137 3373 3385
138 3989 4025
139 3953 3989
140 3242 3301
141 2471 2523
142 2471 2500
143 3334 3365
144 3365 3373
145 2445 2446
146 1604 1646
147 1597 1604
148 3890 3929
149 3978 4010
150 3929 3963
151 3907 3943
152 3943 3978
153 160 187
154 232 279
155 187 232
156 121 160
157 255 303
158 22 69
159 400 450
160 896 950
161 841 896
162 480 531
163 959 1011
164 593 647
165 51 95
166 19 32
167 449 482
168 855 910
169 1333 1385
170 866 907
171 341 389
172 702 749
173 3597 3598
174 3905 3973
175 3973 4005
176 3820 3864
177 3263 3325
178 3335 3400
179 3400 3462
180 909 1013
181 54 73
182 3176 3238
183 3425 4108
184 3425 4107
185 3237 3302
186 3086 3146
187 3146 3237
188 3057 3115
189 2879 2937
190 2821 2879
191 2763 2821
192 166 210
193 126 166
194 210 255
195 3115 3176
196 3856 3906
197 3791 3856
198 3848 3890
199 3866 3907
200 3777 3822
201 3054 3120
202 3173 3242
203 3062 3173
204 2610 2660
205 3579 3634
206 2 4
207 4 6
208 431 480
209 745 799
210 703 745
211 729 730
212 730 731
213 694 731
214 1258 1308
215 904 956
216 1155 1209
217 1209 1258
218 956 1010
219 87 121
220 69 87
221 131 171
222 2313 2375
223 2252 2313
224 1308 1360
225 1360 1412
226 1419 1472
227 1535 1548
228 1599 1603
229 1603 1644
230 1161 1215
231 1103 1155
232 500 551
233 450 500
234 551 604
235 833 889
236 950 1006
237 1006 1059
238 787 841
239 787 788
240 813 871
241 490 540
242 540 593
243 440 490
244 382 431
245 1284 1336
246 1316 1369
247 1232 1284
248 1164 1218
249 871 959
250 95 157
251 972 997
252 960 972
253 72 96
254 1336 1389
255 2116 2236
256 1993 2116
257 2464 2465
258 910 962
259 1231 1333
260 810 852
261 852 866
262 776 810
263 749 776
264 3539 3597
265 3538 3539
266 3599 3617
267 3598 3599
268 3479 3538
269 3432 3433
270 3433 3479
271 3726 3767
272 3369 3432
273 3767 3820
274 4099 4105
275 3243 3244
276 2817 2875
277 120 159
278 91 120
279 2549 2602
280 2496 2549
281 3323 3384
282 3137 3200
283 3700 3747
284 3651 3700
285 3669 3729
286 3446 3511
287 3511 3549
288 4025 4052
289 4052 4074
290 3616 3667
291 3561 3616
292 3634 3683
293 3502 3561
294 3667 3714
295 3714 3760
296 3731 3777
297 3760 3804
298 3804 3848
299 3822 3866
300 3210 4112
301 3210 3273
302 2660 2769
303 2769 2884
304 2384 2446
305 1529 1542
306 2524 2576
307 2934 2993
308 2993 3054
309 3025 4112
310 2905 3025
311 3521 3579
312 15 24
313 6 15
314 0 1
315 695 703
316 694 695
317 1009 1010
318 675 734
319 851 904
320 797 851
321 417 467
322 216 262
323 319 367
324 367 417
325 1487 1535
326 1472 1487
327 1059 1109
328 1265 1367
329 1367 1419
330 1109 1161
331 1215 1265
332 1588 1599
333 1548 1588
334 1053 1103
335 1000 1053
336 757 813
337 696 757
338 392 440
339 344 392
340 297 344
341 244 291
342 250 297
343 918 997
344 815 918
345 761 815
346 1218 1316
347 1111 1164
348 1011 1111
349 647 705
350 705 762
351 920 960
352 907 920
353 124 163
354 96 124
355 1614 1679
356 1853 1916
357 1497 1553
358 1596 1725
359 1553 1614
360 2394 2464
361 2387 2394
362 1129 1180
363 1180 1231
364 1978 2040
365 1916 1978
366 1931 1993
367 858 909
368 3306 3307
369 3244 3306
370 3307 3369
371 1608 1635
372 4064 4085
373 4085 4099
374 2708 2817
375 1376 1429
376 33 36
377 31 33
378 30 31
379 36 44
380 2996 3057
381 2937 2996
382 3001 3062
383 2884 3001
384 3200 3264
385 3549 4109
386 3393 3446
387 3302 3393
388 3442 3502
389 3380 3442
390 3462 3521
391 3318 3380
392 3259 3318
393 3305 3329
394 3268 3305
395 2386 2387
396 1644 1645
397 1645 1646
398 1586 1597
399 1542 1586
400 2877 2934
401 2682 2735
402 2775 2832
403 2627 2681
404 2681 2775
405 2791 2905
406 2420 2476
407 2236 2296
408 734 790
409 1008 1009
410 1412 1465
411 1465 1575
412 718 778
413 778 833
414 625 682
415 660 718
416 604 660
417 163 206
418 206 250
419 1131 1182
420 1182 1232
421 1079 1131
422 482 550
423 550 590
424 52 72
425 42 52
426 30 35
427 35 42
428 1528 1596
429 1476 1528
430 1422 1476
431 1369 1422
432 1725 1853
433 1742 1806
434 1679 1742
435 2630 2682
436 962 1014
437 1014 1129
438 2040 2101
439 2101 2161
440 3679 3726
441 3537 3630
442 3630 3679
443 1635 1699
444 1698 1699
445 1698 1761
446 1534 1608
447 3230 3291
448 3230 3243
449 3478 3537
450 1482 1534
451 1429 1482
452 44 54
453 3620 3669
454 3620 4109
455 3385 3386
456 3386 3387
457 2576 2627
458 2384 2385
459 2385 2386
460 2572 2629
461 2877 4106
462 2296 2357
463 2357 2420
464 790 844
465 844 898
466 898 951
467 682 741
468 741 797
469 571 625
470 467 571
471 1700 1762
472 1575 1700
473 1887 1948
474 1948 2010
475 1031 1079
476 926 1031
477 872 926
478 701 761
479 1443 1497
480 1389 1443
481 1868 1931
482 1806 1868
483 1013 1115
484 1824 1886
485 3136 3263
486 3368 3387
487 3357 3368
488 3008 3069
489 3189 3241
490 3241 3268
491 2579 2630
492 2528 2579
493 1007 1008
494 951 1007
495 2193 2252
496 2133 2193
497 2072 2133
498 2010 2072
499 1825 1887
500 1762 1825
501 817 872
502 762 817
503 1115 1167
504 1167 1220
505 1220 1271
506 1271 1376
507 1761 1824
508 2875 2933
509 3352 3416
510 3416 3478
511 3291 3352
512 2949 3008
513 2832 2949
514 3120 3180
515 3180 3259
516 2467 2520
517 2520 2572
518 2707 4106
519 2629 2707
520 2735 2791
521 2476 2528
522 889 944
523 944 1000
524 643 701
525 590 643
526 2161 2222
527 2222 2283
528 3014 3136
529 2933 3014
530 2623 2708
531 2286 2348
532 3069 3128
533 3128 3189
534 2283 2349
535 2559 2601
536 2601 2623
537 2071 2132
538 2132 2192
539 2009 2071
540 1886 2009
541 2192 2224
542 2224 2286
543 2519 2559
544 2412 2467
545 2349 2412
546 2348 2413
547 2413 2468
548 2468 2519
2
0 565.3722916666667 -357.6468749999999
1 268.395625 -352.3585416666667
