0 2 0 0
329 0
0 1 6
1 137 178
2 3056 3083
3 3055 3056
4 2498 2578
5 2578 2618
6 177 218
7 370 405
8 794 795
9 795 866
10 296 370
11 2375 2417
12 2971 3010
13 3047 3048
14 0 5
15 1524 1570
16 1664 1704
17 1704 1741
18 257 296
19 218 257
20 1037 1068
21 1067 1068
22 970 1004
23 1004 1037
24 1162 1179
25 1145 1162
26 684 703
27 703 722
28 722 741
29 741 761
30 589 608
31 2179 2253
32 3010 3047
33 3083 3107
34 22 39
35 62 69
36 55 62
37 39 55
38 258 334
39 971 1038
40 1741 1742
41 457 494
42 627 646
43 608 627
44 1935 1964
45 1964 1980
46 3107 3128
47 3128 3145
48 3049 3050
49 3048 3049
50 2417 2458
51 2458 2499
52 2931 2971
53 3051 3052
54 3052 3053
55 2374 2416
56 2416 2498
57 0 1
58 69 76
59 76 87
60 87 137
61 334 371
62 1200 1201
63 1199 1200
64 1478 1524
65 1440 1482
66 1482 1483
67 1146 1180
68 761 796
69 1331 1402
70 1263 1331
71 793 794
72 1066 1067
73 1065 1066
74 1144 1145
75 1064 1065
76 437 457
77 570 589
78 2253 2333
79 2333 2375
80 2814 2853
81 2853 2931
82 2775 2814
83 3054 3055
84 3053 3054
85 3144 3157
86 3127 3144
87 3009 3082
88 2332 2374
89 47 61
90 135 136
91 134 135
92 136 177
93 2090 2117
94 2146 2179
95 2117 2146
96 1742 1776
97 2064 2090
98 1231 1297
99 1199 1231
100 1441 1485
101 1439 1478
102 1439 1440
103 1208 1209
104 1073 1086
105 902 971
106 867 902
107 1123 1146
108 1114 1123
109 1402 1438
110 1523 1617
111 936 970
112 866 936
113 1063 1064
114 665 684
115 646 665
116 532 551
117 551 570
118 2177 2178
119 2697 2736
120 2539 2579
121 2658 2697
122 2579 2658
123 2291 2331
124 2331 2332
125 2215 2252
126 2178 2215
127 2252 2291
128 85 86
129 5 13
130 132 133
131 133 134
132 21 30
133 30 47
134 131 132
135 130 131
136 128 129
137 129 130
138 1367 1441
139 1204 1205
140 1180 1210
141 831 867
142 796 831
143 1072 1073
144 1477 1523
145 1438 1477
146 789 790
147 790 791
148 792 793
149 791 792
150 406 437
151 494 513
152 1980 2000
153 2000 2041
154 2041 2063
155 2089 2145
156 2145 2177
157 2499 2539
158 1617 1663
159 1921 1935
160 1907 1921
161 1893 1907
162 127 128
163 126 127
164 121 122
165 115 116
166 116 117
167 118 119
168 404 436
169 404 405
170 2042 2066
171 2001 2021
172 1777 1778
173 1776 1777
174 1981 2001
175 1069 1070
176 1206 1207
177 1205 1206
178 1071 1072
179 721 760
180 114 115
181 113 114
182 124 125
183 125 126
184 1808 1834
185 1778 1779
186 1780 1808
187 1779 1780
188 1834 1858
189 1858 1859
190 1040 1069
191 1039 1040
192 1203 1204
193 1086 1096
194 1096 1105
195 1105 1114
196 760 782
197 1198 1263
198 1179 1198
199 1807 1833
200 1659 1660
201 1659 1703
202 371 406
203 3082 3106
204 3106 3127
205 112 113
206 111 112
207 119 120
208 120 121
209 2065 2066
210 2021 2042
211 2064 2065
212 1860 1861
213 1965 1983
214 1982 1983
215 1862 1863
216 1202 1203
217 1775 1807
218 110 111
219 123 124
220 122 123
221 1908 1936
222 1861 1862
223 1950 1965
224 1936 1950
225 788 789
226 435 436
227 1570 1618
228 1484 1485
229 1618 1664
230 434 435
231 588 607
232 3050 3051
233 2736 2775
234 3151 3152
235 3152 3153
236 2891 2930
237 68 83
238 83 84
239 178 219
240 219 258
241 1483 1484
242 607 626
243 787 788
244 626 645
245 786 787
246 3155 3156
247 3156 3157
248 3148 3149
249 3145 3146
250 84 85
251 61 68
252 569 588
253 1209 1210
254 513 532
255 1879 1893
256 1857 1879
257 3153 3154
258 3154 3155
259 2618 2657
260 3150 3151
261 3149 3150
262 3147 3148
263 3146 3147
264 13 21
265 433 434
266 432 433
267 550 569
268 1332 1367
269 1297 1332
270 683 702
271 783 784
272 2063 2089
273 1833 1857
274 2774 2813
275 2657 2696
276 2930 2970
277 6 14
278 14 22
279 117 118
280 431 432
281 430 431
282 427 428
283 531 550
284 1981 1982
285 1207 1208
286 1070 1071
287 1660 1661
288 784 785
289 1122 1131
290 1131 1142
291 645 664
292 785 786
293 664 683
294 782 783
295 702 721
296 2852 2891
297 2813 2852
298 2735 2774
299 2696 2735
300 1661 1662
301 1662 1663
302 86 97
303 428 429
304 475 493
305 427 475
306 493 512
307 429 430
308 512 531
309 1859 1860
310 1038 1039
311 2970 3009
312 1201 1202
313 1143 1144
314 1062 1063
315 1061 1062
316 1095 1104
317 1702 1775
318 1702 1703
319 97 110
320 1894 1908
321 1880 1894
322 1061 1085
323 1085 1095
324 1104 1113
325 1113 1122
326 1142 1143
327 1863 1864
328 1864 1880
0
