3158 2 0 0
0 6.5 -20.5
1 7.5 -18.5
2 7.5 -19.5
3 7.5 -20.5
4 7.5 -21.5
5 7.5 -22.5
6 8.5 -16.5
7 8.5 -17.5
8 8.5 -18.5
9 8.5 -19.5
10 8.5 -20.5
11 8.5 -21.5
12 8.5 -22.5
13 8.5 -23.5
14 9.5 -16.5
15 9.5 -17.5
16 9.5 -18.5
17 9.5 -19.5
18 9.5 -20.5
19 9.5 -21.5
20 9.5 -22.5
21 9.5 -23.5
22 10.5 -14.5
23 10.5 -15.5
24 10.5 -16.5
25 10.5 -17.5
26 10.5 -18.5
27 10.5 -19.5
28 10.5 -20.5
29 10.5 -21.5
30 10.5 -22.5
31 11.5 -14.5
32 11.5 -15.5
33 11.5 -16.5
34 11.5 -17.5
35 11.5 -18.5
36 11.5 -19.5
37 11.5 -20.5
38 11.5 -21.5
39 12.5 -13.5
40 12.5 -14.5
41 12.5 -15.5
42 12.5 -16.5
43 12.5 -17.5
44 12.5 -18.5
45 12.5 -19.5
46 12.5 -20.5
47 12.5 -21.5
48 13.5 -14.5
49 13.5 -15.5
50 13.5 -16.5
51 13.5 -17.5
52 13.5 -18.5
53 13.5 -19.5
54 13.5 -20.5
55 14.5 -14.5
56 14.5 -15.5
57 14.5 -16.5
58 14.5 -17.5
59 14.5 -18.5
60 14.5 -19.5
61 14.5 -20.5
62 15.5 -14.5
63 15.5 -15.5
64 15.5 -16.5
65 15.5 -17.5
66 15.5 -18.5
67 15.5 -19.5
68 15.5 -20.5
69 16.5 -14.5
70 16.5 -15.5
71 16.5 -16.5
72 16.5 -17.5
73 16.5 -18.5
74 16.5 -19.5
75 16.5 -20.5
76 17.5 -14.5
77 17.5 -15.5
78 17.5 -16.5
79 17.5 -17.5
80 17.5 -18.5
81 17.5 -19.5
82 17.5 -20.5
83 17.5 -21.5
84 17.5 -22.5
85 17.5 -23.5
86 17.5 -24.5
87 18.5 -14.5
88 18.5 -15.5
89 18.5 -16.5
90 18.5 -17.5
91 18.5 -18.5
92 18.5 -19.5
93 18.5 -20.5
94 18.5 -21.5
95 18.5 -22.5
96 18.5 -23.5
97 18.5 -24.5
98 19.5 -14.5
99 19.5 -15.5
100 19.5 -16.5
101 19.5 -17.5
102 19.5 -18.5
103 19.5 -19.5
104 19.5 -20.5
105 19.5 -21.5
106 19.5 -22.5
107 19.5 -23.5
108 19.5 -24.5
109 19.5 -25.5
110 19.5 -26.5
111 19.5 -27.5
112 19.5 -28.5
113 19.5 -29.5
114 19.5 -30.5
115 19.5 -31.5
116 19.5 -32.5
117 19.5 -33.5
118 19.5 -34.5
119 19.5 -35.5
120 19.5 -36.5
121 19.5 -37.5
122 19.5 -38.5
123 19.5 -39.5
124 19.5 -40.5
125 19.5 -41.5
126 19.5 -42.5
127 19.5 -43.5
128 19.5 -44.5
129 19.5 -45.5
130 19.5 -46.5
131 19.5 -47.5
132 19.5 -48.5
133 19.5 -49.5
134 19.5 -50.5
135 19.5 -51.5
136 19.5 -52.5
137 20.5 -13.5
138 20.5 -14.5
139 20.5 -15.5
140 20.5 -16.5
141 20.5 -17.5
142 20.5 -18.5
143 20.5 -19.5
144 20.5 -20.5
145 20.5 -21.5
146 20.5 -22.5
147 20.5 -23.5
148 20.5 -24.5
149 20.5 -25.5
150 20.5 -26.5
151 20.5 -27.5
152 20.5 -28.5
153 20.5 -29.5
154 20.5 -30.5
155 20.5 -31.5
156 20.5 -32.5
157 20.5 -33.5
158 20.5 -34.5
159 20.5 -35.5
160 20.5 -36.5
161 20.5 -37.5
162 20.5 -38.5
163 20.5 -39.5
164 20.5 -40.5
165 20.5 -41.5
166 20.5 -42.5
167 20.5 -43.5
168 20.5 -44.5
169 20.5 -45.5
170 20.5 -46.5
171 20.5 -47.5
172 20.5 -48.5
173 20.5 -49.5
174 20.5 -50.5
175 20.5 -51.5
176 20.5 -52.5
177 20.5 -53.5
178 21.5 -13.5
179 21.5 -14.5
180 21.5 -15.5
181 21.5 -16.5
182 21.5 -17.5
183 21.5 -18.5
184 21.5 -19.5
185 21.5 -20.5
186 21.5 -21.5
187 21.5 -22.5
188 21.5 -23.5
189 21.5 -24.5
190 21.5 -25.5
191 21.5 -26.5
192 21.5 -27.5
193 21.5 -28.5
194 21.5 -29.5
195 21.5 -30.5
196 21.5 -31.5
197 21.5 -32.5
198 21.5 -33.5
199 21.5 -34.5
200 21.5 -35.5
201 21.5 -36.5
202 21.5 -37.5
203 21.5 -38.5
204 21.5 -39.5
205 21.5 -40.5
206 21.5 -41.5
207 21.5 -42.5
208 21.5 -43.5
209 21.5 -44.5
210 21.5 -45.5
211 21.5 -46.5
212 21.5 -47.5
213 21.5 -48.5
214 21.5 -49.5
215 21.5 -50.5
216 21.5 -51.5
217 21.5 -52.5
218 21.5 -53.5
219 22.5 -15.5
220 22.5 -16.5
221 22.5 -17.5
222 22.5 -18.5
223 22.5 -19.5
224 22.5 -20.5
225 22.5 -21.5
226 22.5 -22.5
227 22.5 -23.5
228 22.5 -24.5
229 22.5 -25.5
230 22.5 -26.5
231 22.5 -27.5
232 22.5 -28.5
233 22.5 -29.5
234 22.5 -30.5
235 22.5 -31.5
236 22.5 -32.5
237 22.5 -33.5
238 22.5 -34.5
239 22.5 -35.5
240 22.5 -36.5
241 22.5 -37.5
242 22.5 -38.5
243 22.5 -39.5
244 22.5 -40.5
245 22.5 -41.5
246 22.5 -42.5
247 22.5 -43.5
248 22.5 -44.5
249 22.5 -45.5
250 22.5 -46.5
251 22.5 -47.5
252 22.5 -48.5
253 22.5 -49.5
254 22.5 -50.5
255 22.5 -51.5
256 22.5 -52.5
257 22.5 -53.5
258 23.5 -15.5
259 23.5 -16.5
260 23.5 -17.5
261 23.5 -18.5
262 23.5 -19.5
263 23.5 -20.5
264 23.5 -21.5
265 23.5 -22.5
266 23.5 -23.5
267 23.5 -24.5
268 23.5 -25.5
269 23.5 -26.5
270 23.5 -27.5
271 23.5 -28.5
272 23.5 -29.5
273 23.5 -30.5
274 23.5 -31.5
275 23.5 -32.5
276 23.5 -33.5
277 23.5 -34.5
278 23.5 -35.5
279 23.5 -36.5
280 23.5 -37.5
281 23.5 -38.5
282 23.5 -39.5
283 23.5 -40.5
284 23.5 -41.5
285 23.5 -42.5
286 23.5 -43.5
287 23.5 -44.5
288 23.5 -45.5
289 23.5 -46.5
290 23.5 -47.5
291 23.5 -48.5
292 23.5 -49.5
293 23.5 -50.5
294 23.5 -51.5
295 23.5 -52.5
296 23.5 -53.5
297 24.5 -16.5
298 24.5 -17.5
299 24.5 -18.5
300 24.5 -19.5
301 24.5 -20.5
302 24.5 -21.5
303 24.5 -22.5
304 24.5 -23.5
305 24.5 -24.5
306 24.5 -25.5
307 24.5 -26.5
308 24.5 -27.5
309 24.5 -28.5
310 24.5 -29.5
311 24.5 -30.5
312 24.5 -31.5
313 24.5 -32.5
314 24.5 -33.5
315 24.5 -34.5
316 24.5 -35.5
317 24.5 -36.5
318 24.5 -37.5
319 24.5 -38.5
320 24.5 -39.5
321 24.5 -40.5
322 24.5 -41.5
323 24.5 -42.5
324 24.5 -43.5
325 24.5 -44.5
326 24.5 -45.5
327 24.5 -46.5
328 24.5 -47.5
329 24.5 -48.5
330 24.5 -49.5
331 24.5 -50.5
332 24.5 -51.5
333 24.5 -52.5
334 25.5 -16.5
335 25.5 -17.5
336 25.5 -18.5
337 25.5 -19.5
338 25.5 -20.5
339 25.5 -21.5
340 25.5 -22.5
341 25.5 -23.5
342 25.5 -24.5
343 25.5 -25.5
344 25.5 -26.5
345 25.5 -27.5
346 25.5 -28.5
347 25.5 -29.5
348 25.5 -30.5
349 25.5 -31.5
350 25.5 -32.5
351 25.5 -33.5
352 25.5 -34.5
353 25.5 -35.5
354 25.5 -36.5
355 25.5 -37.5
356 25.5 -38.5
357 25.5 -39.5
358 25.5 -40.5
359 25.5 -41.5
360 25.5 -42.5
361 25.5 -43.5
362 25.5 -44.5
363 25.5 -45.5
364 25.5 -46.5
365 25.5 -47.5
366 25.5 -48.5
367 25.5 -49.5
368 25.5 -50.5
369 25.5 -51.5
370 25.5 -52.5
371 26.5 -17.5
372 26.5 -18.5
373 26.5 -19.5
374 26.5 -20.5
375 26.5 -21.5
376 26.5 -22.5
377 26.5 -23.5
378 26.5 -24.5
379 26.5 -25.5
380 26.5 -26.5
381 26.5 -27.5
382 26.5 -28.5
383 26.5 -29.5
384 26.5 -30.5
385 26.5 -31.5
386 26.5 -32.5
387 26.5 -33.5
388 26.5 -34.5
389 26.5 -35.5
390 26.5 -36.5
391 26.5 -37.5
392 26.5 -38.5
393 26.5 -39.5
394 26.5 -40.5
395 26.5 -41.5
396 26.5 -42.5
397 26.5 -43.5
398 26.5 -44.5
399 26.5 -45.5
400 26.5 -46.5
401 26.5 -47.5
402 26.5 -48.5
403 26.5 -49.5
404 26.5 -50.5
405 26.5 -51.5
406 27.5 -18.5
407 27.5 -19.5
408 27.5 -20.5
409 27.5 -21.5
410 27.5 -22.5
411 27.5 -23.5
412 27.5 -24.5
413 27.5 -25.5
414 27.5 -26.5
415 27.5 -27.5
416 27.5 -28.5
417 27.5 -29.5
418 27.5 -30.5
419 27.5 -31.5
420 27.5 -32.5
421 27.5 -33.5
422 27.5 -34.5
423 27.5 -35.5
424 27.5 -36.5
425 27.5 -37.5
426 27.5 -38.5
427 27.5 -39.5
428 27.5 -40.5
429 27.5 -41.5
430 27.5 -42.5
431 27.5 -43.5
432 27.5 -44.5
433 27.5 -45.5
434 27.5 -46.5
435 27.5 -47.5
436 27.5 -48.5
437 28.5 -19.5
438 28.5 -20.5
439 28.5 -21.5
440 28.5 -22.5
441 28.5 -23.5
442 28.5 -24.5
443 28.5 -25.5
444 28.5 -26.5
445 28.5 -27.5
446 28.5 -28.5
447 28.5 -29.5
448 28.5 -30.5
449 28.5 -31.5
450 28.5 -32.5
451 28.5 -33.5
452 28.5 -34.5
453 28.5 -35.5
454 28.5 -36.5
455 28.5 -37.5
456 28.5 -38.5
457 29.5 -20.5
458 29.5 -21.5
459 29.5 -22.5
460 29.5 -23.5
461 29.5 -24.5
462 29.5 -25.5
463 29.5 -26.5
464 29.5 -27.5
465 29.5 -28.5
466 29.5 -29.5
467 29.5 -30.5
468 29.5 -31.5
469 29.5 -32.5
470 29.5 -33.5
471 29.5 -34.5
472 29.5 -35.5
473 29.5 -36.5
474 29.5 -37.5
475 29.5 -38.5
476 30.5 -21.5
477 30.5 -22.5
478 30.5 -23.5
479 30.5 -24.5
480 30.5 -25.5
481 30.5 -26.5
482 30.5 -27.5
483 30.5 -28.5
484 30.5 -29.5
485 30.5 -30.5
486 30.5 -31.5
487 30.5 -32.5
488 30.5 -33.5
489 30.5 -34.5
490 30.5 -35.5
491 30.5 -36.5
492 30.5 -37.5
493 30.5 -38.5
494 31.5 -20.5
495 31.5 -21.5
496 31.5 -22.5
497 31.5 -23.5
498 31.5 -24.5
499 31.5 -25.5
500 31.5 -26.5
501 31.5 -27.5
502 31.5 -28.5
503 31.5 -29.5
504 31.5 -30.5
505 31.5 -31.5
506 31.5 -32.5
507 31.5 -33.5
508 31.5 -34.5
509 31.5 -35.5
510 31.5 -36.5
511 31.5 -37.5
512 31.5 -38.5
513 32.5 -20.5
514 32.5 -21.5
515 32.5 -22.5
516 32.5 -23.5
517 32.5 -24.5
518 32.5 -25.5
519 32.5 -26.5
520 32.5 -27.5
521 32.5 -28.5
522 32.5 -29.5
523 32.5 -30.5
524 32.5 -31.5
525 32.5 -32.5
526 32.5 -33.5
527 32.5 -34.5
528 32.5 -35.5
529 32.5 -36.5
530 32.5 -37.5
531 32.5 -38.5
532 33.5 -20.5
533 33.5 -21.5
534 33.5 -22.5
535 33.5 -23.5
536 33.5 -24.5
537 33.5 -25.5
538 33.5 -26.5
539 33.5 -27.5
540 33.5 -28.5
541 33.5 -29.5
542 33.5 -30.5
543 33.5 -31.5
544 33.5 -32.5
545 33.5 -33.5
546 33.5 -34.5
547 33.5 -35.5
548 33.5 -36.5
549 33.5 -37.5
550 33.5 -38.5
551 34.5 -20.5
552 34.5 -21.5
553 34.5 -22.5
554 34.5 -23.5
555 34.5 -24.5
556 34.5 -25.5
557 34.5 -26.5
558 34.5 -27.5
559 34.5 -28.5
560 34.5 -29.5
561 34.5 -30.5
562 34.5 -31.5
563 34.5 -32.5
564 34.5 -33.5
565 34.5 -34.5
566 34.5 -35.5
567 34.5 -36.5
568 34.5 -37.5
569 34.5 -38.5
570 35.5 -20.5
571 35.5 -21.5
572 35.5 -22.5
573 35.5 -23.5
574 35.5 -24.5
575 35.5 -25.5
576 35.5 -26.5
577 35.5 -27.5
578 35.5 -28.5
579 35.5 -29.5
580 35.5 -30.5
581 35.5 -31.5
582 35.5 -32.5
583 35.5 -33.5
584 35.5 -34.5
585 35.5 -35.5
586 35.5 -36.5
587 35.5 -37.5
588 35.5 -38.5
589 36.5 -20.5
590 36.5 -21.5
591 36.5 -22.5
592 36.5 -23.5
593 36.5 -24.5
594 36.5 -25.5
595 36.5 -26.5
596 36.5 -27.5
597 36.5 -28.5
598 36.5 -29.5
599 36.5 -30.5
600 36.5 -31.5
601 36.5 -32.5
602 36.5 -33.5
603 36.5 -34.5
604 36.5 -35.5
605 36.5 -36.5
606 36.5 -37.5
607 36.5 -38.5
608 37.5 -20.5
609 37.5 -21.5
610 37.5 -22.5
611 37.5 -23.5
612 37.5 -24.5
613 37.5 -25.5
614 37.5 -26.5
615 37.5 -27.5
616 37.5 -28.5
617 37.5 -29.5
618 37.5 -30.5
619 37.5 -31.5
620 37.5 -32.5
621 37.5 -33.5
622 37.5 -34.5
623 37.5 -35.5
624 37.5 -36.5
625 37.5 -37.5
626 37.5 -38.5
627 38.5 -20.5
628 38.5 -21.5
629 38.5 -22.5
630 38.5 -23.5
631 38.5 -24.5
632 38.5 -25.5
633 38.5 -26.5
634 38.5 -27.5
635 38.5 -28.5
636 38.5 -29.5
637 38.5 -30.5
638 38.5 -31.5
639 38.5 -32.5
640 38.5 -33.5
641 38.5 -34.5
642 38.5 -35.5
643 38.5 -36.5
644 38.5 -37.5
645 38.5 -38.5
646 39.5 -20.5
647 39.5 -21.5
648 39.5 -22.5
649 39.5 -23.5
650 39.5 -24.5
651 39.5 -25.5
652 39.5 -26.5
653 39.5 -27.5
654 39.5 -28.5
655 39.5 -29.5
656 39.5 -30.5
657 39.5 -31.5
658 39.5 -32.5
659 39.5 -33.5
660 39.5 -34.5
661 39.5 -35.5
662 39.5 -36.5
663 39.5 -37.5
664 39.5 -38.5
665 40.5 -20.5
666 40.5 -21.5
667 40.5 -22.5
668 40.5 -23.5
669 40.5 -24.5
670 40.5 -25.5
671 40.5 -26.5
672 40.5 -27.5
673 40.5 -28.5
674 40.5 -29.5
675 40.5 -30.5
676 40.5 -31.5
677 40.5 -32.5
678 40.5 -33.5
679 40.5 -34.5
680 40.5 -35.5
681 40.5 -36.5
682 40.5 -37.5
683 40.5 -38.5
684 41.5 -20.5
685 41.5 -21.5
686 41.5 -22.5
687 41.5 -23.5
688 41.5 -24.5
689 41.5 -25.5
690 41.5 -26.5
691 41.5 -27.5
692 41.5 -28.5
693 41.5 -29.5
694 41.5 -30.5
695 41.5 -31.5
696 41.5 -32.5
697 41.5 -33.5
698 41.5 -34.5
699 41.5 -35.5
700 41.5 -36.5
701 41.5 -37.5
702 41.5 -38.5
703 42.5 -20.5
704 42.5 -21.5
705 42.5 -22.5
706 42.5 -23.5
707 42.5 -24.5
708 42.5 -25.5
709 42.5 -26.5
710 42.5 -27.5
711 42.5 -28.5
712 42.5 -29.5
713 42.5 -30.5
714 42.5 -31.5
715 42.5 -32.5
716 42.5 -33.5
717 42.5 -34.5
718 42.5 -35.5
719 42.5 -36.5
720 42.5 -37.5
721 42.5 -38.5
722 43.5 -20.5
723 43.5 -21.5
724 43.5 -22.5
725 43.5 -23.5
726 43.5 -24.5
727 43.5 -25.5
728 43.5 -26.5
729 43.5 -27.5
730 43.5 -28.5
731 43.5 -29.5
732 43.5 -30.5
733 43.5 -31.5
734 43.5 -32.5
735 43.5 -33.5
736 43.5 -34.5
737 43.5 -35.5
738 43.5 -36.5
739 43.5 -37.5
740 43.5 -38.5
741 44.5 -20.5
742 44.5 -21.5
743 44.5 -22.5
744 44.5 -23.5
745 44.5 -24.5
746 44.5 -25.5
747 44.5 -26.5
748 44.5 -27.5
749 44.5 -28.5
750 44.5 -29.5
751 44.5 -30.5
752 44.5 -31.5
753 44.5 -32.5
754 44.5 -33.5
755 44.5 -34.5
756 44.5 -35.5
757 44.5 -36.5
758 44.5 -37.5
759 44.5 -38.5
760 44.5 -39.5
761 45.5 -20.5
762 45.5 -21.5
763 45.5 -22.5
764 45.5 -23.5
765 45.5 -24.5
766 45.5 -25.5
767 45.5 -26.5
768 45.5 -27.5
769 45.5 -28.5
770 45.5 -29.5
771 45.5 -30.5
772 45.5 -31.5
773 45.5 -32.5
774 45.5 -33.5
775 45.5 -34.5
776 45.5 -35.5
777 45.5 -36.5
778 45.5 -37.5
779 45.5 -38.5
780 45.5 -39.5
781 45.5 -40.5
782 45.5 -41.5
783 45.5 -42.5
784 45.5 -43.5
785 45.5 -44.5
786 45.5 -45.5
787 45.5 -46.5
788 45.5 -47.5
789 45.5 -48.5
790 45.5 -49.5
791 45.5 -50.5
792 45.5 -51.5
793 45.5 -52.5
794 45.5 -53.5
795 45.5 -54.5
796 46.5 -20.5
797 46.5 -21.5
798 46.5 -22.5
799 46.5 -23.5
800 46.5 -24.5
801 46.5 -25.5
802 46.5 -26.5
803 46.5 -27.5
804 46.5 -28.5
805 46.5 -29.5
806 46.5 -30.5
807 46.5 -31.5
808 46.5 -32.5
809 46.5 -33.5
810 46.5 -34.5
811 46.5 -35.5
812 46.5 -36.5
813 46.5 -37.5
814 46.5 -38.5
815 46.5 -39.5
816 46.5 -40.5
817 46.5 -41.5
818 46.5 -42.5
819 46.5 -43.5
820 46.5 -44.5
821 46.5 -45.5
822 46.5 -46.5
823 46.5 -47.5
824 46.5 -48.5
825 46.5 -49.5
826 46.5 -50.5
827 46.5 -51.5
828 46.5 -52.5
829 46.5 -53.5
830 46.5 -54.5
831 47.5 -20.5
832 47.5 -21.5
833 47.5 -22.5
834 47.5 -23.5
835 47.5 -24.5
836 47.5 -25.5
837 47.5 -26.5
838 47.5 -27.5
839 47.5 -28.5
840 47.5 -29.5
841 47.5 -30.5
842 47.5 -31.5
843 47.5 -32.5
844 47.5 -33.5
845 47.5 -34.5
846 47.5 -35.5
847 47.5 -36.5
848 47.5 -37.5
849 47.5 -38.5
850 47.5 -39.5
851 47.5 -40.5
852 47.5 -41.5
853 47.5 -42.5
854 47.5 -43.5
855 47.5 -44.5
856 47.5 -45.5
857 47.5 -46.5
858 47.5 -47.5
859 47.5 -48.5
860 47.5 -49.5
861 47.5 -50.5
862 47.5 -51.5
863 47.5 -52.5
864 47.5 -53.5
865 47.5 -54.5
866 47.5 -55.5
867 48.5 -20.5
868 48.5 -21.5
869 48.5 -22.5
870 48.5 -23.5
871 48.5 -24.5
872 48.5 -25.5
873 48.5 -26.5
874 48.5 -27.5
875 48.5 -28.5
876 48.5 -29.5
877 48.5 -30.5
878 48.5 -31.5
879 48.5 -32.5
880 48.5 -33.5
881 48.5 -34.5
882 48.5 -35.5
883 48.5 -36.5
884 48.5 -37.5
885 48.5 -38.5
886 48.5 -39.5
887 48.5 -40.5
888 48.5 -41.5
889 48.5 -42.5
890 48.5 -43.5
891 48.5 -44.5
892 48.5 -45.5
893 48.5 -46.5
894 48.5 -47.5
895 48.5 -48.5
896 48.5 -49.5
897 48.5 -50.5
898 48.5 -51.5
899 48.5 -52.5
900 48.5 -53.5
901 48.5 -54.5
902 49.5 -20.5
903 49.5 -21.5
904 49.5 -22.5
905 49.5 -23.5
906 49.5 -24.5
907 49.5 -25.5
908 49.5 -26.5
909 49.5 -27.5
910 49.5 -28.5
911 49.5 -29.5
912 49.5 -30.5
913 49.5 -31.5
914 49.5 -32.5
915 49.5 -33.5
916 49.5 -34.5
917 49.5 -35.5
918 49.5 -36.5
919 49.5 -37.5
920 49.5 -38.5
921 49.5 -39.5
922 49.5 -40.5
923 49.5 -41.5
924 49.5 -42.5
925 49.5 -43.5
926 49.5 -44.5
927 49.5 -45.5
928 49.5 -46.5
929 49.5 -47.5
930 49.5 -48.5
931 49.5 -49.5
932 49.5 -50.5
933 49.5 -51.5
934 49.5 -52.5
935 49.5 -53.5
936 49.5 -54.5
937 50.5 -21.5
938 50.5 -22.5
939 50.5 -23.5
940 50.5 -24.5
941 50.5 -25.5
942 50.5 -26.5
943 50.5 -27.5
944 50.5 -28.5
945 50.5 -29.5
946 50.5 -30.5
947 50.5 -31.5
948 50.5 -32.5
949 50.5 -33.5
950 50.5 -34.5
951 50.5 -35.5
952 50.5 -36.5
953 50.5 -37.5
954 50.5 -38.5
955 50.5 -39.5
956 50.5 -40.5
957 50.5 -41.5
958 50.5 -42.5
959 50.5 -43.5
960 50.5 -44.5
961 50.5 -45.5
962 50.5 -46.5
963 50.5 -47.5
964 50.5 -48.5
965 50.5 -49.5
966 50.5 -50.5
967 50.5 -51.5
968 50.5 -52.5
969 50.5 -53.5
970 50.5 -54.5
971 51.5 -21.5
972 51.5 -22.5
973 51.5 -23.5
974 51.5 -24.5
975 51.5 -25.5
976 51.5 -26.5
977 51.5 -27.5
978 51.5 -28.5
979 51.5 -29.5
980 51.5 -30.5
981 51.5 -31.5
982 51.5 -32.5
983 51.5 -33.5
984 51.5 -34.5
985 51.5 -35.5
986 51.5 -36.5
987 51.5 -37.5
988 51.5 -38.5
989 51.5 -39.5
990 51.5 -40.5
991 51.5 -41.5
992 51.5 -42.5
993 51.5 -43.5
994 51.5 -44.5
995 51.5 -45.5
996 51.5 -46.5
997 51.5 -47.5
998 51.5 -48.5
999 51.5 -49.5
1000 51.5 -50.5
1001 51.5 -51.5
1002 51.5 -52.5
1003 51.5 -53.5
1004 51.5 -54.5
1005 52.5 -22.5
1006 52.5 -23.5
1007 52.5 -24.5
1008 52.5 -25.5
1009 52.5 -26.5
1010 52.5 -27.5
1011 52.5 -28.5
1012 52.5 -29.5
1013 52.5 -30.5
1014 52.5 -31.5
1015 52.5 -32.5
1016 52.5 -33.5
1017 52.5 -34.5
1018 52.5 -35.5
1019 52.5 -36.5
1020 52.5 -37.5
1021 52.5 -38.5
1022 52.5 -39.5
1023 52.5 -40.5
1024 52.5 -41.5
1025 52.5 -42.5
1026 52.5 -43.5
1027 52.5 -44.5
1028 52.5 -45.5
1029 52.5 -46.5
1030 52.5 -47.5
1031 52.5 -48.5
1032 52.5 -49.5
1033 52.5 -50.5
1034 52.5 -51.5
1035 52.5 -52.5
1036 52.5 -53.5
1037 52.5 -54.5
1038 53.5 -22.5
1039 53.5 -23.5
1040 53.5 -24.5
1041 53.5 -25.5
1042 53.5 -26.5
1043 53.5 -27.5
1044 53.5 -28.5
1045 53.5 -29.5
1046 53.5 -30.5
1047 53.5 -31.5
1048 53.5 -32.5
1049 53.5 -33.5
1050 53.5 -34.5
1051 53.5 -35.5
1052 53.5 -36.5
1053 53.5 -37.5
1054 53.5 -38.5
1055 53.5 -39.5
1056 53.5 -40.5
1057 53.5 -41.5
1058 53.5 -42.5
1059 53.5 -43.5
1060 53.5 -44.5
1061 53.5 -45.5
1062 53.5 -46.5
1063 53.5 -47.5
1064 53.5 -48.5
1065 53.5 -49.5
1066 53.5 -50.5
1067 53.5 -51.5
1068 53.5 -52.5
1069 54.5 -26.5
1070 54.5 -28.5
1071 54.5 -29.5
1072 54.5 -30.5
1073 54.5 -31.5
1074 54.5 -32.5
1075 54.5 -33.5
1076 54.5 -34.5
1077 54.5 -35.5
1078 54.5 -36.5
1079 54.5 -37.5
1080 54.5 -38.5
1081 54.5 -39.5
1082 54.5 -40.5
1083 54.5 -41.5
1084 54.5 -42.5
1085 54.5 -43.5
1086 55.5 -33.5
1087 55.5 -35.5
1088 55.5 -36.5
1089 55.5 -37.5
1090 55.5 -38.5
1091 55.5 -39.5
1092 55.5 -40.5
1093 55.5 -41.5
1094 55.5 -42.5
1095 55.5 -43.5
1096 56.5 -35.5
1097 56.5 -36.5
1098 56.5 -37.5
1099 56.5 -38.5
1100 56.5 -39.5
1101 56.5 -40.5
1102 56.5 -41.5
1103 56.5 -42.5
1104 56.5 -43.5
1105 57.5 -35.5
1106 57.5 -36.5
1107 57.5 -37.5
1108 57.5 -38.5
1109 57.5 -39.5
1110 57.5 -40.5
1111 57.5 -41.5
1112 57.5 -42.5
1113 57.5 -43.5
1114 58.5 -35.5
1115 58.5 -36.5
1116 58.5 -37.5
1117 58.5 -38.5
1118 58.5 -39.5
1119 58.5 -40.5
1120 58.5 -41.5
1121 58.5 -42.5
1122 58.5 -43.5
1123 59.5 -35.5
1124 59.5 -36.5
1125 59.5 -37.5
1126 59.5 -38.5
1127 59.5 -39.5
1128 59.5 -40.5
1129 59.5 -41.5
1130 59.5 -42.5
1131 59.5 -43.5
1132 60.5 -35.5
1133 60.5 -36.5
1134 60.5 -37.5
1135 60.5 -38.5
1136 60.5 -39.5
1137 60.5 -40.5
1138 60.5 -41.5
1139 60.5 -42.5
1140 60.5 -43.5
1141 60.5 -44.5
1142 60.5 -45.5
1143 60.5 -46.5
1144 60.5 -47.5
1145 60.5 -49.5
1146 61.5 -34.5
1147 61.5 -35.5
1148 61.5 -36.5
1149 61.5 -37.5
1150 61.5 -38.5
1151 61.5 -39.5
1152 61.5 -40.5
1153 61.5 -41.5
1154 61.5 -42.5
1155 61.5 -43.5
1156 61.5 -44.5
1157 61.5 -45.5
1158 61.5 -46.5
1159 61.5 -47.5
1160 61.5 -48.5
1161 61.5 -49.5
1162 61.5 -50.5
1163 62.5 -35.5
1164 62.5 -36.5
1165 62.5 -37.5
1166 62.5 -38.5
1167 62.5 -39.5
1168 62.5 -40.5
1169 62.5 -41.5
1170 62.5 -42.5
1171 62.5 -43.5
1172 62.5 -44.5
1173 62.5 -45.5
1174 62.5 -46.5
1175 62.5 -47.5
1176 62.5 -48.5
1177 62.5 -49.5
1178 62.5 -50.5
1179 62.5 -51.5
1180 63.5 -33.5
1181 63.5 -34.5
1182 63.5 -35.5
1183 63.5 -36.5
1184 63.5 -37.5
1185 63.5 -38.5
1186 63.5 -39.5
1187 63.5 -40.5
1188 63.5 -41.5
1189 63.5 -42.5
1190 63.5 -43.5
1191 63.5 -44.5
1192 63.5 -45.5
1193 63.5 -46.5
1194 63.5 -47.5
1195 63.5 -48.5
1196 63.5 -49.5
1197 63.5 -50.5
1198 63.5 -51.5
1199 64.5 -20.5
1200 64.5 -21.5
1201 64.5 -22.5
1202 64.5 -23.5
1203 64.5 -24.5
1204 64.5 -25.5
1205 64.5 -26.5
1206 64.5 -27.5
1207 64.5 -28.5
1208 64.5 -29.5
1209 64.5 -30.5
1210 64.5 -31.5
1211 64.5 -32.5
1212 64.5 -33.5
1213 64.5 -34.5
1214 64.5 -35.5
1215 64.5 -36.5
1216 64.5 -37.5
1217 64.5 -38.5
1218 64.5 -39.5
1219 64.5 -40.5
1220 64.5 -41.5
1221 64.5 -42.5
1222 64.5 -43.5
1223 64.5 -44.5
1224 64.5 -45.5
1225 64.5 -46.5
1226 64.5 -47.5
1227 64.5 -48.5
1228 64.5 -49.5
1229 64.5 -50.5
1230 64.5 -51.5
1231 65.5 -20.5
1232 65.5 -21.5
1233 65.5 -22.5
1234 65.5 -23.5
1235 65.5 -24.5
1236 65.5 -25.5
1237 65.5 -26.5
1238 65.5 -27.5
1239 65.5 -28.5
1240 65.5 -29.5
1241 65.5 -30.5
1242 65.5 -31.5
1243 65.5 -32.5
1244 65.5 -33.5
1245 65.5 -34.5
1246 65.5 -35.5
1247 65.5 -36.5
1248 65.5 -37.5
1249 65.5 -38.5
1250 65.5 -39.5
1251 65.5 -40.5
1252 65.5 -41.5
1253 65.5 -42.5
1254 65.5 -43.5
1255 65.5 -44.5
1256 65.5 -45.5
1257 65.5 -46.5
1258 65.5 -47.5
1259 65.5 -48.5
1260 65.5 -49.5
1261 65.5 -50.5
1262 65.5 -51.5
1263 65.5 -52.5
1264 66.5 -20.5
1265 66.5 -21.5
1266 66.5 -22.5
1267 66.5 -23.5
1268 66.5 -24.5
1269 66.5 -25.5
1270 66.5 -26.5
1271 66.5 -27.5
1272 66.5 -28.5
1273 66.5 -29.5
1274 66.5 -30.5
1275 66.5 -31.5
1276 66.5 -32.5
1277 66.5 -33.5
1278 66.5 -34.5
1279 66.5 -35.5
1280 66.5 -36.5
1281 66.5 -37.5
1282 66.5 -38.5
1283 66.5 -39.5
1284 66.5 -40.5
1285 66.5 -41.5
1286 66.5 -42.5
1287 66.5 -43.5
1288 66.5 -44.5
1289 66.5 -45.5
1290 66.5 -46.5
1291 66.5 -47.5
1292 66.5 -48.5
1293 66.5 -49.5
1294 66.5 -50.5
1295 66.5 -51.5
1296 66.5 -52.5
1297 67.5 -19.5
1298 67.5 -20.5
1299 67.5 -21.5
1300 67.5 -22.5
1301 67.5 -23.5
1302 67.5 -24.5
1303 67.5 -25.5
1304 67.5 -26.5
1305 67.5 -27.5
1306 67.5 -28.5
1307 67.5 -29.5
1308 67.5 -30.5
1309 67.5 -31.5
1310 67.5 -32.5
1311 67.5 -33.5
1312 67.5 -34.5
1313 67.5 -35.5
1314 67.5 -36.5
1315 67.5 -37.5
1316 67.5 -38.5
1317 67.5 -39.5
1318 67.5 -40.5
1319 67.5 -41.5
1320 67.5 -42.5
1321 67.5 -43.5
1322 67.5 -44.5
1323 67.5 -45.5
1324 67.5 -46.5
1325 67.5 -47.5
1326 67.5 -48.5
1327 67.5 -49.5
1328 67.5 -50.5
1329 67.5 -51.5
1330 67.5 -52.5
1331 67.5 -53.5
1332 68.5 -19.5
1333 68.5 -20.5
1334 68.5 -21.5
1335 68.5 -22.5
1336 68.5 -23.5
1337 68.5 -24.5
1338 68.5 -25.5
1339 68.5 -26.5
1340 68.5 -27.5
1341 68.5 -28.5
1342 68.5 -29.5
1343 68.5 -30.5
1344 68.5 -31.5
1345 68.5 -32.5
1346 68.5 -33.5
1347 68.5 -34.5
1348 68.5 -35.5
1349 68.5 -36.5
1350 68.5 -37.5
1351 68.5 -38.5
1352 68.5 -39.5
1353 68.5 -40.5
1354 68.5 -41.5
1355 68.5 -42.5
1356 68.5 -43.5
1357 68.5 -44.5
1358 68.5 -45.5
1359 68.5 -46.5
1360 68.5 -47.5
1361 68.5 -48.5
1362 68.5 -49.5
1363 68.5 -50.5
1364 68.5 -51.5
1365 68.5 -52.5
1366 68.5 -53.5
1367 69.5 -19.5
1368 69.5 -20.5
1369 69.5 -21.5
1370 69.5 -22.5
1371 69.5 -23.5
1372 69.5 -24.5
1373 69.5 -25.5
1374 69.5 -26.5
1375 69.5 -27.5
1376 69.5 -28.5
1377 69.5 -29.5
1378 69.5 -30.5
1379 69.5 -31.5
1380 69.5 -32.5
1381 69.5 -33.5
1382 69.5 -34.5
1383 69.5 -35.5
1384 69.5 -36.5
1385 69.5 -37.5
1386 69.5 -38.5
1387 69.5 -39.5
1388 69.5 -40.5
1389 69.5 -41.5
1390 69.5 -42.5
1391 69.5 -43.5
1392 69.5 -44.5
1393 69.5 -45.5
1394 69.5 -46.5
1395 69.5 -47.5
1396 69.5 -48.5
1397 69.5 -49.5
1398 69.5 -50.5
1399 69.5 -51.5
1400 69.5 -52.5
1401 69.5 -53.5
1402 69.5 -54.5
1403 70.5 -19.5
1404 70.5 -20.5
1405 70.5 -21.5
1406 70.5 -22.5
1407 70.5 -23.5
1408 70.5 -24.5
1409 70.5 -25.5
1410 70.5 -26.5
1411 70.5 -27.5
1412 70.5 -28.5
1413 70.5 -29.5
1414 70.5 -30.5
1415 70.5 -31.5
1416 70.5 -32.5
1417 70.5 -33.5
1418 70.5 -34.5
1419 70.5 -35.5
1420 70.5 -36.5
1421 70.5 -37.5
1422 70.5 -38.5
1423 70.5 -39.5
1424 70.5 -40.5
1425 70.5 -41.5
1426 70.5 -42.5
1427 70.5 -43.5
1428 70.5 -44.5
1429 70.5 -45.5
1430 70.5 -46.5
1431 70.5 -47.5
1432 70.5 -48.5
1433 70.5 -49.5
1434 70.5 -50.5
1435 70.5 -51.5
1436 70.5 -52.5
1437 70.5 -53.5
1438 70.5 -54.5
1439 71.5 -10.5
1440 71.5 -11.5
1441 71.5 -18.5
1442 71.5 -19.5
1443 71.5 -20.5
1444 71.5 -21.5
1445 71.5 -22.5
1446 71.5 -23.5
1447 71.5 -24.5
1448 71.5 -25.5
1449 71.5 -26.5
1450 71.5 -27.5
1451 71.5 -28.5
1452 71.5 -29.5
1453 71.5 -30.5
1454 71.5 -31.5
1455 71.5 -32.5
1456 71.5 -33.5
1457 71.5 -34.5
1458 71.5 -35.5
1459 71.5 -36.5
1460 71.5 -37.5
1461 71.5 -38.5
1462 71.5 -39.5
1463 71.5 -40.5
1464 71.5 -41.5
1465 71.5 -42.5
1466 71.5 -43.5
1467 71.5 -44.5
1468 71.5 -45.5
1469 71.5 -46.5
1470 71.5 -47.5
1471 71.5 -48.5
1472 71.5 -49.5
1473 71.5 -50.5
1474 71.5 -51.5
1475 71.5 -52.5
1476 71.5 -53.5
1477 71.5 -54.5
1478 72.5 -9.5
1479 72.5 -10.5
1480 72.5 -11.5
1481 72.5 -12.5
1482 72.5 -13.5
1483 72.5 -14.5
1484 72.5 -15.5
1485 72.5 -16.5
1486 72.5 -17.5
1487 72.5 -18.5
1488 72.5 -19.5
1489 72.5 -20.5
1490 72.5 -21.5
1491 72.5 -22.5
1492 72.5 -23.5
1493 72.5 -24.5
1494 72.5 -25.5
1495 72.5 -26.5
1496 72.5 -27.5
1497 72.5 -28.5
1498 72.5 -29.5
1499 72.5 -30.5
1500 72.5 -31.5
1501 72.5 -32.5
1502 72.5 -33.5
1503 72.5 -34.5
1504 72.5 -35.5
1505 72.5 -36.5
1506 72.5 -37.5
1507 72.5 -38.5
1508 72.5 -39.5
1509 72.5 -40.5
1510 72.5 -41.5
1511 72.5 -42.5
1512 72.5 -43.5
1513 72.5 -44.5
1514 72.5 -45.5
1515 72.5 -46.5
1516 72.5 -47.5
1517 72.5 -48.5
1518 72.5 -49.5
1519 72.5 -50.5
1520 72.5 -51.5
1521 72.5 -52.5
1522 72.5 -53.5
1523 72.5 -54.5
1524 73.5 -8.5
1525 73.5 -9.5
1526 73.5 -10.5
1527 73.5 -11.5
1528 73.5 -12.5
1529 73.5 -13.5
1530 73.5 -14.5
1531 73.5 -15.5
1532 73.5 -16.5
1533 73.5 -17.5
1534 73.5 -18.5
1535 73.5 -19.5
1536 73.5 -20.5
1537 73.5 -21.5
1538 73.5 -22.5
1539 73.5 -23.5
1540 73.5 -24.5
1541 73.5 -25.5
1542 73.5 -26.5
1543 73.5 -27.5
1544 73.5 -28.5
1545 73.5 -29.5
1546 73.5 -30.5
1547 73.5 -31.5
1548 73.5 -32.5
1549 73.5 -33.5
1550 73.5 -34.5
1551 73.5 -35.5
1552 73.5 -36.5
1553 73.5 -37.5
1554 73.5 -38.5
1555 73.5 -39.5
1556 73.5 -40.5
1557 73.5 -41.5
1558 73.5 -42.5
1559 73.5 -43.5
1560 73.5 -44.5
1561 73.5 -45.5
1562 73.5 -46.5
1563 73.5 -47.5
1564 73.5 -48.5
1565 73.5 -49.5
1566 73.5 -50.5
1567 73.5 -51.5
1568 73.5 -52.5
1569 73.5 -53.5
1570 74.5 -6.5
1571 74.5 -7.5
1572 74.5 -8.5
1573 74.5 -9.5
1574 74.5 -10.5
1575 74.5 -11.5
1576 74.5 -12.5
1577 74.5 -13.5
1578 74.5 -14.5
1579 74.5 -15.5
1580 74.5 -16.5
1581 74.5 -17.5
1582 74.5 -18.5
1583 74.5 -19.5
1584 74.5 -20.5
1585 74.5 -21.5
1586 74.5 -22.5
1587 74.5 -23.5
1588 74.5 -24.5
1589 74.5 -25.5
1590 74.5 -26.5
1591 74.5 -27.5
1592 74.5 -28.5
1593 74.5 -29.5
1594 74.5 -30.5
1595 74.5 -31.5
1596 74.5 -32.5
1597 74.5 -33.5
1598 74.5 -34.5
1599 74.5 -35.5
1600 74.5 -36.5
1601 74.5 -37.5
1602 74.5 -38.5
1603 74.5 -39.5
1604 74.5 -40.5
1605 74.5 -41.5
1606 74.5 -42.5
1607 74.5 -43.5
1608 74.5 -44.5
1609 74.5 -45.5
1610 74.5 -46.5
1611 74.5 -47.5
1612 74.5 -48.5
1613 74.5 -49.5
1614 74.5 -50.5
1615 74.5 -51.5
1616 74.5 -52.5
1617 74.5 -53.5
1618 75.5 -6.5
1619 75.5 -7.5
1620 75.5 -8.5
1621 75.5 -9.5
1622 75.5 -10.5
1623 75.5 -11.5
1624 75.5 -12.5
1625 75.5 -13.5
1626 75.5 -14.5
1627 75.5 -15.5
1628 75.5 -16.5
1629 75.5 -17.5
1630 75.5 -18.5
1631 75.5 -19.5
1632 75.5 -20.5
1633 75.5 -21.5
1634 75.5 -22.5
1635 75.5 -23.5
1636 75.5 -24.5
1637 75.5 -25.5
1638 75.5 -26.5
1639 75.5 -27.5
1640 75.5 -28.5
1641 75.5 -29.5
1642 75.5 -30.5
1643 75.5 -31.5
1644 75.5 -32.5
1645 75.5 -33.5
1646 75.5 -34.5
1647 75.5 -35.5
1648 75.5 -36.5
1649 75.5 -37.5
1650 75.5 -38.5
1651 75.5 -39.5
1652 75.5 -40.5
1653 75.5 -41.5
1654 75.5 -42.5
1655 75.5 -43.5
1656 75.5 -44.5
1657 75.5 -45.5
1658 75.5 -46.5
1659 75.5 -47.5
1660 75.5 -48.5
1661 75.5 -49.5
1662 75.5 -50.5
1663 75.5 -51.5
1664 76.5 -6.5
1665 76.5 -7.5
1666 76.5 -8.5
1667 76.5 -9.5
1668 76.5 -10.5
1669 76.5 -11.5
1670 76.5 -12.5
1671 76.5 -13.5
1672 76.5 -14.5
1673 76.5 -15.5
1674 76.5 -16.5
1675 76.5 -17.5
1676 76.5 -18.5
1677 76.5 -19.5
1678 76.5 -20.5
1679 76.5 -21.5
1680 76.5 -22.5
1681 76.5 -23.5
1682 76.5 -24.5
1683 76.5 -25.5
1684 76.5 -26.5
1685 76.5 -27.5
1686 76.5 -28.5
1687 76.5 -29.5
1688 76.5 -30.5
1689 76.5 -31.5
1690 76.5 -32.5
1691 76.5 -33.5
1692 76.5 -34.5
1693 76.5 -35.5
1694 76.5 -36.5
1695 76.5 -37.5
1696 76.5 -38.5
1697 76.5 -39.5
1698 76.5 -40.5
1699 76.5 -41.5
1700 76.5 -42.5
1701 76.5 -43.5
1702 76.5 -44.5
1703 76.5 -45.5
1704 77.5 -7.5
1705 77.5 -8.5
1706 77.5 -9.5
1707 77.5 -10.5
1708 77.5 -11.5
1709 77.5 -12.5
1710 77.5 -13.5
1711 77.5 -14.5
1712 77.5 -15.5
1713 77.5 -16.5
1714 77.5 -17.5
1715 77.5 -18.5
1716 77.5 -19.5
1717 77.5 -20.5
1718 77.5 -21.5
1719 77.5 -22.5
1720 77.5 -23.5
1721 77.5 -24.5
1722 77.5 -25.5
1723 77.5 -26.5
1724 77.5 -27.5
1725 77.5 -28.5
1726 77.5 -29.5
1727 77.5 -30.5
1728 77.5 -31.5
1729 77.5 -32.5
1730 77.5 -33.5
1731 77.5 -34.5
1732 77.5 -35.5
1733 77.5 -36.5
1734 77.5 -37.5
1735 77.5 -38.5
1736 77.5 -39.5
1737 77.5 -40.5
1738 77.5 -41.5
1739 77.5 -42.5
1740 77.5 -43.5
1741 78.5 -8.5
1742 78.5 -10.5
1743 78.5 -11.5
1744 78.5 -12.5
1745 78.5 -13.5
1746 78.5 -14.5
1747 78.5 -15.5
1748 78.5 -16.5
1749 78.5 -17.5
1750 78.5 -18.5
1751 78.5 -19.5
1752 78.5 -20.5
1753 78.5 -21.5
1754 78.5 -22.5
1755 78.5 -23.5
1756 78.5 -24.5
1757 78.5 -25.5
1758 78.5 -26.5
1759 78.5 -27.5
1760 78.5 -28.5
1761 78.5 -29.5
1762 78.5 -30.5
1763 78.5 -31.5
1764 78.5 -32.5
1765 78.5 -33.5
1766 78.5 -34.5
1767 78.5 -35.5
1768 78.5 -36.5
1769 78.5 -37.5
1770 78.5 -38.5
1771 78.5 -39.5
1772 78.5 -40.5
1773 78.5 -41.5
1774 78.5 -42.5
1775 78.5 -43.5
1776 79.5 -12.5
1777 79.5 -13.5
1778 79.5 -14.5
1779 79.5 -15.5
1780 79.5 -16.5
1781 79.5 -17.5
1782 79.5 -18.5
1783 79.5 -19.5
1784 79.5 -20.5
1785 79.5 -21.5
1786 79.5 -22.5
1787 79.5 -23.5
1788 79.5 -24.5
1789 79.5 -25.5
1790 79.5 -26.5
1791 79.5 -27.5
1792 79.5 -28.5
1793 79.5 -29.5
1794 79.5 -30.5
1795 79.5 -31.5
1796 79.5 -32.5
1797 79.5 -33.5
1798 79.5 -34.5
1799 79.5 -35.5
1800 79.5 -36.5
1801 79.5 -37.5
1802 79.5 -38.5
1803 79.5 -39.5
1804 79.5 -40.5
1805 79.5 -41.5
1806 79.5 -42.5
1807 79.5 -43.5
1808 80.5 -18.5
1809 80.5 -19.5
1810 80.5 -20.5
1811 80.5 -21.5
1812 80.5 -22.5
1813 80.5 -23.5
1814 80.5 -24.5
1815 80.5 -25.5
1816 80.5 -26.5
1817 80.5 -27.5
1818 80.5 -28.5
1819 80.5 -29.5
1820 80.5 -30.5
1821 80.5 -31.5
1822 80.5 -32.5
1823 80.5 -33.5
1824 80.5 -34.5
1825 80.5 -35.5
1826 80.5 -36.5
1827 80.5 -37.5
1828 80.5 -38.5
1829 80.5 -39.5
1830 80.5 -40.5
1831 80.5 -41.5
1832 80.5 -42.5
1833 80.5 -43.5
1834 81.5 -20.5
1835 81.5 -21.5
1836 81.5 -22.5
1837 81.5 -23.5
1838 81.5 -24.5
1839 81.5 -25.5
1840 81.5 -26.5
1841 81.5 -27.5
1842 81.5 -28.5
1843 81.5 -29.5
1844 81.5 -30.5
1845 81.5 -31.5
1846 81.5 -32.5
1847 81.5 -33.5
1848 81.5 -34.5
1849 81.5 -35.5
1850 81.5 -36.5
1851 81.5 -37.5
1852 81.5 -38.5
1853 81.5 -39.5
1854 81.5 -40.5
1855 81.5 -41.5
1856 81.5 -42.5
1857 81.5 -43.5
1858 82.5 -22.5
1859 82.5 -23.5
1860 82.5 -24.5
1861 82.5 -25.5
1862 82.5 -26.5
1863 82.5 -27.5
1864 82.5 -28.5
1865 82.5 -29.5
1866 82.5 -30.5
1867 82.5 -31.5
1868 82.5 -32.5
1869 82.5 -33.5
1870 82.5 -34.5
1871 82.5 -35.5
1872 82.5 -36.5
1873 82.5 -37.5
1874 82.5 -38.5
1875 82.5 -39.5
1876 82.5 -40.5
1877 82.5 -41.5
1878 82.5 -42.5
1879 82.5 -43.5
1880 83.5 -30.5
1881 83.5 -31.5
1882 83.5 -32.5
1883 83.5 -33.5
1884 83.5 -34.5
1885 83.5 -35.5
1886 83.5 -36.5
1887 83.5 -37.5
1888 83.5 -38.5
1889 83.5 -39.5
1890 83.5 -40.5
1891 83.5 -41.5
1892 83.5 -42.5
1893 83.5 -43.5
1894 84.5 -30.5
1895 84.5 -31.5
1896 84.5 -32.5
1897 84.5 -33.5
1898 84.5 -34.5
1899 84.5 -35.5
1900 84.5 -36.5
1901 84.5 -37.5
1902 84.5 -38.5
1903 84.5 -39.5
1904 84.5 -40.5
1905 84.5 -41.5
1906 84.5 -42.5
1907 84.5 -43.5
1908 85.5 -30.5
1909 85.5 -31.5
1910 85.5 -32.5
1911 85.5 -33.5
1912 85.5 -34.5
1913 85.5 -35.5
1914 85.5 -36.5
1915 85.5 -37.5
1916 85.5 -38.5
1917 85.5 -39.5
1918 85.5 -40.5
1919 85.5 -41.5
1920 85.5 -42.5
1921 85.5 -43.5
1922 86.5 -30.5
1923 86.5 -31.5
1924 86.5 -32.5
1925 86.5 -33.5
1926 86.5 -34.5
1927 86.5 -35.5
1928 86.5 -36.5
1929 86.5 -37.5
1930 86.5 -38.5
1931 86.5 -39.5
1932 86.5 -40.5
1933 86.5 -41.5
1934 86.5 -42.5
1935 86.5 -43.5
1936 87.5 -29.5
1937 87.5 -30.5
1938 87.5 -31.5
1939 87.5 -32.5
1940 87.5 -33.5
1941 87.5 -34.5
1942 87.5 -35.5
1943 87.5 -36.5
1944 87.5 -37.5
1945 87.5 -38.5
1946 87.5 -39.5
1947 87.5 -40.5
1948 87.5 -41.5
1949 87.5 -42.5
1950 88.5 -28.5
1951 88.5 -29.5
1952 88.5 -30.5
1953 88.5 -31.5
1954 88.5 -32.5
1955 88.5 -33.5
1956 88.5 -34.5
1957 88.5 -35.5
1958 88.5 -36.5
1959 88.5 -37.5
1960 88.5 -38.5
1961 88.5 -39.5
1962 88.5 -40.5
1963 88.5 -41.5
1964 88.5 -42.5
1965 89.5 -27.5
1966 89.5 -28.5
1967 89.5 -29.5
1968 89.5 -30.5
1969 89.5 -31.5
1970 89.5 -32.5
1971 89.5 -33.5
1972 89.5 -34.5
1973 89.5 -35.5
1974 89.5 -36.5
1975 89.5 -37.5
1976 89.5 -38.5
1977 89.5 -39.5
1978 89.5 -40.5
1979 89.5 -41.5
1980 89.5 -42.5
1981 90.5 -23.5
1982 90.5 -24.5
1983 90.5 -25.5
1984 90.5 -26.5
1985 90.5 -27.5
1986 90.5 -28.5
1987 90.5 -29.5
1988 90.5 -30.5
1989 90.5 -31.5
1990 90.5 -32.5
1991 90.5 -33.5
1992 90.5 -34.5
1993 90.5 -35.5
1994 90.5 -36.5
1995 90.5 -37.5
1996 90.5 -38.5
1997 90.5 -39.5
1998 90.5 -40.5
1999 90.5 -41.5
2000 90.5 -42.5
2001 91.5 -22.5
2002 91.5 -23.5
2003 91.5 -24.5
2004 91.5 -25.5
2005 91.5 -26.5
2006 91.5 -27.5
2007 91.5 -28.5
2008 91.5 -29.5
2009 91.5 -30.5
2010 91.5 -31.5
2011 91.5 -32.5
2012 91.5 -33.5
2013 91.5 -34.5
2014 91.5 -35.5
2015 91.5 -36.5
2016 91.5 -37.5
2017 91.5 -38.5
2018 91.5 -39.5
2019 91.5 -40.5
2020 91.5 -41.5
2021 92.5 -21.5
2022 92.5 -22.5
2023 92.5 -23.5
2024 92.5 -24.5
2025 92.5 -25.5
2026 92.5 -26.5
2027 92.5 -27.5
2028 92.5 -28.5
2029 92.5 -29.5
2030 92.5 -30.5
2031 92.5 -31.5
2032 92.5 -32.5
2033 92.5 -33.5
2034 92.5 -34.5
2035 92.5 -35.5
2036 92.5 -36.5
2037 92.5 -37.5
2038 92.5 -38.5
2039 92.5 -39.5
2040 92.5 -40.5
2041 92.5 -41.5
2042 93.5 -20.5
2043 93.5 -21.5
2044 93.5 -22.5
2045 93.5 -23.5
2046 93.5 -24.5
2047 93.5 -25.5
2048 93.5 -26.5
2049 93.5 -27.5
2050 93.5 -28.5
2051 93.5 -29.5
2052 93.5 -30.5
2053 93.5 -31.5
2054 93.5 -32.5
2055 93.5 -33.5
2056 93.5 -34.5
2057 93.5 -35.5
2058 93.5 -36.5
2059 93.5 -37.5
2060 93.5 -38.5
2061 93.5 -39.5
2062 93.5 -40.5
2063 93.5 -41.5
2064 94.5 -16.5
2065 94.5 -17.5
2066 94.5 -18.5
2067 94.5 -19.5
2068 94.5 -20.5
2069 94.5 -21.5
2070 94.5 -22.5
2071 94.5 -23.5
2072 94.5 -24.5
2073 94.5 -25.5
2074 94.5 -26.5
2075 94.5 -27.5
2076 94.5 -28.5
2077 94.5 -29.5
2078 94.5 -30.5
2079 94.5 -31.5
2080 94.5 -32.5
2081 94.5 -33.5
2082 94.5 -34.5
2083 94.5 -35.5
2084 94.5 -36.5
2085 94.5 -37.5
2086 94.5 -38.5
2087 94.5 -39.5
2088 94.5 -40.5
2089 94.5 -41.5
2090 95.5 -15.5
2091 95.5 -16.5
2092 95.5 -17.5
2093 95.5 -18.5
2094 95.5 -19.5
2095 95.5 -20.5
2096 95.5 -21.5
2097 95.5 -22.5
2098 95.5 -23.5
2099 95.5 -24.5
2100 95.5 -25.5
2101 95.5 -26.5
2102 95.5 -27.5
2103 95.5 -28.5
2104 95.5 -29.5
2105 95.5 -30.5
2106 95.5 -31.5
2107 95.5 -32.5
2108 95.5 -33.5
2109 95.5 -34.5
2110 95.5 -35.5
2111 95.5 -36.5
2112 95.5 -37.5
2113 95.5 -38.5
2114 95.5 -39.5
2115 95.5 -40.5
2116 95.5 -41.5
2117 96.5 -14.5
2118 96.5 -15.5
2119 96.5 -16.5
2120 96.5 -17.5
2121 96.5 -18.5
2122 96.5 -19.5
2123 96.5 -20.5
2124 96.5 -21.5
2125 96.5 -22.5
2126 96.5 -23.5
2127 96.5 -24.5
2128 96.5 -25.5
2129 96.5 -26.5
2130 96.5 -27.5
2131 96.5 -28.5
2132 96.5 -29.5
2133 96.5 -30.5
2134 96.5 -31.5
2135 96.5 -32.5
2136 96.5 -33.5
2137 96.5 -34.5
2138 96.5 -35.5
2139 96.5 -36.5
2140 96.5 -37.5
2141 96.5 -38.5
2142 96.5 -39.5
2143 96.5 -40.5
2144 96.5 -41.5
2145 96.5 -42.5
2146 97.5 -13.5
2147 97.5 -14.5
2148 97.5 -15.5
2149 97.5 -16.5
2150 97.5 -17.5
2151 97.5 -18.5
2152 97.5 -19.5
2153 97.5 -20.5
2154 97.5 -21.5
2155 97.5 -22.5
2156 97.5 -23.5
2157 97.5 -24.5
2158 97.5 -25.5
2159 97.5 -26.5
2160 97.5 -27.5
2161 97.5 -28.5
2162 97.5 -29.5
2163 97.5 -30.5
2164 97.5 -31.5
2165 97.5 -32.5
2166 97.5 -33.5
2167 97.5 -34.5
2168 97.5 -35.5
2169 97.5 -36.5
2170 97.5 -37.5
2171 97.5 -38.5
2172 97.5 -39.5
2173 97.5 -40.5
2174 97.5 -41.5
2175 97.5 -42.5
2176 97.5 -43.5
2177 97.5 -44.5
2178 97.5 -46.5
2179 98.5 -12.5
2180 98.5 -13.5
2181 98.5 -14.5
2182 98.5 -15.5
2183 98.5 -16.5
2184 98.5 -17.5
2185 98.5 -18.5
2186 98.5 -19.5
2187 98.5 -20.5
2188 98.5 -21.5
2189 98.5 -22.5
2190 98.5 -23.5
2191 98.5 -24.5
2192 98.5 -25.5
2193 98.5 -26.5
2194 98.5 -27.5
2195 98.5 -28.5
2196 98.5 -29.5
2197 98.5 -30.5
2198 98.5 -31.5
2199 98.5 -32.5
2200 98.5 -33.5
2201 98.5 -34.5
2202 98.5 -35.5
2203 98.5 -36.5
2204 98.5 -37.5
2205 98.5 -38.5
2206 98.5 -39.5
2207 98.5 -40.5
2208 98.5 -41.5
2209 98.5 -42.5
2210 98.5 -43.5
2211 98.5 -44.5
2212 98.5 -45.5
2213 98.5 -46.5
2214 98.5 -47.5
2215 98.5 -48.5
2216 99.5 -13.5
2217 99.5 -14.5
2218 99.5 -15.5
2219 99.5 -16.5
2220 99.5 -17.5
2221 99.5 -18.5
2222 99.5 -19.5
2223 99.5 -20.5
2224 99.5 -21.5
2225 99.5 -22.5
2226 99.5 -23.5
2227 99.5 -24.5
2228 99.5 -25.5
2229 99.5 -26.5
2230 99.5 -27.5
2231 99.5 -28.5
2232 99.5 -29.5
2233 99.5 -30.5
2234 99.5 -31.5
2235 99.5 -32.5
2236 99.5 -33.5
2237 99.5 -34.5
2238 99.5 -35.5
2239 99.5 -36.5
2240 99.5 -37.5
2241 99.5 -38.5
2242 99.5 -39.5
2243 99.5 -40.5
2244 99.5 -41.5
2245 99.5 -42.5
2246 99.5 -43.5
2247 99.5 -44.5
2248 99.5 -45.5
2249 99.5 -46.5
2250 99.5 -47.5
2251 99.5 -48.5
2252 99.5 -49.5
2253 100.5 -13.5
2254 100.5 -14.5
2255 100.5 -15.5
2256 100.5 -16.5
2257 100.5 -17.5
2258 100.5 -18.5
2259 100.5 -19.5
2260 100.5 -20.5
2261 100.5 -21.5
2262 100.5 -22.5
2263 100.5 -23.5
2264 100.5 -24.5
2265 100.5 -25.5
2266 100.5 -26.5
2267 100.5 -27.5
2268 100.5 -28.5
2269 100.5 -29.5
2270 100.5 -30.5
2271 100.5 -31.5
2272 100.5 -32.5
2273 100.5 -33.5
2274 100.5 -34.5
2275 100.5 -35.5
2276 100.5 -36.5
2277 100.5 -37.5
2278 100.5 -38.5
2279 100.5 -39.5
2280 100.5 -40.5
2281 100.5 -41.5
2282 100.5 -42.5
2283 100.5 -43.5
2284 100.5 -44.5
2285 100.5 -45.5
2286 100.5 -46.5
2287 100.5 -47.5
2288 100.5 -48.5
2289 100.5 -49.5
2290 100.5 -50.5
2291 100.5 -51.5
2292 101.5 -14.5
2293 101.5 -15.5
2294 101.5 -16.5
2295 101.5 -17.5
2296 101.5 -18.5
2297 101.5 -19.5
2298 101.5 -20.5
2299 101.5 -21.5
2300 101.5 -22.5
2301 101.5 -23.5
2302 101.5 -24.5
2303 101.5 -25.5
2304 101.5 -26.5
2305 101.5 -27.5
2306 101.5 -28.5
2307 101.5 -29.5
2308 101.5 -30.5
2309 101.5 -31.5
2310 101.5 -32.5
2311 101.5 -33.5
2312 101.5 -34.5
2313 101.5 -35.5
2314 101.5 -36.5
2315 101.5 -37.5
2316 101.5 -38.5
2317 101.5 -39.5
2318 101.5 -40.5
2319 101.5 -41.5
2320 101.5 -42.5
2321 101.5 -43.5
2322 101.5 -44.5
2323 101.5 -45.5
2324 101.5 -46.5
2325 101.5 -47.5
2326 101.5 -48.5
2327 101.5 -49.5
2328 101.5 -50.5
2329 101.5 -51.5
2330 101.5 -52.5
2331 101.5 -53.5
2332 101.5 -54.5
2333 102.5 -14.5
2334 102.5 -15.5
2335 102.5 -16.5
2336 102.5 -17.5
2337 102.5 -18.5
2338 102.5 -19.5
2339 102.5 -20.5
2340 102.5 -21.5
2341 102.5 -22.5
2342 102.5 -23.5
2343 102.5 -24.5
2344 102.5 -25.5
2345 102.5 -26.5
2346 102.5 -27.5
2347 102.5 -28.5
2348 102.5 -29.5
2349 102.5 -30.5
2350 102.5 -31.5
2351 102.5 -32.5
2352 102.5 -33.5
2353 102.5 -34.5
2354 102.5 -35.5
2355 102.5 -36.5
2356 102.5 -37.5
2357 102.5 -38.5
2358 102.5 -39.5
2359 102.5 -40.5
2360 102.5 -41.5
2361 102.5 -42.5
2362 102.5 -43.5
2363 102.5 -44.5
2364 102.5 -45.5
2365 102.5 -46.5
2366 102.5 -47.5
2367 102.5 -48.5
2368 102.5 -49.5
2369 102.5 -50.5
2370 102.5 -51.5
2371 102.5 -52.5
2372 102.5 -53.5
2373 102.5 -54.5
2374 102.5 -55.5
2375 103.5 -14.5
2376 103.5 -15.5
2377 103.5 -16.5
2378 103.5 -17.5
2379 103.5 -18.5
2380 103.5 -19.5
2381 103.5 -20.5
2382 103.5 -21.5
2383 103.5 -22.5
2384 103.5 -23.5
2385 103.5 -24.5
2386 103.5 -25.5
2387 103.5 -26.5
2388 103.5 -27.5
2389 103.5 -28.5
2390 103.5 -29.5
2391 103.5 -30.5
2392 103.5 -31.5
2393 103.5 -32.5
2394 103.5 -33.5
2395 103.5 -34.5
2396 103.5 -35.5
2397 103.5 -36.5
2398 103.5 -37.5
2399 103.5 -38.5
2400 103.5 -39.5
2401 103.5 -40.5
2402 103.5 -41.5
2403 103.5 -42.5
2404 103.5 -43.5
2405 103.5 -44.5
2406 103.5 -45.5
2407 103.5 -46.5
2408 103.5 -47.5
2409 103.5 -48.5
2410 103.5 -49.5
2411 103.5 -50.5
2412 103.5 -51.5
2413 103.5 -52.5
2414 103.5 -53.5
2415 103.5 -54.5
2416 103.5 -55.5
2417 104.5 -15.5
2418 104.5 -16.5
2419 104.5 -17.5
2420 104.5 -18.5
2421 104.5 -19.5
2422 104.5 -20.5
2423 104.5 -21.5
2424 104.5 -22.5
2425 104.5 -23.5
2426 104.5 -24.5
2427 104.5 -25.5
2428 104.5 -26.5
2429 104.5 -27.5
2430 104.5 -28.5
2431 104.5 -29.5
2432 104.5 -30.5
2433 104.5 -31.5
2434 104.5 -32.5
2435 104.5 -33.5
2436 104.5 -34.5
2437 104.5 -35.5
2438 104.5 -36.5
2439 104.5 -37.5
2440 104.5 -38.5
2441 104.5 -39.5
2442 104.5 -40.5
2443 104.5 -41.5
2444 104.5 -42.5
2445 104.5 -43.5
2446 104.5 -44.5
2447 104.5 -45.5
2448 104.5 -46.5
2449 104.5 -47.5
2450 104.5 -48.5
2451 104.5 -49.5
2452 104.5 -50.5
2453 104.5 -51.5
2454 104.5 -52.5
2455 104.5 -53.5
2456 104.5 -54.5
2457 104.5 -55.5
2458 105.5 -16.5
2459 105.5 -17.5
2460 105.5 -18.5
2461 105.5 -19.5
2462 105.5 -20.5
2463 105.5 -21.5
2464 105.5 -22.5
2465 105.5 -23.5
2466 105.5 -24.5
2467 105.5 -25.5
2468 105.5 -26.5
2469 105.5 -27.5
2470 105.5 -28.5
2471 105.5 -29.5
2472 105.5 -30.5
2473 105.5 -31.5
2474 105.5 -32.5
2475 105.5 -33.5
2476 105.5 -34.5
2477 105.5 -35.5
2478 105.5 -36.5
2479 105.5 -37.5
2480 105.5 -38.5
2481 105.5 -39.5
2482 105.5 -40.5
2483 105.5 -41.5
2484 105.5 -42.5
2485 105.5 -43.5
2486 105.5 -44.5
2487 105.5 -45.5
2488 105.5 -46.5
2489 105.5 -47.5
2490 105.5 -48.5
2491 105.5 -49.5
2492 105.5 -50.5
2493 105.5 -51.5
2494 105.5 -52.5
2495 105.5 -53.5
2496 105.5 -54.5
2497 105.5 -55.5
2498 105.5 -56.5
2499 106.5 -17.5
2500 106.5 -18.5
2501 106.5 -19.5
2502 106.5 -20.5
2503 106.5 -21.5
2504 106.5 -22.5
2505 106.5 -23.5
2506 106.5 -24.5
2507 106.5 -25.5
2508 106.5 -26.5
2509 106.5 -27.5
2510 106.5 -28.5
2511 106.5 -29.5
2512 106.5 -30.5
2513 106.5 -31.5
2514 106.5 -32.5
2515 106.5 -33.5
2516 106.5 -34.5
2517 106.5 -35.5
2518 106.5 -36.5
2519 106.5 -37.5
2520 106.5 -38.5
2521 106.5 -39.5
2522 106.5 -40.5
2523 106.5 -41.5
2524 106.5 -42.5
2525 106.5 -43.5
2526 106.5 -44.5
2527 106.5 -45.5
2528 106.5 -46.5
2529 106.5 -47.5
2530 106.5 -48.5
2531 106.5 -49.5
2532 106.5 -50.5
2533 106.5 -51.5
2534 106.5 -52.5
2535 106.5 -53.5
2536 106.5 -54.5
2537 106.5 -55.5
2538 106.5 -56.5
2539 107.5 -18.5
2540 107.5 -19.5
2541 107.5 -20.5
2542 107.5 -21.5
2543 107.5 -22.5
2544 107.5 -23.5
2545 107.5 -24.5
2546 107.5 -25.5
2547 107.5 -26.5
2548 107.5 -27.5
2549 107.5 -28.5
2550 107.5 -29.5
2551 107.5 -30.5
2552 107.5 -31.5
2553 107.5 -32.5
2554 107.5 -33.5
2555 107.5 -34.5
2556 107.5 -35.5
2557 107.5 -36.5
2558 107.5 -37.5
2559 107.5 -38.5
2560 107.5 -39.5
2561 107.5 -40.5
2562 107.5 -41.5
2563 107.5 -42.5
2564 107.5 -43.5
2565 107.5 -44.5
2566 107.5 -45.5
2567 107.5 -46.5
2568 107.5 -47.5
2569 107.5 -48.5
2570 107.5 -49.5
2571 107.5 -50.5
2572 107.5 -51.5
2573 107.5 -52.5
2574 107.5 -53.5
2575 107.5 -54.5
2576 107.5 -55.5
2577 107.5 -56.5
2578 107.5 -57.5
2579 108.5 -19.5
2580 108.5 -20.5
2581 108.5 -21.5
2582 108.5 -22.5
2583 108.5 -23.5
2584 108.5 -24.5
2585 108.5 -25.5
2586 108.5 -26.5
2587 108.5 -27.5
2588 108.5 -28.5
2589 108.5 -29.5
2590 108.5 -30.5
2591 108.5 -31.5
2592 108.5 -32.5
2593 108.5 -33.5
2594 108.5 -34.5
2595 108.5 -35.5
2596 108.5 -36.5
2597 108.5 -37.5
2598 108.5 -38.5
2599 108.5 -39.5
2600 108.5 -40.5
2601 108.5 -41.5
2602 108.5 -42.5
2603 108.5 -43.5
2604 108.5 -44.5
2605 108.5 -45.5
2606 108.5 -46.5
2607 108.5 -47.5
2608 108.5 -48.5
2609 108.5 -49.5
2610 108.5 -50.5
2611 108.5 -51.5
2612 108.5 -52.5
2613 108.5 -53.5
2614 108.5 -54.5
2615 108.5 -55.5
2616 108.5 -56.5
2617 108.5 -57.5
2618 108.5 -58.5
2619 109.5 -20.5
2620 109.5 -21.5
2621 109.5 -22.5
2622 109.5 -23.5
2623 109.5 -24.5
2624 109.5 -25.5
2625 109.5 -26.5
2626 109.5 -27.5
2627 109.5 -28.5
2628 109.5 -29.5
2629 109.5 -30.5
2630 109.5 -31.5
2631 109.5 -32.5
2632 109.5 -33.5
2633 109.5 -34.5
2634 109.5 -35.5
2635 109.5 -36.5
2636 109.5 -37.5
2637 109.5 -38.5
2638 109.5 -39.5
2639 109.5 -40.5
2640 109.5 -41.5
2641 109.5 -42.5
2642 109.5 -43.5
2643 109.5 -44.5
2644 109.5 -45.5
2645 109.5 -46.5
2646 109.5 -47.5
2647 109.5 -48.5
2648 109.5 -49.5
2649 109.5 -50.5
2650 109.5 -51.5
2651 109.5 -52.5
2652 109.5 -53.5
2653 109.5 -54.5
2654 109.5 -55.5
2655 109.5 -56.5
2656 109.5 -57.5
2657 109.5 -58.5
2658 110.5 -20.5
2659 110.5 -21.5
2660 110.5 -22.5
2661 110.5 -23.5
2662 110.5 -24.5
2663 110.5 -25.5
2664 110.5 -26.5
2665 110.5 -27.5
2666 110.5 -28.5
2667 110.5 -29.5
2668 110.5 -30.5
2669 110.5 -31.5
2670 110.5 -32.5
2671 110.5 -33.5
2672 110.5 -34.5
2673 110.5 -35.5
2674 110.5 -36.5
2675 110.5 -37.5
2676 110.5 -38.5
2677 110.5 -39.5
2678 110.5 -40.5
2679 110.5 -41.5
2680 110.5 -42.5
2681 110.5 -43.5
2682 110.5 -44.5
2683 110.5 -45.5
2684 110.5 -46.5
2685 110.5 -47.5
2686 110.5 -48.5
2687 110.5 -49.5
2688 110.5 -50.5
2689 110.5 -51.5
2690 110.5 -52.5
2691 110.5 -53.5
2692 110.5 -54.5
2693 110.5 -55.5
2694 110.5 -56.5
2695 110.5 -57.5
2696 110.5 -58.5
2697 111.5 -20.5
2698 111.5 -21.5
2699 111.5 -22.5
2700 111.5 -23.5
2701 111.5 -24.5
2702 111.5 -25.5
2703 111.5 -26.5
2704 111.5 -27.5
2705 111.5 -28.5
2706 111.5 -29.5
2707 111.5 -30.5
2708 111.5 -31.5
2709 111.5 -32.5
2710 111.5 -33.5
2711 111.5 -34.5
2712 111.5 -35.5
2713 111.5 -36.5
2714 111.5 -37.5
2715 111.5 -38.5
2716 111.5 -39.5
2717 111.5 -40.5
2718 111.5 -41.5
2719 111.5 -42.5
2720 111.5 -43.5
2721 111.5 -44.5
2722 111.5 -45.5
2723 111.5 -46.5
2724 111.5 -47.5
2725 111.5 -48.5
2726 111.5 -49.5
2727 111.5 -50.5
2728 111.5 -51.5
2729 111.5 -52.5
2730 111.5 -53.5
2731 111.5 -54.5
2732 111.5 -55.5
2733 111.5 -56.5
2734 111.5 -57.5
2735 111.5 -58.5
2736 112.5 -20.5
2737 112.5 -21.5
2738 112.5 -22.5
2739 112.5 -23.5
2740 112.5 -24.5
2741 112.5 -25.5
2742 112.5 -26.5
2743 112.5 -27.5
2744 112.5 -28.5
2745 112.5 -29.5
2746 112.5 -30.5
2747 112.5 -31.5
2748 112.5 -32.5
2749 112.5 -33.5
2750 112.5 -34.5
2751 112.5 -35.5
2752 112.5 -36.5
2753 112.5 -37.5
2754 112.5 -38.5
2755 112.5 -39.5
2756 112.5 -40.5
2757 112.5 -41.5
2758 112.5 -42.5
2759 112.5 -43.5
2760 112.5 -44.5
2761 112.5 -45.5
2762 112.5 -46.5
2763 112.5 -47.5
2764 112.5 -48.5
2765 112.5 -49.5
2766 112.5 -50.5
2767 112.5 -51.5
2768 112.5 -52.5
2769 112.5 -53.5
2770 112.5 -54.5
2771 112.5 -55.5
2772 112.5 -56.5
2773 112.5 -57.5
2774 112.5 -58.5
2775 113.5 -20.5
2776 113.5 -21.5
2777 113.5 -22.5
2778 113.5 -23.5
2779 113.5 -24.5
2780 113.5 -25.5
2781 113.5 -26.5
2782 113.5 -27.5
2783 113.5 -28.5
2784 113.5 -29.5
2785 113.5 -30.5
2786 113.5 -31.5
2787 113.5 -32.5
2788 113.5 -33.5
2789 113.5 -34.5
2790 113.5 -35.5
2791 113.5 -36.5
2792 113.5 -37.5
2793 113.5 -38.5
2794 113.5 -39.5
2795 113.5 -40.5
2796 113.5 -41.5
2797 113.5 -42.5
2798 113.5 -43.5
2799 113.5 -44.5
2800 113.5 -45.5
2801 113.5 -46.5
2802 113.5 -47.5
2803 113.5 -48.5
2804 113.5 -49.5
2805 113.5 -50.5
2806 113.5 -51.5
2807 113.5 -52.5
2808 113.5 -53.5
2809 113.5 -54.5
2810 113.5 -55.5
2811 113.5 -56.5
2812 113.5 -57.5
2813 113.5 -58.5
2814 114.5 -20.5
2815 114.5 -21.5
2816 114.5 -22.5
2817 114.5 -23.5
2818 114.5 -24.5
2819 114.5 -25.5
2820 114.5 -26.5
2821 114.5 -27.5
2822 114.5 -28.5
2823 114.5 -29.5
2824 114.5 -30.5
2825 114.5 -31.5
2826 114.5 -32.5
2827 114.5 -33.5
2828 114.5 -34.5
2829 114.5 -35.5
2830 114.5 -36.5
2831 114.5 -37.5
2832 114.5 -38.5
2833 114.5 -39.5
2834 114.5 -40.5
2835 114.5 -41.5
2836 114.5 -42.5
2837 114.5 -43.5
2838 114.5 -44.5
2839 114.5 -45.5
2840 114.5 -46.5
2841 114.5 -47.5
2842 114.5 -48.5
2843 114.5 -49.5
2844 114.5 -50.5
2845 114.5 -51.5
2846 114.5 -52.5
2847 114.5 -53.5
2848 114.5 -54.5
2849 114.5 -55.5
2850 114.5 -56.5
2851 114.5 -57.5
2852 114.5 -58.5
2853 115.5 -20.5
2854 115.5 -21.5
2855 115.5 -22.5
2856 115.5 -23.5
2857 115.5 -24.5
2858 115.5 -25.5
2859 115.5 -26.5
2860 115.5 -27.5
2861 115.5 -28.5
2862 115.5 -29.5
2863 115.5 -30.5
2864 115.5 -31.5
2865 115.5 -32.5
2866 115.5 -33.5
2867 115.5 -34.5
2868 115.5 -35.5
2869 115.5 -36.5
2870 115.5 -37.5
2871 115.5 -38.5
2872 115.5 -39.5
2873 115.5 -40.5
2874 115.5 -41.5
2875 115.5 -42.5
2876 115.5 -43.5
2877 115.5 -44.5
2878 115.5 -45.5
2879 115.5 -46.5
2880 115.5 -47.5
2881 115.5 -48.5
2882 115.5 -49.5
2883 115.5 -50.5
2884 115.5 -51.5
2885 115.5 -52.5
2886 115.5 -53.5
2887 115.5 -54.5
2888 115.5 -55.5
2889 115.5 -56.5
2890 115.5 -57.5
2891 115.5 -58.5
2892 116.5 -20.5
2893 116.5 -21.5
2894 116.5 -22.5
2895 116.5 -23.5
2896 116.5 -24.5
2897 116.5 -25.5
2898 116.5 -26.5
2899 116.5 -27.5
2900 116.5 -28.5
2901 116.5 -29.5
2902 116.5 -30.5
2903 116.5 -31.5
2904 116.5 -32.5
2905 116.5 -33.5
2906 116.5 -34.5
2907 116.5 -35.5
2908 116.5 -36.5
2909 116.5 -37.5
2910 116.5 -38.5
2911 116.5 -39.5
2912 116.5 -40.5
2913 116.5 -41.5
2914 116.5 -42.5
2915 116.5 -43.5
2916 116.5 -44.5
2917 116.5 -45.5
2918 116.5 -46.5
2919 116.5 -47.5
2920 116.5 -48.5
2921 116.5 -49.5
2922 116.5 -50.5
2923 116.5 -51.5
2924 116.5 -52.5
2925 116.5 -53.5
2926 116.5 -54.5
2927 116.5 -55.5
2928 116.5 -56.5
2929 116.5 -57.5
2930 116.5 -58.5
2931 117.5 -19.5
2932 117.5 -20.5
2933 117.5 -21.5
2934 117.5 -22.5
2935 117.5 -23.5
2936 117.5 -24.5
2937 117.5 -25.5
2938 117.5 -26.5
2939 117.5 -27.5
2940 117.5 -28.5
2941 117.5 -29.5
2942 117.5 -30.5
2943 117.5 -31.5
2944 117.5 -32.5
2945 117.5 -33.5
2946 117.5 -34.5
2947 117.5 -35.5
2948 117.5 -36.5
2949 117.5 -37.5
2950 117.5 -38.5
2951 117.5 -39.5
2952 117.5 -40.5
2953 117.5 -41.5
2954 117.5 -42.5
2955 117.5 -43.5
2956 117.5 -44.5
2957 117.5 -45.5
2958 117.5 -46.5
2959 117.5 -47.5
2960 117.5 -48.5
2961 117.5 -49.5
2962 117.5 -50.5
2963 117.5 -51.5
2964 117.5 -52.5
2965 117.5 -53.5
2966 117.5 -54.5
2967 117.5 -55.5
2968 117.5 -56.5
2969 117.5 -57.5
2970 117.5 -58.5
2971 118.5 -20.5
2972 118.5 -21.5
2973 118.5 -22.5
2974 118.5 -23.5
2975 118.5 -24.5
2976 118.5 -25.5
2977 118.5 -26.5
2978 118.5 -27.5
2979 118.5 -28.5
2980 118.5 -29.5
2981 118.5 -30.5
2982 118.5 -31.5
2983 118.5 -32.5
2984 118.5 -33.5
2985 118.5 -34.5
2986 118.5 -35.5
2987 118.5 -36.5
2988 118.5 -37.5
2989 118.5 -38.5
2990 118.5 -39.5
2991 118.5 -40.5
2992 118.5 -41.5
2993 118.5 -42.5
2994 118.5 -43.5
2995 118.5 -44.5
2996 118.5 -45.5
2997 118.5 -46.5
2998 118.5 -47.5
2999 118.5 -48.5
3000 118.5 -49.5
3001 118.5 -50.5
3002 118.5 -51.5
3003 118.5 -52.5
3004 118.5 -53.5
3005 118.5 -54.5
3006 118.5 -55.5
3007 118.5 -56.5
3008 118.5 -57.5
3009 118.5 -58.5
3010 119.5 -21.5
3011 119.5 -22.5
3012 119.5 -23.5
3013 119.5 -24.5
3014 119.5 -25.5
3015 119.5 -26.5
3016 119.5 -27.5
3017 119.5 -28.5
3018 119.5 -29.5
3019 119.5 -30.5
3020 119.5 -31.5
3021 119.5 -32.5
3022 119.5 -33.5
3023 119.5 -34.5
3024 119.5 -35.5
3025 119.5 -36.5
3026 119.5 -37.5
3027 119.5 -38.5
3028 119.5 -39.5
3029 119.5 -40.5
3030 119.5 -41.5
3031 119.5 -42.5
3032 119.5 -43.5
3033 119.5 -44.5
3034 119.5 -45.5
3035 119.5 -46.5
3036 119.5 -47.5
3037 119.5 -48.5
3038 119.5 -49.5
3039 119.5 -50.5
3040 119.5 -51.5
3041 119.5 -52.5
3042 119.5 -53.5
3043 119.5 -54.5
3044 119.5 -55.5
3045 119.5 -56.5
3046 119.5 -57.5
3047 120.5 -22.5
3048 120.5 -23.5
3049 120.5 -24.5
3050 120.5 -25.5
3051 120.5 -26.5
3052 120.5 -27.5
3053 120.5 -28.5
3054 120.5 -29.5
3055 120.5 -30.5
3056 120.5 -31.5
3057 120.5 -32.5
3058 120.5 -33.5
3059 120.5 -34.5
3060 120.5 -35.5
3061 120.5 -36.5
3062 120.5 -37.5
3063 120.5 -38.5
3064 120.5 -39.5
3065 120.5 -40.5
3066 120.5 -41.5
3067 120.5 -42.5
3068 120.5 -43.5
3069 120.5 -44.5
3070 120.5 -45.5
3071 120.5 -46.5
3072 120.5 -47.5
3073 120.5 -48.5
3074 120.5 -49.5
3075 120.5 -50.5
3076 120.5 -51.5
3077 120.5 -52.5
3078 120.5 -53.5
3079 120.5 -54.5
3080 120.5 -55.5
3081 120.5 -56.5
3082 120.5 -57.5
3083 121.5 -33.5
3084 121.5 -34.5
3085 121.5 -35.5
3086 121.5 -36.5
3087 121.5 -37.5
3088 121.5 -38.5
3089 121.5 -39.5
3090 121.5 -40.5
3091 121.5 -41.5
3092 121.5 -42.5
3093 121.5 -43.5
3094 121.5 -44.5
3095 121.5 -45.5
3096 121.5 -46.5
3097 121.5 -47.5
3098 121.5 -48.5
3099 121.5 -49.5
3100 121.5 -50.5
3101 121.5 -51.5
3102 121.5 -52.5
3103 121.5 -53.5
3104 121.5 -54.5
3105 121.5 -55.5
3106 121.5 -56.5
3107 122.5 -35.5
3108 122.5 -36.5
3109 122.5 -37.5
3110 122.5 -38.5
3111 122.5 -39.5
3112 122.5 -40.5
3113 122.5 -41.5
3114 122.5 -42.5
3115 122.5 -43.5
3116 122.5 -44.5
3117 122.5 -45.5
3118 122.5 -46.5
3119 122.5 -47.5
3120 122.5 -48.5
3121 122.5 -49.5
3122 122.5 -50.5
3123 122.5 -51.5
3124 122.5 -52.5
3125 122.5 -53.5
3126 122.5 -54.5
3127 122.5 -55.5
3128 123.5 -37.5
3129 123.5 -38.5
3130 123.5 -39.5
3131 123.5 -40.5
3132 123.5 -41.5
3133 123.5 -42.5
3134 123.5 -43.5
3135 123.5 -44.5
3136 123.5 -45.5
3137 123.5 -46.5
3138 123.5 -47.5
3139 123.5 -48.5
3140 123.5 -49.5
3141 123.5 -50.5
3142 123.5 -51.5
3143 123.5 -52.5
3144 123.5 -53.5
3145 124.5 -39.5
3146 124.5 -40.5
3147 124.5 -41.5
3148 124.5 -42.5
3149 124.5 -43.5
3150 124.5 -44.5
3151 124.5 -45.5
3152 124.5 -46.5
3153 124.5 -47.5
3154 124.5 -48.5
3155 124.5 -49.5
3156 124.5 -50.5
3157 124.5 -51.5
