1498 2 0 0
0 5.17 -30.0
1 6.0 -27.0
2 6.0 -33.0
3 5.83 -35.5
4 7.17 -29.0
5 7.0 -31.5
6 7.0 -37.38
7 8.0 -26.0
8 8.0 -34.0
9 8.17 -40.5
10 9.0 -28.0
11 9.0 -30.0
12 9.0 -32.0
13 9.0 -36.0
14 9.0 -38.0
15 10.0 -26.5
16 10.17 -34.0
17 10.17 -40.0
18 10.0 -42.25
19 11.0 -29.0
20 11.0 -31.0
21 11.0 -37.0
22 12.0 -27.0
23 12.0 -33.0
24 12.0 -35.0
25 12.0 -39.0
26 11.83 -41.5
27 13.17 -29.0
28 13.0 -31.5
29 13.17 -37.0
30 13.17 -42.83
31 14.0 -34.0
32 14.0 -40.0
33 15.0 -28.0
34 15.0 -30.0
35 15.0 -32.0
36 15.0 -36.0
37 15.0 -38.0
38 14.83 -42.5
39 16.17 -34.0
40 16.17 -40.0
41 16.17 -44.0
42 17.0 -29.0
43 17.0 -31.0
44 17.0 -37.0
45 18.17 -33.0
46 18.0 -35.5
47 18.17 -39.0
48 18.0 -41.5
49 18.0 -43.5
50 17.83 -45.83
51 19.0 -30.0
52 19.17 -47.17
53 19.5 -32.0
54 19.5 -34.0
55 19.5 -36.0
56 20.0 -38.5
57 20.0 -40.5
58 20.0 -42.5
59 20.0 -44.5
60 21.0 -47.0
61 21.0 -49.0
62 21.5 -41.0
63 22.0 -43.0
64 22.0 -45.0
65 22.17 -51.5
66 23.0 -47.0
67 23.0 -49.0
68 24.0 -45.5
69 24.17 -51.0
70 23.83 -53.83
71 25.17 -48.0
72 25.17 -55.83
73 26.17 -51.0
74 26.0 -53.5
75 26.0 -59.38
76 27.0 -48.5
77 27.17 -56.0
78 27.17 -62.0
79 28.0 -51.0
80 28.0 -53.0
81 28.0 -59.0
82 28.17 -64.17
83 29.0 -49.5
84 29.17 -55.0
85 29.0 -57.5
86 29.17 -61.0
87 30.17 -52.0
88 30.17 -64.0
89 30.0 -66.5
90 30.0 -68.5
91 30.0 -70.5
92 30.0 -72.5
93 31.17 -55.0
94 31.0 -57.5
95 31.0 -59.5
96 31.0 -61.5
97 32.0 -52.0
98 32.0 -64.0
99 32.0 -66.0
100 32.0 -68.0
101 32.0 -70.0
102 32.0 -72.0
103 31.83 -74.5
104 32.17 -81.0
105 33.17 -54.0
106 33.0 -56.5
107 33.0 -58.5
108 33.0 -60.5
109 33.0 -62.5
110 33.17 -76.0
111 33.0 -78.5
112 33.17 -84.0
113 34.17 -14.83
114 34.17 -21.0
115 33.83 -23.83
116 34.0 -51.0
117 34.0 -65.0
118 34.0 -67.0
119 34.0 -69.0
120 34.0 -71.0
121 34.0 -73.0
122 34.0 -81.0
123 34.17 -86.17
124 35.17 -18.0
125 35.0 -26.38
126 35.0 -53.0
127 35.0 -55.0
128 35.0 -57.0
129 35.0 -59.0
130 35.0 -61.0
131 35.0 -63.0
132 35.0 -75.0
133 35.0 -77.0
134 35.0 -79.0
135 35.0 -83.0
136 36.0 -13.0
137 36.0 -15.0
138 36.0 -21.0
139 36.0 -23.0
140 36.0 -29.0
141 36.17 -51.0
142 36.17 -65.0
143 36.0 -67.5
144 36.0 -69.5
145 36.0 -71.5
146 36.0 -73.5
147 36.17 -81.0
148 36.17 -85.0
149 36.0 -87.5
150 37.17 -17.0
151 37.0 -19.5
152 37.17 -25.0
153 37.0 -27.5
154 37.0 -54.0
155 37.0 -56.0
156 37.0 -58.0
157 37.0 -60.0
158 37.0 -62.0
159 37.0 -76.0
160 37.0 -78.0
161 38.0 -12.0
162 38.0 -14.0
163 38.0 -22.0
164 38.0 -30.0
165 38.17 -50.0
166 38.0 -52.5
167 38.17 -64.0
168 38.0 -66.5
169 38.0 -68.5
170 38.0 -70.5
171 38.0 -72.5
172 38.0 -74.5
173 38.17 -80.0
174 38.0 -82.5
175 38.0 -84.5
176 38.0 -86.5
177 38.0 -88.5
178 39.17 -16.0
179 39.0 -18.5
180 39.0 -20.5
181 39.17 -24.0
182 39.0 -26.5
183 39.0 -28.5
184 39.0 -55.0
185 39.0 -57.0
186 39.0 -59.0
187 39.0 -61.0
188 39.0 -77.0
189 40.0 -13.0
190 40.0 -31.0
191 40.17 -49.0
192 40.0 -51.5
193 40.0 -53.5
194 40.17 -63.0
195 40.0 -65.5
196 40.0 -67.5
197 40.0 -69.5
198 40.0 -71.5
199 40.0 -73.5
200 40.0 -75.5
201 40.17 -79.0
202 40.0 -81.5
203 40.0 -83.5
204 40.0 -85.5
205 40.0 -87.5
206 40.0 -89.25
207 41.17 -15.0
208 41.0 -17.5
209 41.0 -19.5
210 41.0 -21.5
211 41.0 -23.5
212 41.0 -25.5
213 41.0 -27.5
214 41.0 -29.5
215 41.0 -56.0
216 41.0 -58.0
217 41.0 -60.0
218 42.0 -32.0
219 42.0 -48.0
220 42.0 -50.0
221 42.0 -52.0
222 42.0 -54.0
223 42.0 -62.0
224 42.0 -64.0
225 42.0 -66.0
226 42.0 -68.0
227 42.0 -70.0
228 42.0 -72.0
229 42.0 -74.0
230 42.0 -76.0
231 42.0 -78.0
232 42.0 -80.0
233 42.0 -82.0
234 42.0 -84.0
235 42.0 -86.0
236 42.0 -88.0
237 42.0 -90.0
238 43.0 -14.5
239 43.0 -16.5
240 43.0 -18.5
241 43.0 -20.5
242 43.0 -22.5
243 43.0 -24.5
244 43.0 -26.5
245 43.0 -28.5
246 43.0 -30.5
247 43.17 -34.0
248 43.17 -56.0
249 43.0 -58.5
250 43.0 -60.5
251 44.17 -36.17
252 44.17 -47.0
253 44.0 -49.5
254 44.0 -51.5
255 44.0 -53.5
256 44.17 -63.0
257 44.0 -65.5
258 44.0 -67.5
259 44.0 -69.5
260 44.0 -71.5
261 44.0 -73.5
262 44.0 -75.5
263 44.0 -77.5
264 44.0 -79.5
265 44.0 -81.5
266 44.0 -83.5
267 44.0 -85.5
268 44.0 -87.5
269 43.83 -89.83
270 45.0 -15.5
271 45.0 -17.5
272 45.0 -19.5
273 45.0 -21.5
274 45.0 -23.5
275 45.0 -25.5
276 45.0 -27.5
277 45.0 -29.5
278 45.0 -31.5
279 45.0 -33.5
280 45.17 -39.0
281 45.0 -56.0
282 45.0 -58.0
283 45.0 -60.0
284 46.0 -36.0
285 46.0 -42.0
286 46.0 -44.0
287 46.0 -46.0
288 46.0 -48.0
289 46.0 -50.0
290 46.0 -52.0
291 46.0 -54.0
292 46.0 -62.0
293 46.0 -64.0
294 46.0 -66.0
295 46.0 -68.0
296 46.0 -70.0
297 46.0 -72.0
298 46.0 -74.0
299 46.0 -76.0
300 46.0 -78.0
301 46.0 -80.0
302 46.0 -82.0
303 46.0 -84.0
304 46.0 -86.0
305 46.0 -88.0
306 46.0 -90.0
307 47.0 -16.5
308 47.0 -18.5
309 47.0 -20.5
310 47.0 -22.5
311 47.0 -24.5
312 47.0 -26.5
313 47.0 -28.5
314 47.0 -30.5
315 47.0 -32.5
316 47.0 -34.5
317 47.17 -38.0
318 47.0 -40.5
319 47.17 -56.0
320 47.0 -58.5
321 47.0 -60.5
322 48.17 -43.0
323 48.0 -45.5
324 48.0 -47.5
325 48.0 -49.5
326 48.0 -51.5
327 48.0 -53.5
328 48.17 -63.0
329 48.0 -65.5
330 48.0 -67.5
331 48.0 -69.5
332 48.0 -71.5
333 48.0 -73.5
334 48.0 -75.5
335 48.0 -77.5
336 48.0 -79.5
337 48.0 -81.5
338 48.0 -83.5
339 48.0 -85.5
340 48.0 -87.5
341 47.83 -89.83
342 49.0 -18.5
343 49.0 -20.5
344 49.0 -22.5
345 49.0 -24.5
346 49.0 -26.5
347 49.0 -28.5
348 49.0 -30.5
349 49.0 -32.5
350 49.0 -34.5
351 49.0 -36.5
352 49.0 -38.5
353 49.0 -40.5
354 49.17 -56.0
355 49.0 -58.5
356 49.0 -60.5
357 49.0 -91.25
358 50.0 -43.0
359 50.0 -45.0
360 50.0 -47.0
361 50.0 -49.0
362 50.0 -51.0
363 50.0 -53.0
364 50.0 -63.0
365 50.0 -65.0
366 50.0 -67.0
367 50.0 -69.0
368 50.0 -71.0
369 50.0 -73.0
370 50.0 -75.0
371 50.0 -77.0
372 50.0 -79.0
373 50.0 -81.0
374 50.0 -83.0
375 50.0 -85.0
376 50.0 -87.0
377 50.0 -89.0
378 50.5 -21.0
379 50.5 -23.0
380 50.5 -25.75
381 50.5 -33.0
382 51.0 -35.5
383 51.0 -37.5
384 51.0 -39.5
385 51.0 -41.5
386 51.17 -55.0
387 51.0 -57.5
388 51.0 -59.5
389 51.0 -61.5
390 51.17 -90.83
391 52.0 -44.0
392 52.0 -46.0
393 52.0 -48.0
394 52.0 -50.0
395 52.0 -52.0
396 52.0 -64.0
397 52.0 -66.0
398 52.0 -68.0
399 52.0 -70.0
400 52.0 -72.0
401 52.0 -74.0
402 52.0 -76.0
403 52.0 -78.0
404 52.0 -80.0
405 52.0 -82.0
406 52.0 -84.0
407 52.0 -86.0
408 52.0 -88.0
409 52.5 -40.0
410 53.0 -42.0
411 53.0 -54.0
412 53.0 -56.0
413 53.0 -58.0
414 53.0 -60.0
415 53.0 -62.0
416 53.0 -90.75
417 54.0 -44.0
418 54.0 -46.0
419 54.0 -48.0
420 54.0 -50.0
421 54.0 -52.0
422 54.0 -64.0
423 54.0 -66.0
424 54.0 -68.0
425 54.0 -70.0
426 54.0 -72.0
427 54.0 -74.0
428 54.0 -76.0
429 54.0 -78.0
430 54.0 -80.0
431 54.0 -82.0
432 54.0 -84.0
433 54.0 -86.0
434 54.0 -88.0
435 55.17 -54.0
436 55.0 -56.5
437 55.0 -58.5
438 55.0 -60.5
439 55.0 -62.5
440 55.17 -90.0
441 55.0 -92.25
442 56.0 -45.0
443 56.0 -47.0
444 56.0 -49.0
445 56.0 -51.0
446 56.0 -65.0
447 56.0 -67.0
448 56.0 -69.0
449 56.0 -71.0
450 56.0 -73.0
451 56.0 -75.0
452 56.0 -77.0
453 56.0 -79.0
454 56.0 -81.0
455 56.0 -83.0
456 56.0 -85.0
457 56.0 -87.0
458 57.0 -53.0
459 57.0 -55.0
460 57.0 -57.0
461 57.0 -59.0
462 57.0 -61.0
463 57.0 -63.0
464 57.0 -89.0
465 57.0 -91.75
466 58.0 -45.0
467 58.0 -47.0
468 58.0 -49.0
469 58.0 -51.0
470 58.0 -65.0
471 58.0 -67.0
472 58.0 -69.0
473 58.0 -71.0
474 58.0 -73.0
475 58.0 -75.0
476 58.0 -77.0
477 58.0 -79.0
478 58.0 -81.0
479 58.0 -83.0
480 58.0 -85.0
481 58.0 -87.0
482 59.0 -53.0
483 59.0 -55.0
484 59.0 -57.0
485 59.0 -59.0
486 59.0 -61.0
487 59.0 -63.0
488 59.0 -89.0
489 59.0 -91.75
490 60.17 -45.0
491 60.0 -47.5
492 60.0 -49.5
493 60.0 -51.5
494 60.17 -65.0
495 60.0 -67.5
496 60.0 -69.5
497 60.0 -71.5
498 60.0 -73.5
499 60.0 -75.5
500 60.0 -77.5
501 60.0 -79.5
502 60.0 -81.5
503 60.0 -83.5
504 60.0 -85.5
505 60.0 -87.5
506 61.0 -54.0
507 61.0 -56.0
508 61.0 -58.0
509 61.0 -60.0
510 61.0 -62.0
511 61.0 -90.0
512 61.0 -92.0
513 62.0 -44.0
514 62.0 -46.0
515 62.0 -48.0
516 62.0 -50.0
517 62.0 -52.0
518 62.0 -64.0
519 62.0 -66.0
520 62.0 -68.0
521 62.0 -70.0
522 62.0 -72.0
523 62.0 -74.0
524 62.0 -76.0
525 62.0 -78.0
526 62.0 -80.0
527 62.0 -82.0
528 62.0 -84.0
529 62.0 -86.0
530 62.0 -88.0
531 63.0 -54.0
532 63.0 -56.0
533 63.0 -58.0
534 63.0 -60.0
535 63.0 -62.0
536 63.0 -90.0
537 63.0 -92.0
538 64.17 -44.0
539 64.0 -46.5
540 64.0 -48.5
541 64.0 -50.5
542 64.0 -52.5
543 64.17 -64.0
544 64.0 -66.5
545 64.0 -68.5
546 64.0 -70.5
547 64.0 -72.5
548 64.0 -74.5
549 64.0 -76.5
550 64.0 -78.5
551 64.0 -80.5
552 64.0 -82.5
553 64.0 -84.5
554 64.0 -86.5
555 64.0 -88.5
556 65.0 -55.0
557 65.0 -57.0
558 65.0 -59.0
559 65.0 -61.0
560 65.0 -91.75
561 66.0 -43.0
562 66.0 -45.0
563 66.0 -47.0
564 66.0 -49.0
565 66.0 -51.0
566 66.0 -53.0
567 66.0 -63.0
568 66.0 -65.0
569 66.0 -67.0
570 66.0 -69.0
571 66.0 -71.0
572 66.0 -73.0
573 66.0 -75.0
574 66.0 -77.0
575 66.0 -79.0
576 66.0 -81.0
577 66.0 -83.0
578 66.0 -85.0
579 66.0 -87.0
580 66.0 -89.0
581 67.17 -55.0
582 67.0 -57.5
583 67.0 -59.5
584 67.0 -61.5
585 67.0 -91.38
586 68.0 -42.0
587 68.0 -44.0
588 68.0 -46.0
589 68.0 -48.0
590 68.0 -50.0
591 68.0 -52.0
592 68.0 -64.0
593 68.0 -66.0
594 68.0 -68.0
595 68.0 -70.0
596 68.0 -72.0
597 68.0 -74.0
598 68.0 -76.0
599 68.0 -78.0
600 68.0 -80.0
601 68.0 -82.0
602 68.0 -84.0
603 68.0 -86.0
604 68.0 -88.0
605 68.17 -93.0
606 69.0 -54.0
607 69.0 -56.0
608 69.0 -58.0
609 69.0 -60.0
610 69.0 -62.0
611 69.0 -90.0
612 70.0 -15.0
613 70.0 -17.0
614 69.83 -19.5
615 70.17 -42.0
616 70.0 -44.5
617 70.0 -46.5
618 70.0 -48.5
619 70.0 -50.5
620 70.0 -52.5
621 70.17 -64.0
622 70.0 -66.5
623 70.0 -68.5
624 70.0 -70.5
625 70.0 -72.5
626 70.0 -74.5
627 70.0 -76.5
628 70.0 -78.5
629 70.0 -80.5
630 70.0 -82.5
631 70.0 -84.5
632 70.0 -86.5
633 70.0 -88.5
634 70.0 -92.38
635 71.17 -13.0
636 71.0 -21.38
637 71.0 -55.0
638 71.0 -57.0
639 71.0 -59.0
640 71.0 -61.0
641 72.17 -16.0
642 72.0 -18.5
643 72.17 -24.0
644 72.17 -41.0
645 72.0 -43.5
646 72.0 -45.5
647 72.0 -47.5
648 72.0 -49.5
649 72.0 -51.5
650 72.0 -53.5
651 72.17 -63.0
652 72.0 -65.5
653 72.0 -67.5
654 72.0 -69.5
655 72.0 -71.5
656 72.0 -73.5
657 72.0 -75.5
658 72.0 -77.5
659 72.0 -79.5
660 72.0 -81.5
661 72.0 -83.5
662 72.0 -85.5
663 72.0 -87.5
664 72.0 -89.5
665 72.0 -91.5
666 72.0 -93.25
667 73.17 -11.0
668 73.0 -13.5
669 73.17 -21.0
670 73.0 -56.0
671 73.0 -58.0
672 73.0 -60.0
673 74.0 -16.0
674 74.0 -18.0
675 74.0 -24.0
676 74.0 -26.0
677 74.0 -38.0
678 74.0 -40.0
679 74.0 -42.0
680 74.0 -44.0
681 74.0 -46.0
682 74.0 -48.0
683 74.0 -50.0
684 74.0 -52.0
685 74.0 -54.0
686 74.0 -62.0
687 74.0 -64.0
688 74.0 -66.0
689 74.0 -68.0
690 74.0 -70.0
691 74.0 -72.0
692 74.0 -74.0
693 74.0 -76.0
694 74.0 -78.0
695 74.0 -80.0
696 74.0 -82.0
697 74.0 -84.0
698 74.0 -86.0
699 74.0 -88.0
700 74.0 -90.0
701 74.0 -92.75
702 75.17 -8.0
703 75.0 -10.5
704 75.0 -12.5
705 75.0 -14.5
706 75.17 -20.0
707 75.0 -22.5
708 75.17 -28.0
709 75.0 -30.5
710 75.0 -32.5
711 75.0 -34.5
712 75.0 -36.5
713 75.17 -56.0
714 75.0 -58.5
715 75.0 -60.5
716 76.0 -17.0
717 76.0 -25.0
718 76.0 -39.0
719 76.0 -41.0
720 76.0 -43.0
721 76.0 -45.0
722 76.0 -47.0
723 76.0 -49.0
724 76.0 -51.0
725 76.0 -53.0
726 76.0 -63.0
727 76.0 -65.0
728 76.0 -67.0
729 76.0 -69.0
730 76.0 -71.0
731 76.0 -73.0
732 76.0 -75.0
733 76.0 -77.0
734 76.0 -79.0
735 76.0 -81.0
736 76.0 -83.0
737 76.0 -85.0
738 76.0 -87.0
739 76.0 -89.0
740 76.0 -91.0
741 76.0 -93.0
742 77.17 -7.0
743 77.0 -9.5
744 77.0 -11.5
745 77.0 -13.5
746 77.0 -15.5
747 77.17 -19.0
748 77.0 -21.5
749 77.0 -23.5
750 77.17 -27.0
751 77.0 -29.5
752 77.0 -31.5
753 77.0 -33.5
754 77.0 -35.5
755 77.0 -37.5
756 77.17 -55.0
757 77.0 -57.5
758 77.0 -59.5
759 77.0 -61.5
760 78.0 -40.0
761 78.0 -42.0
762 78.0 -44.0
763 78.0 -46.0
764 78.0 -48.0
765 78.0 -50.0
766 78.0 -52.0
767 78.0 -64.0
768 78.0 -66.0
769 78.0 -68.0
770 78.0 -70.0
771 78.0 -72.0
772 78.0 -74.0
773 78.0 -76.0
774 78.0 -78.0
775 78.0 -80.0
776 78.0 -82.0
777 78.0 -84.0
778 78.0 -86.0
779 78.0 -88.0
780 78.0 -90.0
781 78.0 -92.75
782 79.0 -6.0
783 79.0 -8.0
784 79.0 -10.0
785 79.0 -12.0
786 79.0 -14.0
787 79.0 -16.0
788 79.0 -18.0
789 79.0 -20.0
790 79.0 -22.0
791 79.0 -24.0
792 79.0 -26.0
793 79.0 -28.0
794 79.0 -30.0
795 79.0 -32.0
796 79.0 -34.0
797 79.0 -36.0
798 79.0 -38.0
799 79.0 -54.0
800 79.0 -56.0
801 79.0 -58.0
802 79.0 -60.0
803 79.0 -62.0
804 80.0 -40.0
805 80.0 -42.0
806 80.0 -44.0
807 80.0 -46.0
808 80.0 -48.0
809 80.0 -50.0
810 80.0 -52.0
811 80.0 -64.0
812 80.0 -66.0
813 80.0 -68.0
814 80.0 -70.0
815 80.0 -72.0
816 80.0 -74.0
817 80.0 -76.0
818 80.0 -78.0
819 80.0 -80.0
820 80.0 -82.0
821 80.0 -84.0
822 80.0 -86.0
823 80.0 -88.0
824 80.0 -90.0
825 80.0 -92.75
826 81.0 -6.5
827 81.0 -8.5
828 81.0 -10.5
829 81.0 -12.5
830 81.0 -14.5
831 81.0 -16.5
832 81.0 -18.5
833 81.0 -20.5
834 81.0 -22.5
835 81.0 -24.5
836 81.0 -26.5
837 81.0 -28.5
838 81.0 -30.5
839 81.0 -32.5
840 81.0 -34.5
841 81.0 -36.5
842 81.0 -38.5
843 81.17 -54.0
844 81.0 -56.5
845 81.0 -58.5
846 81.0 -60.5
847 81.0 -62.5
848 82.0 -41.0
849 82.0 -43.0
850 82.0 -45.0
851 82.0 -47.0
852 82.0 -49.0
853 82.0 -51.0
854 82.0 -65.0
855 82.0 -67.0
856 82.0 -69.0
857 82.0 -71.0
858 82.0 -73.0
859 82.0 -75.0
860 82.0 -77.0
861 82.0 -79.0
862 82.0 -81.0
863 82.0 -83.0
864 82.0 -85.0
865 82.0 -87.0
866 82.0 -89.0
867 82.0 -91.0
868 82.0 -93.0
869 82.5 -8.0
870 83.0 -10.0
871 83.0 -12.0
872 83.0 -14.0
873 83.0 -16.0
874 83.0 -18.0
875 83.0 -20.0
876 83.0 -22.0
877 83.17 -24.5
878 82.5 -26.75
879 82.5 -33.0
880 82.5 -35.0
881 82.5 -37.0
882 83.0 -39.0
883 83.0 -53.0
884 83.0 -55.0
885 83.0 -57.0
886 83.0 -59.0
887 83.0 -61.0
888 83.0 -63.0
889 84.17 -41.0
890 84.0 -43.5
891 84.0 -45.5
892 84.0 -47.5
893 84.0 -49.5
894 84.0 -51.5
895 84.17 -65.0
896 84.0 -67.5
897 84.0 -69.5
898 84.0 -71.5
899 84.0 -73.5
900 84.0 -75.5
901 84.0 -77.5
902 84.0 -79.5
903 84.0 -81.5
904 84.0 -83.5
905 84.0 -85.5
906 84.0 -87.5
907 84.0 -89.5
908 84.0 -91.5
909 84.0 -93.25
910 84.5 -12.0
911 85.0 -14.5
912 85.0 -16.5
913 85.0 -18.5
914 85.0 -20.5
915 85.0 -22.5
916 84.5 -24.0
917 85.17 -54.0
918 85.0 -56.5
919 85.0 -58.5
920 85.0 -60.5
921 85.0 -62.5
922 86.0 -41.0
923 86.0 -43.0
924 86.0 -45.0
925 86.0 -47.0
926 86.0 -49.0
927 86.0 -51.0
928 86.0 -65.0
929 86.0 -67.0
930 86.0 -69.0
931 86.0 -71.0
932 86.0 -73.0
933 86.0 -75.0
934 86.0 -77.0
935 86.0 -79.0
936 86.0 -81.0
937 86.0 -83.0
938 86.0 -85.0
939 86.0 -87.0
940 86.0 -89.0
941 86.0 -91.0
942 86.0 -93.0
943 86.5 -17.0
944 86.5 -19.0
945 86.5 -21.0
946 87.17 -53.0
947 87.0 -55.5
948 87.0 -57.5
949 87.0 -59.5
950 87.0 -61.5
951 87.0 -63.5
952 88.0 -42.0
953 88.0 -44.0
954 88.0 -46.0
955 88.0 -48.0
956 88.0 -50.0
957 88.0 -66.0
958 88.0 -68.0
959 88.0 -70.0
960 88.0 -72.0
961 88.0 -74.0
962 88.0 -76.0
963 88.0 -78.0
964 88.0 -80.0
965 88.0 -82.0
966 88.0 -84.0
967 88.0 -86.0
968 88.0 -88.0
969 88.0 -90.0
970 88.0 -92.75
971 89.0 -52.0
972 89.0 -54.0
973 89.0 -56.0
974 89.0 -58.0
975 89.0 -60.0
976 89.0 -62.0
977 89.0 -64.0
978 90.0 -42.0
979 90.0 -44.0
980 90.0 -46.0
981 90.0 -48.0
982 90.0 -50.0
983 90.0 -66.0
984 90.0 -68.0
985 90.0 -70.0
986 90.0 -72.0
987 90.0 -74.0
988 90.0 -76.0
989 90.0 -78.0
990 90.0 -80.0
991 90.0 -82.0
992 90.0 -84.0
993 90.0 -86.0
994 90.0 -88.0
995 90.0 -90.0
996 90.0 -92.75
997 91.0 -52.0
998 91.0 -54.0
999 91.0 -56.0
1000 91.0 -58.0
1001 91.0 -60.0
1002 91.0 -62.0
1003 91.0 -64.0
1004 92.0 -42.0
1005 92.0 -44.0
1006 92.0 -46.0
1007 92.0 -48.0
1008 92.0 -50.0
1009 92.0 -66.0
1010 92.0 -68.0
1011 92.0 -70.0
1012 92.0 -72.0
1013 92.0 -74.0
1014 92.0 -76.0
1015 92.0 -78.0
1016 92.0 -80.0
1017 92.0 -82.0
1018 92.0 -84.0
1019 92.0 -86.0
1020 92.0 -88.0
1021 92.0 -90.0
1022 91.83 -92.5
1023 93.17 -52.0
1024 93.0 -54.5
1025 93.0 -56.5
1026 93.0 -58.5
1027 93.0 -60.5
1028 93.0 -62.5
1029 93.0 -64.5
1030 94.0 -43.0
1031 94.0 -45.0
1032 94.0 -47.0
1033 94.0 -49.0
1034 94.0 -67.0
1035 94.0 -69.0
1036 94.0 -71.0
1037 94.0 -73.0
1038 94.0 -75.0
1039 94.0 -77.0
1040 94.0 -79.0
1041 94.0 -81.0
1042 94.0 -83.0
1043 94.0 -85.0
1044 94.0 -87.0
1045 94.0 -89.0
1046 94.0 -91.75
1047 95.0 -51.0
1048 95.0 -53.0
1049 95.0 -55.0
1050 95.0 -57.0
1051 95.0 -59.0
1052 95.0 -61.0
1053 95.0 -63.0
1054 95.0 -65.0
1055 96.0 -43.5
1056 96.0 -45.5
1057 96.0 -47.5
1058 96.0 -49.5
1059 96.17 -67.0
1060 96.0 -69.5
1061 96.0 -71.5
1062 96.0 -73.5
1063 96.0 -75.5
1064 96.0 -77.5
1065 96.0 -79.5
1066 96.0 -81.5
1067 96.0 -83.5
1068 96.0 -85.5
1069 96.0 -87.5
1070 96.0 -89.5
1071 95.83 -91.83
1072 97.0 -52.0
1073 97.0 -54.0
1074 97.0 -56.0
1075 97.0 -58.0
1076 97.0 -60.0
1077 97.0 -62.0
1078 97.0 -64.0
1079 98.0 -44.0
1080 98.0 -46.0
1081 98.0 -48.0
1082 98.0 -50.0
1083 98.0 -66.0
1084 98.0 -68.0
1085 98.0 -70.0
1086 98.0 -72.0
1087 98.0 -74.0
1088 98.0 -76.0
1089 98.0 -78.0
1090 98.0 -80.0
1091 98.0 -82.0
1092 98.0 -84.0
1093 98.0 -86.0
1094 98.0 -88.0
1095 98.0 -90.0
1096 98.0 -92.0
1097 99.0 -52.0
1098 99.0 -54.0
1099 99.0 -56.0
1100 99.0 -58.0
1101 99.0 -60.0
1102 99.0 -62.0
1103 99.0 -64.0
1104 100.0 -44.0
1105 100.0 -46.0
1106 100.0 -48.0
1107 100.0 -50.0
1108 100.0 -66.0
1109 100.0 -68.0
1110 100.0 -70.0
1111 100.0 -72.0
1112 100.0 -74.0
1113 100.0 -76.0
1114 100.0 -78.0
1115 100.0 -80.0
1116 100.0 -82.0
1117 100.0 -84.0
1118 100.0 -86.0
1119 100.0 -88.0
1120 100.0 -90.75
1121 101.0 -52.0
1122 101.0 -54.0
1123 101.0 -56.0
1124 101.0 -58.0
1125 101.0 -60.0
1126 101.0 -62.0
1127 101.0 -64.0
1128 102.0 -44.0
1129 102.0 -46.0
1130 102.0 -48.0
1131 102.0 -50.0
1132 102.0 -66.0
1133 102.0 -68.0
1134 102.0 -70.0
1135 102.0 -72.0
1136 102.0 -74.0
1137 102.0 -76.0
1138 102.0 -78.0
1139 102.0 -80.0
1140 102.0 -82.0
1141 102.0 -84.0
1142 102.0 -86.0
1143 102.0 -88.0
1144 101.83 -90.5
1145 103.0 -42.0
1146 103.0 -52.0
1147 103.0 -54.0
1148 103.0 -56.0
1149 103.0 -58.0
1150 103.0 -60.0
1151 103.0 -62.0
1152 103.0 -64.0
1153 104.17 -40.0
1154 104.17 -44.0
1155 104.0 -46.5
1156 104.0 -48.5
1157 104.0 -50.5
1158 104.17 -66.0
1159 104.0 -68.5
1160 104.0 -70.5
1161 104.0 -72.5
1162 104.0 -74.5
1163 104.0 -76.5
1164 104.0 -78.5
1165 104.0 -80.5
1166 104.0 -82.5
1167 104.0 -84.5
1168 104.0 -86.5
1169 104.0 -88.5
1170 104.0 -90.25
1171 105.0 -22.38
1172 105.17 -37.0
1173 105.17 -53.0
1174 105.0 -55.5
1175 105.0 -57.5
1176 105.0 -59.5
1177 105.0 -61.5
1178 105.0 -63.5
1179 106.17 -19.0
1180 106.17 -25.0
1181 106.0 -34.0
1182 106.0 -40.0
1183 106.0 -42.0
1184 106.0 -44.0
1185 106.0 -46.0
1186 106.0 -48.0
1187 106.0 -50.0
1188 106.0 -66.0
1189 106.0 -68.0
1190 106.0 -70.0
1191 106.0 -72.0
1192 106.0 -74.0
1193 106.0 -76.0
1194 106.0 -78.0
1195 106.0 -80.0
1196 106.0 -82.0
1197 106.0 -84.0
1198 106.0 -86.0
1199 106.0 -88.0
1200 106.0 -90.0
1201 107.0 -22.0
1202 107.0 -28.0
1203 107.0 -30.0
1204 107.0 -32.0
1205 107.0 -36.0
1206 107.0 -38.0
1207 107.0 -52.0
1208 107.0 -54.0
1209 107.0 -56.0
1210 107.0 -58.0
1211 107.0 -60.0
1212 107.0 -62.0
1213 107.0 -64.0
1214 108.17 -18.0
1215 108.0 -20.5
1216 108.17 -24.0
1217 108.0 -26.5
1218 108.17 -34.0
1219 108.17 -40.0
1220 108.0 -42.5
1221 108.0 -44.5
1222 108.0 -46.5
1223 108.0 -48.5
1224 108.0 -50.5
1225 108.17 -66.0
1226 108.0 -68.5
1227 108.0 -70.5
1228 108.0 -72.5
1229 108.0 -74.5
1230 108.0 -76.5
1231 108.0 -78.5
1232 108.0 -80.5
1233 108.0 -82.5
1234 108.0 -84.5
1235 108.0 -86.5
1236 108.0 -88.5
1237 107.5 -90.0
1238 109.17 -29.0
1239 109.0 -31.5
1240 109.17 -37.0
1241 109.0 -53.0
1242 109.0 -55.0
1243 109.0 -57.0
1244 109.0 -59.0
1245 109.0 -61.0
1246 109.0 -63.0
1247 110.17 -16.0
1248 110.0 -18.5
1249 110.0 -20.5
1250 110.0 -22.5
1251 110.0 -24.5
1252 110.0 -26.5
1253 110.17 -34.0
1254 109.83 -40.17
1255 109.5 -47.0
1256 110.0 -49.0
1257 110.0 -51.0
1258 110.0 -65.0
1259 110.0 -67.0
1260 110.0 -69.0
1261 110.0 -71.0
1262 110.0 -73.0
1263 110.0 -75.0
1264 110.0 -77.0
1265 110.0 -79.0
1266 110.0 -81.0
1267 110.0 -83.0
1268 110.0 -85.0
1269 110.0 -87.0
1270 110.0 -89.0
1271 111.0 -29.0
1272 111.0 -31.0
1273 111.17 -37.5
1274 111.17 -53.0
1275 111.0 -55.5
1276 111.0 -57.5
1277 111.0 -59.5
1278 111.0 -61.5
1279 111.0 -63.5
1280 112.17 -13.0
1281 112.0 -15.5
1282 112.0 -17.5
1283 112.0 -19.5
1284 112.0 -21.5
1285 112.0 -23.5
1286 112.0 -25.5
1287 112.0 -27.5
1288 112.17 -33.0
1289 112.0 -35.5
1290 112.0 -50.5
1291 112.17 -66.0
1292 112.0 -68.5
1293 112.0 -70.5
1294 112.0 -72.5
1295 112.0 -74.5
1296 112.0 -76.5
1297 112.0 -78.5
1298 112.0 -80.5
1299 112.0 -82.5
1300 112.0 -84.5
1301 112.0 -86.5
1302 111.83 -88.83
1303 113.0 -30.0
1304 113.0 -53.0
1305 113.0 -55.0
1306 113.0 -57.0
1307 113.0 -59.0
1308 113.0 -61.0
1309 113.0 -63.0
1310 114.0 -12.0
1311 114.0 -14.0
1312 114.0 -16.0
1313 114.0 -18.0
1314 114.0 -20.0
1315 114.0 -22.0
1316 114.0 -24.0
1317 114.0 -26.0
1318 114.0 -28.0
1319 114.0 -32.0
1320 113.5 -34.0
1321 114.0 -51.5
1322 114.17 -65.0
1323 114.0 -67.5
1324 114.0 -69.5
1325 114.0 -71.5
1326 114.0 -73.5
1327 114.0 -75.5
1328 114.0 -77.5
1329 114.0 -79.5
1330 114.0 -81.5
1331 114.0 -83.5
1332 114.0 -85.5
1333 114.0 -87.5
1334 113.5 -89.0
1335 115.17 -30.5
1336 115.0 -54.0
1337 115.0 -56.0
1338 115.0 -58.0
1339 115.0 -60.0
1340 115.0 -62.0
1341 116.0 -12.5
1342 116.0 -14.5
1343 116.0 -16.5
1344 116.0 -18.5
1345 116.0 -20.5
1346 116.0 -22.5
1347 116.0 -24.5
1348 116.0 -26.5
1349 116.0 -28.5
1350 116.0 -52.5
1351 116.17 -64.0
1352 116.0 -66.5
1353 116.0 -68.5
1354 116.0 -70.5
1355 116.0 -72.5
1356 116.0 -74.5
1357 116.0 -76.5
1358 116.0 -78.5
1359 116.0 -80.5
1360 116.0 -82.5
1361 116.0 -84.5
1362 116.0 -86.5
1363 115.5 -88.0
1364 117.0 -29.75
1365 117.0 -55.0
1366 117.0 -57.0
1367 117.0 -59.0
1368 117.0 -61.0
1369 117.5 -15.0
1370 118.0 -17.5
1371 118.0 -19.5
1372 118.0 -21.5
1373 118.0 -23.5
1374 118.0 -25.5
1375 118.0 -27.5
1376 118.0 -53.5
1377 118.17 -63.0
1378 118.0 -65.5
1379 118.0 -67.5
1380 118.0 -69.5
1381 118.0 -71.5
1382 118.0 -73.5
1383 118.0 -75.5
1384 117.5 -77.75
1385 117.5 -81.0
1386 117.5 -83.0
1387 117.5 -85.0
1388 119.0 -28.75
1389 119.0 -56.0
1390 119.0 -58.0
1391 119.0 -60.0
1392 120.0 -20.5
1393 120.0 -22.5
1394 120.0 -24.5
1395 120.0 -26.25
1396 120.0 -54.0
1397 120.0 -62.0
1398 120.0 -64.0
1399 120.0 -66.0
1400 120.17 -68.5
1401 119.5 -70.0
1402 120.17 -72.5
1403 119.5 -74.75
1404 121.17 -56.0
1405 121.0 -58.5
1406 121.0 -60.5
1407 122.0 -53.0
1408 122.0 -63.0
1409 122.0 -65.0
1410 121.83 -67.5
1411 123.17 -55.0
1412 123.0 -57.5
1413 123.0 -59.5
1414 123.0 -61.5
1415 124.0 -52.0
1416 124.0 -64.0
1417 124.0 -66.0
1418 125.17 -54.0
1419 125.0 -56.5
1420 125.0 -58.5
1421 125.0 -60.5
1422 125.0 -62.5
1423 126.17 -51.0
1424 125.5 -64.5
1425 127.17 -54.0
1426 127.0 -56.5
1427 127.0 -58.5
1428 126.5 -60.75
1429 128.17 -49.0
1430 128.0 -51.5
1431 129.0 -54.0
1432 128.83 -56.5
1433 130.17 -48.0
1434 130.0 -50.5
1435 130.0 -52.5
1436 131.0 -54.75
1437 132.17 -45.0
1438 132.0 -47.5
1439 132.0 -49.5
1440 132.0 -51.5
1441 132.0 -53.25
1442 134.0 -43.0
1443 134.0 -45.0
1444 134.0 -47.0
1445 134.17 -49.5
1446 133.5 -51.75
1447 135.17 -35.0
1448 135.0 -37.5
1449 135.0 -39.5
1450 135.0 -41.5
1451 136.17 -44.0
1452 136.0 -46.5
1453 135.83 -48.67
1454 137.0 -33.0
1455 137.0 -35.0
1456 137.0 -37.0
1457 137.0 -39.0
1458 137.0 -41.0
1459 138.0 -43.0
1460 138.0 -45.0
1461 138.0 -47.0
1462 139.17 -33.0
1463 139.0 -35.5
1464 139.0 -37.5
1465 139.0 -39.5
1466 139.0 -41.5
1467 140.0 -44.0
1468 140.0 -46.75
1469 141.0 -32.0
1470 141.0 -34.0
1471 141.0 -36.0
1472 141.0 -38.0
1473 141.0 -40.0
1474 141.0 -42.0
1475 142.17 -44.0
1476 141.83 -46.83
1477 143.0 -31.0
1478 143.0 -33.0
1479 143.0 -35.0
1480 143.0 -37.0
1481 143.0 -39.0
1482 143.0 -41.0
1483 144.0 -43.0
1484 144.0 -45.75
1485 145.0 -31.0
1486 145.0 -33.0
1487 145.0 -35.0
1488 145.0 -37.0
1489 145.0 -39.0
1490 145.0 -41.0
1491 146.17 -42.83
1492 145.5 -45.0
1493 147.17 -32.5
1494 146.5 -34.0
1495 146.5 -36.0
1496 146.5 -38.0
1497 146.5 -40.0
