0 2 0 0
215 0
0 1363 1387
1 1334 1363
2 1386 1387
3 1171 1179
4 742 782
5 702 742
6 149 177
7 636 643
8 1484 1492
9 30 41
10 667 702
11 635 667
12 612 635
13 612 613
14 613 614
15 614 636
16 53 54
17 114 115
18 136 161
19 15 22
20 7 15
21 113 136
22 1302 1334
23 1237 1270
24 1270 1302
25 1448 1449
26 1491 1492
27 1171 1180
28 1392 1393
29 870 910
30 869 870
31 943 944
32 944 945
33 910 911
34 911 943
35 666 741
36 3 9
37 9 18
38 22 33
39 0 3
40 41 50
41 50 52
42 18 30
43 826 869
44 605 666
45 357 390
46 390 441
47 512 537
48 381 382
49 51 53
50 115 125
51 125 140
52 1447 1448
53 1388 1395
54 1436 1446
55 1446 1453
56 1495 1496
57 1493 1495
58 1491 1497
59 1496 1497
60 1415 1429
61 1424 1428
62 1310 1341
63 782 826
64 1370 1392
65 1369 1370
66 996 1022
67 1022 1071
68 1071 1096
69 942 996
70 909 942
71 868 909
72 33 42
73 42 51
74 1 7
75 0 1
76 52 61
77 76 83
78 92 103
79 177 206
80 237 269
81 206 237
82 537 560
83 560 605
84 489 512
85 441 489
86 916 945
87 878 916
88 347 380
89 379 380
90 378 379
91 280 285
92 56 62
93 1447 1454
94 1364 1388
95 1394 1395
96 1393 1394
97 1254 1273
98 1432 1436
99 1427 1428
100 1427 1432
101 1145 1153
102 1079 1145
103 1180 1203
104 1181 1203
105 1280 1310
106 1247 1280
107 1179 1247
108 825 868
109 55 56
110 54 55
111 63 68
112 68 76
113 62 63
114 140 164
115 65 70
116 61 65
117 70 72
118 116 165
119 123 149
120 269 306
121 306 357
122 978 1004
123 342 378
124 307 342
125 161 189
126 252 286
127 285 286
128 219 252
129 561 586
130 513 561
131 1144 1170
132 1096 1144
133 1170 1237
134 1429 1433
135 1433 1437
136 1437 1442
137 1442 1449
138 1476 1484
139 1468 1476
140 1453 1468
141 1321 1350
142 1221 1254
143 1221 1255
144 1319 1364
145 1319 1320
146 1273 1320
147 165 191
148 191 219
149 251 280
150 97 116
151 83 97
152 75 78
153 72 75
154 104 111
155 103 111
156 112 123
157 104 112
158 838 879
159 838 878
160 922 978
161 879 880
162 880 881
163 644 677
164 586 644
165 710 711
166 677 711
167 1004 1030
168 1055 1079
169 1030 1055
170 881 882
171 882 922
172 113 124
173 114 124
174 189 238
175 383 409
176 382 383
177 1485 1493
178 1341 1369
179 1477 1485
180 1153 1172
181 1172 1181
182 1290 1321
183 1255 1290
184 1417 1424
185 1410 1417
186 1402 1410
187 1402 1403
188 78 82
189 643 676
190 676 709
191 709 710
192 347 348
193 348 381
194 270 307
195 238 270
196 409 410
197 1469 1477
198 1454 1469
199 1385 1386
200 1350 1376
201 82 90
202 91 92
203 90 91
204 247 251
205 190 247
206 164 190
207 410 442
208 1407 1415
209 1376 1407
210 1384 1385
211 1384 1403
212 442 466
213 466 513
214 741 825
0
