3958 2 0 0
0 35.23 -510.64
1 35.0 -519.17
2 35.0 -525.22
3 35.0 -531.17
4 34.64 -537.36
5 34.88 -654.5
6 35.14 -663.41
7 36.3 -544.95
8 37.23 -634.82
9 37.0 -643.28
10 37.3 -649.6
11 38.5 -551.31
12 40.0 -561.54
13 40.5 -577.75
14 40.28 -625.67
15 41.5 -505.67
16 41.0 -513.0
17 41.0 -519.0
18 41.0 -525.0
19 41.0 -531.0
20 41.0 -537.0
21 41.36 -570.57
22 41.33 -583.58
23 41.23 -614.73
24 41.0 -657.4
25 41.0 -665.08
26 42.36 -542.71
27 42.25 -590.38
28 42.0 -597.5
29 42.0 -603.5
30 41.5 -608.0
31 43.5 -631.78
32 43.0 -639.83
33 43.0 -645.83
34 43.5 -651.0
35 44.4 -552.3
36 44.0 -669.0
37 46.4 -563.0
38 46.5 -622.56
39 47.23 -502.91
40 47.0 -511.33
41 47.0 -517.33
42 47.0 -523.33
43 47.0 -529.33
44 47.0 -535.33
45 47.36 -570.43
46 47.0 -577.33
47 47.0 -583.33
48 47.36 -615.0
49 47.23 -658.91
50 47.5 -666.25
51 48.4 -543.6
52 48.4 -591.6
53 48.0 -599.5
54 48.0 -605.5
55 47.5 -609.67
56 49.23 -633.36
57 49.0 -641.83
58 49.0 -647.83
59 49.5 -652.33
60 50.4 -553.9
61 52.5 -623.67
62 53.4 -497.4
63 53.0 -505.33
64 53.0 -511.33
65 53.0 -517.33
66 53.0 -523.33
67 53.0 -529.33
68 53.0 -535.33
69 53.4 -563.4
70 53.0 -571.33
71 53.0 -577.33
72 53.0 -583.33
73 53.36 -616.0
74 52.64 -657.29
75 54.36 -540.71
76 54.3 -547.4
77 54.36 -588.71
78 54.0 -595.67
79 54.0 -601.67
80 54.0 -607.67
81 54.0 -612.0
82 55.4 -634.0
83 55.0 -641.83
84 55.0 -647.83
85 55.0 -652.38
86 56.5 -555.0
87 58.23 -363.0
88 58.0 -371.5
89 58.0 -377.5
90 58.5 -625.67
91 59.36 -354.0
92 59.2 -385.2
93 59.23 -493.73
94 59.0 -502.17
95 59.0 -508.17
96 59.0 -514.17
97 59.0 -520.17
98 59.0 -526.17
99 59.0 -532.17
100 58.72 -566.11
101 58.5 -574.4
102 58.5 -580.38
103 59.36 -617.71
104 60.0 -347.33
105 60.4 -540.4
106 60.0 -548.33
107 59.33 -589.0
108 59.5 -596.2
109 59.5 -602.4
110 60.0 -608.83
111 59.5 -613.67
112 61.13 -392.38
113 61.23 -636.55
114 61.0 -645.0
115 61.0 -651.0
116 61.0 -656.25
117 62.5 -341.56
118 62.4 -555.65
119 63.06 -400.28
120 64.2 -363.6
121 64.0 -371.5
122 64.0 -377.5
123 63.33 -627.0
124 64.42 -668.46
125 65.28 -354.33
126 65.25 -384.88
127 65.23 -488.55
128 65.0 -497.0
129 65.0 -503.0
130 65.0 -509.0
131 65.0 -515.0
132 65.0 -521.0
133 65.0 -527.0
134 65.0 -533.0
135 66.28 -335.0
136 66.06 -406.0
137 66.23 -541.91
138 65.75 -549.0
139 63.5 -619.0
140 66.5 -660.56
141 67.39 -393.33
142 67.0 -635.17
143 67.0 -641.17
144 67.0 -647.17
145 67.0 -653.17
146 68.06 -345.11
147 70.17 -328.22
148 70.0 -364.8
149 70.0 -372.83
150 70.0 -378.83
151 70.0 -412.65
152 70.14 -671.52
153 71.3 -352.3
154 71.5 -360.0
155 71.4 -400.2
156 71.4 -484.0
157 71.0 -492.0
158 71.0 -498.0
159 71.0 -504.0
160 71.0 -510.0
161 71.0 -516.0
162 71.0 -522.0
163 71.0 -528.0
164 71.0 -534.0
165 72.4 -337.3
166 72.23 -385.82
167 72.4 -420.6
168 69.5 -543.5
169 72.23 -660.09
170 73.0 -639.33
171 73.0 -645.33
172 73.0 -651.33
173 75.23 -323.18
174 75.4 -407.4
175 76.4 -346.2
176 76.4 -370.2
177 76.0 -378.0
178 76.4 -394.2
179 76.0 -426.19
180 76.0 -670.17
181 77.36 -353.86
182 77.0 -360.67
183 77.0 -365.0
184 78.0 -400.5
185 77.21 -433.43
186 77.23 -480.36
187 77.0 -488.83
188 77.0 -494.83
189 77.0 -500.83
190 77.0 -506.83
191 77.0 -512.83
192 77.0 -518.83
193 77.0 -524.83
194 78.4 -333.6
195 78.0 -340.5
196 78.5 -386.75
197 78.4 -417.6
198 78.23 -658.45
199 78.0 -675.58
200 79.0 -644.0
201 79.0 -650.0
202 81.5 -319.89
203 81.0 -327.17
204 81.5 -409.89
205 82.4 -373.8
206 82.0 -381.67
207 82.4 -427.8
208 82.23 -438.82
209 82.17 -472.78
210 82.4 -668.4
211 83.23 -349.73
212 83.0 -358.17
213 83.0 -364.17
214 83.0 -368.5
215 83.23 -397.73
216 83.5 -405.0
217 83.36 -480.43
218 83.0 -487.0
219 83.0 -493.0
220 83.0 -499.0
221 83.0 -505.0
222 83.0 -511.0
223 83.0 -517.0
224 84.4 -336.6
225 83.5 -343.0
226 84.36 -389.14
227 84.5 -419.75
228 84.2 -658.8
229 84.0 -675.83
230 84.5 -650.2
231 85.88 -447.06
232 87.4 -317.4
233 87.0 -325.17
234 87.1 -330.8
235 87.5 -413.0
236 87.23 -467.73
237 88.23 -377.27
238 88.3 -385.4
239 88.23 -431.27
240 88.0 -439.67
241 88.0 -669.38
242 89.5 -351.89
243 89.0 -359.17
244 89.0 -365.17
245 88.5 -370.0
246 89.5 -399.89
247 88.9 -406.6
248 89.5 -453.89
249 88.9 -460.6
250 89.5 -477.89
251 89.0 -485.17
252 89.0 -491.17
253 89.0 -497.17
254 89.0 -503.17
255 89.0 -509.17
256 88.34 -515.21
257 90.4 -340.0
258 89.5 -346.33
259 90.36 -392.57
260 90.5 -423.13
261 90.0 -656.33
262 90.0 -662.33
263 90.0 -675.67
264 92.5 -447.11
265 93.36 -313.57
266 93.0 -319.83
267 93.0 -325.83
268 93.0 -331.83
269 93.36 -415.57
270 93.36 -469.57
271 94.5 -380.0
272 94.0 -386.67
273 94.5 -434.0
274 94.0 -440.67
275 94.4 -668.7
276 95.5 -356.33
277 95.0 -363.5
278 95.0 -369.5
279 94.5 -374.25
280 95.5 -404.33
281 94.9 -411.0
282 95.5 -458.33
283 94.9 -465.0
284 95.5 -476.63
285 95.0 -483.5
286 95.0 -489.5
287 95.0 -495.5
288 95.0 -501.5
289 95.0 -507.42
290 96.5 -338.67
291 96.0 -346.17
292 95.5 -350.33
293 96.5 -393.0
294 95.5 -398.33
295 96.5 -422.67
296 96.0 -429.25
297 96.0 -660.0
298 96.5 -675.38
299 96.87 -558.14
300 98.5 -451.33
301 99.4 -313.4
302 99.0 -321.17
303 99.0 -327.17
304 99.1 -332.8
305 100.4 -385.1
306 100.23 -439.45
307 100.5 -446.67
308 100.4 -665.8
309 101.5 -360.33
310 101.0 -367.5
311 101.0 -373.5
312 100.5 -378.25
313 101.5 -408.33
314 101.0 -415.5
315 101.5 -462.33
316 101.0 -469.5
317 101.0 -475.5
318 101.0 -481.5
319 101.0 -487.5
320 101.0 -493.5
321 101.0 -499.5
322 100.93 -505.29
323 101.4 -562.05
324 102.4 -342.6
325 102.0 -350.33
326 101.5 -354.67
327 102.4 -396.6
328 101.5 -402.67
329 102.36 -421.71
330 102.0 -428.33
331 102.0 -433.5
332 102.5 -673.25
333 103.5 -554.0
334 104.5 -455.0
335 105.5 -311.33
336 105.0 -318.5
337 105.0 -324.5
338 105.0 -330.5
339 105.0 -336.5
340 106.4 -389.4
341 106.4 -443.4
342 106.0 -450.25
343 106.23 -569.59
344 106.0 -665.67
345 107.23 -365.45
346 107.0 -373.83
347 107.0 -379.83
348 107.0 -384.0
349 107.23 -413.45
350 107.5 -462.0
351 107.0 -469.83
352 107.0 -475.83
353 107.0 -481.83
354 107.0 -487.83
355 107.0 -493.83
356 107.0 -499.83
357 106.17 -504.42
358 107.36 -562.14
359 108.5 -346.11
360 108.0 -353.33
361 107.5 -358.0
362 108.5 -400.11
363 107.5 -406.0
364 108.5 -424.11
365 108.0 -431.33
366 107.9 -436.8
367 108.23 -548.0
368 107.88 -671.31
369 109.5 -557.5
370 110.17 -577.22
371 111.4 -309.6
372 111.0 -317.33
373 111.0 -323.33
374 111.0 -329.33
375 111.0 -335.33
376 111.1 -341.0
377 112.4 -393.3
378 112.23 -447.64
379 112.0 -456.0
380 109.87 -519.67
381 112.3 -538.0
382 113.5 -368.0
383 113.0 -374.67
384 113.0 -380.67
385 112.7 -386.0
386 113.5 -416.0
387 113.5 -464.0
388 113.0 -470.67
389 113.0 -476.67
390 113.0 -482.67
391 113.0 -488.67
392 113.0 -494.67
393 112.64 -500.79
394 113.5 -565.78
395 113.3 -573.2
396 114.5 -350.33
397 114.0 -357.5
398 113.5 -362.25
399 114.5 -404.33
400 113.5 -410.25
401 114.36 -423.0
402 114.0 -429.5
403 114.0 -435.5
404 113.9 -441.0
405 114.79 -512.38
406 114.5 -544.63
407 114.0 -552.17
408 114.5 -584.0
409 111.5 -669.0
410 115.5 -530.33
411 115.79 -559.86
412 117.0 -506.33
413 117.0 -578.33
414 117.36 -306.57
415 117.0 -312.83
416 117.0 -318.83
417 117.0 -324.83
418 117.0 -330.83
419 117.0 -336.83
420 117.0 -342.83
421 118.5 -397.0
422 118.5 -451.0
423 118.0 -457.67
424 118.5 -523.0
425 119.5 -373.33
426 119.0 -380.5
427 119.0 -386.5
428 118.5 -391.25
429 119.36 -464.0
430 119.0 -470.5
431 119.0 -476.5
432 119.0 -482.5
433 119.0 -488.5
434 119.0 -494.5
435 119.0 -500.5
436 119.5 -571.33
437 120.5 -349.67
438 120.0 -357.17
439 120.0 -363.17
440 119.5 -367.33
441 120.5 -404.0
442 120.0 -411.17
443 120.0 -417.17
444 120.0 -423.17
445 120.0 -429.17
446 120.0 -435.17
447 120.0 -441.17
448 120.0 -446.25
449 120.5 -516.5
450 120.4 -541.4
451 120.0 -549.17
452 120.0 -555.17
453 120.0 -589.71
454 121.5 -530.0
455 121.0 -536.0
456 121.36 -561.0
457 121.5 -566.67
458 122.5 -509.88
459 122.5 -581.88
460 123.4 -306.2
461 123.0 -314.0
462 123.0 -320.0
463 123.0 -326.0
464 123.0 -332.0
465 123.0 -338.0
466 123.1 -343.6
467 124.23 -456.09
468 124.17 -596.17
469 125.5 -376.67
470 125.0 -384.0
471 125.0 -390.0
472 125.0 -396.0
473 125.5 -466.67
474 125.0 -474.0
475 125.0 -480.0
476 125.0 -486.0
477 125.0 -492.0
478 125.0 -498.0
479 125.0 -504.0
480 125.5 -574.67
481 126.4 -352.8
482 126.0 -360.67
483 126.0 -366.67
484 125.5 -371.33
485 126.36 -402.0
486 126.0 -408.67
487 126.0 -414.67
488 126.0 -420.67
489 126.0 -426.67
490 126.0 -432.67
491 126.0 -438.67
492 126.0 -444.67
493 126.0 -450.0
494 126.4 -520.8
495 126.4 -544.8
496 126.0 -552.67
497 127.36 -528.86
498 127.0 -535.5
499 127.0 -540.5
500 127.36 -558.86
501 127.0 -565.5
502 127.5 -571.0
503 128.21 -511.43
504 128.21 -583.43
505 128.0 -590.17
506 129.36 -302.71
507 129.0 -309.0
508 129.0 -315.0
509 129.0 -321.0
510 129.0 -327.0
511 129.0 -333.0
512 129.0 -339.0
513 129.0 -345.0
514 129.1 -602.95
515 130.39 -458.44
516 130.5 -596.5
517 131.3 -380.8
518 131.0 -388.67
519 131.0 -394.67
520 131.36 -466.14
521 131.0 -472.67
522 131.0 -478.67
523 131.0 -484.67
524 131.0 -490.67
525 131.0 -496.67
526 131.0 -502.67
527 131.3 -509.0
528 131.75 -579.5
529 132.3 -352.4
530 132.0 -360.5
531 132.0 -366.5
532 132.0 -372.5
533 132.13 -401.25
534 132.0 -408.5
535 132.0 -414.5
536 132.0 -420.5
537 132.0 -426.5
538 132.0 -432.5
539 132.0 -438.5
540 132.0 -444.5
541 132.0 -450.5
542 132.23 -520.09
543 132.23 -550.09
544 132.3 -610.25
545 133.23 -531.64
546 133.0 -540.0
547 133.0 -544.0
548 133.23 -561.64
549 133.0 -570.0
550 133.5 -575.0
551 134.5 -590.0
552 135.5 -302.33
553 135.0 -309.5
554 135.0 -315.5
555 135.0 -321.5
556 135.0 -327.5
557 135.0 -333.5
558 135.0 -339.5
559 135.0 -345.5
560 135.07 -618.71
561 136.4 -458.6
562 136.5 -597.25
563 136.0 -604.33
564 137.23 -380.64
565 137.0 -389.0
566 137.0 -395.0
567 137.36 -466.14
568 137.0 -473.0
569 137.0 -479.0
570 137.0 -485.0
571 137.0 -491.0
572 137.0 -497.0
573 137.0 -503.0
574 137.0 -509.0
575 137.0 -515.0
576 137.5 -583.89
577 138.5 -355.0
578 138.0 -361.67
579 138.0 -367.67
580 137.7 -373.0
581 138.5 -403.0
582 138.0 -409.67
583 138.0 -415.67
584 138.0 -421.67
585 138.0 -427.67
586 138.0 -433.67
587 138.0 -439.67
588 138.0 -445.67
589 138.0 -451.67
590 138.5 -523.0
591 138.5 -553.0
592 138.5 -613.0
593 139.36 -530.0
594 139.0 -536.5
595 139.0 -542.5
596 138.5 -547.25
597 139.36 -560.0
598 139.0 -566.5
599 139.0 -572.5
600 138.9 -578.0
601 138.79 -624.14
602 141.23 -301.82
603 141.0 -310.17
604 141.0 -316.17
605 141.0 -322.17
606 141.0 -328.17
607 141.0 -334.17
608 141.0 -340.17
609 141.0 -346.17
610 141.5 -351.75
611 142.0 -619.17
612 140.75 -630.13
613 142.0 -593.0
614 142.0 -599.0
615 142.0 -605.0
616 143.0 -383.0
617 143.0 -389.0
618 143.0 -395.0
619 143.0 -461.0
620 143.0 -467.0
621 143.0 -473.0
622 143.0 -479.0
623 143.0 -485.0
624 143.0 -491.0
625 143.0 -497.0
626 143.0 -503.0
627 143.0 -509.0
628 143.0 -515.0
629 143.0 -587.33
630 144.36 -359.57
631 144.0 -365.83
632 144.0 -371.83
633 144.0 -377.83
634 144.36 -401.57
635 144.0 -407.83
636 144.0 -413.83
637 144.0 -419.83
638 144.0 -425.83
639 144.0 -431.83
640 144.0 -437.83
641 144.0 -443.83
642 144.0 -449.83
643 144.0 -455.83
644 144.36 -521.57
645 144.5 -610.5
646 144.0 -635.45
647 145.36 -528.29
648 145.0 -534.67
649 145.0 -540.5
650 144.5 -545.6
651 144.3 -551.9
652 143.5 -557.0
653 143.5 -562.83
654 143.5 -569.0
655 143.5 -575.0
656 143.5 -581.0
657 145.23 -668.82
658 143.24 -677.0
659 146.28 -642.22
660 147.4 -300.6
661 147.0 -308.33
662 147.0 -314.33
663 147.0 -320.33
664 147.0 -326.33
665 147.0 -332.33
666 147.0 -338.33
667 147.0 -344.33
668 147.0 -350.33
669 147.1 -356.0
670 147.5 -618.11
671 147.0 -625.67
672 147.5 -632.0
673 147.21 -683.43
674 147.0 -689.58
675 146.5 -596.0
676 148.0 -602.83
677 148.5 -649.88
678 148.0 -656.83
679 148.1 -662.6
680 149.21 -387.43
681 149.0 -394.17
682 149.21 -465.43
683 149.0 -472.17
684 149.0 -478.17
685 149.0 -484.17
686 149.0 -490.17
687 149.0 -496.17
688 149.0 -502.17
689 149.0 -508.17
690 149.0 -514.17
691 149.5 -694.89
692 150.07 -363.43
693 150.0 -370.17
694 150.0 -376.17
695 149.9 -382.0
696 150.0 -400.17
697 150.0 -406.17
698 150.0 -412.17
699 150.0 -418.17
700 150.0 -424.17
701 150.0 -430.17
702 150.0 -436.17
703 150.0 -442.17
704 150.0 -448.17
705 150.0 -454.17
706 149.9 -460.0
707 150.0 -520.17
708 150.21 -610.86
709 150.64 -527.43
710 149.17 -533.67
711 148.5 -537.5
712 151.5 -666.46
713 151.39 -675.91
714 152.23 -640.73
715 153.23 -300.82
716 153.0 -309.17
717 153.0 -315.17
718 153.0 -321.17
719 153.0 -327.17
720 153.0 -333.17
721 153.0 -339.17
722 153.0 -345.17
723 153.0 -351.17
724 153.0 -357.17
725 153.25 -618.25
726 153.0 -625.5
727 153.0 -631.5
728 153.0 -684.63
729 154.2 -651.2
730 154.1 -658.6
731 155.0 -388.0
732 155.0 -394.0
733 155.0 -466.0
734 155.0 -472.0
735 155.0 -478.0
736 155.0 -484.0
737 155.0 -490.0
738 155.0 -496.0
739 155.0 -502.0
740 155.0 -508.0
741 155.5 -515.06
742 154.3 -692.16
743 153.5 -697.0
744 156.0 -364.0
745 156.0 -370.0
746 156.0 -376.0
747 156.0 -382.0
748 156.0 -400.0
749 156.0 -406.0
750 156.0 -412.0
751 156.0 -418.0
752 156.0 -424.0
753 156.0 -430.0
754 156.0 -436.0
755 156.0 -442.0
756 156.0 -448.0
757 156.0 -454.0
758 156.0 -460.0
759 154.5 -519.83
760 157.38 -662.75
761 157.0 -670.17
762 157.21 -676.64
763 158.0 -636.8
764 158.3 -644.4
765 159.0 -298.0
766 159.0 -304.0
767 159.0 -310.0
768 159.0 -316.0
769 159.0 -322.0
770 159.0 -328.0
771 159.0 -334.0
772 159.0 -340.0
773 159.0 -346.0
774 159.0 -352.0
775 159.0 -358.0
776 157.5 -624.0
777 159.1 -629.2
778 159.63 -682.0
779 160.3 -652.9
780 161.0 -388.0
781 161.0 -394.0
782 161.0 -466.0
783 161.0 -472.0
784 161.0 -478.0
785 161.0 -484.0
786 161.0 -490.0
787 161.0 -496.0
788 161.5 -503.19
789 160.0 -509.33
790 158.5 -514.0
791 162.0 -364.0
792 162.0 -370.0
793 162.0 -376.0
794 162.0 -382.0
795 162.0 -400.0
796 162.0 -406.0
797 162.0 -412.0
798 162.0 -418.0
799 162.0 -424.0
800 162.0 -430.0
801 162.0 -436.0
802 162.0 -442.0
803 162.0 -448.0
804 162.0 -454.0
805 162.0 -460.0
806 163.5 -660.56
807 163.0 -668.33
808 163.0 -674.33
809 163.39 -688.89
810 163.75 -638.0
811 164.0 -645.17
812 165.0 -298.33
813 165.0 -304.33
814 165.0 -310.33
815 165.0 -316.33
816 165.0 -322.33
817 165.0 -328.33
818 165.0 -334.33
819 165.0 -340.33
820 165.0 -346.33
821 165.0 -352.33
822 165.0 -358.33
823 165.5 -681.38
824 166.5 -652.5
825 167.4 -386.4
826 167.0 -394.67
827 167.4 -464.4
828 167.0 -472.67
829 167.0 -478.67
830 167.0 -484.67
831 167.0 -490.67
832 167.07 -497.0
833 165.25 -502.75
834 168.25 -363.25
835 168.0 -370.67
836 168.0 -376.67
837 168.0 -382.0
838 168.0 -400.67
839 168.0 -406.67
840 168.0 -412.67
841 168.0 -418.67
842 168.0 -424.67
843 168.0 -430.67
844 168.0 -436.67
845 168.0 -442.67
846 168.0 -448.67
847 168.0 -454.67
848 168.0 -460.0
849 169.5 -659.33
850 169.0 -667.33
851 169.0 -673.33
852 169.4 -689.05
853 169.0 -697.08
854 169.0 -646.5
855 170.93 -299.71
856 171.0 -306.0
857 171.0 -312.0
858 171.0 -318.0
859 171.0 -324.0
860 171.0 -330.0
861 171.0 -336.0
862 171.0 -342.0
863 171.0 -348.0
864 171.0 -354.0
865 171.5 -680.13
866 172.5 -700.5
867 173.23 -386.73
868 173.0 -395.33
869 173.23 -464.73
870 173.0 -473.33
871 173.0 -479.33
872 173.0 -484.67
873 171.25 -491.0
874 174.5 -357.78
875 174.0 -365.67
876 174.0 -371.67
877 174.0 -377.67
878 174.36 -400.86
879 174.0 -407.67
880 174.0 -413.67
881 174.0 -419.67
882 174.0 -425.67
883 174.0 -431.67
884 174.0 -437.67
885 174.0 -443.67
886 174.0 -449.67
887 174.0 -455.67
888 173.0 -653.5
889 175.07 -660.0
890 175.0 -666.5
891 175.0 -672.5
892 175.28 -688.89
893 175.5 -696.23
894 177.0 -300.5
895 177.0 -306.5
896 177.0 -312.5
897 177.0 -318.5
898 177.0 -324.5
899 177.0 -330.5
900 177.0 -336.5
901 177.0 -342.5
902 177.0 -348.5
903 177.39 -680.56
904 177.88 -703.13
905 179.23 -382.18
906 179.0 -390.83
907 179.23 -460.18
908 179.07 -469.43
909 177.75 -475.63
910 177.0 -479.5
911 180.0 -355.0
912 180.0 -361.0
913 180.0 -367.0
914 180.0 -373.0
915 180.0 -397.0
916 180.0 -403.0
917 180.0 -409.0
918 180.0 -415.0
919 180.0 -421.0
920 180.0 -427.0
921 180.0 -433.0
922 180.0 -439.0
923 180.0 -445.0
924 180.0 -451.0
925 181.0 -662.17
926 181.0 -668.17
927 181.0 -674.17
928 181.4 -690.1
929 181.0 -698.17
930 183.0 -301.0
931 183.0 -307.0
932 183.0 -313.0
933 183.0 -319.0
934 183.0 -325.0
935 183.0 -331.0
936 183.0 -337.0
937 183.0 -343.0
938 183.0 -349.0
939 183.5 -680.75
940 184.5 -704.0
941 185.0 -379.0
942 185.0 -385.0
943 185.0 -391.0
944 185.5 -457.88
945 183.79 -464.79
946 186.0 -355.0
947 186.0 -361.0
948 186.0 -367.0
949 186.0 -373.0
950 186.0 -397.0
951 186.0 -403.0
952 186.0 -409.0
953 186.0 -415.0
954 186.0 -421.0
955 186.0 -427.0
956 186.0 -433.0
957 186.0 -439.0
958 186.0 -445.0
959 186.0 -451.0
960 187.0 -667.33
961 187.0 -673.33
962 187.4 -689.3
963 187.0 -697.33
964 189.0 -301.0
965 189.0 -307.0
966 189.0 -313.0
967 189.0 -319.0
968 189.0 -325.0
969 189.0 -331.0
970 189.0 -337.0
971 189.0 -343.0
972 189.0 -349.0
973 189.5 -680.38
974 190.25 -703.94
975 191.0 -379.0
976 191.0 -385.0
977 191.0 -391.0
978 191.0 -459.13
979 192.36 -354.43
980 192.0 -361.17
981 192.0 -367.17
982 192.0 -373.17
983 192.36 -396.43
984 192.0 -403.17
985 192.0 -409.17
986 192.0 -415.17
987 192.0 -421.17
988 192.0 -427.17
989 192.0 -433.17
990 192.0 -439.17
991 192.0 -445.17
992 192.0 -451.17
993 192.0 -673.0
994 193.28 -688.89
995 193.0 -696.5
996 195.0 -301.67
997 195.0 -307.67
998 195.0 -313.67
999 195.0 -319.67
1000 195.0 -325.67
1001 195.0 -331.67
1002 195.0 -337.67
1003 195.0 -343.67
1004 195.1 -349.6
1005 195.13 -680.38
1006 195.83 -704.06
1007 197.0 -380.0
1008 197.0 -386.0
1009 196.5 -459.5
1010 198.0 -356.0
1011 198.0 -362.0
1012 198.0 -368.0
1013 198.0 -374.0
1014 198.0 -392.0
1015 198.0 -398.0
1016 198.0 -404.0
1017 198.0 -410.0
1018 198.0 -416.0
1019 198.0 -422.0
1020 198.0 -428.0
1021 198.0 -434.0
1022 198.0 -440.0
1023 198.0 -446.0
1024 198.0 -452.0
1025 199.23 -690.09
1026 199.0 -698.67
1027 200.5 -464.75
1028 201.36 -302.57
1029 201.0 -308.83
1030 201.0 -314.83
1031 201.0 -320.83
1032 201.0 -326.83
1033 201.0 -332.83
1034 201.0 -338.83
1035 201.0 -344.83
1036 201.0 -350.83
1037 201.0 -682.0
1038 202.25 -703.69
1039 203.5 -381.33
1040 203.0 -388.5
1041 203.5 -459.33
1042 204.5 -357.89
1043 204.0 -365.33
1044 204.0 -371.33
1045 203.5 -375.67
1046 204.36 -394.71
1047 204.0 -401.33
1048 204.0 -407.33
1049 204.0 -413.33
1050 204.0 -419.33
1051 204.0 -425.33
1052 204.0 -431.33
1053 204.0 -437.33
1054 204.0 -443.33
1055 204.0 -449.33
1056 203.5 -453.67
1057 205.4 -689.1
1058 205.0 -697.17
1059 206.23 -469.32
1060 207.0 -301.5
1061 207.0 -307.5
1062 207.0 -313.5
1063 207.0 -319.5
1064 207.0 -325.5
1065 207.0 -331.5
1066 207.0 -337.5
1067 207.0 -343.5
1068 207.0 -349.5
1069 208.0 -700.67
1070 209.23 -383.18
1071 209.5 -460.56
1072 210.0 -356.0
1073 210.0 -362.0
1074 210.0 -368.0
1075 210.0 -374.0
1076 210.0 -392.0
1077 210.0 -398.0
1078 210.0 -404.0
1079 210.0 -410.0
1080 210.0 -416.0
1081 210.0 -422.0
1082 210.0 -428.0
1083 210.0 -434.0
1084 210.0 -440.0
1085 210.0 -446.0
1086 210.0 -452.0
1087 210.4 -473.25
1088 211.0 -690.17
1089 211.0 -696.08
1090 213.5 -303.0
1091 213.0 -309.67
1092 213.0 -315.67
1093 213.0 -321.67
1094 213.0 -327.67
1095 213.0 -333.67
1096 213.0 -339.67
1097 213.0 -345.67
1098 213.0 -351.67
1099 213.83 -698.67
1100 215.4 -381.6
1101 215.0 -389.33
1102 215.4 -459.6
1103 215.0 -467.33
1104 216.25 -358.25
1105 216.0 -365.33
1106 216.0 -371.33
1107 216.0 -374.0
1108 216.0 -395.33
1109 216.0 -401.33
1110 216.0 -407.33
1111 216.0 -413.33
1112 216.0 -419.33
1113 216.0 -425.33
1114 216.0 -431.33
1115 216.0 -437.33
1116 216.0 -443.33
1117 216.0 -449.33
1118 216.0 -452.0
1119 216.0 -473.33
1120 216.67 -477.92
1121 214.5 -693.0
1122 219.0 -301.67
1123 219.0 -307.67
1124 219.0 -313.67
1125 219.0 -319.67
1126 219.0 -325.67
1127 219.0 -331.67
1128 219.0 -337.67
1129 219.0 -343.67
1130 219.0 -349.67
1131 221.5 -379.0
1132 221.0 -386.33
1133 221.5 -457.0
1134 221.0 -464.33
1135 222.25 -355.0
1136 222.0 -362.33
1137 222.0 -368.33
1138 221.5 -374.0
1139 222.0 -392.33
1140 222.0 -398.33
1141 222.0 -404.33
1142 222.0 -410.33
1143 222.0 -416.33
1144 222.0 -422.33
1145 222.0 -428.33
1146 222.0 -434.33
1147 222.0 -440.33
1148 222.0 -446.33
1149 221.5 -452.0
1150 222.0 -470.33
1151 221.86 -478.0
1152 225.4 -304.6
1153 225.0 -312.33
1154 225.0 -318.33
1155 225.0 -324.33
1156 225.0 -330.33
1157 225.0 -336.33
1158 225.0 -342.33
1159 225.0 -348.33
1160 227.0 -380.0
1161 227.0 -386.0
1162 227.0 -458.0
1163 227.0 -464.0
1164 228.0 -356.0
1165 228.0 -362.0
1166 228.0 -368.0
1167 228.0 -374.0
1168 228.0 -392.0
1169 228.0 -398.0
1170 228.0 -404.0
1171 228.0 -410.0
1172 228.0 -416.0
1173 228.0 -422.0
1174 228.0 -428.0
1175 228.0 -434.0
1176 228.0 -440.0
1177 228.0 -446.0
1178 228.0 -452.0
1179 228.0 -470.0
1180 228.0 -478.0
1181 231.0 -302.0
1182 231.0 -308.0
1183 231.0 -314.0
1184 231.0 -320.0
1185 231.0 -326.0
1186 231.0 -332.0
1187 231.0 -338.0
1188 231.0 -344.0
1189 231.0 -350.0
1190 233.0 -380.0
1191 233.0 -386.0
1192 233.0 -458.0
1193 233.0 -464.0
1194 234.0 -356.0
1195 234.0 -362.0
1196 234.0 -368.0
1197 234.0 -374.0
1198 234.0 -392.0
1199 234.0 -398.0
1200 234.0 -404.0
1201 234.0 -410.0
1202 234.0 -416.0
1203 234.0 -422.0
1204 234.0 -428.0
1205 234.0 -434.0
1206 234.0 -440.0
1207 234.0 -446.0
1208 234.0 -452.0
1209 234.0 -470.0
1210 234.0 -478.21
1211 237.0 -302.0
1212 237.0 -308.0
1213 237.0 -314.0
1214 237.0 -320.0
1215 237.0 -326.0
1216 237.0 -332.0
1217 237.0 -338.0
1218 237.0 -344.0
1219 237.0 -350.0
1220 239.0 -380.0
1221 239.0 -386.0
1222 239.0 -458.0
1223 239.0 -464.0
1224 240.0 -356.0
1225 240.0 -362.0
1226 240.0 -368.0
1227 240.0 -374.0
1228 240.0 -392.0
1229 240.0 -398.0
1230 240.0 -404.0
1231 240.0 -410.0
1232 240.0 -416.0
1233 240.0 -422.0
1234 240.0 -428.0
1235 240.0 -434.0
1236 240.0 -440.0
1237 240.0 -446.0
1238 240.0 -452.0
1239 240.0 -470.0
1240 240.0 -478.38
1241 243.0 -302.0
1242 243.0 -308.0
1243 243.0 -314.0
1244 243.0 -320.0
1245 243.0 -326.0
1246 243.0 -332.0
1247 243.0 -338.0
1248 243.0 -344.0
1249 243.0 -350.0
1250 245.0 -380.0
1251 245.0 -386.0
1252 245.0 -458.0
1253 245.0 -464.0
1254 246.0 -356.0
1255 246.0 -362.0
1256 246.0 -368.0
1257 246.0 -374.0
1258 246.0 -392.0
1259 246.0 -398.0
1260 246.0 -404.0
1261 246.0 -410.0
1262 246.0 -416.0
1263 246.0 -422.0
1264 246.0 -428.0
1265 246.0 -434.0
1266 246.0 -440.0
1267 246.0 -446.0
1268 246.0 -452.0
1269 246.0 -470.0
1270 245.5 -477.25
1271 248.5 -482.81
1272 249.0 -302.0
1273 249.0 -308.0
1274 249.0 -314.0
1275 249.0 -320.0
1276 249.0 -326.0
1277 249.0 -332.0
1278 249.0 -338.0
1279 249.0 -344.0
1280 249.0 -350.0
1281 251.0 -380.0
1282 251.0 -386.0
1283 251.0 -458.0
1284 251.0 -464.0
1285 252.0 -356.0
1286 252.0 -362.0
1287 252.0 -368.0
1288 252.0 -374.0
1289 252.0 -392.0
1290 252.0 -398.0
1291 252.0 -404.0
1292 252.0 -410.0
1293 252.0 -416.0
1294 252.0 -422.0
1295 252.0 -428.0
1296 252.0 -434.0
1297 252.0 -440.0
1298 252.0 -446.0
1299 252.0 -452.0
1300 252.0 -470.0
1301 252.0 -476.0
1302 254.0 -484.0
1303 255.0 -302.0
1304 255.0 -308.0
1305 255.0 -314.0
1306 255.0 -320.0
1307 255.0 -326.0
1308 255.0 -332.0
1309 255.0 -338.0
1310 255.0 -344.0
1311 255.0 -350.0
1312 257.0 -380.0
1313 257.0 -386.0
1314 257.0 -458.0
1315 257.0 -464.0
1316 258.0 -356.0
1317 258.0 -362.0
1318 258.0 -368.0
1319 258.0 -374.0
1320 258.0 -392.0
1321 258.0 -398.0
1322 258.0 -404.0
1323 258.0 -410.0
1324 258.0 -416.0
1325 258.0 -422.0
1326 258.0 -428.0
1327 258.0 -434.0
1328 258.0 -440.0
1329 258.0 -446.0
1330 258.0 -452.0
1331 258.0 -470.0
1332 258.0 -476.0
1333 260.0 -483.96
1334 261.5 -303.33
1335 261.0 -310.5
1336 261.0 -316.5
1337 261.0 -322.5
1338 261.0 -328.5
1339 261.0 -334.5
1340 261.0 -340.5
1341 261.0 -346.5
1342 261.0 -352.5
1343 263.23 -381.82
1344 263.0 -390.17
1345 263.23 -459.82
1346 263.0 -468.17
1347 264.0 -361.0
1348 264.0 -367.0
1349 264.0 -373.0
1350 264.0 -397.0
1351 264.0 -403.0
1352 264.0 -409.0
1353 264.0 -415.0
1354 264.0 -421.0
1355 264.0 -427.0
1356 264.0 -433.0
1357 264.0 -439.0
1358 264.0 -445.0
1359 264.0 -451.0
1360 264.0 -475.0
1361 265.64 -481.71
1362 267.0 -301.0
1363 267.0 -307.0
1364 267.0 -313.0
1365 267.0 -319.0
1366 267.0 -325.0
1367 267.0 -331.0
1368 267.0 -337.0
1369 267.0 -343.0
1370 267.0 -349.0
1371 267.0 -355.0
1372 267.0 -486.5
1373 269.0 -379.0
1374 269.0 -385.0
1375 269.0 -391.0
1376 269.0 -457.0
1377 269.0 -463.0
1378 269.0 -469.0
1379 270.0 -361.0
1380 270.0 -367.0
1381 270.0 -373.0
1382 270.0 -397.0
1383 270.0 -403.0
1384 270.0 -409.0
1385 270.0 -415.0
1386 270.0 -421.0
1387 270.0 -427.0
1388 270.0 -433.0
1389 270.0 -439.0
1390 270.0 -445.0
1391 270.0 -451.0
1392 270.0 -475.0
1393 272.0 -481.0
1394 273.0 -301.0
1395 273.0 -307.0
1396 273.0 -313.0
1397 273.0 -319.0
1398 273.0 -325.0
1399 273.0 -331.0
1400 273.0 -337.0
1401 273.0 -343.0
1402 273.0 -349.0
1403 273.0 -355.0
1404 273.0 -486.92
1405 275.0 -379.0
1406 275.0 -385.0
1407 275.0 -391.0
1408 275.0 -457.0
1409 275.0 -463.0
1410 275.0 -469.0
1411 276.0 -361.0
1412 276.0 -367.0
1413 276.0 -373.0
1414 276.0 -397.0
1415 276.0 -403.0
1416 276.0 -409.0
1417 276.0 -415.0
1418 276.0 -421.0
1419 276.0 -427.0
1420 276.0 -433.0
1421 276.0 -439.0
1422 276.0 -445.0
1423 276.0 -451.0
1424 276.0 -475.0
1425 278.0 -481.0
1426 279.0 -301.0
1427 279.0 -307.0
1428 279.0 -313.0
1429 279.0 -319.0
1430 279.0 -325.0
1431 279.0 -331.0
1432 279.0 -337.0
1433 279.0 -343.0
1434 279.0 -349.0
1435 279.0 -355.0
1436 279.0 -487.0
1437 281.0 -379.0
1438 281.0 -385.0
1439 281.0 -391.0
1440 281.0 -457.0
1441 281.0 -463.0
1442 281.0 -469.0
1443 282.0 -361.0
1444 282.0 -367.0
1445 282.0 -373.0
1446 282.0 -397.0
1447 282.0 -403.0
1448 282.0 -409.0
1449 282.0 -415.0
1450 282.0 -421.0
1451 282.0 -427.0
1452 282.0 -433.0
1453 282.0 -439.0
1454 282.0 -445.0
1455 282.0 -451.0
1456 282.0 -475.0
1457 284.0 -481.0
1458 285.0 -301.0
1459 285.0 -307.0
1460 285.0 -313.0
1461 285.0 -319.0
1462 285.0 -325.0
1463 285.0 -331.0
1464 285.0 -337.0
1465 285.0 -343.0
1466 285.0 -349.0
1467 285.0 -355.0
1468 285.0 -487.0
1469 287.0 -379.0
1470 287.0 -385.0
1471 287.0 -391.0
1472 287.0 -457.0
1473 287.0 -463.0
1474 287.0 -469.0
1475 288.0 -361.0
1476 288.0 -367.0
1477 288.0 -373.0
1478 288.0 -397.0
1479 288.0 -403.0
1480 288.0 -409.0
1481 288.0 -415.0
1482 288.0 -421.0
1483 288.0 -427.0
1484 288.0 -433.0
1485 288.0 -439.0
1486 288.0 -445.0
1487 288.0 -451.0
1488 288.0 -475.0
1489 290.0 -481.0
1490 291.0 -301.0
1491 291.0 -307.0
1492 291.0 -313.0
1493 291.0 -319.0
1494 291.0 -325.0
1495 291.0 -331.0
1496 291.0 -337.0
1497 291.0 -343.0
1498 291.0 -349.0
1499 291.0 -355.0
1500 291.0 -486.92
1501 293.0 -379.0
1502 293.0 -385.0
1503 293.0 -391.0
1504 293.0 -457.0
1505 293.0 -463.0
1506 293.0 -469.0
1507 294.0 -361.0
1508 294.0 -367.0
1509 294.0 -373.0
1510 294.0 -397.0
1511 294.0 -403.0
1512 294.0 -409.0
1513 294.0 -415.0
1514 294.0 -421.0
1515 294.0 -427.0
1516 294.0 -433.0
1517 294.0 -439.0
1518 294.0 -445.0
1519 294.0 -451.0
1520 294.0 -475.0
1521 296.0 -481.0
1522 297.36 -301.57
1523 297.0 -307.83
1524 297.0 -313.83
1525 297.0 -319.83
1526 297.0 -325.83
1527 297.0 -331.83
1528 297.0 -337.83
1529 297.0 -343.83
1530 297.0 -349.83
1531 297.0 -355.83
1532 297.0 -486.58
1533 299.5 -380.33
1534 299.0 -387.5
1535 299.0 -393.5
1536 299.5 -458.33
1537 299.0 -465.5
1538 299.0 -471.5
1539 300.5 -362.89
1540 300.0 -370.33
1541 299.5 -374.67
1542 300.36 -399.71
1543 300.0 -406.33
1544 300.0 -412.33
1545 300.0 -418.33
1546 300.0 -424.33
1547 300.0 -430.33
1548 300.0 -436.33
1549 300.0 -442.33
1550 300.0 -448.33
1551 299.5 -452.67
1552 300.36 -477.71
1553 303.0 -300.0
1554 303.0 -306.0
1555 303.0 -312.0
1556 303.0 -318.0
1557 303.0 -324.0
1558 303.0 -330.0
1559 303.0 -336.0
1560 303.0 -342.0
1561 303.0 -348.0
1562 303.0 -354.0
1563 303.0 -485.5
1564 305.5 -385.0
1565 305.0 -391.67
1566 305.5 -463.0
1567 305.0 -469.67
1568 306.5 -361.33
1569 306.0 -368.5
1570 306.0 -374.5
1571 305.5 -379.25
1572 306.36 -398.0
1573 306.0 -404.5
1574 306.0 -410.5
1575 306.0 -416.5
1576 306.0 -422.5
1577 306.0 -428.5
1578 306.0 -434.5
1579 306.0 -440.5
1580 306.0 -446.5
1581 306.0 -452.5
1582 305.5 -457.25
1583 306.36 -476.0
1584 306.0 -482.25
1585 309.0 -299.0
1586 309.0 -305.0
1587 309.0 -311.0
1588 309.0 -317.0
1589 309.0 -323.0
1590 309.0 -329.0
1591 309.0 -335.0
1592 309.0 -341.0
1593 309.0 -347.0
1594 309.0 -353.0
1595 311.0 -389.0
1596 311.0 -467.0
1597 312.36 -359.57
1598 312.0 -365.83
1599 312.0 -371.83
1600 312.0 -377.83
1601 312.0 -383.83
1602 312.36 -395.57
1603 312.0 -401.83
1604 312.0 -407.83
1605 312.0 -413.83
1606 312.0 -419.83
1607 312.0 -425.83
1608 312.0 -431.83
1609 312.0 -437.83
1610 312.0 -443.83
1611 312.0 -449.83
1612 312.0 -455.83
1613 312.0 -461.83
1614 312.36 -473.57
1615 312.0 -481.45
1616 309.5 -484.5
1617 315.4 -300.6
1618 315.0 -308.33
1619 315.0 -314.33
1620 315.0 -320.33
1621 315.0 -326.33
1622 315.0 -332.33
1623 315.0 -338.33
1624 315.0 -344.33
1625 315.0 -350.33
1626 315.1 -356.0
1627 318.0 -364.0
1628 318.0 -370.0
1629 318.0 -376.0
1630 318.0 -382.0
1631 318.0 -388.0
1632 318.0 -394.0
1633 318.0 -400.0
1634 318.0 -406.0
1635 318.0 -412.0
1636 318.0 -418.0
1637 318.0 -424.0
1638 318.0 -430.0
1639 318.0 -436.0
1640 318.0 -442.0
1641 318.0 -448.0
1642 318.0 -454.0
1643 318.0 -460.0
1644 318.0 -466.0
1645 318.0 -472.0
1646 318.5 -479.67
1647 316.5 -483.5
1648 321.0 -298.0
1649 321.0 -304.0
1650 321.0 -310.0
1651 321.0 -316.0
1652 321.0 -322.0
1653 321.0 -328.0
1654 321.0 -334.0
1655 321.0 -340.0
1656 321.0 -346.0
1657 321.0 -352.0
1658 321.0 -358.0
1659 324.0 -364.0
1660 324.0 -370.0
1661 324.0 -376.0
1662 324.0 -382.0
1663 324.0 -388.0
1664 324.0 -394.0
1665 324.0 -400.0
1666 324.0 -406.0
1667 324.0 -412.0
1668 324.0 -418.0
1669 324.0 -424.0
1670 324.0 -430.0
1671 324.0 -436.0
1672 324.0 -442.0
1673 324.0 -448.0
1674 324.0 -454.0
1675 324.0 -460.0
1676 324.0 -466.0
1677 324.0 -472.0
1678 324.0 -480.33
1679 327.5 -299.33
1680 327.0 -306.5
1681 327.0 -312.5
1682 327.0 -318.5
1683 327.0 -324.5
1684 327.0 -330.5
1685 327.0 -336.5
1686 327.0 -342.5
1687 327.0 -348.5
1688 327.0 -354.5
1689 327.0 -360.5
1690 330.0 -369.0
1691 330.0 -375.0
1692 330.0 -381.0
1693 330.0 -387.0
1694 330.0 -393.0
1695 330.0 -399.0
1696 330.0 -405.0
1697 330.0 -411.0
1698 330.0 -417.0
1699 330.0 -423.0
1700 330.0 -429.0
1701 330.0 -435.0
1702 330.0 -441.0
1703 330.0 -447.0
1704 330.0 -453.0
1705 330.0 -459.0
1706 330.0 -465.0
1707 330.0 -471.0
1708 330.0 -479.17
1709 333.36 -297.57
1710 333.0 -303.83
1711 333.0 -309.83
1712 333.0 -315.83
1713 333.0 -321.83
1714 333.0 -327.83
1715 333.0 -333.83
1716 333.0 -339.83
1717 333.0 -345.83
1718 333.0 -351.83
1719 333.0 -357.83
1720 333.0 -363.83
1721 336.5 -370.89
1722 336.0 -378.33
1723 336.0 -384.33
1724 336.0 -390.33
1725 336.0 -396.33
1726 336.0 -402.33
1727 336.0 -408.33
1728 336.0 -414.33
1729 336.0 -420.33
1730 336.0 -426.33
1731 336.0 -432.33
1732 336.0 -438.33
1733 336.0 -444.33
1734 336.0 -450.33
1735 336.0 -456.33
1736 336.0 -462.33
1737 336.0 -468.33
1738 336.0 -474.33
1739 335.64 -478.93
1740 339.0 -296.0
1741 339.0 -302.0
1742 339.0 -308.0
1743 339.0 -314.0
1744 339.0 -320.0
1745 339.0 -326.0
1746 339.0 -332.0
1747 339.0 -338.0
1748 339.0 -344.0
1749 339.0 -350.0
1750 339.0 -356.0
1751 339.0 -362.0
1752 342.5 -369.33
1753 342.0 -376.5
1754 342.0 -382.5
1755 342.0 -388.5
1756 342.0 -394.5
1757 342.0 -400.5
1758 342.0 -406.5
1759 342.0 -412.5
1760 342.0 -418.5
1761 342.0 -424.5
1762 342.0 -430.5
1763 342.0 -436.5
1764 342.0 -442.5
1765 342.0 -448.5
1766 342.0 -454.5
1767 342.0 -460.5
1768 342.0 -466.5
1769 342.0 -472.5
1770 340.3 -477.3
1771 345.5 -296.0
1772 345.0 -302.67
1773 345.0 -308.67
1774 345.0 -314.67
1775 345.0 -320.67
1776 345.0 -326.67
1777 345.0 -332.67
1778 345.0 -338.67
1779 345.0 -344.67
1780 345.0 -350.67
1781 345.0 -356.67
1782 345.0 -362.67
1783 348.5 -369.44
1784 348.0 -377.17
1785 348.0 -383.17
1786 348.0 -389.17
1787 348.0 -395.17
1788 348.0 -401.17
1789 348.0 -407.17
1790 348.0 -413.17
1791 348.0 -419.17
1792 348.0 -425.17
1793 348.0 -431.17
1794 348.0 -437.17
1795 348.0 -443.17
1796 348.0 -449.17
1797 348.0 -455.17
1798 348.0 -461.17
1799 348.0 -467.17
1800 348.0 -472.92
1801 345.5 -475.0
1802 350.75 -28.13
1803 351.36 -294.57
1804 351.0 -300.83
1805 351.0 -306.83
1806 351.0 -312.83
1807 351.0 -318.83
1808 351.0 -324.83
1809 351.0 -330.83
1810 351.0 -336.83
1811 351.0 -342.83
1812 351.0 -348.83
1813 351.0 -354.83
1814 351.0 -360.83
1815 354.23 -33.95
1816 354.5 -367.67
1817 354.0 -375.17
1818 354.0 -381.17
1819 354.0 -387.17
1820 354.0 -393.17
1821 354.0 -399.17
1822 354.0 -405.17
1823 354.0 -411.17
1824 354.0 -417.17
1825 354.0 -423.17
1826 354.0 -429.17
1827 354.0 -435.17
1828 354.0 -441.17
1829 354.0 -447.17
1830 354.0 -453.17
1831 354.0 -459.17
1832 354.0 -465.17
1833 353.79 -471.14
1834 351.5 -473.5
1835 356.83 -30.33
1836 357.4 -294.6
1837 357.0 -302.33
1838 357.0 -308.33
1839 357.0 -314.33
1840 357.0 -320.33
1841 357.0 -326.33
1842 357.0 -332.33
1843 357.0 -338.33
1844 357.0 -344.33
1845 357.0 -350.33
1846 357.0 -356.33
1847 357.1 -362.0
1848 358.4 -41.0
1849 360.0 -370.0
1850 360.0 -376.0
1851 360.0 -382.0
1852 360.0 -388.0
1853 360.0 -394.0
1854 360.0 -400.0
1855 360.0 -406.0
1856 360.0 -412.0
1857 360.0 -418.0
1858 360.0 -424.0
1859 360.0 -430.0
1860 360.0 -436.0
1861 360.0 -442.0
1862 360.0 -448.0
1863 360.0 -454.0
1864 360.0 -460.0
1865 360.5 -467.67
1866 358.5 -471.5
1867 362.0 -35.17
1868 363.5 -293.33
1869 363.0 -300.5
1870 363.0 -306.5
1871 363.0 -312.5
1872 363.0 -318.5
1873 363.0 -324.5
1874 363.0 -330.5
1875 363.0 -336.5
1876 363.0 -342.5
1877 363.0 -348.5
1878 363.0 -354.5
1879 363.0 -360.5
1880 363.0 -366.5
1881 365.36 -47.86
1882 366.0 -375.0
1883 366.0 -381.0
1884 366.0 -387.0
1885 366.0 -393.0
1886 366.0 -399.0
1887 366.0 -405.0
1888 366.0 -411.0
1889 366.0 -417.0
1890 366.0 -423.0
1891 366.0 -429.0
1892 366.0 -435.0
1893 366.0 -441.0
1894 366.0 -447.0
1895 366.0 -453.0
1896 366.0 -459.0
1897 366.36 -465.64
1898 365.5 -470.5
1899 369.36 -291.57
1900 369.0 -297.83
1901 369.0 -303.83
1902 369.0 -309.83
1903 369.0 -315.83
1904 369.0 -321.83
1905 369.0 -327.83
1906 369.0 -333.83
1907 369.0 -339.83
1908 369.0 -345.83
1909 369.0 -351.83
1910 369.0 -357.83
1911 369.0 -363.83
1912 369.0 -369.83
1913 370.0 -40.17
1914 370.83 -47.06
1915 372.5 -376.89
1916 372.0 -384.33
1917 372.0 -390.33
1918 372.0 -396.33
1919 372.0 -402.33
1920 372.0 -408.33
1921 372.0 -414.33
1922 372.0 -420.33
1923 372.0 -426.33
1924 372.0 -432.33
1925 372.0 -438.33
1926 372.0 -444.33
1927 372.0 -450.33
1928 372.0 -456.33
1929 372.0 -462.33
1930 371.5 -467.88
1931 373.5 -51.5
1932 375.0 -290.0
1933 375.0 -296.0
1934 375.0 -302.0
1935 375.0 -308.0
1936 375.0 -314.0
1937 375.0 -320.0
1938 375.0 -326.0
1939 375.0 -332.0
1940 375.0 -338.0
1941 375.0 -344.0
1942 375.0 -350.0
1943 375.0 -356.0
1944 375.0 -362.0
1945 375.0 -368.0
1946 377.0 -42.83
1947 378.0 -374.0
1948 378.0 -380.0
1949 378.0 -386.0
1950 378.0 -392.0
1951 378.0 -398.0
1952 378.0 -404.0
1953 378.0 -410.0
1954 378.0 -416.0
1955 378.0 -422.0
1956 378.0 -428.0
1957 378.0 -434.0
1958 378.0 -440.0
1959 378.0 -446.0
1960 378.0 -452.0
1961 378.0 -458.0
1962 378.0 -466.21
1963 378.23 -664.55
1964 378.0 -673.0
1965 377.5 -677.73
1966 379.17 -48.78
1967 380.36 -54.5
1968 380.5 -656.13
1969 381.0 -290.0
1970 381.0 -296.0
1971 381.0 -302.0
1972 381.0 -308.0
1973 381.0 -314.0
1974 381.0 -320.0
1975 381.0 -326.0
1976 381.0 -332.0
1977 381.0 -338.0
1978 381.0 -344.0
1979 381.0 -350.0
1980 381.0 -356.0
1981 381.0 -362.0
1982 381.0 -368.0
1983 382.13 -680.94
1984 383.07 -649.93
1985 384.5 -372.67
1986 384.0 -380.5
1987 384.0 -386.5
1988 384.0 -392.5
1989 384.0 -398.5
1990 384.0 -404.5
1991 384.0 -410.5
1992 384.0 -416.5
1993 384.0 -422.5
1994 384.0 -428.5
1995 384.0 -434.5
1996 384.0 -440.5
1997 384.0 -446.5
1998 384.0 -452.5
1999 384.0 -458.5
2000 384.0 -466.38
2001 384.3 -667.4
2002 384.0 -675.08
2003 385.0 -44.0
2004 386.0 -50.02
2005 385.77 -57.95
2006 386.23 -642.64
2007 386.36 -659.43
2008 387.0 -291.0
2009 387.0 -297.0
2010 387.0 -303.0
2011 387.0 -309.0
2012 387.0 -315.0
2013 387.0 -321.0
2014 387.0 -327.0
2015 387.0 -333.0
2016 387.0 -339.0
2017 387.0 -345.0
2018 387.0 -351.0
2019 387.0 -357.0
2020 387.0 -363.0
2021 385.5 -680.0
2022 389.5 -635.22
2023 389.21 -651.29
2024 390.5 -368.0
2025 390.0 -375.33
2026 390.0 -381.33
2027 390.0 -387.33
2028 390.0 -393.33
2029 390.0 -399.33
2030 390.0 -405.33
2031 390.0 -411.33
2032 390.0 -417.33
2033 390.0 -423.33
2034 390.0 -429.33
2035 390.0 -435.33
2036 390.0 -441.33
2037 390.0 -447.17
2038 389.0 -452.88
2039 390.0 -459.33
2040 390.0 -466.31
2041 390.17 -667.28
2042 391.0 -44.0
2043 390.83 -63.39
2044 392.36 -50.61
2045 392.0 -56.83
2046 392.4 -626.2
2047 392.5 -644.67
2048 392.21 -660.76
2049 393.0 -291.83
2050 393.0 -297.83
2051 393.0 -303.83
2052 393.0 -309.83
2053 393.0 -315.83
2054 393.0 -321.83
2055 393.0 -327.83
2056 393.0 -333.83
2057 393.0 -339.83
2058 393.0 -345.83
2059 393.0 -351.83
2060 393.0 -357.83
2061 393.5 -363.75
2062 393.36 -617.71
2063 394.0 -472.0
2064 394.0 -478.0
2065 393.64 -484.57
2066 394.4 -675.25
2067 395.23 -68.95
2068 394.64 -490.43
2069 394.94 -609.44
2070 395.25 -634.88
2071 395.25 -652.88
2072 396.0 -370.0
2073 396.0 -376.0
2074 396.0 -382.0
2075 396.0 -388.0
2076 396.0 -394.0
2077 396.0 -400.0
2078 396.0 -406.0
2079 396.0 -412.0
2080 396.0 -418.0
2081 396.0 -424.0
2082 396.0 -430.0
2083 396.0 -436.0
2084 395.5 -443.13
2085 396.0 -460.0
2086 396.0 -466.0
2087 395.64 -497.21
2088 397.17 -43.39
2089 396.5 -503.2
2090 397.0 -595.0
2091 397.1 -602.4
2092 397.06 -666.44
2093 398.36 -50.57
2094 398.0 -57.33
2095 398.5 -62.25
2096 398.0 -447.92
2097 398.0 -509.58
2098 398.39 -626.44
2099 398.39 -644.44
2100 399.28 -77.0
2101 399.0 -292.0
2102 399.0 -298.0
2103 399.0 -304.0
2104 399.0 -310.0
2105 399.0 -316.0
2106 399.0 -322.0
2107 399.0 -328.0
2108 399.0 -334.0
2109 399.0 -340.0
2110 399.0 -346.0
2111 399.0 -352.0
2112 399.0 -358.0
2113 399.0 -364.0
2114 399.0 -454.0
2115 399.0 -516.31
2116 399.4 -562.6
2117 398.5 -571.5
2118 399.1 -581.8
2119 399.5 -589.0
2120 399.28 -617.33
2121 399.38 -658.88
2122 399.33 -683.13
2123 400.0 -472.0
2124 400.0 -478.0
2125 399.83 -485.5
2126 400.0 -524.55
2127 400.0 -550.6
2128 400.0 -556.0
2129 400.0 -674.5
2130 401.5 -69.88
2131 401.0 -531.45
2132 401.5 -541.34
2133 401.39 -607.89
2134 401.5 -632.88
2135 401.5 -639.5
2136 401.79 -650.29
2137 402.23 -35.65
2138 402.3 -83.95
2139 402.0 -370.0
2140 402.0 -376.0
2141 402.0 -382.0
2142 402.0 -388.0
2143 402.0 -394.0
2144 402.0 -400.0
2145 402.0 -406.0
2146 402.0 -412.0
2147 402.0 -418.0
2148 402.0 -424.0
2149 402.0 -430.0
2150 402.0 -436.0
2151 402.0 -442.0
2152 402.0 -460.0
2153 402.0 -466.0
2154 403.0 -92.08
2155 403.61 -576.89
2156 403.4 -595.1
2157 403.0 -602.75
2158 403.4 -667.1
2159 404.23 -22.82
2160 404.0 -29.5
2161 404.23 -46.82
2162 404.0 -55.17
2163 404.0 -61.17
2164 404.5 -66.75
2165 404.0 -448.0
2166 404.0 -489.92
2167 404.23 -498.86
2168 404.0 -507.83
2169 404.93 -535.29
2170 404.5 -624.56
2171 404.93 -643.29
2172 405.0 -97.92
2173 405.0 -292.0
2174 405.0 -298.0
2175 405.0 -304.0
2176 405.0 -310.0
2177 405.0 -316.0
2178 405.0 -322.0
2179 405.0 -328.0
2180 405.0 -334.0
2181 405.0 -340.0
2182 405.0 -346.0
2183 405.0 -352.0
2184 405.0 -358.0
2185 405.0 -364.0
2186 405.0 -454.0
2187 405.0 -514.0
2188 405.0 -562.0
2189 405.0 -568.0
2190 405.0 -586.0
2191 405.0 -616.0
2192 405.0 -658.0
2193 405.0 -682.0
2194 405.5 -689.17
2195 406.36 -103.0
2196 406.0 -472.0
2197 406.0 -478.0
2198 406.0 -484.0
2199 406.0 -520.0
2200 406.0 -550.05
2201 406.0 -556.0
2202 406.0 -676.0
2203 407.36 -73.71
2204 407.36 -109.5
2205 407.0 -526.0
2206 407.0 -544.0
2207 407.0 -610.0
2208 407.0 -634.0
2209 407.0 -652.0
2210 408.79 -32.04
2211 408.0 -39.0
2212 408.36 -80.57
2213 408.0 -87.0
2214 408.13 -116.94
2215 408.0 -370.0
2216 408.0 -376.0
2217 408.0 -382.0
2218 408.0 -388.0
2219 408.0 -394.0
2220 408.0 -400.0
2221 408.0 -406.0
2222 408.0 -412.0
2223 408.0 -418.0
2224 408.0 -424.0
2225 408.0 -430.0
2226 408.0 -436.0
2227 408.0 -442.0
2228 408.0 -460.0
2229 408.0 -466.0
2230 409.0 -93.0
2231 409.0 -574.0
2232 409.0 -580.0
2233 409.0 -592.0
2234 409.0 -598.0
2235 409.0 -604.0
2236 409.36 -664.29
2237 409.0 -670.67
2238 409.0 -21.5
2239 409.17 -26.33
2240 409.5 -44.2
2241 409.0 -51.5
2242 410.0 -57.83
2243 410.0 -63.83
2244 410.1 -69.8
2245 409.79 -123.14
2246 410.0 -448.0
2247 410.0 -490.0
2248 410.0 -496.0
2249 410.0 -502.0
2250 410.0 -508.0
2251 410.0 -532.0
2252 410.0 -538.0
2253 409.0 -622.0
2254 409.0 -628.0
2255 410.5 -640.5
2256 410.0 -647.33
2257 411.0 -292.0
2258 411.0 -298.0
2259 411.0 -304.0
2260 411.0 -310.0
2261 411.0 -316.0
2262 411.0 -322.0
2263 411.0 -328.0
2264 411.0 -334.0
2265 411.0 -340.0
2266 411.0 -346.0
2267 411.0 -352.0
2268 411.0 -358.0
2269 411.0 -364.0
2270 411.0 -454.0
2271 411.0 -514.0
2272 411.0 -562.0
2273 411.0 -568.0
2274 411.0 -586.0
2275 410.0 -616.0
2276 411.21 -658.0
2277 411.25 -682.5
2278 410.8 -690.5
2279 412.4 -100.4
2280 412.25 -129.0
2281 412.0 -472.0
2282 412.0 -478.0
2283 412.0 -484.0
2284 412.0 -520.0
2285 412.0 -550.0
2286 412.0 -556.0
2287 412.5 -675.67
2288 413.07 -109.43
2289 413.0 -526.0
2290 413.0 -544.0
2291 411.5 -609.5
2292 410.5 -634.0
2293 414.0 -652.33
2294 414.17 -74.67
2295 414.0 -82.67
2296 414.0 -88.67
2297 414.5 -116.63
2298 414.5 -135.19
2299 414.0 -370.0
2300 414.0 -376.0
2301 414.0 -382.0
2302 414.0 -388.0
2303 414.0 -394.0
2304 414.0 -400.0
2305 414.0 -406.0
2306 414.0 -412.0
2307 414.0 -418.0
2308 414.0 -424.0
2309 414.0 -430.0
2310 414.0 -436.0
2311 414.0 -442.0
2312 414.0 -460.0
2313 414.0 -466.0
2314 415.36 -573.43
2315 415.0 -580.17
2316 415.28 -592.28
2317 413.0 -598.0
2318 413.0 -604.0
2319 415.28 -667.67
2320 416.36 -141.93
2321 416.5 -447.0
2322 416.5 -489.0
2323 416.0 -496.33
2324 416.0 -502.33
2325 416.0 -508.33
2326 416.5 -531.0
2327 416.0 -538.33
2328 414.5 -642.33
2329 416.5 -647.5
2330 417.5 -93.38
2331 417.5 -123.38
2332 417.0 -292.5
2333 417.0 -298.5
2334 417.0 -304.5
2335 417.0 -310.5
2336 417.0 -316.5
2337 417.0 -322.5
2338 417.0 -328.5
2339 417.0 -334.5
2340 417.0 -340.5
2341 417.0 -346.5
2342 417.0 -352.5
2343 417.0 -358.5
2344 417.0 -364.5
2345 417.36 -453.71
2346 417.36 -513.71
2347 417.5 -560.67
2348 416.9 -568.4
2349 417.5 -584.57
2350 417.5 -659.63
2351 417.23 -684.27
2352 417.17 -693.33
2353 418.2 -102.3
2354 418.4 -470.6
2355 418.0 -478.83
2356 418.0 -484.75
2357 418.36 -520.14
2358 418.4 -548.6
2359 417.5 -556.67
2360 418.36 -674.29
2361 419.3 -147.05
2362 419.9 -526.2
2363 419.9 -541.8
2364 419.33 -652.83
2365 418.0 -83.0
2366 419.0 -89.0
2367 420.3 -110.9
2368 420.5 -118.75
2369 420.5 -129.11
2370 420.3 -136.6
2371 420.5 -369.67
2372 420.0 -377.5
2373 420.0 -383.5
2374 420.0 -389.5
2375 420.0 -395.5
2376 420.0 -401.5
2377 420.0 -407.5
2378 420.0 -413.5
2379 420.0 -419.5
2380 420.0 -425.5
2381 420.0 -431.5
2382 420.0 -437.5
2383 420.5 -459.67
2384 421.59 -574.0
2385 421.25 -667.88
2386 422.17 -153.94
2387 422.5 -442.63
2388 422.4 -489.7
2389 422.0 -498.0
2390 422.0 -504.0
2391 422.5 -532.11
2392 423.0 -294.33
2393 423.0 -300.33
2394 423.0 -306.33
2395 423.0 -312.33
2396 423.0 -318.33
2397 423.0 -324.33
2398 423.0 -330.33
2399 423.0 -336.33
2400 423.0 -342.33
2401 423.0 -348.33
2402 423.0 -354.33
2403 423.0 -360.33
2404 423.36 -449.57
2405 423.36 -509.57
2406 423.5 -563.0
2407 422.25 -580.5
2408 423.23 -681.18
2409 423.0 -689.67
2410 423.0 -694.67
2411 423.5 -97.0
2412 424.0 -102.5
2413 424.5 -466.89
2414 424.0 -474.67
2415 424.0 -480.67
2416 424.36 -516.0
2417 424.5 -550.89
2418 423.5 -558.5
2419 423.83 -659.78
2420 425.23 -144.09
2421 425.75 -158.38
2422 425.36 -522.29
2423 425.5 -539.22
2424 424.5 -546.67
2425 426.5 -109.56
2426 426.0 -117.33
2427 426.0 -123.33
2428 426.0 -129.33
2429 426.0 -135.33
2430 426.5 -365.78
2431 426.0 -373.5
2432 426.0 -379.5
2433 426.0 -385.5
2434 426.0 -391.5
2435 426.0 -397.5
2436 426.0 -403.5
2437 426.0 -409.5
2438 426.0 -415.5
2439 426.0 -421.5
2440 426.0 -427.5
2441 426.0 -433.5
2442 426.5 -455.78
2443 426.5 -463.67
2444 426.5 -672.88
2445 427.0 -570.96
2446 428.93 -151.29
2447 428.5 -439.5
2448 428.4 -486.5
2449 428.0 -494.67
2450 428.0 -500.67
2451 428.5 -529.0
2452 428.21 -666.86
2453 429.4 -162.75
2454 429.0 -297.33
2455 429.0 -303.33
2456 429.0 -309.33
2457 429.0 -315.33
2458 429.0 -321.33
2459 429.0 -327.33
2460 429.0 -333.33
2461 429.0 -339.33
2462 429.0 -345.33
2463 429.0 -351.33
2464 429.0 -357.33
2465 429.36 -446.71
2466 429.36 -506.71
2467 429.5 -680.67
2468 429.0 -688.33
2469 428.83 -694.67
2470 430.0 -100.0
2471 430.4 -469.7
2472 430.0 -477.83
2473 430.36 -513.14
2474 430.23 -553.23
2475 429.5 -561.5
2476 431.0 -142.0
2477 431.36 -519.57
2478 431.5 -536.5
2479 431.0 -544.25
2480 432.36 -106.57
2481 432.0 -112.83
2482 432.0 -118.83
2483 432.0 -124.83
2484 432.0 -130.83
2485 432.0 -136.83
2486 432.5 -363.0
2487 432.0 -370.83
2488 432.0 -376.83
2489 432.0 -382.83
2490 432.0 -388.83
2491 432.0 -394.83
2492 432.0 -400.83
2493 432.0 -406.83
2494 432.0 -412.83
2495 432.0 -418.83
2496 432.0 -424.83
2497 432.0 -430.83
2498 432.5 -453.0
2499 432.0 -460.83
2500 426.4 -566.5
2501 433.4 -673.2
2502 434.5 -149.11
2503 434.0 -156.33
2504 434.5 -436.13
2505 434.5 -483.67
2506 434.0 -491.5
2507 434.0 -497.5
2508 434.38 -524.75
2509 435.36 -162.0
2510 434.79 -168.64
2511 435.0 -299.67
2512 435.0 -305.67
2513 435.0 -311.67
2514 435.0 -317.67
2515 435.0 -323.67
2516 435.0 -329.67
2517 435.0 -335.67
2518 435.0 -341.67
2519 435.0 -347.67
2520 435.0 -353.67
2521 435.36 -442.86
2522 435.36 -502.86
2523 435.5 -682.13
2524 435.0 -689.33
2525 434.64 -694.5
2526 436.4 -100.33
2527 436.4 -465.5
2528 436.0 -473.83
2529 436.5 -479.67
2530 436.36 -509.0
2531 437.0 -516.0
2532 438.23 -111.36
2533 438.0 -119.83
2534 438.0 -125.33
2535 437.0 -132.0
2536 438.0 -137.83
2537 438.3 -143.4
2538 438.0 -360.0
2539 438.0 -366.0
2540 438.0 -372.0
2541 438.0 -378.0
2542 438.0 -384.0
2543 438.0 -390.0
2544 438.0 -396.0
2545 438.0 -402.0
2546 438.0 -408.0
2547 438.0 -414.0
2548 438.0 -420.0
2549 438.0 -426.0
2550 438.0 -450.0
2551 438.0 -456.0
2552 439.0 -673.83
2553 440.2 -151.1
2554 440.1 -172.1
2555 440.0 -432.0
2556 440.0 -486.0
2557 440.0 -492.0
2558 439.6 -523.8
2559 441.0 -162.0
2560 441.0 -300.0
2561 441.0 -306.0
2562 441.0 -312.0
2563 441.0 -318.0
2564 441.0 -324.0
2565 441.0 -330.0
2566 441.0 -336.0
2567 441.0 -342.0
2568 441.0 -348.0
2569 441.0 -354.0
2570 441.0 -438.0
2571 441.0 -444.0
2572 441.0 -498.0
2573 441.5 -680.0
2574 441.0 -687.15
2575 440.5 -693.25
2576 442.28 -27.5
2577 442.23 -96.18
2578 442.3 -104.2
2579 442.0 -462.0
2580 442.0 -468.0
2581 442.0 -474.0
2582 442.0 -480.0
2583 442.0 -504.0
2584 442.0 -510.0
2585 443.36 -515.71
2586 444.28 -34.5
2587 444.2 -112.05
2588 441.5 -119.0
2589 441.5 -143.0
2590 444.0 -360.0
2591 444.0 -366.0
2592 444.0 -372.0
2593 444.0 -378.0
2594 444.0 -384.0
2595 444.0 -390.0
2596 444.0 -396.0
2597 444.0 -402.0
2598 444.0 -408.0
2599 444.0 -414.0
2600 444.0 -420.0
2601 444.0 -426.0
2602 444.36 -450.71
2603 443.5 -456.0
2604 443.77 -529.41
2605 445.5 -24.75
2606 446.0 -40.33
2607 445.5 -152.4
2608 446.0 -158.17
2609 446.23 -167.64
2610 445.5 -176.44
2611 446.0 -432.0
2612 446.25 -485.5
2613 446.0 -492.67
2614 446.5 -521.67
2615 446.83 -89.44
2616 447.0 -300.0
2617 447.0 -306.0
2618 447.0 -312.0
2619 447.0 -318.0
2620 447.0 -324.0
2621 447.0 -330.0
2622 447.0 -336.0
2623 447.0 -342.0
2624 447.0 -348.0
2625 447.0 -354.0
2626 447.0 -438.0
2627 447.0 -444.0
2628 447.36 -498.29
2629 447.0 -679.67
2630 446.5 -686.38
2631 448.3 -98.9
2632 448.3 -106.5
2633 445.5 -462.0
2634 446.5 -472.67
2635 448.0 -478.0
2636 448.06 -506.67
2637 448.06 -536.44
2638 449.2 -46.65
2639 449.38 -515.25
2640 449.33 -688.5
2641 450.17 -33.0
2642 450.0 -81.3
2643 449.9 -109.2
2644 450.5 -361.0
2645 450.0 -367.67
2646 450.0 -373.67
2647 450.0 -379.67
2648 450.0 -385.67
2649 450.0 -391.67
2650 450.0 -397.67
2651 450.0 -403.67
2652 450.0 -409.67
2653 450.0 -415.67
2654 450.0 -421.67
2655 450.0 -427.67
2656 449.5 -451.17
2657 450.39 -528.0
2658 448.5 -27.0
2659 451.1 -56.6
2660 451.1 -179.7
2661 451.05 -542.27
2662 452.93 -41.29
2663 452.5 -71.61
2664 452.0 -160.67
2665 452.0 -166.67
2666 452.0 -172.67
2667 452.5 -434.25
2668 452.0 -484.33
2669 452.0 -490.33
2670 453.38 -90.25
2671 453.23 -301.64
2672 453.0 -310.0
2673 453.0 -316.0
2674 453.0 -322.0
2675 453.0 -328.0
2676 453.0 -334.0
2677 453.0 -340.0
2678 453.0 -346.0
2679 453.0 -352.0
2680 453.5 -357.5
2681 453.36 -441.14
2682 453.5 -446.88
2683 453.1 -498.5
2684 453.75 -521.63
2685 454.59 -550.06
2686 450.5 -683.0
2687 454.38 -97.75
2688 454.0 -104.08
2689 454.38 -507.25
2690 455.5 -51.5
2691 455.5 -514.33
2692 455.17 -37.0
2693 456.3 -81.8
2694 456.4 -366.2
2695 456.0 -374.0
2696 456.0 -380.0
2697 456.0 -386.0
2698 456.0 -392.0
2699 456.0 -398.0
2700 456.0 -404.0
2701 456.0 -410.0
2702 456.0 -416.0
2703 456.0 -422.0
2704 456.0 -428.0
2705 456.2 -533.4
2706 456.4 -555.6
2707 457.39 -60.0
2708 457.4 -179.95
2709 457.25 -542.5
2710 458.28 -69.22
2711 458.0 -75.75
2712 458.0 -164.67
2713 458.0 -170.67
2714 458.0 -176.5
2715 456.5 -491.33
2716 459.23 -299.82
2717 459.0 -308.17
2718 459.0 -314.17
2719 459.0 -320.17
2720 459.0 -326.17
2721 459.0 -332.17
2722 459.0 -338.17
2723 459.0 -344.17
2724 459.0 -350.17
2725 459.0 -356.17
2726 459.5 -361.75
2727 459.23 -437.73
2728 458.17 -444.58
2729 458.93 -499.14
2730 459.4 -521.5
2731 459.5 -529.0
2732 459.17 -562.33
2733 460.39 -90.33
2734 460.07 -98.07
2735 458.0 -102.0
2736 460.25 -506.13
2737 460.79 -547.43
2738 461.79 -514.14
2739 461.93 -53.43
2740 462.5 -82.0
2741 462.36 -369.57
2742 462.0 -375.83
2743 462.0 -381.83
2744 462.0 -387.83
2745 462.0 -393.83
2746 462.0 -399.83
2747 462.0 -405.83
2748 462.0 -411.83
2749 462.0 -417.83
2750 462.0 -423.83
2751 462.0 -429.83
2752 462.5 -533.89
2753 462.79 -567.5
2754 463.25 -61.0
2755 463.23 -182.86
2756 463.83 -542.0
2757 463.38 -554.25
2758 464.25 -68.5
2759 464.1 -75.2
2760 464.0 -168.33
2761 464.0 -174.33
2762 465.4 -298.2
2763 465.0 -306.0
2764 465.0 -312.0
2765 465.0 -318.0
2766 465.0 -324.0
2767 465.0 -330.0
2768 465.0 -336.0
2769 465.0 -342.0
2770 465.0 -348.0
2771 465.0 -354.0
2772 465.0 -360.0
2773 465.1 -365.6
2774 465.05 -436.41
2775 465.5 -524.38
2776 465.79 -560.57
2777 466.4 -90.7
2778 465.33 -97.25
2779 465.5 -507.4
2780 467.21 -513.71
2781 467.0 -519.5
2782 467.38 -548.75
2783 468.39 -81.89
2784 468.23 -375.82
2785 468.0 -384.17
2786 468.0 -390.17
2787 468.0 -396.17
2788 468.0 -402.17
2789 468.0 -408.17
2790 468.0 -414.17
2791 468.0 -420.17
2792 468.0 -426.17
2793 468.5 -431.75
2794 468.5 -531.78
2795 468.2 -568.2
2796 469.0 -60.83
2797 469.4 -180.8
2798 469.0 -188.33
2799 469.5 -540.75
2800 469.0 -575.42
2801 470.36 -67.0
2802 470.0 -73.67
2803 470.0 -171.5
2804 470.0 -177.5
2805 471.5 -296.0
2806 471.0 -302.67
2807 471.0 -308.67
2808 471.0 -314.67
2809 471.0 -320.67
2810 471.0 -326.67
2811 471.0 -332.67
2812 471.0 -338.67
2813 471.0 -344.67
2814 471.0 -350.67
2815 471.0 -356.67
2816 471.0 -362.67
2817 471.0 -368.67
2818 470.0 -436.13
2819 470.88 -558.13
2820 471.4 -581.4
2821 471.75 -91.31
2822 472.4 -524.6
2823 473.0 -516.33
2824 473.4 -550.4
2825 474.5 -81.13
2826 474.3 -87.1
2827 474.5 -375.0
2828 474.0 -382.83
2829 474.0 -388.83
2830 474.0 -394.83
2831 474.0 -400.83
2832 474.0 -406.83
2833 474.0 -412.83
2834 474.0 -418.83
2835 474.0 -424.83
2836 474.0 -430.33
2837 474.5 -533.13
2838 474.23 -568.0
2839 475.0 -184.08
2840 475.5 -541.75
2841 475.23 -588.86
2842 476.4 -63.2
2843 476.0 -71.0
2844 476.0 -76.0
2845 476.0 -174.67
2846 476.36 -190.79
2847 477.23 -295.64
2848 477.0 -304.0
2849 477.0 -310.0
2850 477.0 -316.0
2851 477.0 -322.0
2852 477.0 -328.0
2853 477.0 -334.0
2854 477.0 -340.0
2855 477.0 -346.0
2856 477.0 -352.0
2857 477.0 -358.0
2858 477.0 -364.0
2859 477.5 -369.5
2860 477.25 -559.75
2861 477.17 -578.11
2862 477.36 -595.0
2863 478.4 -525.0
2864 479.4 -550.8
2865 478.93 -658.61
2866 479.17 -83.17
2867 480.4 -378.4
2868 480.0 -386.17
2869 480.0 -392.17
2870 480.0 -398.17
2871 480.0 -404.17
2872 480.0 -410.17
2873 480.0 -416.17
2874 480.0 -422.17
2875 479.5 -427.94
2876 480.21 -534.43
2877 480.17 -569.33
2878 481.5 -181.0
2879 481.5 -541.38
2880 481.4 -587.9
2881 481.14 -600.82
2882 481.39 -648.56
2883 482.4 -58.6
2884 482.0 -66.67
2885 482.36 -73.14
2886 481.5 -77.5
2887 481.5 -176.5
2888 481.8 -189.4
2889 482.36 -607.29
2890 483.4 -293.2
2891 483.0 -301.0
2892 483.0 -307.0
2893 483.0 -313.0
2894 483.0 -319.0
2895 483.0 -325.0
2896 483.0 -331.0
2897 483.0 -337.0
2898 483.0 -343.0
2899 483.0 -349.0
2900 483.0 -355.0
2901 483.0 -361.0
2902 483.0 -367.0
2903 483.1 -372.6
2904 483.4 -559.8
2905 483.4 -577.8
2906 482.5 -528.0
2907 484.28 -615.78
2908 484.38 -642.25
2909 485.5 -192.67
2910 485.39 -549.67
2911 485.0 -658.75
2912 489.74 -25.23
2913 486.23 -382.27
2914 486.0 -390.67
2915 486.0 -396.58
2916 486.0 -402.67
2917 486.0 -408.67
2918 486.0 -414.67
2919 486.0 -420.67
2920 485.64 -425.79
2921 486.5 -567.44
2922 484.5 -535.0
2923 485.0 -542.0
2924 487.2 -589.8
2925 487.0 -597.67
2926 487.38 -622.13
2927 487.64 -650.0
2928 487.23 -668.45
2929 487.94 -51.44
2930 488.0 -58.83
2931 488.36 -65.14
2932 486.7 -70.9
2933 488.0 -178.0
2934 488.0 -184.0
2935 488.25 -604.25
2936 488.3 -611.4
2937 488.5 -637.94
2938 489.5 -290.11
2939 489.0 -297.33
2940 489.0 -303.33
2941 489.0 -309.33
2942 489.0 -315.33
2943 489.0 -321.33
2944 489.0 -327.33
2945 489.0 -333.33
2946 489.0 -339.33
2947 489.0 -345.33
2948 489.0 -351.33
2949 489.0 -357.33
2950 489.0 -363.33
2951 489.0 -369.33
2952 489.0 -375.33
2953 488.0 -558.0
2954 488.93 -577.29
2955 489.1 -583.0
2956 489.36 -630.3
2957 491.0 -643.48
2958 491.0 -44.5
2959 491.0 -190.38
2960 488.5 -551.0
2961 491.5 -618.0
2962 491.17 -659.33
2963 492.0 -29.93
2964 492.4 -384.8
2965 492.0 -392.67
2966 492.0 -398.67
2967 491.79 -405.29
2968 492.0 -411.83
2969 492.0 -417.83
2970 491.64 -422.43
2971 490.0 -564.0
2972 490.0 -570.0
2973 493.0 -39.0
2974 492.64 -589.57
2975 493.0 -597.0
2976 493.75 -624.88
2977 492.67 -666.83
2978 491.5 -672.5
2979 494.5 -51.94
2980 493.0 -58.33
2981 491.5 -63.0
2982 494.0 -179.67
2983 494.5 -194.56
2984 494.06 -605.44
2985 494.3 -612.2
2986 494.25 -653.16
2987 495.4 -286.8
2988 495.0 -294.67
2989 495.0 -300.67
2990 495.0 -306.67
2991 495.0 -312.67
2992 495.0 -318.67
2993 495.0 -324.67
2994 495.0 -330.67
2995 495.0 -336.67
2996 495.0 -342.67
2997 495.0 -348.67
2998 495.0 -354.67
2999 495.0 -360.67
3000 495.0 -366.67
3001 495.0 -372.67
3002 495.1 -378.2
3003 495.5 -633.25
3004 496.1 -642.5
3005 495.5 -648.45
3006 496.67 -45.42
3007 497.0 -186.0
3008 498.0 -27.0
3009 498.21 -33.71
3010 498.4 -386.8
3011 498.0 -394.67
3012 498.0 -400.58
3013 498.0 -407.08
3014 498.0 -412.83
3015 495.83 -417.5
3016 497.0 -657.75
3017 497.5 -39.0
3018 497.0 -600.0
3019 499.3 -616.0
3020 499.0 -624.0
3021 500.0 -180.0
3022 500.0 -194.42
3023 498.9 -607.4
3024 501.4 -282.8
3025 501.0 -290.67
3026 501.0 -296.67
3027 501.0 -302.67
3028 501.0 -308.67
3029 501.0 -314.67
3030 501.0 -320.67
3031 501.0 -326.67
3032 501.0 -332.67
3033 501.0 -338.67
3034 501.0 -344.67
3035 501.0 -350.67
3036 501.0 -356.67
3037 501.0 -362.67
3038 501.0 -368.67
3039 501.0 -374.67
3040 501.1 -380.2
3041 501.21 -629.71
3042 501.0 -636.17
3043 501.0 -651.8
3044 502.5 -642.38
3045 503.36 -185.43
3046 504.0 -27.0
3047 504.23 -34.95
3048 504.4 -389.2
3049 504.0 -397.0
3050 504.0 -403.0
3051 504.0 -408.08
3052 502.0 -411.75
3053 504.0 -617.5
3054 505.0 -623.33
3055 505.1 -664.4
3056 506.1 -180.6
3057 506.5 -190.78
3058 505.64 -199.29
3059 506.36 -657.0
3060 507.0 -204.56
3061 507.23 -279.91
3062 507.0 -288.33
3063 507.0 -294.33
3064 507.0 -300.33
3065 507.0 -306.33
3066 507.0 -312.33
3067 507.0 -318.33
3068 507.0 -324.33
3069 507.0 -330.33
3070 507.0 -336.33
3071 507.0 -342.33
3072 507.0 -348.33
3073 507.0 -354.33
3074 507.0 -360.33
3075 507.0 -366.33
3076 507.0 -372.33
3077 507.0 -378.33
3078 507.5 -383.5
3079 507.4 -631.1
3080 507.2 -648.1
3081 508.28 -211.06
3082 508.36 -639.14
3083 509.4 -670.9
3084 510.0 -28.0
3085 509.5 -35.19
3086 510.23 -391.55
3087 510.5 -399.0
3088 509.64 -404.64
3089 512.4 -39.8
3090 512.0 -181.0
3091 512.0 -187.0
3092 512.0 -193.0
3093 511.75 -218.0
3094 512.0 -658.3
3095 512.5 -666.25
3096 513.0 -199.0
3097 513.0 -274.6
3098 513.0 -282.67
3099 513.0 -288.67
3100 513.0 -294.67
3101 513.0 -300.67
3102 513.0 -306.67
3103 513.0 -312.67
3104 513.0 -318.67
3105 513.0 -324.67
3106 513.0 -330.67
3107 513.0 -336.67
3108 513.0 -342.67
3109 513.0 -348.67
3110 513.0 -354.67
3111 513.0 -360.67
3112 513.0 -366.67
3113 513.0 -372.67
3114 513.0 -378.67
3115 513.5 -383.5
3116 512.5 -631.8
3117 513.23 -647.0
3118 514.0 -205.0
3119 514.0 -211.0
3120 514.0 -637.83
3121 515.5 -220.89
3122 515.4 -674.15
3123 516.0 -28.0
3124 516.4 -44.45
3125 516.25 -228.38
3126 516.4 -390.85
3127 515.07 -398.07
3128 518.5 -35.63
3129 518.0 -181.0
3130 518.0 -187.0
3131 518.0 -193.0
3132 518.23 -269.36
3133 517.83 -653.56
3134 518.0 -661.17
3135 518.0 -667.17
3136 519.0 -199.0
3137 519.5 -232.5
3138 519.2 -280.0
3139 519.0 -288.0
3140 519.0 -294.0
3141 519.0 -300.0
3142 519.0 -306.0
3143 519.0 -312.0
3144 519.0 -318.0
3145 519.0 -324.0
3146 519.0 -330.0
3147 519.0 -336.0
3148 519.0 -342.0
3149 519.0 -348.0
3150 519.0 -354.0
3151 519.0 -360.0
3152 519.0 -366.0
3153 519.0 -372.0
3154 519.0 -378.0
3155 519.3 -383.6
3156 519.0 -643.4
3157 520.0 -205.0
3158 520.0 -211.0
3159 521.4 -51.3
3160 521.0 -217.0
3161 521.23 -675.09
3162 522.4 -27.0
3163 522.36 -43.71
3164 522.0 -223.0
3165 522.39 -262.44
3166 521.64 -389.0
3167 524.21 -37.14
3168 524.0 -181.0
3169 524.0 -187.0
3170 524.0 -193.0
3171 524.28 -270.89
3172 524.4 -649.4
3173 524.0 -657.33
3174 524.0 -663.33
3175 524.0 -669.33
3176 525.23 -15.14
3177 525.4 -57.3
3178 525.0 -199.0
3179 525.0 -229.0
3180 524.5 -236.57
3181 525.5 -255.33
3182 525.1 -280.9
3183 525.0 -288.83
3184 525.0 -294.83
3185 525.0 -300.83
3186 525.0 -306.83
3187 525.0 -312.83
3188 525.0 -318.83
3189 525.0 -324.83
3190 525.0 -330.83
3191 525.0 -336.83
3192 525.0 -342.83
3193 525.0 -348.83
3194 525.0 -354.83
3195 525.0 -360.83
3196 525.0 -366.83
3197 525.0 -372.83
3198 525.0 -378.83
3199 524.83 -383.0
3200 522.5 -643.0
3201 526.0 -205.0
3202 526.0 -211.0
3203 527.0 -217.0
3204 527.5 -676.5
3205 528.0 -24.0
3206 528.0 -30.17
3207 527.79 -47.43
3208 528.5 -63.61
3209 528.0 -223.0
3210 528.0 -241.08
3211 529.4 -262.4
3212 530.5 -35.5
3213 530.0 -42.67
3214 530.5 -182.0
3215 530.0 -188.67
3216 530.0 -194.67
3217 530.5 -248.13
3218 530.5 -272.13
3219 530.0 -651.67
3220 530.0 -657.67
3221 530.0 -663.67
3222 530.0 -669.67
3223 531.0 -13.33
3224 531.0 -19.33
3225 531.5 -53.78
3226 531.25 -70.94
3227 531.36 -200.71
3228 531.5 -230.11
3229 531.0 -237.33
3230 531.33 -254.33
3231 531.36 -278.86
3232 531.0 -285.5
3233 531.0 -291.5
3234 531.0 -297.5
3235 531.0 -303.5
3236 531.0 -309.5
3237 531.0 -315.5
3238 531.0 -321.5
3239 531.0 -327.5
3240 531.0 -333.5
3241 531.0 -339.5
3242 531.0 -345.5
3243 531.0 -351.5
3244 531.0 -357.5
3245 531.0 -363.5
3246 531.0 -369.5
3247 530.5 -375.0
3248 529.0 -379.0
3249 532.36 -207.29
3250 532.0 -214.0
3251 533.36 -77.29
3252 533.36 -219.57
3253 533.5 -675.72
3254 534.25 -26.75
3255 534.25 -62.75
3256 534.28 -84.72
3257 535.23 -264.91
3258 536.38 -34.5
3259 536.0 -41.67
3260 536.0 -47.67
3261 536.4 -179.8
3262 536.0 -187.67
3263 536.0 -193.67
3264 536.4 -245.8
3265 536.0 -656.5
3266 536.0 -662.5
3267 536.0 -668.5
3268 536.0 -19.5
3269 537.38 -54.0
3270 537.61 -70.78
3271 537.5 -92.22
3272 537.36 -199.0
3273 537.23 -227.55
3274 537.0 -236.0
3275 537.0 -240.0
3276 537.36 -253.0
3277 537.5 -258.67
3278 537.23 -275.55
3279 537.0 -284.0
3280 537.0 -290.0
3281 537.0 -296.0
3282 537.0 -302.0
3283 537.0 -308.0
3284 537.0 -314.0
3285 537.0 -320.0
3286 537.0 -326.0
3287 537.0 -332.0
3288 537.0 -338.0
3289 537.0 -344.0
3290 537.0 -350.0
3291 537.0 -356.0
3292 537.0 -362.0
3293 537.0 -366.92
3294 534.5 -370.5
3295 538.23 -208.73
3296 539.5 -218.66
3297 539.5 -674.72
3298 540.0 -28.5
3299 540.5 -63.44
3300 540.23 -82.0
3301 541.4 -266.3
3302 541.1 -38.0
3303 541.5 -45.0
3304 542.23 -101.36
3305 542.23 -176.27
3306 542.0 -184.67
3307 542.0 -190.67
3308 542.0 -661.0
3309 542.0 -667.0
3310 543.0 -51.67
3311 543.3 -57.4
3312 543.38 -73.75
3313 543.17 -92.11
3314 543.4 -199.4
3315 543.28 -229.03
3316 543.0 -236.33
3317 543.0 -241.0
3318 543.0 -247.53
3319 543.0 -254.33
3320 543.0 -259.0
3321 543.28 -277.11
3322 543.0 -284.33
3323 543.0 -290.33
3324 543.0 -296.33
3325 543.0 -302.33
3326 543.0 -308.33
3327 543.0 -314.33
3328 543.0 -320.33
3329 543.0 -326.33
3330 543.0 -332.33
3331 543.0 -338.33
3332 543.0 -344.33
3333 543.0 -350.33
3334 543.0 -356.25
3335 542.07 -361.93
3336 544.36 -206.71
3337 544.0 -213.67
3338 545.5 -221.13
3339 545.2 -672.65
3340 546.3 -64.6
3341 546.3 -82.6
3342 547.4 -263.6
3343 547.3 -271.6
3344 547.86 -102.27
3345 548.23 -172.73
3346 548.0 -181.17
3347 548.0 -187.17
3348 548.0 -193.17
3349 548.0 -663.5
3350 548.5 -58.5
3351 549.25 -74.5
3352 549.0 -92.25
3353 549.25 -110.88
3354 549.23 -232.18
3355 549.0 -241.0
3356 549.0 -247.0
3357 549.0 -253.0
3358 549.5 -258.33
3359 549.23 -280.64
3360 549.0 -289.0
3361 549.0 -295.0
3362 549.0 -301.0
3363 549.0 -307.0
3364 549.0 -313.0
3365 549.0 -319.0
3366 549.0 -325.0
3367 549.0 -331.0
3368 549.0 -337.0
3369 549.0 -343.0
3370 548.5 -348.5
3371 547.5 -353.17
3372 546.5 -356.5
3373 550.4 -201.4
3374 550.0 -209.17
3375 550.0 -215.08
3376 551.36 -221.09
3377 551.5 -226.67
3378 551.0 -669.88
3379 552.4 -66.1
3380 552.4 -84.1
3381 553.28 -266.0
3382 553.0 -273.5
3383 554.23 -96.73
3384 554.0 -105.33
3385 554.17 -115.17
3386 554.23 -169.73
3387 554.0 -178.17
3388 554.0 -183.75
3389 552.5 -190.33
3390 554.3 -194.6
3391 555.5 -73.78
3392 555.4 -234.03
3393 555.0 -242.08
3394 555.0 -248.0
3395 555.0 -254.0
3396 554.9 -259.8
3397 555.4 -282.0
3398 555.0 -290.0
3399 555.0 -296.0
3400 555.0 -302.0
3401 555.0 -308.0
3402 555.0 -314.0
3403 555.0 -320.0
3404 555.0 -326.0
3405 555.0 -331.83
3406 554.0 -336.38
3407 553.0 -341.75
3408 556.23 -204.0
3409 556.0 -212.5
3410 557.6 -122.55
3411 557.36 -218.71
3412 557.0 -225.07
3413 556.07 -667.36
3414 558.5 -64.89
3415 558.5 -82.89
3416 558.0 -90.17
3417 559.4 -267.1
3418 559.0 -275.17
3419 560.5 -95.38
3420 560.0 -103.0
3421 560.0 -109.0
3422 560.3 -114.6
3423 560.4 -166.0
3424 560.0 -173.83
3425 559.5 -179.75
3426 560.0 -197.83
3427 561.5 -74.78
3428 561.3 -233.8
3429 561.0 -241.83
3430 561.0 -247.83
3431 561.0 -253.83
3432 561.3 -259.2
3433 561.28 -282.33
3434 561.0 -289.83
3435 561.0 -295.83
3436 561.0 -301.83
3437 561.0 -307.83
3438 561.0 -313.83
3439 561.0 -319.83
3440 561.07 -326.29
3441 559.9 -331.2
3442 562.5 -204.5
3443 562.0 -211.5
3444 563.0 -122.4
3445 563.0 -129.58
3446 563.36 -218.0
3447 563.0 -224.5
3448 563.5 -231.0
3449 564.0 -61.2
3450 564.5 -68.0
3451 564.17 -84.67
3452 565.4 -266.3
3453 565.0 -274.33
3454 566.23 -24.36
3455 566.0 -95.0
3456 566.0 -103.0
3457 566.0 -109.0
3458 566.3 -114.4
3459 566.0 -163.8
3460 566.0 -171.67
3461 565.64 -177.29
3462 567.4 -75.8
3463 567.7 -133.9
3464 567.4 -236.9
3465 567.0 -245.17
3466 567.0 -251.17
3467 567.0 -257.17
3468 567.5 -279.63
3469 567.0 -287.17
3470 567.0 -293.17
3471 567.0 -299.17
3472 567.0 -305.17
3473 567.0 -311.17
3474 567.0 -317.17
3475 567.36 -323.71
3476 566.5 -327.9
3477 568.36 -203.86
3478 568.0 -210.17
3479 569.4 -55.0
3480 569.28 -121.44
3481 569.0 -128.25
3482 569.28 -217.56
3483 569.0 -225.0
3484 569.0 -230.0
3485 570.36 -62.71
3486 570.3 -69.2
3487 570.3 -85.0
3488 571.23 -157.14
3489 571.4 -264.6
3490 571.0 -272.33
3491 572.0 -24.33
3492 571.75 -31.13
3493 570.0 -92.0
3494 570.0 -101.0
3495 571.0 -108.0
3496 572.0 -113.5
3497 572.06 -168.0
3498 571.63 -175.25
3499 573.38 -74.75
3500 573.17 -133.33
3501 573.3 -140.5
3502 573.36 -238.57
3503 573.0 -244.83
3504 573.0 -250.83
3505 573.0 -256.83
3506 573.36 -280.57
3507 573.0 -286.83
3508 573.0 -292.83
3509 573.0 -298.83
3510 573.0 -304.83
3511 573.0 -310.83
3512 573.0 -316.83
3513 572.77 -324.14
3514 574.23 -47.82
3515 574.36 -145.43
3516 574.5 -152.0
3517 574.5 -202.59
3518 573.5 -209.0
3519 575.5 -37.0
3520 575.1 -121.8
3521 575.0 -215.17
3522 575.0 -221.17
3523 575.0 -227.17
3524 574.9 -232.4
3525 576.21 -56.14
3526 576.0 -62.67
3527 576.1 -68.6
3528 575.0 -80.63
3529 577.23 -160.82
3530 577.4 -260.9
3531 577.0 -269.5
3532 577.3 -274.8
3533 577.0 -28.75
3534 578.1 -115.2
3535 578.2 -171.2
3536 579.23 -11.68
3537 578.0 -74.63
3538 579.4 -129.7
3539 578.5 -137.1
3540 578.5 -173.83
3541 579.0 -239.0
3542 579.0 -245.0
3543 579.0 -251.0
3544 579.0 -281.0
3545 579.0 -287.0
3546 579.0 -293.0
3547 579.0 -299.0
3548 579.0 -305.0
3549 579.0 -311.0
3550 578.77 -319.14
3551 580.23 -47.36
3552 580.0 -103.17
3553 580.0 -109.08
3554 580.21 -143.3
3555 580.0 -150.0
3556 580.5 -155.25
3557 580.0 -201.33
3558 581.2 -36.9
3559 581.5 -120.25
3560 581.0 -215.17
3561 581.0 -221.17
3562 581.0 -227.17
3563 581.0 -233.17
3564 582.39 -56.78
3565 582.07 -64.64
3566 580.5 -69.5
3567 583.4 -163.6
3568 583.38 -193.0
3569 583.39 -256.78
3570 583.0 -264.33
3571 583.0 -270.33
3572 583.0 -276.33
3573 584.23 -20.41
3574 584.07 -30.29
3575 584.75 -115.25
3576 584.36 -170.86
3577 585.0 -11.83
3578 585.14 -128.39
3579 585.0 -209.14
3580 584.83 -240.22
3581 585.0 -247.67
3582 584.79 -283.29
3583 585.0 -289.67
3584 585.0 -295.67
3585 585.0 -301.67
3586 585.0 -307.67
3587 585.17 -314.56
3588 586.4 -47.0
3589 585.0 -106.5
3590 586.28 -138.22
3591 586.0 -145.67
3592 586.0 -151.67
3593 586.3 -157.4
3594 586.38 -201.81
3595 587.0 -39.0
3596 587.4 -187.1
3597 587.4 -218.1
3598 587.0 -226.17
3599 587.0 -232.17
3600 587.5 -316.17
3601 586.3 -57.2
3602 589.5 -163.67
3603 589.5 -179.75
3604 589.4 -252.8
3605 589.0 -260.67
3606 589.0 -266.67
3607 589.0 -272.67
3608 589.0 -278.67
3609 589.83 -20.33
3610 590.0 -28.17
3611 590.0 -34.0
3612 590.36 -171.43
3613 590.36 -195.43
3614 590.75 -129.13
3615 591.4 -236.4
3616 591.0 -244.67
3617 591.5 -285.5
3618 591.0 -292.67
3619 591.0 -298.67
3620 591.0 -304.67
3621 591.0 -310.67
3622 590.3 -45.5
3623 592.06 -138.11
3624 592.0 -145.5
3625 592.0 -151.5
3626 592.5 -156.25
3627 592.2 -203.6
3628 592.0 -211.5
3629 593.5 -190.11
3630 593.4 -220.2
3631 593.0 -228.17
3632 593.5 -316.38
3633 591.5 -39.0
3634 595.5 -161.78
3635 595.23 -179.0
3636 595.4 -251.6
3637 595.0 -259.67
3638 595.0 -265.67
3639 595.0 -271.67
3640 595.0 -277.67
3641 596.36 -169.14
3642 597.4 -235.7
3643 596.9 -243.2
3644 597.5 -284.11
3645 597.0 -291.83
3646 597.0 -297.83
3647 597.0 -303.83
3648 597.0 -309.83
3649 597.0 -137.25
3650 598.0 -142.67
3651 598.0 -148.67
3652 598.1 -154.4
3653 598.1 -200.6
3654 598.0 -208.25
3655 596.5 -213.67
3656 599.1 -190.4
3657 597.5 -222.67
3658 599.1 -226.9
3659 599.39 -315.5
3660 601.23 -175.82
3661 600.9 -183.8
3662 601.4 -249.3
3663 601.0 -257.33
3664 601.0 -263.33
3665 601.0 -269.33
3666 601.0 -275.33
3667 602.4 -159.3
3668 602.0 -167.33
3669 603.36 -234.14
3670 603.0 -241.17
3671 603.5 -282.13
3672 603.0 -289.17
3673 603.0 -295.17
3674 603.0 -301.17
3675 603.0 -307.17
3676 604.23 -139.55
3677 604.0 -148.0
3678 604.5 -153.5
3679 604.23 -199.23
3680 602.5 -205.0
3681 605.0 -191.02
3682 604.9 -227.5
3683 605.17 -313.44
3684 605.7 -317.7
3685 607.0 -176.4
3686 607.0 -184.25
3687 607.0 -249.0
3688 607.0 -255.0
3689 607.0 -261.0
3690 607.0 -267.0
3691 607.0 -273.0
3692 608.39 -131.0
3693 607.21 -162.29
3694 608.25 -169.5
3695 609.21 -237.57
3696 609.0 -243.83
3697 609.21 -279.57
3698 609.0 -285.83
3699 609.0 -291.83
3700 609.0 -297.83
3701 609.0 -303.83
3702 607.5 -150.5
3703 609.96 -199.04
3704 611.38 -125.75
3705 611.0 -189.28
3706 611.0 -230.2
3707 611.36 -309.14
3708 612.67 -313.83
3709 613.23 -115.73
3710 613.4 -175.4
3711 613.0 -183.67
3712 613.23 -252.91
3713 613.0 -261.5
3714 613.0 -267.5
3715 613.0 -273.5
3716 614.13 -106.63
3717 614.0 -171.5
3718 615.0 -132.25
3719 615.4 -236.1
3720 615.0 -244.33
3721 615.5 -279.0
3722 615.0 -286.33
3723 615.0 -292.33
3724 615.0 -298.33
3725 615.3 -304.4
3726 616.0 -198.21
3727 616.93 -123.14
3728 617.0 -190.0
3729 618.0 -310.85
3730 618.0 -115.88
3731 619.0 -178.0
3732 619.0 -184.0
3733 619.5 -250.11
3734 619.0 -257.83
3735 619.0 -263.83
3736 619.0 -269.83
3737 618.75 -108.5
3738 620.36 -172.57
3739 621.0 -235.0
3740 621.0 -241.0
3741 621.5 -247.33
3742 621.5 -275.88
3743 621.0 -283.0
3744 621.0 -289.0
3745 621.0 -295.0
3746 621.0 -301.0
3747 621.5 -307.25
3748 622.5 -195.5
3749 623.36 -188.86
3750 624.0 -311.17
3751 625.5 -182.0
3752 625.4 -254.1
3753 625.0 -262.17
3754 625.0 -268.17
3755 626.23 -170.73
3756 626.0 -177.5
3757 627.0 -239.67
3758 627.0 -245.67
3759 627.5 -274.5
3760 627.0 -281.67
3761 627.0 -287.67
3762 627.0 -293.67
3763 627.0 -299.67
3764 627.0 -305.67
3765 627.93 -194.79
3766 629.5 -188.93
3767 629.93 -162.71
3768 630.25 -309.94
3769 631.4 -251.8
3770 631.0 -260.0
3771 631.0 -266.0
3772 632.23 -172.0
3773 632.0 -180.5
3774 632.5 -186.25
3775 632.0 -242.5
3776 633.5 -271.25
3777 633.0 -278.67
3778 633.0 -284.67
3779 633.0 -290.67
3780 633.0 -296.67
3781 633.0 -302.67
3782 635.25 -190.13
3783 636.5 -161.89
3784 636.0 -308.33
3785 637.0 -249.17
3786 637.0 -255.17
3787 637.0 -261.17
3788 638.5 -158.33
3789 638.21 -169.86
3790 638.0 -176.33
3791 638.0 -182.33
3792 639.5 -266.13
3793 639.0 -273.5
3794 639.0 -279.5
3795 639.0 -285.5
3796 639.0 -291.5
3797 639.0 -297.5
3798 639.5 -304.63
3799 641.36 -186.64
3800 642.93 -306.36
3801 642.79 -163.71
3802 643.0 -250.17
3803 643.0 -256.17
3804 644.23 -172.04
3805 645.5 -261.13
3806 645.0 -268.5
3807 645.0 -274.5
3808 645.0 -280.5
3809 645.0 -286.5
3810 645.0 -292.5
3811 645.0 -298.5
3812 647.0 -182.71
3813 648.0 -304.92
3814 649.23 -163.0
3815 649.0 -251.17
3816 650.5 -173.22
3817 651.5 -256.13
3818 651.0 -263.5
3819 651.0 -269.5
3820 651.0 -275.5
3821 651.0 -281.5
3822 651.0 -287.17
3823 651.0 -293.83
3824 651.0 -299.83
3825 652.5 -179.7
3826 654.5 -304.61
3827 655.0 -157.8
3828 655.0 -165.83
3829 656.17 -173.39
3830 657.0 -253.67
3831 657.0 -259.67
3832 657.0 -265.62
3833 657.0 -271.68
3834 657.0 -277.67
3835 656.5 -284.78
3836 657.36 -295.21
3837 660.23 -152.18
3838 660.63 -289.5
3839 660.05 -303.18
3840 661.0 -162.38
3841 661.28 -170.28
3842 662.5 -307.63
3843 663.0 -256.83
3844 663.0 -262.83
3845 663.0 -268.75
3846 663.0 -274.83
3847 663.0 -280.67
3848 665.1 -145.6
3849 666.23 -156.36
3850 666.93 -286.29
3851 665.75 -294.88
3852 666.3 -301.4
3853 666.77 -167.68
3854 668.36 -306.71
3855 669.17 -138.78
3856 669.0 -260.0
3857 669.0 -266.0
3858 669.0 -272.0
3859 669.0 -277.42
3860 671.5 -146.89
3861 672.39 -131.59
3862 672.28 -156.56
3863 672.0 -163.83
3864 672.5 -283.88
3865 672.0 -291.17
3866 672.0 -297.17
3867 672.3 -303.2
3868 673.23 -90.91
3869 673.36 -168.43
3870 674.0 -306.58
3871 675.5 -98.94
3872 675.38 -124.75
3873 675.64 -137.71
3874 675.0 -262.17
3875 675.0 -268.17
3876 674.64 -274.71
3877 676.0 -105.83
3878 676.38 -117.25
3879 677.5 -112.4
3880 677.4 -148.0
3881 678.36 -155.16
3882 678.0 -162.08
3883 678.5 -279.78
3884 678.0 -287.5
3885 678.0 -293.5
3886 678.0 -299.25
3887 678.0 -91.0
3888 679.5 -131.0
3889 678.9 -165.9
3890 678.5 -303.67
3891 681.0 -99.5
3892 681.17 -139.72
3893 680.5 -265.6
3894 681.0 -271.5
3895 682.0 -107.17
3896 682.3 -122.2
3897 682.5 -113.6
3898 684.23 -153.55
3899 684.36 -162.07
3900 684.17 -279.33
3901 684.36 -287.5
3902 683.5 -292.8
3903 682.0 -298.0
3904 685.06 -131.51
3905 685.5 -119.0
3906 689.4 -135.7
3907 690.36 -143.86
3908 690.0 -150.5
3909 689.83 -157.72
3910 687.5 -161.5
3911 688.5 -282.0
3912 688.25 -287.75
3913 694.5 -136.4
3914 695.83 -143.0
3915 695.5 -149.1
3916 694.25 -154.5
3917 452.5 -63.22
3918 481.77 -28.1
3919 485.87 -32.78
3920 436.7 -23.42
3921 440.8 -18.73
3922 588.31 -120.59
3923 481.19 -665.0
3924 610.56 -120.0
3925 611.14 -109.47
3926 460.7 -43.32
3927 449.28 -61.17
3928 434.94 -18.73
3929 522.75 -19.32
3930 526.85 -9.37
3931 98.93 -545.58
3932 106.54 -527.14
3933 141.66 -672.61
3934 610.56 -145.18
3935 615.53 -139.91
3936 608.8 -136.98
3937 631.05 -158.64
3938 634.56 -167.42
3939 627.53 -166.25
3940 429.09 -557.29
3941 432.6 -549.09
3942 70.83 -539.43
3943 108.88 -532.7
3944 631.34 -153.37
3945 482.36 -594.17
3946 82.83 -523.04
3947 77.27 -533.87
3948 630.46 -148.1
3949 635.73 -147.52
3950 637.49 -152.2
3951 83.12 -529.19
3952 96.59 -551.43
3953 105.37 -539.73
3954 86.93 -520.7
3955 112.98 -524.51
3956 92.49 -518.65
3957 106.54 -522.75
