0 2 0 0
648 0
0 3536 3577
1 940 1006
2 6 36
3 1099 1121
4 3577 3609
5 0 1
6 3868 3887
7 765 812
8 142 170
9 8 9
10 5 9
11 1968 1984
12 1963 1968
13 1038 1099
14 3870 3890
15 15 62
16 0 15
17 3454 3491
18 3454 3492
19 3298 3302
20 3268 3298
21 3491 3536
22 3890 3903
23 2909 2983
24 2983 3058
25 36 50
26 152 199
27 124 152
28 116 124
29 5 6
30 14 23
31 8 14
32 23 30
33 123 142
34 1468 1500
35 1037 1088
36 1088 1121
37 993 1037
38 1372 1404
39 960 993
40 1404 1436
41 1302 1372
42 1964 1965
43 1963 1964
44 1965 1983
45 2352 2410
46 2194 2352
47 1006 1038
48 2469 2525
49 2410 2469
50 1 2
51 2 4
52 3622 3633
53 3492 3519
54 3223 3930
55 3223 3268
56 1802 1815
57 3913 3914
58 3125 3137
59 3060 3081
60 3058 3060
61 2257 2332
62 2453 2510
63 1932 1969
64 2320 2386
65 1709 1740
66 1122 1181
67 1848 1881
68 1815 1848
69 1060 1122
70 3166 3248
71 263 298
72 229 263
73 199 229
74 691 743
75 74 116
76 50 74
77 123 139
78 904 940
79 925 960
80 12 21
81 1271 1302
82 343 370
83 3931 3953
84 629 675
85 629 656
86 2126 2131
87 2062 2069
88 2069 2090
89 1500 1532
90 1532 1563
91 2090 2118
92 2117 2118
93 1984 2006
94 1436 1468
95 2122 2194
96 3349 3413
97 3378 3413
98 119 136
99 87 88
100 87 104
101 1881 1931
102 2642 2663
103 3827 3837
104 3168 3261
105 3914 3915
106 3915 3916
107 3911 3912
108 3841 3869
109 3825 3841
110 2762 2805
111 3081 3093
112 2615 2642
113 2577 2615
114 2610 2660
115 2386 2421
116 2421 2453
117 2008 2101
118 1969 2008
119 1394 1426
120 2214 2245
121 1362 1394
122 2204 2214
123 1802 1835
124 1835 1867
125 3842 3854
126 3854 3870
127 674 691
128 298 332
129 810 854
130 170 200
131 200 230
132 866 904
133 853 866
134 888 925
135 854 888
136 657 678
137 4 7
138 13 21
139 28 30
140 13 22
141 22 28
142 100 101
143 654 655
144 655 656
145 370 408
146 230 297
147 1801 1834
148 1834 1866
149 1866 1898
150 1647 1678
151 1563 1616
152 2116 2127
153 2116 2117
154 1616 1647
155 2316 2407
156 2316 2318
157 2920 2970
158 660 765
159 3609 3610
160 3610 3633
161 3176 3930
162 3303 3310
163 3302 3303
164 2243 2294
165 2100 2154
166 2663 3927
167 3614 3922
168 3271 3304
169 3537 3566
170 3782 3799
171 3799 3812
172 3869 3889
173 3910 3916
174 3874 3893
175 3893 3894
176 3894 3911
177 3765 3782
178 3682 3706
179 3680 3726
180 2332 2392
181 2890 2938
182 2805 2890
183 2938 2987
184 3093 3125
185 2987 3024
186 2411 2470
187 2470 2577
188 2366 2411
189 1553 1585
190 1426 1458
191 1585 1648
192 1648 1709
193 2280 2320
194 2245 2280
195 1181 1211
196 1211 1241
197 1241 1272
198 1867 1913
199 809 853
200 743 809
201 658 674
202 777 810
203 776 777
204 110 139
205 109 110
206 108 109
207 107 108
208 408 453
209 453 468
210 7 11
211 11 12
212 323 343
213 1087 1120
214 653 654
215 651 653
216 299 323
217 138 168
218 3932 3953
219 708 725
220 725 776
221 544 560
222 560 612
223 675 676
224 676 708
225 468 514
226 514 544
227 1962 2000
228 2000 2064
229 2115 2126
230 3088 3127
231 1678 1708
232 1708 1739
233 2131 2132
234 2127 2132
235 2800 2820
236 2407 2445
237 1983 2021
238 2006 2022
239 2291 2318
240 3339 3378
241 3265 3349
242 2906 2922
243 3052 3088
244 167 185
245 136 167
246 552 660
247 1059 1087
248 1120 1151
249 1180 1210
250 1151 1180
251 3932 3957
252 3951 3956
253 2739 3926
254 3479 3514
255 3514 3519
256 2929 2958
257 2958 3919
258 2883 2929
259 894 964
260 812 894
261 3920 3928
262 3921 3928
263 2887 2933
264 3021 3056
265 2933 3021
266 2778 2821
267 3716 3737
268 3887 3891
269 3716 3925
270 3589 3922
271 3924 3925
272 3649 3692
273 3614 3649
274 3692 3924
275 3693 3702
276 2821 2866
277 3129 3168
278 3528 3537
279 3056 3090
280 3588 3622
281 3551 3588
282 3565 3601
283 3565 3566
284 3788 3950
285 3812 3825
286 3426 3517
287 1803 1868
288 1740 1803
289 2755 2798
290 2660 2755
291 2643 2688
292 2294 2365
293 2365 2366
294 2101 2173
295 2173 2257
296 1490 1553
297 1458 1490
298 2172 2204
299 2154 2172
300 2159 2238
301 1899 1932
302 1868 1899
303 297 344
304 612 646
305 344 409
306 657 3933
307 658 3933
308 101 102
309 102 107
310 62 127
311 1027 1059
312 299 3952
313 3931 3952
314 1739 1770
315 1770 1801
316 1898 1930
317 1930 1962
318 2779 2823
319 2445 2475
320 2275 2291
321 2022 2046
322 2046 2062
323 2419 2452
324 2525 2575
325 3055 3083
326 2978 3055
327 2478 2479
328 2661 2685
329 2823 2863
330 2863 2906
331 506 552
332 147 173
333 117 147
334 173 202
335 202 265
336 104 117
337 92 112
338 112 119
339 89 92
340 88 89
341 978 1027
342 1210 1240
343 1240 1271
344 2242 2243
345 2659 3927
346 2586 2606
347 2912 3008
348 2641 2692
349 2692 3926
350 2979 3006
351 2796 2883
352 2739 2796
353 964 996
354 996 1060
355 1913 1946
356 2641 2658
357 2798 2846
358 2846 2909
359 2554 2610
360 2510 2554
361 3868 3871
362 3871 3877
363 3949 3950
364 3877 3878
365 3596 3603
366 3717 3738
367 3702 3934
368 3718 3935
369 3934 3935
370 3261 3305
371 3353 3410
372 3090 3129
373 3304 3353
374 3726 3748
375 3767 3939
376 3738 3939
377 3693 3717
378 3748 3765
379 3767 3937
380 3937 3944
381 3814 3827
382 3788 3814
383 3899 3910
384 3889 3899
385 3706 3739
386 3388 3426
387 3388 3425
388 3425 3461
389 3655 3680
390 3655 3657
391 3657 3682
392 2760 2803
393 2803 2887
394 2560 2616
395 2688 2735
396 2735 2778
397 2712 2760
398 1272 1303
399 1303 1362
400 2238 2239
401 2210 2239
402 3247 3248
403 2616 2716
404 2716 2762
405 332 368
406 368 409
407 100 118
408 118 138
409 185 231
410 156 209
411 127 156
412 650 711
413 650 651
414 3947 3951
415 168 3947
416 380 405
417 357 405
418 322 357
419 380 3957
420 646 659
421 659 678
422 2064 2065
423 3015 3052
424 2970 3015
425 2753 2800
426 2732 2753
427 2706 2732
428 2474 2475
429 2685 2706
430 2292 2328
431 2254 2292
432 2021 2066
433 2066 2122
434 2253 2254
435 2253 2275
436 3204 3253
437 2882 2908
438 2640 2686
439 2575 2640
440 3083 3122
441 2862 2889
442 2864 2879
443 2478 2637
444 2637 2661
445 3137 3180
446 3180 3210
447 3165 3181
448 3370 3407
449 3476 3513
450 265 335
451 414 506
452 335 414
453 945 978
454 909 945
455 3176 3929
456 2606 2638
457 2638 2659
458 2210 2240
459 2586 3920
460 3046 3084
461 3008 3046
462 3918 3919
463 2912 3918
464 2658 3921
465 2980 2981
466 2979 2980
467 3177 3208
468 3208 3226
469 3256 3271
470 2043 2100
471 2159 2160
472 1946 2003
473 2534 2535
474 2535 2536
475 2536 2589
476 3837 3848
477 3730 3737
478 3861 3878
479 3540 3576
480 3576 3603
481 3498 3540
482 3568 3596
483 3517 3568
484 3461 3498
485 3944 3948
486 3948 3949
487 3386 3423
488 3445 3463
489 3305 3345
490 3345 3386
491 3410 3445
492 3564 3601
493 3551 3564
494 3739 3757
495 3757 3775
496 3684 3708
497 2664 2712
498 2392 2454
499 2454 2560
500 231 249
501 209 249
502 759 790
503 789 790
504 789 833
505 872 873
506 872 910
507 909 910
508 2068 2087
509 2065 2068
510 2097 2115
511 2729 2779
512 2715 2729
513 2474 3941
514 2479 3941
515 3297 3339
516 3253 3297
517 2908 2956
518 2452 2552
519 2928 2978
520 2928 3923
521 2865 2882
522 2865 3923
523 3219 3265
524 3200 3219
525 3054 3116
526 3053 3054
527 3116 3120
528 3120 3200
529 2953 2971
530 2953 2960
531 3127 3166
532 289 322
533 289 3956
534 2241 2242
535 2240 2241
536 2137 2160
537 3047 3089
538 3006 3047
539 3089 3124
540 3124 3159
541 3159 3177
542 2932 2981
543 2607 2664
544 2589 2607
545 2534 2588
546 3855 3861
547 3848 3855
548 3718 3727
549 3727 3730
550 3904 3913
551 3423 3488
552 3493 3528
553 3310 3350
554 3449 3479
555 3632 3684
556 3550 3632
557 3513 3550
558 3902 3903
559 3902 3912
560 3708 3750
561 3800 3813
562 832 833
563 832 873
564 709 759
565 710 711
566 709 710
567 2087 2089
568 2089 2097
569 2580 2634
570 2580 2633
571 2656 2728
572 2774 2818
573 2728 2774
574 2364 2419
575 2552 2629
576 2629 2686
577 3161 3204
578 3122 3161
579 3023 3053
580 3018 3023
581 2889 2907
582 2910 2960
583 2864 2910
584 2879 2923
585 2922 2923
586 2971 2972
587 3210 3217
588 3181 3217
589 3132 3165
590 3247 3294
591 3293 3294
592 3370 3371
593 3226 3251
594 3251 3256
595 2886 2932
596 2866 2886
597 1931 1967
598 1967 2043
599 2003 2042
600 2042 2137
601 2587 2588
602 2587 2643
603 3891 3895
604 3493 3494
605 3350 3414
606 3414 3449
607 3802 3815
608 3775 3802
609 3750 3768
610 3826 3842
611 3813 3826
612 2603 2656
613 2603 2633
614 2818 2875
615 2875 2920
616 2329 2364
617 2328 2329
618 2974 3018
619 3024 3097
620 3097 3132
621 3293 3335
622 3123 3929
623 3084 3123
624 3895 3905
625 3904 3905
626 3488 3515
627 3463 3515
628 3552 3589
629 3494 3552
630 2668 2715
631 2634 2668
632 2954 2974
633 2954 2972
634 2841 2862
635 2820 2841
636 3335 3372
637 3371 3372
638 3441 3476
639 3768 3784
640 3784 3800
641 2907 2926
642 2926 2956
643 3406 3407
644 3406 3441
645 3815 3830
646 3830 3843
647 3843 3874
2
0 502.2056603773585 -120.03641509433963
1 572.3675000000001 -184.9025
