863 2 0 0
0 4.74 -264.91
1 4.5 -277.94
2 4.1 -287.2
3 5.9 -296.05
4 7.14 -252.59
5 7.88 -305.08
6 10.25 -243.83
7 10.83 -315.58
8 13.9 -265.37
9 13.5 -277.61
10 13.5 -286.61
11 13.83 -323.71
12 15.21 -234.86
13 16.79 -297.36
14 17.21 -308.36
15 18.88 -248.65
16 19.5 -258.83
17 19.1 -332.57
18 20.93 -224.71
19 22.04 -315.19
20 22.57 -267.79
21 22.5 -279.72
22 23.21 -287.64
23 25.14 -236.71
24 25.14 -341.5
25 26.1 -298.5
26 27.94 -216.25
27 28.1 -251.77
28 27.88 -324.88
29 31.25 -311.0
30 31.74 -267.68
31 31.5 -280.61
32 32.21 -288.93
33 33.94 -230.06
34 33.75 -242.0
35 33.94 -338.06
36 32.86 -349.68
37 35.27 -300.35
38 36.94 -210.69
39 36.9 -221.3
40 37.21 -254.86
41 37.25 -325.92
42 40.25 -316.17
43 41.1 -272.3
44 40.5 -283.83
45 40.5 -292.83
46 40.94 -353.47
47 42.74 -236.79
48 43.21 -249.36
49 43.14 -342.23
50 43.5 -304.5
51 45.5 -205.5
52 45.5 -214.5
53 45.5 -223.5
54 45.5 -259.5
55 45.5 -331.5
56 49.25 -311.92
57 48.5 -322.94
58 50.27 -266.81
59 49.5 -278.28
60 49.5 -287.28
61 49.5 -296.28
62 50.44 -358.56
63 52.1 -231.03
64 51.5 -243.28
65 51.5 -252.28
66 52.1 -339.03
67 51.1 -351.3
68 53.83 -305.17
69 54.0 -209.25
70 54.5 -217.94
71 57.59 -317.59
72 57.5 -327.5
73 58.94 -265.13
74 58.5 -277.5
75 58.5 -286.5
76 58.5 -295.5
77 58.94 -363.28
78 60.94 -230.69
79 60.5 -243.17
80 60.5 -252.17
81 61.1 -339.1
82 60.5 -351.17
83 62.25 -304.75
84 63.5 -217.5
85 66.5 -316.5
86 66.5 -325.5
87 67.5 -262.5
88 67.5 -271.5
89 67.5 -280.5
90 67.5 -289.5
91 66.73 -363.88
92 69.5 -226.5
93 69.5 -235.5
94 69.5 -244.5
95 69.5 -253.5
96 69.5 -334.5
97 69.5 -343.5
98 69.5 -352.5
99 70.5 -298.5
100 70.5 -307.5
101 72.21 -372.21
102 72.5 -217.5
103 75.5 -316.5
104 75.5 -325.5
105 76.9 -261.8
106 76.5 -271.61
107 76.5 -280.61
108 76.5 -289.61
109 76.9 -360.8
110 79.25 -224.75
111 78.5 -235.83
112 78.5 -244.83
113 78.25 -253.75
114 79.25 -332.75
115 78.5 -343.83
116 78.25 -352.75
117 80.25 -296.83
118 79.5 -307.94
119 80.5 -370.09
120 81.5 -218.0
121 84.5 -317.5
122 85.5 -263.5
123 85.5 -272.5
124 85.5 -281.5
125 87.5 -227.5
126 87.5 -236.5
127 87.5 -245.5
128 87.5 -254.5
129 87.5 -326.5
130 87.5 -335.5
131 87.5 -344.5
132 87.5 -353.5
133 88.5 -290.5
134 88.5 -299.5
135 88.5 -308.5
136 89.5 -362.5
137 89.5 -371.5
138 90.5 -218.5
139 93.5 -317.5
140 94.5 -263.5
141 94.5 -272.5
142 94.5 -281.5
143 96.5 -227.5
144 96.5 -236.5
145 96.5 -245.5
146 96.5 -254.5
147 96.5 -326.5
148 96.5 -335.5
149 96.5 -344.5
150 96.5 -353.5
151 97.5 -290.5
152 97.5 -299.5
153 97.5 -308.5
154 98.5 -362.5
155 98.5 -371.5
156 99.5 -218.5
157 102.5 -317.5
158 103.5 -263.5
159 103.5 -272.5
160 103.5 -281.5
161 106.14 -228.59
162 105.5 -238.17
163 105.5 -247.17
164 105.5 -256.17
165 106.14 -327.59
166 105.5 -337.17
167 105.5 -346.17
168 105.5 -355.17
169 107.25 -291.75
170 106.5 -301.83
171 106.5 -310.83
172 108.14 -364.23
173 107.5 -372.94
174 109.25 -218.33
175 112.5 -316.77
176 112.5 -271.44
177 113.21 -282.79
178 114.56 -234.06
179 114.5 -246.5
180 114.5 -255.5
181 115.75 -263.0
182 114.56 -333.06
183 114.5 -345.5
184 114.88 -354.0
185 115.56 -295.81
186 116.5 -307.17
187 116.56 -367.14
188 117.5 -91.69
189 117.5 -211.44
190 118.5 -222.17
191 118.5 -104.11
192 120.0 -77.83
193 121.25 -112.75
194 120.63 -317.1
195 121.39 -373.17
196 121.7 -269.63
197 121.5 -282.06
198 124.17 -69.58
199 123.56 -232.19
200 123.5 -244.61
201 123.5 -253.61
202 124.75 -261.0
203 123.5 -331.63
204 123.5 -343.61
205 123.5 -352.61
206 124.56 -293.94
207 125.21 -305.5
208 127.07 -119.04
209 125.56 -202.69
210 126.12 -364.54
211 126.56 -92.94
212 127.04 -217.96
213 129.4 -78.4
214 129.86 -60.21
215 129.95 -104.59
216 129.63 -314.83
217 130.5 -372.23
218 130.77 -268.43
219 130.5 -280.72
220 132.94 -193.63
221 132.88 -230.31
222 132.5 -243.06
223 132.5 -252.06
224 133.7 -260.1
225 132.69 -329.56
226 132.5 -342.06
227 132.5 -351.06
228 132.88 -359.63
229 133.57 -292.7
230 134.21 -303.93
231 134.5 -119.03
232 134.57 -210.3
233 135.94 -90.25
234 136.74 -71.85
235 137.25 -130.75
236 137.74 -52.97
237 139.27 -104.19
238 138.86 -312.43
239 138.85 -367.38
240 139.83 -183.83
241 140.12 -220.42
242 139.63 -274.31
243 140.21 -285.93
244 141.79 -199.07
245 141.57 -235.57
246 141.5 -247.5
247 141.5 -256.5
248 142.5 -264.33
249 141.57 -326.07
250 141.5 -337.5
251 141.5 -346.5
252 142.21 -354.64
253 142.5 -373.31
254 142.93 -297.43
255 143.94 -119.38
256 144.74 -82.97
257 145.21 -95.07
258 145.74 -64.09
259 145.5 -73.5
260 146.1 -133.77
261 146.07 -173.86
262 146.25 -210.75
263 146.74 -45.21
264 146.5 -54.5
265 148.27 -105.5
266 148.21 -306.93
267 148.21 -318.5
268 148.36 -360.0
269 149.07 -187.43
270 149.07 -223.43
271 148.74 -277.03
272 149.21 -289.36
273 151.27 -164.96
274 151.42 -201.5
275 150.83 -238.43
276 150.5 -250.39
277 150.5 -259.39
278 150.9 -266.7
279 151.0 -328.79
280 150.5 -340.39
281 150.79 -348.5
282 151.0 -372.54
283 152.94 -120.75
284 154.17 -298.17
285 153.74 -84.32
286 154.21 -96.36
287 154.94 -64.94
288 153.5 -74.17
289 155.1 -136.4
290 155.0 -154.0
291 155.6 -173.9
292 155.6 -209.9
293 155.74 -37.62
294 155.5 -50.61
295 155.5 -56.5
296 157.27 -106.81
297 157.27 -306.81
298 156.75 -318.13
299 157.1 -359.7
300 157.94 -188.38
301 157.94 -224.38
302 157.74 -278.85
303 158.5 -290.5
304 159.74 -241.09
305 159.5 -254.06
306 159.5 -263.06
307 160.5 -269.17
308 159.74 -331.09
309 159.5 -344.06
310 160.75 -350.75
311 160.27 -372.96
312 161.94 -121.88
313 162.94 -85.06
314 162.75 -97.0
315 162.94 -148.06
316 162.94 -166.06
317 162.94 -202.06
318 163.74 -66.74
319 163.5 -76.5
320 163.9 -135.3
321 164.83 -154.83
322 164.63 -176.5
323 164.63 -212.5
324 164.74 -29.85
325 164.5 -42.83
326 164.5 -51.83
327 164.5 -57.5
328 166.27 -108.12
329 165.74 -298.97
330 165.5 -311.94
331 166.21 -320.07
332 166.1 -361.03
333 167.27 -188.19
334 166.94 -225.63
335 166.74 -280.09
336 166.5 -289.5
337 168.74 -242.44
338 168.5 -255.39
339 168.5 -264.39
340 169.5 -270.5
341 168.74 -332.44
342 168.5 -345.39
343 169.75 -352.0
344 169.25 -373.54
345 170.94 -123.38
346 171.74 -86.97
347 172.21 -99.07
348 172.74 -68.21
349 172.5 -78.0
350 172.74 -140.21
351 172.5 -153.17
352 172.5 -162.17
353 172.5 -171.17
354 173.21 -179.36
355 172.74 -203.21
356 173.21 -215.36
357 173.74 -22.44
358 173.5 -35.39
359 173.5 -44.39
360 173.5 -53.39
361 173.5 -59.0
362 175.27 -109.81
363 174.74 -300.68
364 174.5 -313.61
365 175.21 -321.79
366 175.1 -362.77
367 176.25 -189.5
368 175.94 -227.44
369 175.94 -281.44
370 174.5 -290.5
371 177.74 -244.44
372 177.5 -257.39
373 177.5 -266.39
374 178.5 -272.83
375 177.74 -334.44
376 177.5 -347.39
377 178.75 -354.25
378 177.5 -373.94
379 179.94 -125.56
380 180.74 -89.32
381 181.21 -101.5
382 181.74 -70.68
383 181.5 -80.5
384 181.74 -142.68
385 181.5 -155.61
386 181.5 -164.61
387 181.5 -173.61
388 182.21 -181.93
389 181.74 -205.68
390 182.21 -217.93
391 182.74 -16.03
392 182.5 -28.94
393 182.5 -37.94
394 182.5 -46.94
395 182.5 -55.94
396 182.5 -61.5
397 184.27 -112.73
398 183.94 -303.06
399 183.5 -315.39
400 183.75 -324.0
401 184.1 -365.63
402 185.25 -192.67
403 184.94 -230.5
404 184.74 -284.91
405 184.5 -294.5
406 186.94 -247.44
407 186.5 -259.72
408 186.5 -268.72
409 186.5 -275.25
410 186.94 -337.44
411 186.5 -349.72
412 186.9 -356.9
413 186.95 -374.32
414 188.94 -129.44
415 189.74 -93.38
416 190.21 -105.64
417 190.94 -74.56
418 189.5 -83.5
419 190.94 -146.56
420 190.5 -158.83
421 190.5 -167.83
422 190.5 -176.83
423 190.75 -185.5
424 190.94 -209.56
425 190.75 -221.5
426 191.74 -11.5
427 191.5 -24.39
428 191.5 -33.39
429 191.5 -42.39
430 191.5 -51.39
431 191.5 -60.39
432 191.5 -66.0
433 193.27 -117.42
434 192.94 -307.69
435 192.5 -319.94
436 192.75 -328.63
437 194.25 -197.58
438 193.94 -235.38
439 193.74 -289.74
440 193.5 -299.5
441 194.74 -369.82
442 195.74 -253.09
443 195.5 -265.94
444 195.5 -274.94
445 196.5 -281.83
446 195.74 -343.09
447 195.5 -355.94
448 195.5 -361.5
449 197.94 -135.19
450 198.74 -99.32
451 199.21 -111.79
452 200.21 -80.0
453 198.3 -88.1
454 200.21 -152.0
455 199.5 -162.94
456 199.5 -171.94
457 199.5 -180.94
458 199.5 -189.94
459 200.21 -215.0
460 199.5 -225.94
461 201.1 -8.3
462 200.5 -19.83
463 200.5 -28.83
464 200.5 -37.83
465 200.5 -46.83
466 200.5 -55.83
467 200.5 -64.83
468 199.25 -70.5
469 202.27 -124.42
470 201.94 -314.56
471 201.5 -326.72
472 201.75 -335.5
473 203.25 -199.58
474 203.75 -209.5
475 203.25 -235.58
476 202.88 -246.5
477 202.74 -296.79
478 202.5 -306.5
479 203.5 -373.0
480 204.5 -256.5
481 204.5 -265.5
482 204.5 -274.5
483 204.5 -283.5
484 204.5 -346.5
485 204.5 -355.5
486 204.5 -364.5
487 206.5 -139.5
488 207.5 -103.5
489 207.5 -112.5
490 208.5 -85.5
491 208.5 -94.5
492 208.5 -148.5
493 208.5 -157.5
494 208.5 -166.5
495 208.5 -175.5
496 208.5 -184.5
497 208.5 -220.5
498 209.5 -4.5
499 209.5 -13.5
500 209.5 -22.5
501 209.5 -31.5
502 209.5 -40.5
503 209.5 -49.5
504 209.5 -58.5
505 209.5 -67.5
506 209.5 -76.5
507 210.5 -121.5
508 210.5 -130.5
509 210.5 -319.5
510 210.5 -328.5
511 210.5 -337.5
512 211.5 -193.5
513 211.5 -202.5
514 211.5 -211.5
515 211.5 -229.5
516 211.5 -238.5
517 211.5 -247.5
518 211.5 -292.5
519 211.5 -301.5
520 211.5 -310.5
521 212.5 -373.0
522 213.5 -256.5
523 213.5 -265.5
524 213.5 -274.5
525 213.5 -283.5
526 213.5 -346.5
527 213.5 -355.5
528 213.5 -364.5
529 215.5 -139.5
530 216.5 -103.5
531 216.5 -112.5
532 217.9 -84.8
533 217.5 -94.61
534 217.9 -147.8
535 217.5 -157.61
536 217.5 -166.61
537 217.5 -175.61
538 217.5 -184.61
539 217.9 -219.8
540 218.5 -4.72
541 218.5 -13.72
542 218.5 -22.72
543 218.5 -31.72
544 218.5 -40.72
545 218.5 -49.72
546 218.5 -58.72
547 218.5 -67.72
548 218.13 -76.63
549 220.25 -119.75
550 219.5 -130.83
551 220.25 -317.75
552 219.5 -328.83
553 219.5 -337.83
554 221.25 -191.83
555 220.5 -202.94
556 220.38 -211.88
557 221.25 -227.83
558 220.5 -238.94
559 220.5 -247.94
560 221.27 -290.35
561 220.5 -301.94
562 219.5 -310.67
563 222.21 -370.5
564 223.14 -255.59
565 222.5 -266.17
566 222.5 -275.17
567 222.1 -283.9
568 223.25 -345.0
569 222.5 -356.17
570 221.25 -364.75
571 225.5 -137.27
572 226.25 -102.75
573 227.27 -84.35
574 225.5 -95.67
575 227.14 -148.41
576 226.5 -158.94
577 226.5 -167.94
578 226.5 -176.94
579 227.5 -6.06
580 227.5 -15.06
581 227.5 -24.06
582 227.5 -33.06
583 227.5 -42.06
584 227.5 -51.06
585 227.5 -60.06
586 227.5 -69.06
587 226.3 -77.7
588 229.25 -112.17
589 228.5 -123.28
590 229.1 -317.83
591 228.5 -330.28
592 230.25 -184.42
593 229.5 -195.5
594 229.5 -204.5
595 229.5 -213.5
596 229.5 -222.5
597 229.5 -231.5
598 229.5 -240.5
599 229.94 -290.69
600 229.5 -303.5
601 228.5 -312.17
602 230.74 -370.71
603 232.14 -248.41
604 231.5 -258.94
605 231.5 -267.94
606 231.5 -276.94
607 232.25 -337.83
608 231.5 -348.94
609 231.5 -357.94
610 234.21 -130.36
611 235.74 -84.68
612 235.5 -97.83
613 236.14 -141.32
614 235.5 -151.83
615 235.5 -160.83
616 235.5 -169.83
617 236.5 -8.17
618 236.5 -17.17
619 236.5 -26.17
620 236.5 -35.17
621 236.5 -44.17
622 236.5 -53.17
623 236.5 -62.17
624 236.5 -71.17
625 238.14 -105.95
626 237.5 -116.39
627 238.1 -319.97
628 239.25 -177.58
629 238.5 -188.61
630 238.5 -197.61
631 238.5 -206.61
632 238.5 -215.61
633 238.5 -224.61
634 238.5 -233.61
635 238.94 -283.81
636 238.5 -296.61
637 238.5 -305.61
638 237.5 -314.17
639 239.65 -368.31
640 241.14 -241.68
641 240.5 -252.17
642 240.5 -261.17
643 240.5 -270.17
644 241.25 -331.08
645 240.5 -342.17
646 240.5 -351.17
647 243.21 -123.57
648 245.21 -79.14
649 244.5 -91.17
650 245.14 -134.68
651 244.5 -145.17
652 244.5 -154.17
653 244.5 -163.17
654 245.5 -10.39
655 245.5 -19.39
656 245.5 -28.39
657 245.5 -37.39
658 245.5 -46.39
659 245.5 -55.39
660 245.5 -64.39
661 244.25 -73.0
662 247.14 -99.14
663 246.5 -109.61
664 248.25 -170.92
665 247.5 -181.94
666 247.5 -190.94
667 247.5 -199.94
668 247.5 -208.94
669 247.5 -217.94
670 247.5 -226.94
671 247.94 -277.12
672 247.5 -289.94
673 247.5 -298.94
674 247.5 -307.94
675 247.5 -316.94
676 249.21 -359.43
677 248.06 -373.47
678 250.14 -235.59
679 249.5 -245.83
680 249.5 -254.83
681 249.5 -263.83
682 250.14 -325.59
683 249.5 -335.83
684 249.5 -344.83
685 248.25 -353.5
686 252.21 -118.36
687 253.94 -82.81
688 254.14 -129.82
689 252.0 -138.33
690 252.5 -149.07
691 253.5 -157.83
692 254.5 -15.17
693 254.5 -24.17
694 254.5 -33.17
695 254.5 -42.17
696 254.5 -51.17
697 254.5 -60.17
698 254.5 -69.17
699 254.5 -78.0
700 256.14 -95.95
701 255.5 -106.06
702 257.19 -167.88
703 256.5 -179.06
704 256.5 -188.06
705 256.5 -197.06
706 256.5 -206.06
707 256.5 -215.06
708 256.5 -224.06
709 256.81 -274.38
710 255.0 -286.33
711 255.0 -295.33
712 255.5 -305.07
713 256.0 -314.63
714 257.5 -366.33
715 259.0 -234.75
716 258.5 -245.17
717 258.5 -254.17
718 258.63 -262.63
719 257.94 -325.94
720 258.5 -335.61
721 258.5 -344.61
722 258.13 -353.13
723 259.07 -374.86
724 261.21 -116.43
725 262.3 -129.43
726 263.5 -22.39
727 263.5 -31.39
728 263.5 -40.39
729 263.5 -49.39
730 263.5 -58.39
731 263.5 -67.39
732 263.5 -76.39
733 263.5 -85.39
734 264.9 -94.6
735 264.5 -104.17
736 263.0 -170.0
737 265.0 -179.25
738 265.5 -188.06
739 265.5 -197.06
740 265.5 -206.06
741 265.5 -215.06
742 265.5 -224.06
743 262.5 -269.0
744 266.74 -361.32
745 267.73 -235.19
746 267.8 -246.4
747 266.21 -254.93
748 264.5 -261.83
749 267.5 -338.83
750 267.5 -347.83
751 267.9 -372.95
752 270.21 -114.0
753 271.38 -127.97
754 272.5 -28.83
755 272.5 -37.83
756 272.5 -46.83
757 272.5 -55.83
758 272.5 -64.83
759 272.5 -73.83
760 272.5 -82.83
761 273.9 -91.9
762 273.5 -101.5
763 271.5 -192.83
764 272.0 -201.75
765 273.0 -210.83
766 273.0 -219.83
767 273.3 -228.4
768 275.5 -357.5
769 273.5 -237.5
770 276.5 -339.5
771 276.5 -348.5
772 276.5 -370.25
773 279.21 -111.07
774 280.36 -124.18
775 281.5 -34.72
776 281.5 -43.72
777 281.5 -52.72
778 281.5 -61.72
779 281.5 -70.72
780 281.5 -79.72
781 282.9 -88.6
782 282.5 -98.28
783 283.38 -129.0
784 284.5 -357.5
785 285.5 -339.5
786 285.5 -348.5
787 285.5 -370.25
788 288.21 -107.21
789 290.14 -118.68
790 290.5 -39.5
791 290.5 -48.5
792 290.5 -57.5
793 290.5 -66.5
794 290.5 -75.5
795 291.9 -84.2
796 291.5 -93.94
797 293.25 -126.13
798 293.94 -356.31
799 294.5 -342.72
800 294.5 -352.0
801 294.12 -370.35
802 297.21 -101.57
803 297.88 -374.06
804 299.14 -112.5
805 299.5 -42.17
806 299.5 -51.17
807 299.5 -60.17
808 299.5 -69.17
809 300.9 -77.4
810 300.5 -87.28
811 302.25 -120.42
812 303.5 -351.5
813 303.5 -360.5
814 303.75 -369.69
815 305.5 -96.5
816 305.67 -375.08
817 307.5 -105.5
818 308.5 -42.5
819 308.5 -51.5
820 308.5 -60.5
821 309.5 -69.5
822 309.5 -78.5
823 309.5 -87.5
824 310.06 -117.06
825 309.75 -359.0
826 309.0 -366.0
827 314.5 -96.5
828 317.21 -108.07
829 317.9 -43.2
830 317.5 -52.39
831 317.5 -61.39
832 318.9 -71.0
833 318.5 -80.28
834 318.5 -89.28
835 320.75 -111.38
836 324.21 -100.04
837 327.25 -43.25
838 326.5 -53.17
839 326.5 -62.17
840 327.9 -71.6
841 327.5 -81.06
842 327.5 -90.06
843 328.25 -103.88
844 335.94 -40.56
845 335.5 -53.06
846 335.5 -62.06
847 334.2 -96.25
848 336.9 -70.0
849 336.5 -80.17
850 337.21 -87.93
851 344.94 -34.94
852 344.5 -47.17
853 344.5 -56.17
854 345.5 -64.72
855 344.0 -74.0
856 342.7 -81.7
857 353.5 -33.28
858 353.5 -42.28
859 353.5 -51.17
860 353.79 -57.5
861 359.5 -40.5
862 359.5 -48.83
