1240 2 0 0
0 6.17 -28.0
1 6.0 -30.5
2 7.0 -33.0
3 8.0 -27.0
4 8.0 -29.0
5 8.0 -31.0
6 8.0 -35.0
7 8.0 -36.75
8 9.17 -33.0
9 9.0 -38.25
10 10.0 -26.0
11 10.0 -28.0
12 10.0 -30.0
13 10.0 -36.0
14 10.0 -40.0
15 10.0 -42.0
16 10.0 -44.0
17 11.17 -32.0
18 11.0 -34.5
19 11.17 -38.0
20 11.0 -45.25
21 12.0 -25.0
22 12.0 -27.0
23 12.0 -29.0
24 12.0 -41.0
25 12.0 -43.0
26 13.0 -21.0
27 13.0 -23.0
28 13.0 -31.0
29 13.0 -33.0
30 13.0 -35.0
31 13.0 -37.0
32 13.0 -39.0
33 13.0 -45.0
34 14.0 -19.0
35 14.0 -25.0
36 14.0 -27.0
37 14.0 -29.0
38 14.0 -41.0
39 14.0 -43.0
40 15.17 -21.0
41 15.0 -23.5
42 15.17 -31.0
43 15.0 -33.5
44 15.0 -35.5
45 15.0 -37.5
46 15.0 -39.5
47 15.17 -45.0
48 14.5 -46.5
49 16.0 -18.0
50 16.0 -26.0
51 16.0 -28.0
52 16.0 -42.0
53 17.0 -20.0
54 17.0 -22.0
55 17.0 -24.0
56 17.0 -30.0
57 17.0 -32.0
58 17.0 -34.0
59 17.0 -36.0
60 17.0 -38.0
61 17.0 -40.0
62 17.0 -44.0
63 17.0 -45.5
64 18.0 -18.0
65 18.0 -26.0
66 18.0 -28.0
67 18.0 -42.0
68 19.0 -20.0
69 19.0 -22.0
70 19.0 -24.0
71 19.0 -30.0
72 19.0 -32.0
73 19.0 -34.0
74 19.0 -36.0
75 19.0 -38.0
76 19.0 -40.0
77 19.0 -44.0
78 19.0 -45.5
79 20.0 -18.0
80 20.0 -26.0
81 20.0 -28.0
82 20.0 -42.0
83 21.0 -20.0
84 21.0 -22.0
85 21.0 -24.0
86 21.0 -30.0
87 21.0 -32.0
88 21.0 -34.0
89 21.0 -36.0
90 21.0 -38.0
91 21.0 -40.0
92 21.0 -44.0
93 21.0 -45.75
94 22.17 -18.0
95 22.17 -26.0
96 22.0 -28.5
97 22.17 -42.0
98 23.0 -21.0
99 23.0 -23.0
100 23.0 -31.0
101 23.0 -33.0
102 23.0 -35.0
103 23.0 -37.0
104 23.0 -39.0
105 22.5 -44.5
106 24.0 -17.0
107 24.0 -19.0
108 24.0 -25.0
109 24.0 -27.0
110 24.0 -29.0
111 24.0 -41.0
112 23.5 -42.5
113 25.0 -21.0
114 25.0 -23.0
115 25.0 -31.0
116 25.0 -33.0
117 25.0 -35.0
118 25.0 -37.0
119 25.0 -39.0
120 26.0 -17.0
121 26.0 -19.0
122 26.0 -25.0
123 26.0 -27.0
124 26.0 -29.0
125 26.0 -40.5
126 27.0 -21.0
127 27.0 -23.0
128 27.0 -31.0
129 27.0 -33.0
130 27.0 -35.0
131 27.0 -37.0
132 27.0 -39.0
133 28.0 -17.0
134 28.0 -19.0
135 28.0 -25.0
136 28.0 -27.0
137 28.0 -29.0
138 28.0 -41.0
139 29.0 -21.0
140 29.0 -23.0
141 29.0 -31.0
142 29.0 -33.0
143 29.0 -35.0
144 29.0 -37.0
145 29.0 -39.0
146 29.0 -43.0
147 30.0 -17.5
148 30.0 -19.5
149 30.17 -25.0
150 30.0 -27.5
151 30.0 -29.5
152 30.17 -41.0
153 30.17 -45.0
154 31.0 -22.0
155 31.0 -32.0
156 31.0 -34.0
157 31.0 -36.0
158 31.0 -38.0
159 31.0 -48.0
160 32.0 -18.5
161 32.0 -20.5
162 32.17 -24.0
163 32.0 -26.5
164 32.0 -28.5
165 32.0 -30.5
166 32.17 -40.0
167 32.0 -42.5
168 32.0 -44.5
169 32.0 -46.5
170 32.0 -49.25
171 33.0 -33.0
172 33.0 -35.0
173 33.0 -37.0
174 33.0 -51.0
175 33.0 -53.0
176 33.0 -55.0
177 33.0 -57.0
178 33.0 -59.0
179 33.0 -61.0
180 33.0 -63.0
181 33.0 -65.0
182 34.0 -21.5
183 34.0 -23.5
184 34.0 -25.5
185 34.0 -27.5
186 34.0 -29.5
187 34.0 -31.5
188 34.17 -39.0
189 34.0 -41.5
190 34.0 -43.5
191 34.0 -45.5
192 34.0 -47.5
193 34.0 -49.5
194 34.17 -67.0
195 33.5 -68.5
196 35.17 -34.0
197 35.0 -36.5
198 35.17 -52.0
199 35.0 -54.5
200 35.0 -56.5
201 35.0 -58.5
202 35.0 -60.5
203 35.0 -62.5
204 35.0 -64.5
205 35.17 -70.0
206 36.0 -23.5
207 36.0 -25.5
208 36.0 -27.5
209 36.0 -29.5
210 36.0 -31.5
211 36.17 -39.0
212 36.0 -41.5
213 36.0 -43.5
214 36.0 -45.5
215 36.0 -47.5
216 36.0 -49.5
217 36.17 -67.0
218 36.0 -72.25
219 37.17 -34.0
220 37.0 -36.5
221 37.17 -52.0
222 37.0 -54.5
223 37.0 -56.5
224 37.0 -58.5
225 37.0 -60.5
226 37.0 -62.5
227 37.0 -64.5
228 37.17 -70.0
229 37.17 -74.0
230 37.17 -108.0
231 38.0 -25.5
232 38.0 -27.5
233 38.0 -29.5
234 38.0 -31.5
235 38.17 -39.0
236 38.0 -41.5
237 38.0 -43.5
238 38.0 -45.5
239 38.0 -47.5
240 38.0 -49.5
241 38.17 -67.0
242 39.17 -34.0
243 39.0 -36.5
244 39.17 -52.0
245 39.0 -54.5
246 39.0 -56.5
247 39.0 -58.5
248 39.0 -60.5
249 39.0 -62.5
250 39.0 -64.5
251 39.17 -70.0
252 39.0 -72.5
253 39.0 -74.5
254 39.0 -76.5
255 39.17 -106.0
256 39.0 -108.5
257 39.0 -110.25
258 40.0 -27.5
259 40.0 -29.5
260 40.0 -31.5
261 40.17 -39.0
262 40.0 -41.5
263 40.0 -43.5
264 40.0 -45.5
265 40.0 -47.5
266 40.0 -49.5
267 40.17 -67.0
268 41.17 -34.0
269 41.0 -36.5
270 41.17 -52.0
271 41.0 -54.5
272 41.0 -56.5
273 41.0 -58.5
274 41.0 -60.5
275 41.0 -62.5
276 41.0 -64.5
277 41.17 -70.0
278 41.0 -72.5
279 41.0 -74.5
280 41.0 -76.5
281 41.0 -78.5
282 41.0 -99.0
283 41.0 -100.75
284 41.17 -104.0
285 41.0 -106.5
286 41.0 -108.5
287 41.0 -110.5
288 40.5 -111.5
289 42.0 -29.5
290 42.0 -31.5
291 42.17 -39.0
292 42.0 -41.5
293 42.0 -43.5
294 42.0 -45.5
295 42.0 -47.5
296 42.0 -49.5
297 42.17 -67.0
298 42.17 -81.0
299 42.0 -83.5
300 42.0 -85.5
301 42.0 -87.5
302 42.0 -89.5
303 42.0 -91.5
304 42.0 -93.5
305 42.0 -95.5
306 42.0 -97.5
307 43.17 -34.0
308 43.0 -36.5
309 43.17 -52.0
310 43.0 -54.5
311 43.0 -56.5
312 43.0 -58.5
313 43.0 -60.5
314 43.0 -62.5
315 43.0 -64.5
316 43.17 -70.0
317 43.0 -72.5
318 43.0 -74.5
319 43.0 -76.5
320 43.0 -78.5
321 43.17 -100.0
322 43.0 -102.5
323 43.0 -104.5
324 43.0 -106.5
325 43.0 -108.5
326 43.0 -110.5
327 43.0 -112.25
328 44.0 -31.5
329 44.17 -39.0
330 44.0 -41.5
331 44.0 -43.5
332 44.0 -45.5
333 44.0 -47.5
334 44.0 -49.5
335 44.17 -67.0
336 44.17 -81.0
337 44.0 -83.5
338 44.0 -85.5
339 44.0 -87.5
340 44.0 -89.5
341 44.0 -91.5
342 44.0 -93.5
343 44.0 -95.5
344 44.0 -97.5
345 45.0 -34.0
346 45.0 -36.0
347 45.0 -52.0
348 45.0 -54.0
349 45.0 -56.0
350 45.0 -58.0
351 45.0 -60.0
352 45.0 -62.0
353 45.0 -64.0
354 45.0 -70.0
355 45.0 -72.0
356 45.0 -74.0
357 45.0 -76.0
358 45.0 -78.0
359 45.0 -100.0
360 45.0 -102.0
361 45.0 -104.0
362 45.0 -106.0
363 45.0 -108.0
364 45.0 -110.0
365 45.0 -112.0
366 46.17 -38.0
367 46.0 -40.5
368 46.0 -42.5
369 46.0 -44.5
370 46.0 -46.5
371 46.0 -48.5
372 46.0 -50.5
373 46.17 -66.0
374 46.0 -68.5
375 46.17 -80.0
376 46.0 -82.5
377 46.0 -84.5
378 46.0 -86.5
379 46.0 -88.5
380 46.0 -90.5
381 46.0 -92.5
382 46.0 -94.5
383 46.0 -96.5
384 46.0 -98.5
385 47.0 -35.5
386 47.17 -53.0
387 47.0 -55.5
388 47.0 -57.5
389 47.0 -59.5
390 47.0 -61.5
391 47.0 -63.5
392 47.17 -71.0
393 47.0 -73.5
394 47.0 -75.5
395 47.0 -77.5
396 47.17 -101.0
397 47.0 -103.5
398 47.0 -105.5
399 47.0 -107.5
400 47.0 -109.5
401 47.0 -111.5
402 46.5 -112.5
403 48.17 -38.0
404 48.0 -40.5
405 48.0 -42.5
406 48.0 -44.5
407 48.0 -46.5
408 48.0 -48.5
409 48.0 -50.5
410 48.17 -66.0
411 48.0 -68.5
412 48.17 -80.0
413 48.0 -82.5
414 48.0 -84.5
415 48.0 -86.5
416 48.0 -88.5
417 48.0 -90.5
418 48.0 -92.5
419 48.0 -94.5
420 48.0 -96.5
421 48.0 -98.5
422 49.0 -53.0
423 49.0 -55.0
424 49.0 -57.0
425 49.0 -59.0
426 49.0 -61.0
427 49.0 -63.0
428 49.0 -71.0
429 49.0 -73.0
430 49.0 -75.0
431 49.0 -77.0
432 49.0 -101.0
433 49.0 -103.0
434 49.0 -105.0
435 49.0 -107.0
436 49.0 -109.0
437 49.0 -111.0
438 48.5 -112.5
439 50.0 -37.5
440 50.0 -39.5
441 50.0 -41.5
442 50.0 -43.5
443 50.0 -45.5
444 50.0 -47.5
445 50.0 -49.5
446 50.0 -51.5
447 50.17 -65.0
448 50.0 -67.5
449 50.0 -69.5
450 50.17 -79.0
451 50.0 -81.5
452 50.0 -83.5
453 50.0 -85.5
454 50.0 -87.5
455 50.0 -89.5
456 50.0 -91.5
457 50.0 -93.5
458 50.0 -95.5
459 50.0 -97.5
460 50.0 -99.5
461 51.0 -54.0
462 51.0 -56.0
463 51.0 -58.0
464 51.0 -60.0
465 51.0 -62.0
466 51.0 -72.0
467 51.0 -74.0
468 51.0 -76.0
469 51.0 -102.0
470 51.0 -104.0
471 51.0 -106.0
472 51.0 -108.0
473 51.0 -109.75
474 52.0 -38.0
475 52.0 -40.0
476 52.0 -42.0
477 52.0 -44.0
478 52.0 -46.0
479 52.0 -48.0
480 52.0 -50.0
481 52.0 -52.0
482 52.0 -64.0
483 52.0 -66.0
484 52.0 -68.0
485 52.0 -70.0
486 52.0 -78.0
487 52.0 -80.0
488 52.0 -82.0
489 52.0 -84.0
490 52.0 -86.0
491 52.0 -88.0
492 52.0 -90.0
493 52.0 -92.0
494 52.0 -94.0
495 52.0 -96.0
496 52.0 -98.0
497 52.0 -100.0
498 53.0 -54.0
499 53.0 -56.0
500 53.0 -58.0
501 53.0 -60.0
502 53.0 -62.0
503 53.0 -72.0
504 53.0 -74.0
505 53.0 -76.0
506 53.0 -102.0
507 53.0 -103.75
508 54.0 -38.5
509 54.0 -40.5
510 54.0 -42.5
511 54.0 -44.5
512 54.0 -46.5
513 54.0 -48.5
514 54.0 -50.5
515 54.0 -52.5
516 54.17 -64.0
517 54.0 -66.5
518 54.0 -68.5
519 54.0 -70.5
520 54.17 -78.0
521 54.0 -80.5
522 54.0 -82.5
523 54.0 -84.5
524 54.0 -86.5
525 54.0 -88.5
526 54.0 -90.5
527 54.0 -92.25
528 53.5 -94.0
529 54.0 -96.5
530 54.0 -98.5
531 54.0 -100.25
532 55.0 -55.0
533 55.0 -57.0
534 55.0 -59.0
535 55.0 -61.0
536 55.0 -73.0
537 55.0 -75.0
538 56.0 -39.0
539 56.0 -41.0
540 56.0 -43.0
541 56.0 -45.0
542 56.0 -47.0
543 56.0 -49.0
544 56.0 -51.0
545 56.0 -53.0
546 56.0 -63.0
547 56.0 -65.0
548 56.0 -67.0
549 56.0 -69.0
550 56.0 -71.0
551 56.0 -77.0
552 56.0 -78.75
553 57.17 -55.0
554 57.0 -57.5
555 57.0 -59.5
556 57.0 -61.5
557 57.17 -73.0
558 57.0 -75.5
559 58.0 -40.0
560 58.0 -42.0
561 58.0 -44.0
562 58.0 -46.0
563 58.0 -48.0
564 58.0 -50.0
565 58.0 -52.0
566 58.0 -64.0
567 58.0 -66.0
568 58.0 -68.0
569 58.0 -70.0
570 58.0 -77.5
571 59.0 -54.0
572 59.0 -56.0
573 59.0 -58.0
574 59.0 -60.0
575 59.0 -62.0
576 59.0 -72.0
577 59.0 -74.0
578 59.0 -76.0
579 60.0 -40.5
580 60.0 -42.5
581 60.0 -44.5
582 60.0 -46.5
583 60.0 -48.5
584 60.0 -50.5
585 60.0 -52.5
586 60.17 -64.0
587 60.0 -66.5
588 60.0 -68.5
589 60.0 -70.5
590 60.0 -77.25
591 61.0 -55.0
592 61.0 -57.0
593 61.0 -59.0
594 61.0 -61.0
595 61.0 -73.0
596 61.0 -75.0
597 62.0 -41.0
598 62.0 -43.0
599 62.0 -45.0
600 62.0 -47.0
601 62.0 -49.0
602 62.0 -51.0
603 62.0 -53.0
604 62.0 -63.0
605 62.0 -65.0
606 62.0 -67.0
607 62.0 -69.0
608 62.0 -71.0
609 62.0 -76.5
610 63.17 -55.0
611 63.0 -57.5
612 63.0 -59.5
613 63.0 -61.5
614 63.17 -73.0
615 63.0 -75.5
616 64.0 -42.0
617 64.0 -44.0
618 64.0 -46.0
619 64.0 -48.0
620 64.0 -50.0
621 64.0 -52.0
622 64.0 -64.0
623 64.0 -66.0
624 64.0 -68.0
625 64.0 -70.0
626 65.0 -54.0
627 65.0 -56.0
628 65.0 -58.0
629 65.0 -60.0
630 65.0 -62.0
631 65.0 -72.0
632 65.0 -74.0
633 65.0 -76.0
634 65.0 -77.5
635 66.0 -42.0
636 66.0 -44.0
637 66.0 -46.0
638 66.0 -48.0
639 66.0 -50.0
640 66.0 -52.0
641 66.0 -64.0
642 66.0 -66.0
643 66.0 -68.0
644 66.0 -70.0
645 67.0 -54.0
646 67.0 -56.0
647 67.0 -58.0
648 67.0 -60.0
649 67.0 -62.0
650 67.0 -72.0
651 67.0 -74.0
652 67.0 -76.0
653 67.0 -77.75
654 68.0 -42.0
655 68.0 -44.0
656 68.0 -46.0
657 68.0 -48.0
658 68.0 -50.0
659 68.0 -52.0
660 68.0 -64.0
661 68.0 -66.0
662 68.0 -68.0
663 68.0 -70.0
664 69.0 -54.0
665 69.0 -56.0
666 69.0 -58.0
667 69.0 -60.0
668 69.0 -62.0
669 69.0 -72.0
670 69.0 -74.0
671 69.0 -76.0
672 69.0 -78.0
673 70.0 -42.0
674 70.0 -44.0
675 70.0 -46.0
676 70.0 -48.0
677 70.0 -50.0
678 70.0 -52.0
679 70.0 -64.0
680 70.0 -66.0
681 70.0 -68.0
682 70.0 -70.0
683 71.17 -54.0
684 71.0 -56.5
685 71.0 -58.5
686 71.0 -60.5
687 71.0 -62.5
688 71.17 -72.0
689 71.0 -74.5
690 71.0 -76.5
691 71.0 -78.25
692 72.0 -43.0
693 72.0 -45.0
694 72.0 -47.0
695 72.0 -49.0
696 72.0 -51.0
697 72.0 -65.0
698 72.0 -67.0
699 72.0 -69.0
700 73.0 -53.0
701 73.0 -55.0
702 73.0 -57.0
703 73.0 -59.0
704 73.0 -61.0
705 73.0 -63.0
706 73.0 -71.0
707 73.0 -73.0
708 73.0 -75.0
709 73.0 -77.0
710 74.0 -43.0
711 74.0 -45.0
712 74.0 -47.0
713 74.0 -49.0
714 74.0 -51.0
715 74.0 -65.0
716 74.0 -67.0
717 74.0 -69.0
718 75.0 -53.0
719 75.0 -55.0
720 75.0 -57.0
721 75.0 -59.0
722 75.0 -61.0
723 75.0 -63.0
724 75.0 -71.0
725 75.0 -73.0
726 75.0 -75.0
727 75.0 -76.75
728 76.0 -43.0
729 76.0 -45.0
730 76.0 -47.0
731 76.0 -49.0
732 76.0 -51.0
733 76.0 -65.0
734 76.0 -67.0
735 76.0 -69.0
736 77.0 -53.0
737 77.0 -55.0
738 77.0 -57.0
739 77.0 -59.0
740 77.0 -61.0
741 77.0 -63.0
742 77.0 -71.0
743 77.0 -73.0
744 77.0 -75.0
745 76.5 -76.5
746 78.0 -43.0
747 78.0 -45.0
748 78.0 -47.0
749 78.0 -49.0
750 78.0 -51.0
751 78.0 -65.0
752 78.0 -67.0
753 78.0 -69.0
754 79.0 -53.0
755 79.0 -55.0
756 79.0 -57.0
757 79.0 -59.0
758 79.0 -61.0
759 79.0 -63.0
760 79.0 -71.0
761 79.0 -73.0
762 79.0 -75.0
763 80.0 -43.0
764 80.0 -45.0
765 80.0 -47.0
766 80.0 -49.0
767 80.0 -51.0
768 80.0 -65.0
769 80.0 -67.0
770 80.0 -69.0
771 81.0 -53.0
772 81.0 -55.0
773 81.0 -57.0
774 81.0 -59.0
775 81.0 -61.0
776 81.0 -63.0
777 81.0 -71.0
778 81.0 -73.0
779 81.0 -75.0
780 82.0 -43.5
781 82.0 -45.5
782 82.0 -47.5
783 82.0 -49.5
784 82.0 -51.5
785 82.17 -65.0
786 82.0 -67.5
787 82.0 -69.5
788 83.0 -54.0
789 83.0 -56.0
790 83.0 -58.0
791 83.0 -60.0
792 83.0 -62.0
793 83.0 -72.0
794 83.0 -74.0
795 83.0 -75.5
796 84.0 -44.0
797 84.0 -46.0
798 84.0 -48.0
799 84.0 -50.0
800 84.0 -52.0
801 84.0 -64.0
802 84.0 -66.0
803 84.0 -68.0
804 84.0 -70.0
805 85.0 -54.0
806 85.0 -56.0
807 85.0 -58.0
808 85.0 -60.0
809 85.0 -62.0
810 85.0 -72.0
811 85.0 -74.0
812 86.0 -44.0
813 86.0 -46.0
814 86.0 -48.0
815 86.0 -50.0
816 86.0 -52.0
817 86.0 -64.0
818 86.0 -66.0
819 86.0 -68.0
820 86.0 -70.0
821 87.0 -54.0
822 87.0 -56.0
823 87.0 -58.0
824 87.0 -60.0
825 87.0 -62.0
826 87.0 -72.0
827 87.0 -74.0
828 88.0 -44.0
829 88.0 -46.0
830 88.0 -48.0
831 88.0 -50.0
832 88.0 -52.0
833 88.0 -64.0
834 88.0 -66.0
835 88.0 -68.0
836 88.0 -70.0
837 89.0 -54.0
838 89.0 -56.0
839 89.0 -58.0
840 89.0 -60.0
841 89.0 -62.0
842 89.0 -72.0
843 89.0 -74.0
844 90.0 -44.0
845 90.0 -46.0
846 90.0 -48.0
847 90.0 -50.0
848 90.0 -52.0
849 90.0 -64.0
850 90.0 -66.0
851 90.0 -68.0
852 90.0 -70.0
853 91.17 -54.0
854 91.0 -56.5
855 91.0 -58.5
856 91.0 -60.5
857 91.0 -62.5
858 91.17 -72.0
859 91.0 -74.5
860 90.5 -75.5
861 92.0 -45.0
862 92.0 -47.0
863 92.0 -49.0
864 92.0 -51.0
865 92.0 -65.0
866 92.0 -67.0
867 92.0 -69.0
868 93.0 -53.0
869 93.0 -55.0
870 93.0 -57.0
871 93.0 -59.0
872 93.0 -61.0
873 93.0 -63.0
874 93.0 -71.0
875 93.0 -73.0
876 93.0 -75.0
877 93.0 -77.0
878 94.0 -45.0
879 94.0 -47.0
880 94.0 -49.0
881 94.0 -51.0
882 94.0 -65.0
883 94.0 -67.0
884 94.0 -69.0
885 94.0 -78.75
886 95.0 -53.0
887 95.0 -55.0
888 95.0 -57.0
889 95.0 -59.0
890 95.0 -61.0
891 95.0 -63.0
892 95.0 -71.0
893 95.0 -73.0
894 95.0 -75.0
895 95.0 -77.0
896 95.0 -80.75
897 96.0 -45.0
898 96.0 -47.0
899 96.0 -49.0
900 96.0 -51.0
901 96.0 -65.0
902 96.0 -67.0
903 96.0 -69.0
904 96.0 -79.0
905 97.0 -53.0
906 97.0 -55.0
907 97.0 -57.0
908 97.0 -59.0
909 97.0 -61.0
910 97.0 -63.0
911 97.0 -71.0
912 97.0 -73.0
913 97.0 -75.0
914 97.0 -77.0
915 97.0 -81.0
916 97.0 -82.75
917 98.0 -45.0
918 98.0 -47.0
919 98.0 -49.0
920 98.0 -51.0
921 98.0 -65.0
922 98.0 -67.0
923 98.0 -69.0
924 98.0 -79.0
925 99.17 -53.0
926 99.0 -55.5
927 99.0 -57.5
928 99.0 -59.5
929 99.0 -61.5
930 99.0 -63.5
931 99.17 -71.0
932 99.0 -73.5
933 99.0 -75.5
934 99.0 -77.5
935 99.17 -81.0
936 99.0 -83.5
937 99.0 -85.0
938 100.0 -46.0
939 100.0 -48.0
940 100.0 -50.0
941 100.0 -66.0
942 100.0 -68.0
943 101.0 -52.0
944 101.0 -54.0
945 101.0 -56.0
946 101.0 -58.0
947 101.0 -60.0
948 101.0 -62.0
949 101.0 -64.0
950 101.0 -70.0
951 101.0 -72.0
952 101.0 -74.0
953 101.0 -76.0
954 101.0 -78.0
955 101.0 -80.0
956 101.0 -82.0
957 101.0 -84.0
958 101.0 -86.0
959 102.0 -46.0
960 102.0 -48.0
961 102.0 -50.0
962 102.0 -66.0
963 102.0 -68.0
964 102.0 -87.75
965 103.0 -52.0
966 103.0 -54.0
967 103.0 -56.0
968 103.0 -58.0
969 103.0 -60.0
970 103.0 -62.0
971 103.0 -64.0
972 103.0 -70.0
973 103.0 -72.0
974 103.0 -74.0
975 103.0 -76.0
976 103.0 -78.0
977 103.0 -80.0
978 103.0 -82.0
979 103.0 -84.0
980 103.0 -86.0
981 104.0 -46.0
982 104.0 -48.0
983 104.0 -50.0
984 104.0 -66.0
985 104.0 -68.0
986 104.0 -88.0
987 104.0 -89.75
988 105.0 -52.0
989 105.0 -54.0
990 105.0 -56.0
991 105.0 -58.0
992 105.0 -60.0
993 105.0 -62.0
994 105.0 -64.0
995 105.0 -70.0
996 105.0 -72.0
997 105.0 -74.0
998 105.0 -76.0
999 105.0 -78.0
1000 105.0 -80.0
1001 105.0 -82.0
1002 105.0 -84.0
1003 105.0 -86.0
1004 106.17 -46.0
1005 106.0 -48.5
1006 106.0 -50.5
1007 106.17 -66.0
1008 106.0 -68.5
1009 106.17 -88.0
1010 106.0 -90.5
1011 107.0 -53.0
1012 107.0 -55.0
1013 107.0 -57.0
1014 107.0 -59.0
1015 107.0 -61.0
1016 107.0 -63.0
1017 107.0 -71.0
1018 107.0 -73.0
1019 107.0 -75.0
1020 107.0 -77.0
1021 107.0 -79.0
1022 107.0 -81.0
1023 107.0 -83.0
1024 107.0 -85.0
1025 108.0 -45.0
1026 108.0 -47.0
1027 108.0 -49.0
1028 108.0 -51.0
1029 108.0 -65.0
1030 108.0 -67.0
1031 108.0 -69.0
1032 108.0 -87.0
1033 108.0 -89.0
1034 108.0 -91.0
1035 108.0 -92.75
1036 109.0 -53.0
1037 109.0 -55.0
1038 109.0 -57.0
1039 109.0 -59.0
1040 109.0 -61.0
1041 109.0 -63.0
1042 109.0 -71.0
1043 109.0 -73.0
1044 109.0 -75.0
1045 109.0 -77.0
1046 109.0 -79.0
1047 109.0 -81.0
1048 109.0 -83.0
1049 109.0 -85.0
1050 109.0 -108.0
1051 109.0 -109.75
1052 110.17 -45.0
1053 110.0 -47.5
1054 110.0 -49.5
1055 110.0 -51.5
1056 110.17 -65.0
1057 110.0 -67.5
1058 110.0 -69.5
1059 110.17 -87.0
1060 110.0 -89.5
1061 110.0 -91.5
1062 110.0 -93.5
1063 109.5 -94.5
1064 111.0 -54.0
1065 111.0 -56.0
1066 111.0 -58.0
1067 111.0 -60.0
1068 111.0 -62.0
1069 111.0 -72.0
1070 111.0 -74.0
1071 111.0 -76.0
1072 111.0 -78.0
1073 111.0 -80.0
1074 111.0 -82.0
1075 111.0 -84.0
1076 111.0 -96.0
1077 111.17 -107.0
1078 111.0 -109.5
1079 110.5 -110.5
1080 112.0 -44.0
1081 112.0 -46.0
1082 112.0 -48.0
1083 112.0 -49.5
1084 112.17 -64.0
1085 112.0 -66.5
1086 112.0 -68.5
1087 112.0 -70.5
1088 112.17 -86.0
1089 112.0 -88.5
1090 112.0 -90.5
1091 112.0 -92.5
1092 112.0 -94.5
1093 112.17 -98.0
1094 113.0 -55.5
1095 113.0 -57.5
1096 113.0 -59.5
1097 113.0 -61.5
1098 113.17 -73.0
1099 113.0 -75.5
1100 113.0 -77.5
1101 113.0 -79.5
1102 113.0 -81.5
1103 113.0 -83.5
1104 113.17 -101.0
1105 113.0 -103.5
1106 113.0 -105.5
1107 113.0 -107.5
1108 113.0 -109.5
1109 113.0 -111.25
1110 114.0 -43.0
1111 114.0 -45.0
1112 114.0 -47.0
1113 114.0 -48.75
1114 114.0 -64.0
1115 114.0 -66.0
1116 114.0 -68.0
1117 114.0 -70.0
1118 114.0 -86.0
1119 114.0 -88.0
1120 114.0 -90.0
1121 114.0 -92.0
1122 114.0 -94.0
1123 114.0 -96.0
1124 114.0 -98.0
1125 114.5 -58.0
1126 114.5 -60.0
1127 115.0 -62.5
1128 115.17 -72.0
1129 115.0 -74.5
1130 115.0 -76.5
1131 115.0 -78.5
1132 115.0 -80.5
1133 115.0 -82.5
1134 115.0 -84.5
1135 115.17 -100.0
1136 115.0 -102.5
1137 115.0 -104.5
1138 115.0 -106.5
1139 115.0 -108.5
1140 115.0 -110.5
1141 115.0 -112.0
1142 116.0 -43.0
1143 116.0 -45.0
1144 116.0 -47.0
1145 116.0 -65.0
1146 116.0 -67.0
1147 116.0 -69.0
1148 116.0 -87.0
1149 116.0 -89.0
1150 116.0 -91.0
1151 116.0 -93.0
1152 116.0 -95.0
1153 116.0 -97.0
1154 117.0 -71.0
1155 117.0 -73.0
1156 117.0 -75.0
1157 117.0 -77.0
1158 117.0 -79.0
1159 117.0 -81.0
1160 117.0 -83.0
1161 117.0 -85.0
1162 117.0 -99.0
1163 117.0 -101.0
1164 117.0 -103.0
1165 117.0 -105.0
1166 117.0 -107.0
1167 117.0 -109.0
1168 117.0 -111.0
1169 117.0 -112.75
1170 118.0 -42.0
1171 118.0 -44.0
1172 118.0 -45.75
1173 118.0 -87.0
1174 118.0 -89.0
1175 118.0 -91.0
1176 118.0 -93.0
1177 118.0 -95.0
1178 118.0 -97.0
1179 118.5 -75.0
1180 118.5 -77.0
1181 118.5 -79.0
1182 118.5 -81.0
1183 118.5 -83.0
1184 118.5 -85.0
1185 119.0 -99.0
1186 119.0 -101.0
1187 119.0 -103.0
1188 119.0 -105.0
1189 119.0 -107.0
1190 119.0 -109.0
1191 119.0 -111.0
1192 119.0 -113.0
1193 120.0 -41.0
1194 120.0 -43.0
1195 120.0 -45.0
1196 120.0 -87.5
1197 120.0 -89.5
1198 120.0 -91.5
1199 120.0 -93.5
1200 120.0 -95.5
1201 120.0 -97.5
1202 121.0 -100.0
1203 121.0 -102.0
1204 121.0 -104.0
1205 121.0 -106.0
1206 121.0 -108.0
1207 121.0 -110.0
1208 121.0 -112.0
1209 121.0 -113.5
1210 122.17 -41.0
1211 122.0 -43.25
1212 121.5 -44.5
1213 122.0 -90.5
1214 122.0 -92.5
1215 122.0 -94.5
1216 122.0 -96.5
1217 122.0 -98.5
1218 123.17 -101.0
1219 123.0 -103.5
1220 123.0 -105.5
1221 123.0 -107.5
1222 123.0 -109.5
1223 123.0 -111.5
1224 123.0 -113.25
1225 124.0 -40.0
1226 124.0 -42.0
1227 123.5 -43.5
1228 124.0 -92.5
1229 124.0 -94.5
1230 124.0 -96.5
1231 124.0 -98.5
1232 124.5 -101.0
1233 124.5 -103.0
1234 125.0 -105.5
1235 125.0 -107.5
1236 125.0 -109.5
1237 125.0 -111.5
1238 124.5 -112.5
1239 125.5 -41.0
