0 2 0 0
183 0
0 26 34
1 472 473
2 1051 1079
3 438 473
4 147 160
5 133 147
6 34 49
7 1212 1227
8 1195 1212
9 1237 1238
10 1224 1238
11 1227 1239
12 1154 1179
13 20 48
14 402 438
15 288 327
16 257 288
17 507 531
18 530 531
19 529 530
20 527 529
21 1209 1224
22 49 64
23 2 7
24 1 2
25 0 1
26 1225 1239
27 1236 1237
28 1235 1236
29 1231 1232
30 1234 1235
31 1229 1230
32 1230 1231
33 1182 1183
34 327 402
35 1141 1169
36 1169 1209
37 937 964
38 1076 1093
39 1063 1076
40 1035 1063
41 964 987
42 1050 1051
43 1093 1104
44 1104 1105
45 1184 1196
46 1183 1184
47 229 254
48 7 9
49 0 3
50 3 10
51 328 385
52 1094 1125
53 1127 1145
54 1193 1225
55 1233 1234
56 1232 1233
57 1196 1213
58 471 472
59 471 507
60 634 653
61 525 526
62 896 916
63 916 937
64 1109 1141
65 1079 1109
66 1010 1035
67 987 1010
68 218 229
69 10 27
70 26 27
71 64 79
72 79 106
73 231 258
74 780 812
75 439 474
76 385 439
77 1080 1110
78 1025 1080
79 282 283
80 195 218
81 16 20
82 301 302
83 300 301
84 524 525
85 523 524
86 590 609
87 609 634
88 653 672
89 672 691
90 526 527
91 303 304
92 302 303
93 885 896
94 745 762
95 828 844
96 812 828
97 763 780
98 746 763
99 728 746
100 258 289
101 289 328
102 1126 1127
103 1125 1126
104 1113 1144
105 917 959
106 1213 1228
107 1179 1180
108 1180 1181
109 1228 1229
110 1181 1182
111 48 63
112 63 78
113 230 257
114 230 255
115 255 284
116 283 284
117 304 305
118 282 305
119 281 299
120 254 281
121 299 300
122 727 745
123 15 16
124 9 15
125 673 710
126 710 728
127 1064 1094
128 981 1025
129 1146 1154
130 1145 1146
131 177 178
132 105 112
133 146 153
134 522 523
135 522 552
136 552 590
137 860 877
138 877 885
139 827 860
140 795 827
141 691 709
142 709 727
143 779 795
144 762 779
145 1050 1077
146 1077 1105
147 112 125
148 125 146
149 160 182
150 508 538
151 474 508
152 597 635
153 635 654
154 579 597
155 654 673
156 538 579
157 1083 1113
158 1110 1170
159 1170 1193
160 178 179
161 78 93
162 175 176
163 176 177
164 844 878
165 93 105
166 206 231
167 182 206
168 1144 1172
169 1172 1195
170 179 180
171 153 159
172 897 917
173 878 897
174 1055 1064
175 1055 1083
176 181 195
177 180 181
178 159 170
179 170 175
180 959 981
181 120 133
182 106 120
0
