0 2 0 0
121 0
0 842 845
1 228 260
2 837 842
3 844 845
4 811 819
5 832 843
6 712 731
7 803 811
8 795 803
9 787 795
10 772 787
11 586 603
12 26 27
13 19 27
14 290 320
15 0 1
16 26 36
17 1 4
18 136 168
19 260 261
20 261 292
21 36 49
22 48 49
23 14 31
24 5 9
25 9 14
26 30 44
27 419 442
28 488 511
29 511 532
30 532 569
31 550 586
32 530 550
33 22 24
34 21 22
35 294 295
36 295 322
37 843 844
38 819 820
39 820 832
40 319 346
41 288 319
42 291 321
43 288 291
44 371 394
45 346 371
46 394 418
47 321 345
48 345 369
49 320 368
50 368 369
51 690 712
52 665 690
53 2 5
54 2 846
55 0 846
56 4 8
57 8 13
58 107 136
59 168 228
60 31 54
61 47 48
62 24 30
63 167 197
64 129 167
65 100 129
66 292 293
67 395 419
68 603 619
69 19 20
70 20 21
71 636 665
72 620 636
73 831 837
74 825 831
75 818 825
76 13 46
77 46 47
78 227 290
79 197 227
80 44 72
81 72 100
82 802 810
83 810 818
84 689 711
85 372 395
86 418 441
87 509 531
88 510 531
89 604 620
90 569 604
91 771 786
92 740 756
93 731 740
94 756 772
95 289 293
96 289 294
97 465 488
98 442 465
99 635 650
100 619 635
101 786 802
102 730 739
103 650 664
104 322 323
105 347 372
106 323 347
107 508 509
108 508 530
109 441 464
110 464 487
111 487 510
112 739 755
113 755 763
114 763 771
115 721 730
116 711 721
117 664 677
118 677 689
119 79 107
120 54 79
0
