848 2 0 0
0 4.0 -14.25
1 5.0 -15.75
2 6.0 -12.0
3 6.0 -14.0
4 7.0 -15.75
5 8.17 -10.0
6 8.0 -12.5
7 8.0 -14.5
8 9.0 -16.0
9 10.17 -8.0
10 10.0 -10.5
11 10.0 -12.5
12 10.0 -14.5
13 11.0 -16.0
14 12.0 -6.0
15 12.0 -8.0
16 12.0 -10.0
17 12.0 -12.0
18 12.0 -14.0
19 12.0 -39.75
20 12.0 -41.75
21 12.0 -44.0
22 12.0 -46.25
23 12.17 -49.0
24 11.5 -50.5
25 13.17 -15.67
26 13.0 -33.25
27 13.17 -36.0
28 13.0 -38.5
29 13.17 -52.0
30 12.5 -53.5
31 14.0 -5.0
32 14.0 -7.0
33 14.0 -9.0
34 14.0 -11.0
35 14.0 -13.0
36 14.0 -28.25
37 14.17 -31.0
38 14.17 -41.0
39 14.0 -43.5
40 14.0 -45.5
41 14.0 -47.5
42 14.0 -49.5
43 14.17 -55.0
44 14.0 -57.0
45 15.17 -15.0
46 15.0 -17.5
47 15.0 -19.75
48 15.0 -22.25
49 15.0 -26.0
50 15.0 -34.0
51 15.0 -36.0
52 15.0 -38.0
53 15.0 -52.0
54 16.0 -4.5
55 16.0 -6.5
56 16.0 -8.5
57 16.0 -10.5
58 16.0 -12.5
59 16.17 -24.0
60 16.17 -28.0
61 16.0 -30.5
62 16.0 -32.5
63 16.17 -40.0
64 16.0 -42.5
65 16.0 -44.5
66 16.0 -46.5
67 16.0 -48.5
68 16.0 -50.5
69 16.17 -54.0
70 16.0 -56.5
71 16.0 -58.5
72 16.0 -60.0
73 17.17 -15.0
74 17.0 -17.5
75 17.0 -19.5
76 17.0 -21.5
77 17.17 -35.0
78 17.0 -37.5
79 18.0 -4.5
80 18.0 -6.5
81 18.0 -8.5
82 18.0 -10.5
83 18.0 -12.5
84 18.17 -24.0
85 18.0 -26.5
86 18.0 -28.5
87 18.0 -30.5
88 18.0 -32.5
89 18.17 -40.0
90 18.0 -42.5
91 18.0 -44.5
92 18.0 -46.5
93 18.0 -48.5
94 18.0 -50.5
95 18.0 -52.5
96 18.0 -54.5
97 18.0 -56.5
98 18.0 -58.5
99 18.0 -60.5
100 18.0 -62.5
101 19.17 -15.0
102 19.0 -17.5
103 19.0 -19.5
104 19.0 -21.5
105 19.17 -35.0
106 19.0 -37.5
107 20.0 -4.5
108 20.0 -6.5
109 20.0 -8.5
110 20.0 -10.5
111 20.0 -12.5
112 20.17 -24.0
113 20.0 -26.5
114 20.0 -28.5
115 20.0 -30.5
116 20.0 -32.5
117 20.17 -40.0
118 20.0 -42.5
119 20.0 -44.5
120 20.0 -46.5
121 20.0 -48.5
122 20.0 -50.5
123 20.0 -52.5
124 20.0 -54.5
125 20.0 -56.5
126 20.0 -58.5
127 20.0 -60.5
128 20.0 -62.5
129 20.0 -64.25
130 21.0 -15.0
131 21.0 -17.0
132 21.0 -19.0
133 21.0 -21.0
134 21.0 -35.0
135 21.0 -37.0
136 22.0 -5.0
137 22.0 -7.0
138 22.0 -9.0
139 22.0 -11.0
140 22.0 -13.0
141 22.0 -23.0
142 22.0 -25.0
143 22.0 -27.0
144 22.0 -29.0
145 22.0 -31.0
146 22.0 -33.0
147 22.0 -39.0
148 22.0 -41.0
149 22.0 -43.0
150 22.0 -45.0
151 22.0 -47.0
152 22.0 -49.0
153 22.0 -51.0
154 22.0 -53.0
155 22.0 -55.0
156 22.0 -57.0
157 22.0 -59.0
158 22.0 -61.0
159 22.0 -63.0
160 22.0 -65.0
161 23.0 -15.0
162 23.0 -17.0
163 23.0 -19.0
164 23.0 -21.0
165 23.0 -35.0
166 23.0 -37.0
167 23.0 -66.5
168 24.0 -5.5
169 24.0 -7.5
170 24.0 -9.5
171 24.0 -11.5
172 24.0 -13.5
173 24.17 -23.0
174 24.0 -25.5
175 24.0 -27.5
176 24.0 -29.5
177 24.0 -31.5
178 24.0 -33.5
179 24.17 -39.0
180 24.0 -41.5
181 24.0 -43.5
182 24.0 -45.5
183 24.0 -47.5
184 24.0 -49.5
185 24.0 -51.5
186 24.0 -53.5
187 24.0 -55.5
188 24.0 -57.5
189 24.0 -59.5
190 24.0 -61.5
191 24.0 -63.5
192 24.0 -65.5
193 25.0 -16.0
194 25.0 -18.0
195 25.0 -20.0
196 25.0 -36.0
197 25.0 -67.5
198 26.0 -6.5
199 26.0 -8.5
200 26.0 -10.5
201 26.0 -12.5
202 26.0 -14.5
203 26.17 -22.0
204 26.0 -24.5
205 26.0 -26.5
206 26.0 -28.5
207 26.0 -30.5
208 26.0 -32.5
209 26.0 -34.5
210 26.17 -38.0
211 26.0 -40.5
212 26.0 -42.5
213 26.0 -44.5
214 26.0 -46.5
215 26.0 -48.5
216 26.0 -50.5
217 26.0 -52.5
218 26.0 -54.5
219 26.0 -56.5
220 26.0 -58.5
221 26.0 -60.5
222 26.0 -62.5
223 26.0 -64.5
224 26.0 -66.5
225 27.0 -17.0
226 27.0 -19.0
227 27.0 -68.5
228 27.5 -7.0
229 28.0 -9.0
230 28.0 -11.0
231 28.0 -13.0
232 28.0 -15.0
233 28.0 -21.0
234 28.0 -23.0
235 28.0 -25.0
236 28.0 -27.0
237 28.0 -29.0
238 28.0 -31.0
239 28.0 -33.0
240 28.0 -35.0
241 28.0 -37.0
242 28.0 -39.0
243 28.0 -41.0
244 28.0 -43.0
245 28.0 -45.0
246 28.0 -47.0
247 28.0 -49.0
248 28.0 -51.0
249 28.0 -53.0
250 28.0 -55.0
251 28.0 -57.0
252 28.0 -59.0
253 28.0 -61.0
254 28.0 -63.0
255 28.0 -65.0
256 28.0 -67.0
257 29.0 -17.0
258 29.0 -19.0
259 29.0 -68.75
260 29.5 -9.0
261 30.0 -11.5
262 30.0 -13.5
263 30.0 -15.5
264 30.17 -21.0
265 30.0 -23.5
266 30.0 -25.5
267 30.0 -27.5
268 30.0 -29.5
269 30.0 -31.5
270 30.0 -33.5
271 30.0 -35.5
272 30.0 -37.5
273 30.0 -39.5
274 30.0 -41.5
275 30.0 -43.5
276 30.0 -45.5
277 30.0 -47.5
278 30.0 -49.5
279 30.0 -51.5
280 30.0 -53.5
281 30.0 -55.5
282 30.0 -57.5
283 30.0 -59.5
284 30.0 -61.5
285 30.0 -63.5
286 30.0 -65.5
287 30.0 -67.5
288 30.0 -83.5
289 31.0 -18.0
290 31.0 -69.75
291 31.0 -82.0
292 31.5 -13.0
293 31.5 -15.0
294 31.5 -20.0
295 32.0 -22.5
296 32.0 -24.5
297 32.0 -26.5
298 32.0 -28.5
299 32.0 -30.5
300 32.0 -32.5
301 32.0 -34.5
302 32.0 -36.5
303 32.0 -38.5
304 32.0 -40.5
305 32.0 -42.5
306 32.0 -44.5
307 32.0 -46.5
308 32.0 -48.5
309 32.0 -50.5
310 32.0 -52.5
311 32.0 -54.5
312 32.0 -56.5
313 32.0 -58.5
314 32.0 -60.5
315 32.0 -62.5
316 32.0 -64.5
317 32.0 -66.5
318 32.0 -68.5
319 32.0 -83.25
320 33.17 -70.67
321 33.17 -81.0
322 33.5 -26.0
323 34.0 -28.5
324 34.0 -30.5
325 34.0 -32.5
326 34.0 -34.5
327 34.0 -36.5
328 34.0 -38.5
329 34.0 -40.5
330 34.0 -42.5
331 34.0 -44.5
332 34.0 -46.5
333 34.0 -48.5
334 34.0 -50.5
335 34.0 -52.5
336 34.0 -54.5
337 34.0 -56.5
338 34.0 -58.5
339 34.0 -60.5
340 34.0 -62.5
341 34.0 -64.5
342 34.0 -66.5
343 34.0 -68.5
344 35.17 -70.67
345 35.17 -80.0
346 34.5 -82.0
347 35.5 -30.0
348 36.0 -32.0
349 36.0 -34.0
350 36.0 -36.0
351 36.0 -38.0
352 36.0 -40.0
353 36.0 -42.0
354 36.0 -44.0
355 36.0 -46.0
356 36.0 -48.0
357 36.0 -50.0
358 36.0 -52.0
359 36.0 -54.0
360 36.0 -56.0
361 36.0 -58.0
362 36.0 -60.0
363 36.0 -62.0
364 36.0 -64.0
365 36.0 -66.0
366 36.0 -68.0
367 37.17 -70.0
368 37.0 -72.5
369 37.0 -76.75
370 37.0 -79.0
371 37.0 -81.0
372 38.0 -33.5
373 38.0 -35.5
374 38.0 -37.5
375 38.0 -39.5
376 38.0 -41.5
377 38.0 -43.5
378 38.0 -45.5
379 38.0 -47.5
380 38.0 -49.5
381 38.0 -51.5
382 38.0 -53.5
383 38.0 -55.5
384 38.0 -57.5
385 38.0 -59.5
386 38.0 -61.5
387 38.0 -63.5
388 38.0 -65.5
389 38.0 -67.5
390 39.0 -70.0
391 39.0 -72.0
392 39.0 -78.0
393 39.0 -80.0
394 39.0 -81.5
395 40.0 -36.0
396 40.0 -38.0
397 40.0 -40.0
398 40.0 -42.0
399 40.0 -44.0
400 40.0 -46.0
401 40.0 -48.0
402 40.0 -50.0
403 40.0 -52.0
404 40.0 -54.0
405 40.0 -56.0
406 40.0 -58.0
407 40.0 -60.0
408 40.0 -62.0
409 40.0 -64.0
410 40.0 -66.0
411 40.0 -68.0
412 40.0 -74.0
413 40.0 -76.0
414 41.17 -70.0
415 41.0 -72.5
416 41.17 -78.0
417 41.0 -80.5
418 40.5 -81.5
419 42.0 -37.0
420 42.0 -39.0
421 42.0 -41.0
422 42.0 -43.0
423 42.0 -45.0
424 42.0 -47.0
425 42.0 -49.0
426 42.0 -51.0
427 42.0 -53.0
428 42.0 -55.0
429 42.0 -57.0
430 42.0 -59.0
431 42.0 -61.0
432 42.0 -63.0
433 42.0 -65.0
434 42.0 -67.0
435 42.0 -75.0
436 43.17 -69.0
437 43.0 -71.5
438 43.0 -73.5
439 43.17 -77.0
440 43.0 -79.5
441 43.0 -81.5
442 44.0 -38.0
443 44.0 -40.0
444 44.0 -42.0
445 44.0 -44.0
446 44.0 -46.0
447 44.0 -48.0
448 44.0 -50.0
449 44.0 -52.0
450 44.0 -54.0
451 44.0 -56.0
452 44.0 -58.0
453 44.0 -60.0
454 44.0 -62.0
455 44.0 -64.0
456 44.0 -66.0
457 45.17 -68.0
458 45.0 -70.5
459 45.0 -72.5
460 45.0 -74.5
461 45.0 -76.5
462 45.0 -78.5
463 45.0 -80.5
464 45.0 -82.0
465 46.0 -39.0
466 46.0 -41.0
467 46.0 -43.0
468 46.0 -45.0
469 46.0 -47.0
470 46.0 -49.0
471 46.0 -51.0
472 46.0 -53.0
473 46.0 -55.0
474 46.0 -57.0
475 46.0 -59.0
476 46.0 -61.0
477 46.0 -63.0
478 46.0 -65.0
479 47.17 -67.0
480 47.0 -69.5
481 47.0 -71.5
482 47.0 -73.5
483 47.0 -75.5
484 47.0 -77.5
485 47.0 -79.5
486 47.0 -81.5
487 46.5 -82.5
488 48.0 -40.0
489 48.0 -42.0
490 48.0 -44.0
491 48.0 -46.0
492 48.0 -48.0
493 48.0 -50.0
494 48.0 -52.0
495 48.0 -54.0
496 48.0 -56.0
497 48.0 -58.0
498 48.0 -60.0
499 48.0 -62.0
500 48.0 -64.0
501 49.17 -66.0
502 49.0 -68.5
503 49.0 -70.5
504 49.0 -72.5
505 49.0 -74.5
506 49.0 -76.5
507 49.0 -78.5
508 48.5 -80.0
509 49.0 -82.5
510 48.5 -83.5
511 50.0 -41.0
512 50.0 -43.0
513 50.0 -45.0
514 50.0 -47.0
515 50.0 -49.0
516 50.0 -51.0
517 50.0 -53.0
518 50.0 -55.0
519 50.0 -57.0
520 50.0 -59.0
521 50.0 -61.0
522 50.0 -63.0
523 51.17 -65.0
524 51.0 -67.5
525 51.0 -69.5
526 51.0 -71.5
527 51.0 -73.5
528 51.0 -75.5
529 51.0 -77.5
530 50.5 -79.0
531 50.5 -83.5
532 52.0 -42.0
533 52.0 -44.0
534 52.0 -46.0
535 52.0 -48.0
536 52.0 -50.0
537 52.0 -52.0
538 52.0 -54.0
539 52.0 -56.0
540 52.0 -58.0
541 52.0 -60.0
542 52.0 -62.0
543 53.17 -64.0
544 53.0 -66.5
545 53.0 -68.5
546 53.0 -70.5
547 53.0 -72.5
548 53.0 -74.5
549 53.0 -76.5
550 53.0 -78.25
551 54.0 -43.0
552 54.0 -45.0
553 54.0 -47.0
554 54.0 -49.0
555 54.0 -51.0
556 54.0 -53.0
557 54.0 -55.0
558 54.0 -57.0
559 54.0 -59.0
560 54.0 -61.0
561 55.0 -63.0
562 55.0 -65.0
563 55.0 -67.0
564 55.0 -69.0
565 55.0 -71.0
566 55.0 -73.0
567 55.0 -75.0
568 55.0 -77.0
569 56.0 -43.5
570 56.0 -45.5
571 56.0 -47.5
572 56.0 -49.5
573 56.0 -51.5
574 56.0 -53.5
575 56.0 -55.5
576 56.0 -57.5
577 56.0 -59.5
578 56.0 -61.5
579 57.17 -64.0
580 57.0 -66.5
581 57.0 -68.5
582 57.0 -70.5
583 57.0 -72.5
584 57.0 -74.5
585 57.0 -76.25
586 56.5 -77.5
587 58.0 -45.0
588 58.0 -47.0
589 58.0 -49.0
590 58.0 -51.0
591 58.0 -53.0
592 58.0 -55.0
593 58.0 -57.0
594 58.0 -59.0
595 58.0 -61.0
596 59.0 -63.0
597 59.0 -65.0
598 59.0 -67.0
599 59.0 -69.0
600 59.0 -71.0
601 59.0 -73.0
602 59.0 -75.0
603 59.0 -76.5
604 60.0 -45.5
605 60.0 -47.5
606 60.0 -49.5
607 60.0 -51.5
608 60.0 -53.5
609 60.0 -55.5
610 60.0 -57.5
611 60.0 -59.5
612 60.0 -61.5
613 61.0 -64.0
614 61.0 -66.0
615 61.0 -68.0
616 61.0 -70.0
617 61.0 -72.0
618 61.0 -74.0
619 61.0 -75.5
620 62.0 -46.0
621 62.0 -48.0
622 62.0 -50.0
623 62.0 -52.0
624 62.0 -54.0
625 62.0 -56.0
626 62.0 -58.0
627 62.0 -60.0
628 62.0 -62.0
629 63.17 -64.0
630 63.0 -66.5
631 63.0 -68.5
632 63.0 -70.5
633 63.0 -72.5
634 63.0 -74.5
635 62.5 -75.5
636 64.0 -47.0
637 64.0 -49.0
638 64.0 -51.0
639 64.0 -53.0
640 64.0 -55.0
641 64.0 -57.0
642 64.0 -59.0
643 64.0 -61.0
644 65.17 -63.0
645 65.0 -65.5
646 65.0 -67.5
647 65.0 -69.5
648 65.0 -71.5
649 65.0 -73.5
650 64.5 -75.0
651 66.0 -48.0
652 66.0 -50.0
653 66.0 -52.0
654 66.0 -54.0
655 66.0 -56.0
656 66.0 -58.0
657 66.0 -60.0
658 67.0 -62.0
659 67.0 -64.0
660 67.0 -66.0
661 67.0 -68.0
662 67.0 -70.0
663 67.0 -72.0
664 67.0 -73.75
665 68.0 -48.5
666 68.0 -50.5
667 68.0 -52.5
668 68.0 -54.5
669 68.0 -56.5
670 68.0 -58.5
671 68.0 -60.5
672 69.17 -63.0
673 69.0 -65.5
674 69.0 -67.5
675 69.0 -69.5
676 69.0 -71.5
677 68.5 -73.0
678 70.0 -50.0
679 70.0 -52.0
680 70.0 -54.0
681 70.0 -56.0
682 70.0 -58.0
683 70.0 -60.0
684 71.0 -62.0
685 71.0 -64.0
686 71.0 -66.0
687 71.0 -68.0
688 71.0 -70.0
689 71.0 -71.75
690 72.0 -50.5
691 72.0 -52.5
692 72.0 -54.5
693 72.0 -56.5
694 72.0 -58.5
695 72.0 -60.5
696 73.17 -63.0
697 73.0 -65.5
698 73.0 -67.5
699 73.0 -69.5
700 72.5 -71.0
701 74.0 -52.0
702 74.0 -54.0
703 74.0 -56.0
704 74.0 -58.0
705 74.0 -60.0
706 75.0 -62.0
707 75.0 -64.0
708 75.0 -66.0
709 75.0 -68.0
710 75.0 -70.0
711 74.5 -71.5
712 76.0 -52.0
713 76.0 -54.0
714 76.0 -56.0
715 76.0 -58.0
716 76.0 -60.0
717 77.17 -62.0
718 77.0 -64.5
719 77.0 -66.5
720 77.0 -68.5
721 76.5 -69.5
722 78.0 -53.0
723 78.0 -55.0
724 78.0 -57.0
725 78.0 -59.0
726 79.0 -61.0
727 79.0 -63.0
728 79.0 -65.0
729 79.0 -67.0
730 79.0 -69.0
731 80.0 -53.0
732 80.0 -55.0
733 80.0 -57.0
734 80.0 -59.0
735 81.17 -61.0
736 81.0 -63.5
737 81.0 -65.5
738 81.0 -67.5
739 81.0 -69.25
740 82.0 -54.0
741 82.0 -56.0
742 82.0 -58.0
743 83.0 -60.0
744 83.0 -62.0
745 83.0 -64.0
746 83.0 -66.0
747 83.0 -68.0
748 84.0 -54.5
749 84.0 -56.5
750 84.0 -58.5
751 85.17 -61.0
752 85.0 -63.5
753 85.0 -65.5
754 85.0 -67.5
755 84.5 -68.5
756 86.0 -54.5
757 86.0 -56.5
758 86.0 -58.5
759 87.0 -61.0
760 87.0 -63.0
761 87.0 -65.0
762 87.0 -67.0
763 87.0 -68.5
764 88.0 -55.0
765 88.0 -57.0
766 88.0 -59.0
767 89.0 -61.0
768 89.0 -63.0
769 89.0 -65.0
770 89.0 -67.0
771 89.0 -68.5
772 90.0 -55.0
773 90.0 -57.0
774 90.0 -59.0
775 91.17 -61.0
776 91.0 -63.5
777 91.0 -65.5
778 91.0 -67.5
779 90.5 -68.5
780 92.17 -56.0
781 92.0 -58.5
782 93.17 -61.0
783 93.0 -63.5
784 93.0 -65.5
785 93.0 -67.5
786 93.0 -69.25
787 94.0 -56.0
788 94.0 -58.0
789 95.0 -60.0
790 95.0 -62.0
791 95.0 -64.0
792 95.0 -66.0
793 95.0 -68.0
794 95.0 -69.75
795 96.0 -56.5
796 96.0 -58.5
797 97.0 -61.0
798 97.0 -63.0
799 97.0 -65.0
800 97.0 -67.0
801 97.0 -69.0
802 97.0 -70.5
803 98.0 -57.0
804 98.0 -59.0
805 99.0 -61.0
806 99.0 -63.0
807 99.0 -65.0
808 99.0 -67.0
809 99.0 -69.0
810 99.0 -71.0
811 100.0 -57.5
812 100.0 -59.5
813 101.17 -62.0
814 101.0 -64.5
815 101.0 -66.5
816 101.0 -68.5
817 101.0 -70.5
818 101.0 -72.0
819 102.0 -59.5
820 103.17 -62.0
821 103.0 -64.5
822 103.0 -66.5
823 103.0 -68.5
824 103.0 -70.5
825 103.0 -72.25
826 105.0 -63.5
827 105.0 -65.5
828 105.0 -67.5
829 105.0 -69.5
830 105.0 -71.5
831 105.0 -73.0
832 107.0 -64.0
833 107.0 -66.0
834 107.0 -68.0
835 107.0 -70.0
836 107.0 -72.0
837 106.5 -73.5
838 109.0 -65.5
839 109.0 -67.5
840 109.0 -69.5
841 109.0 -71.25
842 108.5 -72.5
843 110.5 -66.0
844 111.0 -67.75
845 110.5 -70.0
846 4.93 -13.04
847 37.75 -74.28
