0 2 0 0
123 0
0 24 36
1 17 24
2 77 101
3 843 847
4 847 856
5 378 413
6 344 378
7 137 173
8 101 137
9 857 861
10 861 862
11 654 692
12 825 826
13 799 812
14 767 769
15 812 825
16 835 843
17 51 69
18 191 193
19 188 191
20 188 192
21 36 62
22 62 77
23 11 17
24 860 862
25 851 857
26 775 790
27 498 540
28 479 521
29 413 479
30 803 816
31 677 723
32 764 765
33 765 766
34 766 767
35 743 748
36 208 235
37 193 208
38 198 214
39 192 198
40 7 11
41 173 195
42 195 217
43 217 253
44 18 26
45 38 51
46 26 38
47 829 844
48 844 851
49 855 856
50 854 855
51 854 860
52 784 798
53 798 813
54 713 719
55 816 826
56 824 835
57 763 764
58 770 785
59 785 799
60 235 260
61 5 7
62 3 5
63 2 3
64 253 311
65 311 344
66 0 4
67 4 6
68 818 829
69 790 818
70 754 775
71 783 797
72 797 824
73 426 498
74 617 654
75 579 617
76 801 813
77 787 803
78 784 801
79 723 751
80 751 787
81 736 737
82 737 763
83 712 713
84 711 712
85 260 290
86 102 120
87 69 102
88 0 2
89 746 769
90 12 18
91 6 12
92 753 783
93 725 753
94 719 749
95 749 770
96 214 236
97 273 290
98 261 273
99 710 711
100 710 743
101 726 754
102 692 726
103 324 357
104 263 324
105 391 426
106 540 579
107 691 736
108 690 691
109 690 725
110 602 677
111 521 602
112 236 263
113 357 391
114 209 220
115 120 138
116 138 156
117 156 189
118 189 209
119 220 240
120 240 261
121 747 748
122 746 747
1
0 784 798
