1162 2 0 0
0 20.0 -17.0
1 21.0 -18.5
2 22.17 -17.0
3 24.0 -15.0
4 24.0 -17.0
5 24.0 -18.5
6 25.0 -13.0
7 26.0 -15.0
8 26.0 -17.0
9 26.0 -18.5
10 27.0 -13.0
11 28.0 -15.0
12 28.0 -17.0
13 28.0 -18.5
14 29.0 -11.0
15 29.0 -13.0
16 30.0 -9.0
17 30.0 -15.0
18 30.0 -17.0
19 30.0 -18.5
20 31.0 -11.0
21 31.0 -13.0
22 32.17 -7.0
23 32.0 -9.5
24 32.17 -15.0
25 32.0 -17.5
26 31.5 -18.5
27 33.17 -12.0
28 34.0 -5.0
29 34.0 -7.0
30 34.0 -9.0
31 34.0 -15.0
32 34.0 -17.0
33 34.0 -18.5
34 34.17 -61.0
35 34.0 -63.5
36 34.0 -65.5
37 34.0 -67.5
38 34.0 -69.5
39 34.0 -71.5
40 34.0 -73.5
41 34.0 -75.5
42 34.0 -77.5
43 34.0 -79.5
44 34.0 -81.5
45 34.0 -83.5
46 34.0 -85.5
47 35.0 -11.0
48 35.0 -13.0
49 36.0 -5.0
50 36.0 -7.0
51 36.0 -9.0
52 36.0 -15.0
53 36.0 -17.0
54 36.0 -19.0
55 36.0 -56.0
56 36.0 -58.0
57 36.0 -60.0
58 36.0 -62.0
59 36.0 -64.0
60 36.0 -66.0
61 36.0 -68.0
62 36.0 -70.0
63 36.0 -72.0
64 36.0 -74.0
65 36.0 -76.0
66 36.0 -78.0
67 36.0 -80.0
68 36.0 -82.0
69 36.0 -84.0
70 36.0 -86.0
71 36.0 -88.0
72 36.0 -89.75
73 37.0 -11.0
74 37.0 -13.0
75 37.17 -52.0
76 37.0 -54.5
77 37.17 -92.0
78 36.5 -93.5
79 38.0 -5.0
80 38.0 -7.0
81 38.0 -9.0
82 38.0 -15.0
83 38.0 -17.0
84 38.0 -19.0
85 38.0 -49.0
86 38.0 -57.0
87 38.0 -59.0
88 38.0 -61.0
89 38.0 -63.0
90 38.0 -65.0
91 38.0 -67.0
92 38.0 -69.0
93 38.0 -71.0
94 38.0 -73.0
95 38.0 -75.0
96 38.0 -77.0
97 38.0 -79.0
98 38.0 -81.0
99 38.0 -83.0
100 38.0 -85.0
101 38.0 -87.0
102 38.0 -89.0
103 39.0 -11.0
104 39.0 -13.0
105 39.0 -47.0
106 39.0 -51.0
107 39.0 -53.0
108 39.0 -55.0
109 39.0 -91.0
110 39.0 -93.0
111 39.0 -95.0
112 39.0 -96.75
113 40.0 -5.0
114 40.0 -7.0
115 40.0 -9.0
116 40.0 -15.0
117 40.0 -17.0
118 40.0 -19.0
119 40.0 -43.0
120 40.0 -45.0
121 40.0 -49.0
122 40.0 -57.0
123 40.0 -59.0
124 40.0 -61.0
125 40.0 -63.0
126 40.0 -65.0
127 40.0 -67.0
128 40.0 -69.0
129 40.0 -71.0
130 40.0 -73.0
131 40.0 -75.0
132 40.0 -77.0
133 40.0 -79.0
134 40.0 -81.0
135 40.0 -83.0
136 40.0 -85.0
137 40.0 -87.0
138 40.0 -89.0
139 40.0 -98.75
140 41.0 -11.0
141 41.0 -13.0
142 41.0 -20.5
143 41.17 -39.0
144 41.0 -41.5
145 41.17 -47.0
146 41.17 -51.0
147 41.0 -53.5
148 41.0 -55.5
149 41.17 -91.0
150 41.0 -93.5
151 41.0 -95.5
152 41.0 -97.5
153 42.0 -5.0
154 42.0 -7.0
155 42.0 -9.0
156 42.0 -15.0
157 42.0 -17.0
158 42.0 -19.0
159 42.17 -36.0
160 42.17 -44.0
161 42.17 -58.0
162 42.0 -60.5
163 42.0 -62.5
164 42.0 -64.5
165 42.0 -66.5
166 42.0 -68.5
167 42.0 -70.5
168 42.0 -72.5
169 42.0 -74.5
170 42.0 -76.5
171 42.0 -78.5
172 42.0 -80.5
173 42.0 -82.5
174 42.0 -84.5
175 42.0 -86.5
176 42.0 -88.5
177 42.17 -100.0
178 41.5 -101.5
179 43.0 -11.0
180 43.0 -13.0
181 43.0 -21.0
182 43.0 -23.0
183 43.0 -25.0
184 43.0 -27.0
185 43.0 -29.0
186 43.0 -31.0
187 43.0 -33.0
188 43.0 -39.0
189 43.0 -41.0
190 43.0 -47.0
191 43.0 -49.0
192 43.0 -51.0
193 43.0 -53.0
194 43.0 -55.0
195 43.0 -91.0
196 43.0 -93.0
197 43.0 -95.0
198 43.0 -97.0
199 44.0 -7.0
200 44.0 -9.0
201 44.0 -15.0
202 44.0 -17.0
203 44.0 -19.0
204 44.0 -35.0
205 44.0 -37.0
206 44.0 -43.0
207 44.0 -45.0
208 44.0 -57.0
209 44.0 -59.0
210 44.0 -61.0
211 44.0 -63.0
212 44.0 -65.0
213 44.0 -67.0
214 44.0 -69.0
215 44.0 -71.0
216 44.0 -73.0
217 44.0 -75.0
218 44.0 -77.0
219 44.0 -79.0
220 44.0 -81.0
221 44.0 -83.0
222 44.0 -85.0
223 44.0 -87.0
224 44.0 -89.0
225 44.0 -99.0
226 44.0 -101.0
227 44.0 -103.0
228 44.0 -104.75
229 45.17 -11.0
230 45.0 -13.5
231 45.17 -21.0
232 45.0 -23.5
233 45.0 -25.5
234 45.0 -27.5
235 45.0 -29.5
236 45.0 -31.5
237 45.0 -33.5
238 45.17 -39.0
239 45.0 -41.5
240 45.17 -47.0
241 45.0 -49.5
242 45.0 -51.5
243 45.0 -53.5
244 45.0 -55.5
245 45.17 -91.0
246 45.0 -93.5
247 45.0 -95.5
248 45.0 -97.5
249 46.0 -8.0
250 46.0 -16.0
251 46.0 -18.0
252 46.0 -36.0
253 46.0 -44.0
254 46.0 -58.0
255 46.0 -60.0
256 46.0 -62.0
257 46.0 -64.0
258 46.0 -66.0
259 46.0 -68.0
260 46.0 -70.0
261 46.0 -72.0
262 46.0 -74.0
263 46.0 -76.0
264 46.0 -78.0
265 46.0 -80.0
266 46.0 -82.0
267 46.0 -84.0
268 46.0 -86.0
269 46.0 -88.0
270 46.0 -100.0
271 46.0 -102.0
272 46.0 -104.0
273 46.0 -105.75
274 47.17 -10.0
275 47.0 -12.5
276 47.0 -14.5
277 47.17 -20.0
278 47.0 -22.5
279 47.0 -24.5
280 47.0 -26.5
281 47.0 -28.5
282 47.0 -30.5
283 47.0 -32.5
284 47.0 -34.5
285 47.17 -38.0
286 47.0 -40.5
287 47.0 -42.5
288 47.17 -46.0
289 47.0 -48.5
290 47.0 -50.5
291 47.0 -52.5
292 47.0 -54.5
293 47.0 -56.5
294 47.17 -90.0
295 47.0 -92.5
296 47.0 -94.5
297 47.0 -96.5
298 47.0 -98.5
299 48.0 -17.0
300 48.0 -59.0
301 48.0 -61.0
302 48.0 -63.0
303 48.0 -65.0
304 48.0 -67.0
305 48.0 -69.0
306 48.0 -71.0
307 48.0 -73.0
308 48.0 -75.0
309 48.0 -77.0
310 48.0 -79.0
311 48.0 -81.0
312 48.0 -83.0
313 48.0 -85.0
314 48.0 -87.0
315 48.0 -101.0
316 48.0 -103.0
317 48.0 -105.0
318 48.0 -107.0
319 49.0 -11.5
320 49.0 -13.5
321 49.0 -15.5
322 49.17 -19.0
323 49.0 -21.5
324 49.0 -23.5
325 49.0 -25.5
326 49.0 -27.5
327 49.0 -29.5
328 49.0 -31.5
329 49.0 -33.5
330 49.0 -35.5
331 49.0 -37.5
332 49.0 -39.5
333 49.0 -41.5
334 49.0 -43.5
335 49.0 -45.5
336 49.0 -47.5
337 49.0 -49.5
338 49.0 -51.5
339 49.0 -53.5
340 49.0 -55.5
341 49.0 -57.5
342 49.17 -89.0
343 49.0 -91.5
344 49.0 -93.5
345 49.0 -95.5
346 49.0 -97.5
347 49.0 -99.5
348 49.17 -108.67
349 50.0 -60.0
350 50.0 -62.0
351 50.0 -64.0
352 50.0 -66.0
353 50.0 -68.0
354 50.0 -70.0
355 50.0 -72.0
356 50.0 -74.0
357 50.0 -76.0
358 50.0 -78.0
359 50.0 -80.0
360 50.0 -82.0
361 50.0 -84.0
362 50.0 -86.0
363 50.0 -102.0
364 50.0 -104.0
365 50.0 -106.0
366 50.5 -14.0
367 50.5 -16.0
368 50.5 -18.0
369 51.0 -20.5
370 51.0 -22.5
371 51.0 -24.5
372 51.0 -26.5
373 51.0 -28.5
374 51.0 -30.5
375 51.0 -32.5
376 51.0 -34.5
377 51.0 -36.25
378 50.5 -38.0
379 50.5 -40.0
380 50.5 -42.0
381 50.5 -44.0
382 50.5 -46.0
383 50.5 -48.0
384 50.5 -50.0
385 50.5 -52.0
386 50.5 -54.0
387 50.5 -56.0
388 51.0 -58.5
389 51.17 -88.0
390 51.0 -90.5
391 51.0 -92.5
392 51.0 -94.5
393 51.0 -96.5
394 51.0 -98.5
395 51.0 -100.5
396 51.17 -108.0
397 50.5 -109.5
398 51.0 -138.0
399 51.0 -139.75
400 52.17 -61.0
401 52.0 -63.5
402 52.0 -65.5
403 52.0 -67.5
404 52.0 -69.5
405 52.0 -71.5
406 52.0 -73.5
407 52.0 -75.5
408 52.0 -77.5
409 52.0 -79.5
410 52.0 -81.5
411 52.0 -83.5
412 52.0 -85.5
413 52.17 -103.0
414 52.0 -105.5
415 53.17 -88.0
416 53.0 -90.5
417 53.0 -92.5
418 53.0 -94.5
419 53.0 -96.5
420 53.0 -98.5
421 53.0 -100.5
422 53.17 -108.0
423 53.0 -110.25
424 53.0 -138.0
425 53.0 -139.75
426 53.5 -61.0
427 54.0 -63.0
428 54.0 -65.0
429 54.0 -67.0
430 54.0 -69.0
431 54.0 -71.0
432 54.0 -73.0
433 54.0 -75.0
434 54.0 -77.0
435 54.0 -79.0
436 54.0 -81.0
437 54.0 -83.0
438 54.0 -85.0
439 54.0 -103.0
440 54.0 -105.0
441 55.17 -87.0
442 55.0 -89.5
443 55.0 -91.5
444 55.0 -93.5
445 55.0 -95.5
446 55.0 -97.5
447 55.0 -99.5
448 55.0 -101.5
449 55.17 -107.0
450 55.0 -109.5
451 55.0 -111.25
452 55.0 -138.0
453 55.0 -139.5
454 56.0 -64.0
455 56.0 -66.0
456 56.0 -68.0
457 56.0 -70.0
458 56.0 -72.0
459 56.0 -74.0
460 56.0 -76.0
461 56.0 -78.0
462 56.0 -80.0
463 56.0 -82.0
464 56.0 -84.0
465 56.0 -104.0
466 57.17 -86.0
467 57.0 -88.5
468 57.0 -90.5
469 57.0 -92.5
470 57.0 -94.5
471 57.0 -96.5
472 57.0 -98.5
473 57.0 -100.5
474 57.0 -102.5
475 57.17 -106.0
476 57.0 -108.5
477 57.0 -110.5
478 57.0 -112.25
479 57.0 -138.0
480 57.0 -139.5
481 58.0 -65.5
482 58.0 -67.5
483 58.0 -69.5
484 58.0 -71.5
485 58.0 -73.5
486 58.0 -75.5
487 58.0 -77.5
488 58.0 -79.5
489 58.0 -81.5
490 58.0 -83.5
491 59.0 -86.0
492 59.0 -88.0
493 59.0 -90.0
494 59.0 -92.0
495 59.0 -94.0
496 59.0 -96.0
497 59.0 -98.0
498 59.0 -100.0
499 59.0 -102.0
500 59.0 -104.0
501 59.0 -106.0
502 59.0 -108.0
503 59.0 -110.0
504 59.0 -112.0
505 59.17 -138.0
506 58.5 -139.5
507 60.0 -66.0
508 60.0 -68.0
509 60.0 -70.0
510 60.0 -72.0
511 60.0 -74.0
512 60.0 -76.0
513 60.0 -78.0
514 60.0 -80.0
515 60.0 -82.0
516 60.0 -84.0
517 61.0 -86.0
518 61.0 -88.0
519 61.0 -90.0
520 61.0 -92.0
521 61.0 -94.0
522 61.0 -96.0
523 61.0 -98.0
524 61.0 -100.0
525 61.0 -102.0
526 61.0 -104.0
527 61.0 -106.0
528 61.0 -108.0
529 61.0 -110.0
530 61.0 -112.0
531 61.0 -114.0
532 61.0 -116.0
533 61.0 -118.0
534 61.0 -120.0
535 61.0 -122.0
536 61.0 -124.0
537 61.0 -125.75
538 61.0 -137.0
539 61.0 -139.0
540 62.0 -66.0
541 62.0 -68.0
542 62.0 -70.0
543 62.0 -72.0
544 62.0 -74.0
545 62.0 -76.0
546 62.0 -78.0
547 62.0 -80.0
548 62.0 -82.0
549 62.0 -84.0
550 62.0 -128.0
551 62.0 -129.75
552 63.0 -86.0
553 63.0 -88.0
554 63.0 -90.0
555 63.0 -92.0
556 63.0 -94.0
557 63.0 -96.0
558 63.0 -98.0
559 63.0 -100.0
560 63.0 -102.0
561 63.0 -104.0
562 63.0 -106.0
563 63.0 -108.0
564 63.0 -110.0
565 63.0 -112.0
566 63.0 -114.0
567 63.0 -116.0
568 62.5 -118.0
569 62.5 -120.0
570 62.5 -122.0
571 63.0 -124.0
572 63.0 -126.0
573 63.0 -131.75
574 63.17 -135.0
575 63.0 -137.25
576 62.5 -138.5
577 64.0 -66.0
578 64.0 -68.0
579 64.0 -70.0
580 64.0 -72.0
581 64.0 -74.0
582 64.0 -76.0
583 64.0 -78.0
584 64.0 -80.0
585 64.0 -82.0
586 64.0 -84.0
587 64.0 -128.0
588 64.0 -130.0
589 65.0 -86.0
590 65.0 -88.0
591 65.0 -90.0
592 65.0 -92.0
593 65.0 -94.0
594 65.0 -96.0
595 65.0 -98.0
596 65.0 -100.0
597 65.0 -102.0
598 65.0 -104.0
599 65.0 -106.0
600 65.0 -108.0
601 65.0 -110.0
602 65.0 -112.0
603 65.0 -114.0
604 64.5 -116.0
605 65.17 -132.0
606 65.0 -134.5
607 65.0 -136.5
608 65.0 -138.25
609 66.0 -66.0
610 66.0 -68.0
611 66.0 -70.0
612 66.0 -72.0
613 66.0 -74.0
614 66.0 -76.0
615 66.0 -78.0
616 66.0 -80.0
617 66.0 -82.0
618 66.0 -84.0
619 67.0 -86.0
620 67.0 -88.0
621 67.0 -90.0
622 67.0 -92.0
623 67.0 -94.0
624 67.0 -96.0
625 67.0 -98.0
626 67.0 -100.0
627 67.0 -102.0
628 67.0 -104.0
629 67.0 -106.0
630 67.0 -108.0
631 67.0 -110.0
632 67.0 -112.0
633 67.0 -113.75
634 66.5 -134.0
635 66.5 -136.0
636 66.5 -138.0
637 68.0 -66.0
638 68.0 -68.0
639 68.0 -70.0
640 68.0 -72.0
641 68.0 -74.0
642 68.0 -76.0
643 68.0 -78.0
644 68.0 -80.0
645 68.0 -82.0
646 68.0 -84.0
647 69.17 -86.0
648 69.0 -88.5
649 69.0 -90.5
650 69.0 -92.5
651 69.0 -94.5
652 69.0 -96.5
653 69.0 -98.5
654 69.0 -100.5
655 69.0 -102.5
656 69.0 -104.5
657 69.0 -106.5
658 69.0 -108.5
659 69.0 -110.5
660 69.0 -112.5
661 68.5 -113.5
662 70.0 -67.0
663 70.0 -69.0
664 70.0 -71.0
665 70.0 -73.0
666 70.0 -75.0
667 70.0 -77.0
668 70.0 -79.0
669 70.0 -81.0
670 70.0 -83.0
671 71.0 -85.0
672 71.0 -87.0
673 71.0 -89.0
674 71.0 -91.0
675 71.0 -93.0
676 71.0 -95.0
677 71.0 -97.0
678 71.0 -99.0
679 71.0 -101.0
680 71.0 -103.0
681 71.0 -105.0
682 71.0 -107.0
683 71.0 -109.0
684 71.0 -111.0
685 71.0 -113.0
686 72.0 -67.5
687 72.0 -69.5
688 72.0 -71.5
689 72.0 -73.5
690 72.0 -75.5
691 72.0 -77.5
692 72.0 -79.5
693 72.0 -81.5
694 72.0 -83.5
695 73.0 -86.0
696 73.0 -88.0
697 73.0 -90.0
698 73.0 -92.0
699 73.0 -94.0
700 73.0 -96.0
701 73.0 -98.0
702 73.0 -100.0
703 73.0 -102.0
704 73.0 -104.0
705 73.0 -106.0
706 73.0 -108.0
707 73.0 -110.0
708 73.0 -112.0
709 72.5 -113.5
710 74.0 -68.0
711 74.0 -70.0
712 74.0 -72.0
713 74.0 -74.0
714 74.0 -76.0
715 74.0 -78.0
716 74.0 -80.0
717 74.0 -82.0
718 74.0 -84.0
719 75.0 -86.0
720 75.0 -88.0
721 75.0 -90.0
722 75.0 -92.0
723 75.0 -94.0
724 75.0 -96.0
725 75.0 -98.0
726 75.0 -100.0
727 75.0 -102.0
728 75.0 -104.0
729 75.0 -106.0
730 75.0 -108.0
731 75.0 -110.0
732 75.0 -112.0
733 75.0 -138.0
734 75.0 -139.75
735 76.0 -68.0
736 76.0 -70.0
737 76.0 -72.0
738 76.0 -74.0
739 76.0 -76.0
740 76.0 -78.0
741 76.0 -80.0
742 76.0 -82.0
743 76.0 -84.0
744 77.17 -86.0
745 77.0 -88.5
746 77.0 -90.5
747 77.0 -92.5
748 77.0 -94.5
749 77.0 -96.5
750 77.0 -98.5
751 77.0 -100.5
752 77.0 -102.5
753 77.0 -104.5
754 77.0 -106.5
755 77.0 -108.5
756 77.0 -110.5
757 77.0 -112.5
758 77.0 -138.0
759 77.0 -140.0
760 77.0 -141.5
761 78.0 -69.0
762 78.0 -71.0
763 78.0 -73.0
764 78.0 -75.0
765 78.0 -77.0
766 78.0 -79.0
767 78.0 -81.0
768 78.0 -83.0
769 79.17 -85.0
770 79.0 -87.5
771 79.0 -89.5
772 79.0 -91.5
773 79.0 -93.5
774 79.0 -95.5
775 79.0 -97.5
776 79.0 -99.5
777 79.0 -101.5
778 79.0 -103.5
779 79.0 -105.5
780 79.0 -107.5
781 79.0 -109.5
782 79.0 -111.5
783 79.0 -113.25
784 79.0 -138.0
785 79.0 -140.0
786 79.0 -141.5
787 80.0 -70.0
788 80.0 -72.0
789 80.0 -74.0
790 80.0 -76.0
791 80.0 -78.0
792 80.0 -80.0
793 80.0 -82.0
794 81.0 -84.0
795 81.0 -86.0
796 81.0 -88.0
797 81.0 -90.0
798 81.0 -92.0
799 81.0 -94.0
800 81.0 -96.0
801 81.0 -98.0
802 81.0 -100.0
803 81.0 -102.0
804 81.0 -104.0
805 81.0 -106.0
806 81.0 -108.0
807 81.0 -110.0
808 81.0 -112.0
809 81.0 -113.5
810 81.17 -138.0
811 81.0 -140.25
812 82.0 -70.5
813 82.0 -72.5
814 82.0 -74.5
815 82.0 -76.5
816 82.0 -78.5
817 82.0 -80.5
818 82.0 -82.5
819 83.17 -85.0
820 83.0 -87.5
821 83.0 -89.5
822 83.0 -91.5
823 83.0 -93.5
824 83.0 -95.5
825 83.0 -97.5
826 83.0 -99.5
827 83.0 -101.5
828 83.0 -103.5
829 83.0 -105.5
830 83.0 -107.5
831 83.0 -109.5
832 83.0 -111.5
833 83.0 -113.5
834 83.0 -137.0
835 83.0 -139.0
836 83.0 -140.5
837 84.0 -72.0
838 84.0 -74.0
839 84.0 -76.0
840 84.0 -78.0
841 84.0 -80.0
842 84.0 -82.0
843 85.0 -84.0
844 85.0 -86.0
845 85.0 -88.0
846 85.0 -90.0
847 85.0 -92.0
848 85.0 -94.0
849 85.0 -96.0
850 85.0 -98.0
851 85.0 -100.0
852 85.0 -102.0
853 85.0 -104.0
854 85.0 -106.0
855 85.0 -108.0
856 85.0 -110.0
857 85.0 -112.0
858 85.0 -114.0
859 85.0 -116.0
860 85.0 -136.0
861 85.0 -138.0
862 85.0 -140.0
863 86.0 -72.5
864 86.0 -74.5
865 86.0 -76.5
866 86.0 -78.5
867 86.0 -80.5
868 86.0 -82.5
869 86.17 -118.0
870 86.0 -120.5
871 87.0 -85.0
872 87.0 -87.0
873 87.0 -89.0
874 87.0 -91.0
875 87.0 -93.0
876 87.0 -95.0
877 87.0 -97.0
878 87.0 -99.0
879 87.0 -101.0
880 87.0 -103.0
881 87.0 -105.0
882 87.0 -107.0
883 87.0 -109.0
884 87.0 -111.0
885 87.0 -113.0
886 87.0 -115.0
887 87.0 -123.0
888 87.0 -125.0
889 87.0 -127.0
890 87.0 -129.0
891 87.0 -131.0
892 87.0 -133.0
893 87.0 -135.0
894 87.0 -137.0
895 87.0 -139.0
896 87.0 -140.5
897 88.0 -73.5
898 88.0 -75.5
899 88.0 -77.5
900 88.0 -79.5
901 88.0 -81.5
902 88.0 -83.5
903 88.17 -116.83
904 87.5 -119.0
905 88.0 -121.5
906 89.0 -86.0
907 89.0 -88.0
908 89.0 -90.0
909 89.0 -92.0
910 89.0 -94.0
911 89.0 -96.0
912 89.0 -98.0
913 89.0 -100.0
914 89.0 -102.0
915 89.0 -104.0
916 89.0 -106.0
917 89.0 -108.0
918 89.0 -110.0
919 89.0 -112.0
920 88.5 -114.0
921 89.0 -124.0
922 89.0 -126.0
923 89.0 -128.0
924 89.0 -130.0
925 89.0 -132.0
926 89.0 -134.0
927 89.0 -136.0
928 89.0 -138.0
929 89.0 -140.0
930 90.0 -74.5
931 90.0 -76.5
932 90.0 -78.5
933 90.0 -80.5
934 90.0 -82.5
935 90.0 -84.5
936 91.0 -87.0
937 91.0 -89.0
938 91.0 -91.0
939 91.0 -93.0
940 91.0 -95.0
941 91.0 -97.0
942 91.0 -99.0
943 91.0 -101.0
944 91.0 -103.0
945 91.0 -105.0
946 91.0 -107.0
947 91.0 -109.0
948 91.0 -111.0
949 91.0 -112.5
950 90.5 -137.0
951 90.5 -138.5
952 92.0 -75.5
953 92.0 -77.5
954 92.0 -79.5
955 92.0 -81.5
956 92.0 -83.5
957 92.0 -85.5
958 93.0 -88.0
959 93.0 -90.0
960 93.0 -92.0
961 93.0 -94.0
962 93.0 -96.0
963 93.0 -98.0
964 93.0 -100.0
965 93.0 -102.0
966 93.0 -104.0
967 93.0 -106.0
968 93.0 -108.0
969 93.0 -110.0
970 93.0 -111.75
971 94.0 -76.5
972 94.0 -78.5
973 94.0 -80.5
974 94.0 -82.5
975 94.0 -84.5
976 94.0 -86.5
977 95.17 -89.0
978 95.0 -91.5
979 95.0 -93.5
980 95.0 -95.5
981 95.0 -97.5
982 95.0 -99.5
983 95.0 -101.5
984 95.0 -103.5
985 95.0 -105.5
986 95.0 -107.5
987 95.0 -109.5
988 95.0 -111.25
989 96.0 -78.5
990 96.0 -80.5
991 96.0 -82.5
992 96.0 -84.5
993 96.0 -86.5
994 97.0 -89.0
995 97.0 -91.0
996 97.0 -93.0
997 97.0 -95.0
998 97.0 -97.0
999 97.0 -99.0
1000 97.0 -101.0
1001 97.0 -103.0
1002 97.0 -105.0
1003 97.0 -107.0
1004 97.0 -109.0
1005 97.0 -110.5
1006 98.0 -79.5
1007 98.0 -81.5
1008 98.0 -83.5
1009 98.0 -85.5
1010 98.0 -87.5
1011 99.17 -90.0
1012 99.0 -92.5
1013 99.0 -94.5
1014 99.0 -96.5
1015 99.0 -98.5
1016 99.0 -100.5
1017 99.0 -102.5
1018 99.0 -104.5
1019 99.0 -106.5
1020 99.0 -108.5
1021 99.0 -110.25
1022 100.0 -81.5
1023 100.0 -83.5
1024 100.0 -85.5
1025 100.0 -87.5
1026 101.0 -90.0
1027 101.0 -92.0
1028 101.0 -94.0
1029 101.0 -96.0
1030 101.0 -98.0
1031 101.0 -100.0
1032 101.0 -102.0
1033 101.0 -104.0
1034 101.0 -106.0
1035 101.0 -108.0
1036 101.0 -110.0
1037 102.0 -82.5
1038 102.0 -84.5
1039 102.0 -86.5
1040 102.0 -88.5
1041 103.0 -91.0
1042 103.0 -93.0
1043 103.0 -95.0
1044 103.0 -97.0
1045 103.0 -99.0
1046 103.0 -101.0
1047 103.0 -103.0
1048 103.0 -105.0
1049 103.0 -107.0
1050 103.0 -109.0
1051 103.0 -110.5
1052 104.0 -83.5
1053 104.0 -85.5
1054 104.0 -87.5
1055 104.0 -89.5
1056 105.17 -92.0
1057 105.0 -94.5
1058 105.0 -96.5
1059 105.0 -98.5
1060 105.0 -100.5
1061 105.0 -102.5
1062 105.0 -104.5
1063 105.0 -106.5
1064 105.0 -108.5
1065 105.0 -110.25
1066 105.5 -85.0
1067 106.0 -87.0
1068 106.0 -89.0
1069 107.0 -91.0
1070 107.0 -93.0
1071 107.0 -95.0
1072 107.0 -97.0
1073 107.0 -99.0
1074 107.0 -101.0
1075 107.0 -103.0
1076 107.0 -105.0
1077 107.0 -107.0
1078 107.0 -109.0
1079 107.0 -110.5
1080 108.0 -87.5
1081 108.0 -89.5
1082 109.17 -92.0
1083 109.0 -94.5
1084 109.0 -96.5
1085 109.0 -98.5
1086 109.0 -100.5
1087 109.0 -102.5
1088 109.0 -104.5
1089 109.0 -106.5
1090 109.0 -108.5
1091 109.0 -110.25
1092 110.0 -89.0
1093 111.17 -91.0
1094 111.0 -93.5
1095 111.0 -95.5
1096 111.0 -97.5
1097 111.0 -99.5
1098 111.0 -101.5
1099 111.0 -103.5
1100 111.0 -105.5
1101 111.0 -107.5
1102 111.0 -109.5
1103 110.5 -110.5
1104 113.0 -91.5
1105 113.0 -93.5
1106 113.0 -95.5
1107 113.0 -97.5
1108 113.0 -99.5
1109 113.0 -101.5
1110 113.0 -103.5
1111 113.0 -105.5
1112 113.0 -107.5
1113 113.0 -109.5
1114 112.5 -110.5
1115 115.0 -93.5
1116 115.0 -95.5
1117 115.0 -97.5
1118 115.0 -99.5
1119 115.0 -101.5
1120 115.0 -103.5
1121 115.0 -105.5
1122 115.0 -107.5
1123 115.0 -109.5
1124 114.5 -110.5
1125 117.0 -95.5
1126 117.0 -97.5
1127 117.0 -99.5
1128 117.0 -101.5
1129 117.0 -103.5
1130 117.0 -105.5
1131 117.0 -107.5
1132 117.0 -109.5
1133 116.5 -110.5
1134 119.0 -97.5
1135 119.0 -99.5
1136 119.0 -101.5
1137 119.0 -103.5
1138 119.0 -105.5
1139 119.0 -107.5
1140 119.0 -109.5
1141 118.5 -110.5
1142 120.5 -99.0
1143 121.0 -101.0
1144 121.0 -103.0
1145 121.0 -105.0
1146 121.0 -107.0
1147 121.0 -109.0
1148 121.0 -110.5
1149 122.5 -101.0
1150 123.0 -103.0
1151 123.0 -105.0
1152 123.0 -107.0
1153 123.0 -109.0
1154 123.0 -110.5
1155 124.5 -104.0
1156 125.0 -106.0
1157 125.0 -108.0
1158 125.0 -110.0
1159 127.0 -107.0
1160 127.0 -109.0
1161 126.5 -110.5
