0 2 0 0
199 0
0 249 319
1 319 366
2 22 28
3 1134 1142
4 1125 1134
5 383 384
6 1115 1125
7 1104 1115
8 1160 1161
9 1154 1161
10 1133 1141
11 1142 1149
12 41 42
13 398 399
14 506 539
15 399 425
16 609 637
17 153 249
18 1159 1160
19 1149 1155
20 1155 1159
21 539 576
22 576 608
23 479 538
24 348 397
25 424 452
26 379 380
27 377 379
28 374 375
29 1 5
30 0 1
31 375 376
32 376 377
33 686 735
34 637 686
35 1141 1148
36 139 178
37 112 139
38 78 112
39 178 228
40 55 56
41 34 56
42 480 506
43 425 480
44 451 478
45 532 533
46 478 531
47 531 532
48 538 574
49 573 574
50 398 424
51 75 85
52 55 75
53 34 35
54 371 372
55 14 16
56 6 14
57 16 22
58 382 383
59 971 1006
60 1092 1104
61 812 863
62 761 812
63 735 761
64 373 374
65 372 373
66 540 577
67 426 454
68 811 836
69 786 811
70 784 834
71 608 636
72 834 860
73 836 862
74 862 896
75 896 929
76 228 273
77 273 348
78 40 41
79 39 40
80 37 38
81 38 39
82 397 423
83 635 636
84 571 587
85 888 889
86 870 888
87 634 635
88 536 537
89 633 661
90 143 159
91 119 143
92 5 9
93 159 186
94 85 105
95 105 119
96 35 36
97 36 37
98 33 54
99 380 381
100 381 382
101 577 609
102 384 385
103 1006 1037
104 1037 1052
105 370 371
106 369 370
107 952 971
108 930 952
109 863 897
110 897 930
111 454 507
112 507 540
113 890 891
114 889 890
115 758 784
116 733 758
117 860 892
118 891 892
119 1021 1051
120 921 922
121 988 1021
122 1124 1133
123 1114 1124
124 1091 1103
125 1103 1114
126 1079 1091
127 757 783
128 709 757
129 783 809
130 46 72
131 72 78
132 42 43
133 43 44
134 604 633
135 605 634
136 587 605
137 533 534
138 452 479
139 537 551
140 551 573
141 183 184
142 19 26
143 26 33
144 386 387
145 385 386
146 733 734
147 734 760
148 905 921
149 926 950
150 859 870
151 569 570
152 570 571
153 568 604
154 568 569
155 534 535
156 423 451
157 535 536
158 3 6
159 0 3
160 13 19
161 9 13
162 367 369
163 366 367
164 142 183
165 84 142
166 54 84
167 185 186
168 184 185
169 388 426
170 387 388
171 1052 1066
172 1080 1092
173 1066 1080
174 1051 1065
175 1065 1079
176 922 923
177 923 924
178 970 988
179 925 926
180 924 925
181 929 951
182 950 951
183 1148 1154
184 833 859
185 809 833
186 45 46
187 44 45
188 949 970
189 903 905
190 661 685
191 685 709
192 920 949
193 903 920
194 28 49
195 113 153
196 49 79
197 79 113
198 760 786
0
