775 2 0 0
0 4.17 -66.0
1 4.0 -68.0
2 6.17 -65.0
3 6.0 -67.5
4 6.0 -69.0
5 8.17 -64.0
6 8.0 -66.5
7 8.0 -68.5
8 8.0 -70.0
9 10.0 -63.0
10 10.0 -65.0
11 10.0 -67.0
12 10.0 -69.0
13 10.0 -70.75
14 12.0 -62.0
15 12.0 -64.0
16 12.0 -66.0
17 12.0 -68.0
18 12.0 -70.0
19 12.0 -71.75
20 14.17 -62.0
21 14.0 -64.5
22 14.0 -66.5
23 14.0 -68.5
24 14.0 -70.5
25 14.0 -72.5
26 14.0 -74.0
27 16.0 -61.0
28 16.0 -63.0
29 16.0 -65.0
30 16.0 -67.0
31 16.0 -69.0
32 16.0 -71.0
33 16.0 -73.0
34 16.0 -74.75
35 18.17 -61.0
36 18.0 -63.5
37 18.0 -65.5
38 18.0 -67.5
39 18.0 -69.5
40 18.0 -71.5
41 18.0 -73.5
42 18.0 -75.5
43 20.0 -60.0
44 20.0 -62.0
45 20.0 -64.0
46 20.0 -66.0
47 20.0 -68.0
48 20.0 -70.0
49 20.0 -72.0
50 20.0 -74.0
51 20.0 -76.0
52 22.17 -60.0
53 22.0 -62.5
54 22.0 -64.5
55 22.0 -66.5
56 22.0 -68.5
57 22.0 -70.5
58 22.0 -72.5
59 22.0 -74.5
60 22.0 -76.5
61 24.0 -59.0
62 24.0 -61.0
63 24.0 -63.0
64 24.0 -65.0
65 24.0 -67.0
66 24.0 -69.0
67 24.0 -71.0
68 24.0 -73.0
69 24.0 -75.0
70 24.0 -77.0
71 25.0 -78.5
72 26.0 -59.0
73 26.0 -61.0
74 26.0 -63.0
75 26.0 -65.0
76 26.0 -67.0
77 26.0 -69.0
78 26.0 -71.0
79 26.0 -73.0
80 26.0 -75.0
81 26.0 -77.0
82 27.0 -78.75
83 28.0 -59.0
84 28.0 -61.0
85 28.0 -63.0
86 28.0 -65.0
87 28.0 -67.0
88 28.0 -69.0
89 28.0 -71.0
90 28.0 -73.0
91 28.0 -75.0
92 28.0 -77.0
93 29.0 -79.0
94 30.17 -59.0
95 30.0 -61.5
96 30.0 -63.5
97 30.0 -65.5
98 30.0 -67.5
99 30.0 -69.5
100 30.0 -71.5
101 30.0 -73.5
102 30.0 -75.5
103 30.0 -77.5
104 31.0 -80.0
105 32.0 -58.0
106 32.0 -60.0
107 32.0 -62.0
108 32.0 -64.0
109 32.0 -66.0
110 32.0 -68.0
111 32.0 -70.0
112 32.0 -72.0
113 32.0 -74.0
114 32.0 -76.0
115 32.0 -78.0
116 33.17 -79.83
117 34.0 -57.0
118 34.0 -59.0
119 34.0 -61.0
120 34.0 -63.0
121 34.0 -65.0
122 34.0 -67.0
123 34.0 -69.0
124 34.0 -71.0
125 34.0 -73.0
126 34.0 -75.0
127 34.0 -77.0
128 35.0 -79.0
129 35.0 -81.0
130 36.0 -57.0
131 36.0 -59.0
132 36.0 -61.0
133 36.0 -63.0
134 36.0 -65.0
135 36.0 -67.0
136 36.0 -69.0
137 36.0 -71.0
138 36.0 -73.0
139 36.0 -75.0
140 36.0 -77.0
141 37.0 -79.0
142 37.0 -81.0
143 38.0 -57.0
144 38.0 -59.0
145 38.0 -61.0
146 38.0 -63.0
147 38.0 -65.0
148 38.0 -67.0
149 38.0 -69.0
150 38.0 -71.0
151 38.0 -73.0
152 38.0 -75.0
153 38.0 -77.0
154 38.0 -82.5
155 39.0 -79.0
156 39.0 -81.0
157 40.0 -57.0
158 40.0 -59.0
159 40.0 -61.0
160 40.0 -63.0
161 40.0 -65.0
162 40.0 -67.0
163 40.0 -69.0
164 40.0 -71.0
165 40.0 -73.0
166 40.0 -75.0
167 40.0 -77.0
168 40.0 -82.75
169 41.17 -79.0
170 41.0 -81.5
171 42.0 -56.0
172 42.0 -58.0
173 42.0 -60.0
174 42.0 -62.0
175 42.0 -64.0
176 42.0 -66.0
177 42.0 -68.0
178 42.0 -70.0
179 42.0 -72.0
180 42.0 -74.0
181 42.0 -76.0
182 42.0 -83.75
183 43.0 -78.0
184 43.0 -80.0
185 43.0 -82.0
186 44.0 -56.0
187 44.0 -58.0
188 44.0 -60.0
189 44.0 -62.0
190 44.0 -64.0
191 44.0 -66.0
192 44.0 -68.0
193 44.0 -70.0
194 44.0 -72.0
195 44.0 -74.0
196 44.0 -76.0
197 44.0 -84.0
198 44.0 -85.75
199 45.0 -78.0
200 45.0 -80.0
201 45.0 -82.0
202 46.0 -56.0
203 46.0 -58.0
204 46.0 -60.0
205 46.0 -62.0
206 46.0 -64.0
207 46.0 -66.0
208 46.0 -68.0
209 46.0 -70.0
210 46.0 -72.0
211 46.0 -74.0
212 46.0 -76.0
213 46.0 -84.0
214 46.0 -86.0
215 46.0 -88.0
216 47.0 -78.0
217 47.0 -80.0
218 47.0 -82.0
219 47.0 -89.75
220 48.0 -56.0
221 48.0 -58.0
222 48.0 -60.0
223 48.0 -62.0
224 48.0 -64.0
225 48.0 -66.0
226 48.0 -68.0
227 48.0 -70.0
228 48.0 -72.0
229 48.0 -74.0
230 48.0 -76.0
231 48.0 -84.0
232 48.0 -86.0
233 48.0 -88.0
234 49.0 -78.0
235 49.0 -80.0
236 49.0 -82.0
237 49.0 -90.0
238 49.0 -91.75
239 50.0 -56.0
240 50.0 -58.0
241 50.0 -60.0
242 50.0 -62.0
243 50.0 -64.0
244 50.0 -66.0
245 50.0 -68.0
246 50.0 -70.0
247 50.0 -72.0
248 50.0 -74.0
249 50.0 -76.0
250 50.0 -84.0
251 50.0 -86.0
252 50.0 -88.0
253 51.0 -78.0
254 51.0 -80.0
255 51.0 -82.0
256 51.0 -90.0
257 51.0 -92.0
258 51.0 -93.75
259 52.0 -56.0
260 52.0 -58.0
261 52.0 -60.0
262 52.0 -62.0
263 52.0 -64.0
264 52.0 -66.0
265 52.0 -68.0
266 52.0 -70.0
267 52.0 -72.0
268 52.0 -74.0
269 52.0 -76.0
270 52.0 -84.0
271 52.0 -86.0
272 52.0 -88.0
273 53.0 -78.0
274 53.0 -80.0
275 53.0 -82.0
276 53.0 -90.0
277 53.0 -92.0
278 53.0 -94.0
279 53.0 -95.75
280 54.0 -56.0
281 54.0 -58.0
282 54.0 -60.0
283 54.0 -62.0
284 54.0 -64.0
285 54.0 -66.0
286 54.0 -68.0
287 54.0 -70.0
288 54.0 -72.0
289 54.0 -74.0
290 54.0 -76.0
291 54.0 -84.0
292 54.0 -86.0
293 54.0 -88.0
294 55.0 -78.0
295 55.0 -80.0
296 55.0 -82.0
297 55.0 -90.0
298 55.0 -92.0
299 55.0 -94.0
300 55.0 -96.0
301 55.0 -97.75
302 56.17 -56.0
303 56.0 -58.5
304 56.0 -60.5
305 56.0 -62.5
306 56.0 -64.5
307 56.0 -66.5
308 56.0 -68.5
309 56.0 -70.5
310 56.0 -72.5
311 56.0 -74.5
312 56.0 -76.5
313 56.17 -84.0
314 56.0 -86.5
315 56.0 -88.5
316 57.0 -79.0
317 57.0 -81.0
318 57.0 -91.0
319 57.0 -93.0
320 57.0 -95.0
321 57.0 -97.0
322 57.0 -98.75
323 58.17 -55.0
324 58.0 -57.5
325 58.0 -59.5
326 58.0 -61.5
327 58.0 -63.5
328 58.0 -65.5
329 58.0 -67.5
330 58.0 -69.5
331 58.0 -71.5
332 58.0 -73.5
333 58.0 -75.5
334 58.0 -77.5
335 58.17 -83.0
336 58.0 -85.5
337 58.0 -87.25
338 57.5 -89.0
339 59.17 -80.0
340 58.5 -91.0
341 59.0 -93.5
342 59.0 -95.5
343 59.0 -97.5
344 59.0 -99.5
345 60.0 -53.0
346 60.0 -55.0
347 60.0 -57.0
348 60.0 -59.0
349 60.0 -61.0
350 60.0 -63.0
351 60.0 -65.0
352 60.0 -67.0
353 60.0 -69.0
354 60.0 -71.0
355 60.0 -73.0
356 60.0 -75.0
357 60.0 -77.0
358 60.0 -83.0
359 60.0 -85.0
360 59.5 -86.5
361 61.17 -79.0
362 61.0 -81.5
363 60.5 -96.0
364 61.0 -98.5
365 60.5 -100.0
366 62.17 -52.0
367 62.0 -54.5
368 62.0 -56.5
369 62.0 -58.5
370 62.0 -60.5
371 62.0 -62.5
372 62.0 -64.5
373 62.0 -66.5
374 62.0 -68.5
375 62.0 -70.5
376 62.0 -72.5
377 62.0 -74.5
378 62.0 -76.5
379 62.17 -84.0
380 61.5 -85.5
381 63.0 -79.0
382 63.0 -81.0
383 64.17 -49.0
384 64.0 -51.5
385 64.0 -53.5
386 64.0 -55.5
387 64.0 -57.5
388 64.0 -59.5
389 64.0 -61.5
390 64.0 -63.5
391 64.0 -65.5
392 64.0 -67.5
393 64.0 -69.5
394 64.0 -71.5
395 64.0 -73.5
396 64.0 -75.5
397 64.0 -77.5
398 64.17 -83.0
399 64.0 -85.25
400 65.17 -80.0
401 66.17 -47.0
402 66.0 -49.5
403 66.0 -51.5
404 66.0 -53.5
405 66.0 -55.5
406 66.0 -57.5
407 66.0 -59.5
408 66.0 -61.5
409 66.0 -63.5
410 66.0 -65.5
411 66.0 -67.5
412 66.0 -69.5
413 66.0 -71.5
414 66.0 -73.5
415 66.0 -75.5
416 66.0 -77.5
417 66.17 -83.0
418 66.0 -85.25
419 67.0 -80.0
420 68.17 -46.0
421 68.0 -48.5
422 68.0 -50.5
423 68.0 -52.5
424 68.0 -54.5
425 68.0 -56.5
426 68.0 -58.5
427 68.0 -60.5
428 68.0 -62.5
429 68.0 -64.5
430 68.0 -66.5
431 68.0 -68.5
432 68.0 -70.5
433 68.0 -72.5
434 68.0 -74.5
435 68.0 -76.5
436 68.0 -78.5
437 68.17 -82.0
438 68.0 -84.25
439 69.5 -45.0
440 70.0 -47.0
441 70.0 -49.0
442 70.0 -51.0
443 70.0 -53.0
444 70.0 -55.0
445 70.0 -57.0
446 70.0 -59.0
447 70.0 -61.0
448 70.0 -63.0
449 70.0 -65.0
450 70.0 -67.0
451 70.0 -69.0
452 70.0 -71.0
453 70.0 -73.0
454 70.0 -75.0
455 70.0 -77.0
456 70.0 -79.0
457 70.0 -81.0
458 70.0 -83.0
459 69.5 -84.5
460 71.5 -51.0
461 72.0 -53.0
462 72.0 -55.0
463 72.0 -57.0
464 72.0 -59.0
465 72.0 -61.0
466 72.0 -63.0
467 72.0 -65.0
468 72.0 -67.0
469 72.0 -69.0
470 72.0 -71.0
471 72.0 -73.0
472 72.0 -75.0
473 72.0 -77.0
474 72.0 -79.0
475 72.0 -81.0
476 72.0 -83.0
477 73.5 -55.0
478 74.0 -57.0
479 74.0 -59.0
480 74.0 -61.0
481 74.0 -63.0
482 74.0 -65.0
483 74.0 -67.0
484 74.0 -69.0
485 74.0 -71.0
486 74.0 -73.0
487 74.0 -75.0
488 74.0 -77.0
489 74.0 -79.0
490 74.0 -81.0
491 74.0 -83.0
492 75.5 -58.0
493 76.0 -60.0
494 76.0 -62.0
495 76.0 -64.0
496 76.0 -66.0
497 76.0 -68.0
498 76.0 -70.0
499 76.0 -72.0
500 76.0 -74.0
501 76.0 -76.0
502 76.0 -78.0
503 76.0 -80.0
504 76.0 -82.0
505 78.0 -61.0
506 78.0 -63.0
507 78.0 -65.0
508 78.0 -67.0
509 78.0 -69.0
510 78.0 -71.0
511 78.0 -73.0
512 78.0 -75.0
513 78.0 -77.0
514 78.0 -79.0
515 78.0 -81.0
516 78.0 -82.5
517 80.0 -61.5
518 80.0 -63.5
519 80.0 -65.5
520 80.0 -67.5
521 80.0 -69.5
522 80.0 -71.5
523 80.0 -73.5
524 80.0 -75.5
525 80.0 -77.5
526 80.0 -79.5
527 80.0 -81.25
528 82.0 -62.0
529 82.0 -64.0
530 82.0 -66.0
531 82.0 -68.0
532 82.0 -70.0
533 82.0 -72.0
534 82.0 -74.0
535 82.0 -76.0
536 82.0 -78.0
537 82.0 -80.0
538 81.5 -81.5
539 84.0 -62.0
540 84.0 -64.0
541 84.0 -66.0
542 84.0 -68.0
543 84.0 -70.0
544 84.0 -72.0
545 84.0 -74.0
546 84.0 -76.0
547 84.0 -78.0
548 84.0 -80.0
549 85.0 -81.5
550 86.0 -62.5
551 86.0 -64.5
552 86.0 -66.5
553 86.0 -68.5
554 86.0 -70.5
555 86.0 -72.5
556 86.0 -74.5
557 86.0 -76.5
558 86.0 -78.5
559 86.0 -80.5
560 88.0 -63.0
561 88.0 -65.0
562 88.0 -67.0
563 88.0 -69.0
564 88.0 -71.0
565 88.0 -73.0
566 88.0 -75.0
567 88.0 -77.0
568 88.0 -79.0
569 88.0 -81.0
570 88.0 -82.75
571 90.0 -63.5
572 90.0 -65.5
573 90.0 -67.5
574 90.0 -69.5
575 90.0 -71.5
576 90.0 -73.5
577 90.0 -75.5
578 90.0 -77.5
579 90.0 -79.5
580 90.0 -81.5
581 90.0 -83.25
582 92.0 -64.0
583 92.0 -66.0
584 92.0 -68.0
585 92.0 -70.0
586 92.0 -72.0
587 92.0 -74.0
588 92.0 -76.0
589 92.0 -78.0
590 92.0 -80.0
591 91.5 -82.0
592 94.0 -64.0
593 94.0 -66.0
594 94.0 -68.0
595 94.0 -70.0
596 94.0 -72.0
597 94.0 -74.0
598 94.0 -76.0
599 94.0 -77.75
600 93.5 -79.5
601 96.0 -65.0
602 96.0 -67.0
603 96.0 -69.0
604 96.0 -71.0
605 96.0 -73.0
606 96.0 -75.0
607 96.0 -76.75
608 98.0 -65.0
609 98.0 -67.0
610 98.0 -69.0
611 98.0 -71.0
612 98.0 -73.0
613 98.0 -75.0
614 98.0 -76.5
615 100.0 -65.0
616 100.0 -67.0
617 100.0 -69.0
618 100.0 -71.0
619 100.0 -73.0
620 100.0 -75.0
621 99.5 -76.5
622 102.17 -65.0
623 102.0 -67.5
624 102.0 -69.5
625 102.0 -71.5
626 102.0 -73.5
627 102.0 -75.5
628 101.5 -76.5
629 104.0 -65.0
630 104.0 -67.0
631 104.0 -69.0
632 104.0 -71.0
633 104.0 -73.0
634 104.0 -75.0
635 104.0 -76.5
636 106.0 -67.5
637 106.0 -69.5
638 106.0 -71.5
639 106.0 -73.5
640 106.0 -75.5
641 105.5 -76.5
642 108.0 -68.5
643 108.0 -70.5
644 108.0 -72.5
645 108.0 -74.25
646 107.5 -75.5
647 110.0 -69.0
648 110.0 -71.0
649 110.0 -73.0
650 112.0 -69.0
651 112.0 -71.0
652 112.0 -73.0
653 114.0 -69.0
654 114.0 -71.0
655 114.0 -73.0
656 115.17 -74.67
657 116.17 -68.0
658 116.0 -70.5
659 116.0 -72.5
660 117.17 -75.0
661 116.5 -76.5
662 118.17 -66.0
663 118.0 -68.5
664 118.0 -70.5
665 118.0 -72.5
666 118.17 -78.0
667 119.17 -75.0
668 120.17 -64.0
669 120.0 -66.5
670 120.0 -68.5
671 120.0 -70.5
672 120.0 -72.5
673 120.17 -78.0
674 120.0 -80.5
675 121.17 -75.0
676 122.0 -62.0
677 122.0 -64.0
678 122.0 -66.0
679 122.0 -68.0
680 122.0 -70.0
681 122.0 -72.0
682 122.0 -78.0
683 122.0 -80.0
684 122.0 -82.0
685 123.17 -74.0
686 123.0 -76.5
687 123.17 -83.83
688 124.17 -61.0
689 124.0 -63.5
690 124.0 -65.5
691 124.0 -67.5
692 124.0 -69.5
693 124.0 -71.5
694 124.17 -79.0
695 124.0 -81.5
696 125.17 -74.0
697 125.0 -76.5
698 125.17 -84.0
699 125.0 -86.5
700 126.0 -59.0
701 126.0 -61.0
702 126.0 -63.0
703 126.0 -65.0
704 126.0 -67.0
705 126.0 -69.0
706 126.0 -71.0
707 126.0 -79.0
708 126.0 -81.0
709 127.17 -73.0
710 127.0 -75.5
711 127.0 -77.5
712 127.17 -83.0
713 127.0 -85.5
714 127.0 -87.5
715 126.5 -88.5
716 128.17 -58.0
717 128.0 -60.5
718 128.0 -62.5
719 128.0 -64.5
720 128.0 -66.5
721 128.0 -68.5
722 128.0 -70.5
723 128.17 -80.0
724 129.0 -72.75
725 128.5 -75.0
726 129.0 -77.0
727 129.0 -83.0
728 129.0 -85.0
729 129.0 -87.0
730 129.0 -89.0
731 130.17 -57.0
732 130.0 -59.5
733 130.0 -61.5
734 130.0 -63.5
735 130.0 -65.5
736 130.0 -67.5
737 130.0 -69.25
738 129.5 -71.0
739 129.5 -79.0
740 130.0 -81.0
741 131.0 -83.5
742 131.0 -85.5
743 131.0 -87.5
744 131.0 -89.5
745 132.17 -56.0
746 132.0 -58.5
747 132.0 -60.5
748 132.0 -62.5
749 132.0 -64.5
750 132.0 -66.25
751 131.5 -67.5
752 132.5 -87.0
753 133.0 -89.5
754 132.5 -90.5
755 134.17 -55.0
756 134.0 -57.5
757 134.0 -59.5
758 134.0 -61.5
759 133.5 -63.0
760 133.5 -64.5
761 136.0 -54.0
762 136.0 -56.0
763 136.0 -58.0
764 136.0 -59.75
765 135.5 -61.5
766 138.0 -53.0
767 138.0 -55.0
768 138.0 -57.0
769 138.0 -58.75
770 140.0 -53.0
771 140.0 -55.0
772 140.0 -56.75
773 141.5 -53.0
774 141.5 -55.0
