0 2 0 0
137 0
0 770 773
1 766 770
2 622 629
3 43 61
4 731 745
5 745 755
6 699 715
7 715 730
8 730 754
9 752 753
10 772 774
11 364 365
12 581 591
13 82 104
14 71 82
15 14 27
16 27 43
17 1 4
18 4 8
19 8 13
20 760 765
21 769 772
22 765 769
23 755 761
24 761 766
25 753 754
26 741 752
27 344 365
28 570 581
29 491 516
30 600 607
31 628 635
32 621 628
33 591 600
34 61 72
35 117 130
36 143 171
37 130 143
38 105 117
39 83 105
40 72 83
41 51 60
42 60 71
43 538 549
44 549 570
45 516 538
46 614 621
47 607 614
48 615 622
49 129 154
50 104 129
51 13 19
52 19 26
53 2 9
54 0 2
55 739 740
56 751 760
57 740 741
58 657 662
59 687 699
60 477 492
61 517 539
62 239 259
63 0 1
64 716 731
65 726 739
66 650 657
67 666 674
68 661 666
69 656 661
70 323 345
71 439 440
72 539 550
73 440 460
74 492 505
75 505 517
76 202 220
77 220 239
78 26 34
79 737 751
80 737 738
81 636 642
82 629 636
83 642 647
84 647 650
85 635 641
86 674 687
87 641 646
88 646 649
89 259 280
90 280 323
91 182 198
92 154 182
93 401 439
94 171 186
95 186 202
96 383 401
97 345 366
98 366 383
99 592 608
100 608 615
101 571 592
102 9 14
103 34 42
104 42 51
105 676 700
106 700 716
107 668 676
108 662 668
109 363 364
110 340 341
111 279 301
112 399 418
113 341 363
114 550 560
115 560 571
116 724 726
117 724 738
118 652 656
119 649 652
120 258 279
121 301 322
122 322 344
123 360 380
124 380 399
125 460 461
126 461 477
127 338 340
128 338 360
129 198 215
130 215 219
131 238 258
132 219 238
133 459 476
134 476 491
135 418 459
136 773 774
0
