1022 2 0 0
0 6.0 -51.75
1 8.0 -51.75
2 10.0 -50.0
3 10.0 -52.0
4 12.17 -50.0
5 12.0 -52.25
6 14.0 -49.0
7 14.0 -51.75
8 16.0 -48.0
9 16.0 -50.0
10 16.0 -52.0
11 18.0 -48.0
12 18.0 -50.0
13 18.0 -52.0
14 20.17 -48.0
15 20.0 -50.5
16 20.0 -52.25
17 22.0 -47.0
18 22.0 -49.0
19 22.0 -51.75
20 24.0 -47.0
21 24.0 -49.0
22 23.83 -51.5
23 25.17 -52.83
24 26.0 -46.0
25 26.0 -48.0
26 26.0 -50.0
27 27.0 -52.38
28 28.0 -45.0
29 28.0 -47.0
30 28.0 -49.0
31 29.17 -51.0
32 29.0 -53.25
33 30.0 -44.0
34 30.0 -46.0
35 30.0 -48.0
36 31.17 -42.0
37 31.17 -50.0
38 31.0 -52.5
39 31.0 -54.25
40 32.0 -39.0
41 32.0 -45.0
42 32.0 -47.0
43 33.17 -35.0
44 33.0 -37.5
45 33.17 -41.0
46 33.0 -43.5
47 33.17 -49.0
48 33.0 -51.5
49 32.83 -53.83
50 34.0 -32.0
51 34.0 -46.0
52 34.17 -55.17
53 35.17 -28.0
54 35.0 -30.5
55 35.17 -34.0
56 35.0 -36.5
57 35.0 -38.5
58 35.0 -40.5
59 35.0 -42.5
60 35.0 -44.5
61 35.17 -48.0
62 35.0 -50.5
63 35.0 -52.5
64 36.0 -55.75
65 37.0 -27.0
66 37.0 -29.0
67 37.0 -31.0
68 37.0 -33.0
69 37.0 -35.0
70 37.0 -37.0
71 37.0 -39.0
72 37.0 -41.0
73 37.0 -43.0
74 37.0 -45.0
75 37.0 -47.0
76 37.0 -49.0
77 37.0 -51.0
78 37.0 -53.0
79 38.17 -25.0
80 38.17 -55.0
81 38.0 -57.25
82 39.17 -22.0
83 39.17 -28.0
84 39.0 -30.5
85 39.0 -32.5
86 39.0 -34.5
87 39.0 -36.5
88 39.0 -38.5
89 39.0 -40.5
90 39.0 -42.5
91 39.0 -44.5
92 39.0 -46.5
93 39.0 -48.5
94 39.0 -50.5
95 39.0 -52.5
96 39.17 -69.17
97 40.0 -25.0
98 40.0 -55.0
99 40.0 -57.0
100 40.0 -59.0
101 40.17 -66.0
102 40.17 -72.0
103 40.0 -74.5
104 41.0 -21.5
105 41.0 -23.5
106 41.17 -27.0
107 41.0 -29.5
108 41.0 -31.5
109 41.0 -33.5
110 41.0 -35.5
111 41.0 -37.5
112 41.0 -39.5
113 41.0 -41.5
114 41.0 -43.5
115 41.0 -45.5
116 41.0 -47.5
117 41.0 -49.5
118 41.0 -51.5
119 41.0 -53.5
120 41.17 -61.0
121 41.0 -63.5
122 41.17 -69.0
123 41.17 -76.83
124 42.0 -56.0
125 42.0 -58.0
126 42.0 -66.0
127 42.0 -72.0
128 42.0 -74.0
129 42.17 -79.17
130 42.5 -24.0
131 42.5 -26.0
132 42.5 -28.0
133 43.0 -30.0
134 43.0 -32.0
135 43.0 -34.0
136 43.0 -36.0
137 43.0 -38.0
138 43.0 -40.0
139 43.0 -42.0
140 43.0 -44.0
141 43.0 -46.0
142 43.0 -48.0
143 43.0 -50.0
144 43.0 -52.0
145 43.0 -54.0
146 43.0 -60.0
147 43.0 -62.0
148 43.0 -64.0
149 43.0 -68.0
150 43.0 -70.0
151 43.0 -76.0
152 43.0 -82.0
153 44.0 -56.0
154 44.0 -58.0
155 44.0 -66.0
156 44.0 -72.0
157 44.0 -74.0
158 44.0 -78.0
159 44.0 -80.0
160 43.83 -84.5
161 45.0 -30.0
162 45.0 -32.0
163 45.0 -34.0
164 45.0 -36.0
165 45.0 -38.0
166 45.0 -40.0
167 45.0 -42.0
168 45.0 -44.0
169 45.0 -46.0
170 45.0 -48.0
171 45.0 -50.0
172 45.0 -52.0
173 45.0 -54.0
174 45.0 -60.0
175 45.0 -62.0
176 45.0 -64.0
177 45.0 -68.0
178 45.0 -70.0
179 45.0 -76.0
180 45.0 -82.0
181 45.0 -86.0
182 46.0 -56.0
183 46.0 -58.0
184 46.0 -66.0
185 46.0 -72.0
186 46.0 -74.0
187 46.0 -78.0
188 46.0 -80.0
189 46.0 -84.0
190 46.0 -88.0
191 47.0 -30.0
192 47.0 -32.0
193 47.0 -34.0
194 47.0 -36.0
195 47.0 -38.0
196 47.0 -40.0
197 47.0 -42.0
198 47.0 -44.0
199 47.0 -46.0
200 47.0 -48.0
201 47.0 -50.0
202 47.0 -52.0
203 47.0 -54.0
204 47.0 -60.0
205 47.0 -62.0
206 47.0 -64.0
207 47.0 -68.0
208 47.0 -70.0
209 47.0 -76.0
210 47.0 -82.0
211 47.0 -86.0
212 47.17 -90.5
213 48.0 -56.0
214 48.0 -58.0
215 48.0 -66.0
216 48.0 -72.0
217 48.0 -74.0
218 48.0 -78.0
219 48.0 -80.0
220 48.0 -84.0
221 48.0 -88.0
222 49.0 -30.0
223 49.0 -32.0
224 49.0 -34.0
225 49.0 -36.0
226 49.0 -38.0
227 49.0 -40.0
228 49.0 -42.0
229 49.0 -44.0
230 49.0 -46.0
231 49.0 -48.0
232 49.0 -50.0
233 49.0 -52.0
234 49.0 -54.0
235 49.0 -60.0
236 49.0 -62.0
237 49.0 -64.0
238 49.0 -68.0
239 49.0 -70.0
240 49.0 -76.0
241 49.0 -82.0
242 49.0 -86.0
243 49.0 -90.0
244 48.83 -92.5
245 50.0 -56.0
246 50.0 -58.0
247 50.0 -66.0
248 50.0 -72.0
249 50.0 -74.0
250 50.0 -78.0
251 50.0 -80.0
252 50.0 -84.0
253 50.0 -88.0
254 50.17 -94.5
255 51.0 -30.0
256 51.0 -32.0
257 51.0 -34.0
258 51.0 -36.0
259 51.0 -38.0
260 51.0 -40.0
261 51.0 -42.0
262 51.0 -44.0
263 51.0 -46.0
264 51.0 -48.0
265 51.0 -50.0
266 51.0 -52.0
267 51.0 -54.0
268 51.0 -60.0
269 51.0 -62.0
270 51.0 -64.0
271 51.0 -68.0
272 51.0 -70.0
273 51.0 -76.0
274 51.0 -82.0
275 51.0 -86.0
276 51.0 -90.0
277 51.0 -92.0
278 52.0 -56.0
279 52.0 -58.0
280 52.0 -66.0
281 52.0 -72.0
282 52.0 -74.0
283 52.0 -78.0
284 52.0 -80.0
285 52.0 -84.0
286 52.0 -88.0
287 52.0 -94.0
288 52.0 -96.0
289 51.83 -98.5
290 53.0 -30.0
291 53.0 -32.0
292 53.0 -34.0
293 53.0 -36.0
294 53.0 -38.0
295 53.0 -40.0
296 53.0 -42.0
297 53.0 -44.0
298 53.0 -46.0
299 53.0 -48.0
300 53.0 -50.0
301 53.0 -52.0
302 53.0 -54.0
303 53.0 -60.0
304 53.0 -62.0
305 53.0 -64.0
306 53.0 -68.0
307 53.0 -70.0
308 53.0 -76.0
309 53.0 -82.0
310 53.0 -86.0
311 53.0 -90.0
312 53.0 -92.0
313 53.17 -100.5
314 54.0 -56.0
315 54.0 -58.0
316 54.0 -66.0
317 54.0 -72.0
318 54.0 -74.0
319 54.0 -78.0
320 54.0 -80.0
321 54.0 -84.0
322 54.0 -88.0
323 54.0 -94.0
324 54.0 -96.0
325 54.0 -98.0
326 55.0 -30.0
327 55.0 -32.0
328 55.0 -34.0
329 55.0 -36.0
330 55.0 -38.0
331 55.0 -40.0
332 55.0 -42.0
333 55.0 -44.0
334 55.0 -46.0
335 55.0 -48.0
336 55.0 -50.0
337 55.0 -52.0
338 55.0 -54.0
339 55.0 -60.0
340 55.0 -62.0
341 55.0 -64.0
342 55.0 -68.0
343 55.0 -70.0
344 55.0 -76.0
345 55.0 -82.0
346 55.0 -86.0
347 55.0 -90.0
348 55.0 -92.0
349 54.83 -100.5
350 56.0 -56.0
351 56.0 -58.0
352 56.0 -66.0
353 56.0 -72.0
354 56.0 -74.0
355 56.0 -78.0
356 56.0 -80.0
357 56.0 -84.0
358 56.0 -88.0
359 56.0 -94.0
360 56.0 -96.0
361 56.0 -98.0
362 56.17 -102.5
363 57.0 -30.0
364 57.0 -32.0
365 57.0 -34.0
366 57.0 -36.0
367 57.0 -38.0
368 57.0 -40.0
369 57.0 -42.0
370 57.0 -44.0
371 57.0 -46.0
372 57.0 -48.0
373 57.0 -50.0
374 57.0 -52.0
375 57.0 -54.0
376 57.0 -60.0
377 57.0 -62.0
378 57.0 -64.0
379 57.0 -68.0
380 57.0 -70.0
381 57.0 -76.0
382 57.0 -82.0
383 57.0 -86.0
384 57.0 -90.0
385 57.0 -92.0
386 57.0 -100.0
387 58.0 -56.0
388 58.0 -58.0
389 58.0 -66.0
390 58.0 -72.0
391 58.0 -74.0
392 58.0 -78.0
393 58.0 -80.0
394 58.0 -84.0
395 58.0 -88.0
396 58.0 -94.0
397 58.0 -96.0
398 58.0 -98.0
399 57.83 -102.5
400 59.0 -30.5
401 59.0 -32.5
402 59.0 -34.5
403 59.0 -36.5
404 59.0 -38.5
405 59.0 -40.5
406 59.0 -42.5
407 59.0 -44.5
408 59.0 -46.5
409 59.0 -48.5
410 59.0 -50.5
411 59.0 -52.5
412 59.0 -54.5
413 59.17 -60.0
414 59.0 -62.5
415 59.0 -64.5
416 59.17 -68.0
417 59.0 -70.5
418 59.17 -76.0
419 59.17 -82.0
420 59.17 -86.0
421 59.17 -90.0
422 59.0 -92.5
423 59.17 -100.0
424 59.17 -104.0
425 60.17 -57.0
426 60.17 -73.0
427 60.17 -79.0
428 60.17 -95.0
429 60.0 -97.5
430 60.17 -106.83
431 61.0 -32.5
432 61.0 -34.5
433 61.0 -36.5
434 61.0 -38.5
435 61.0 -40.5
436 61.0 -42.5
437 61.0 -44.5
438 61.0 -46.5
439 61.0 -48.5
440 61.0 -50.5
441 61.0 -52.5
442 61.0 -54.5
443 61.17 -60.0
444 61.0 -62.5
445 61.0 -64.5
446 61.0 -66.5
447 61.0 -68.5
448 61.0 -70.5
449 61.17 -76.0
450 61.17 -82.0
451 61.0 -84.5
452 61.0 -86.5
453 61.0 -88.5
454 61.0 -90.5
455 61.0 -92.5
456 61.17 -100.0
457 61.0 -102.5
458 61.0 -104.5
459 62.17 -57.0
460 62.17 -73.0
461 62.17 -79.0
462 62.17 -95.0
463 62.0 -97.5
464 62.17 -107.0
465 61.83 -109.83
466 62.17 -120.0
467 62.0 -122.25
468 63.0 -34.0
469 63.0 -36.0
470 63.0 -38.0
471 63.0 -40.0
472 63.0 -42.0
473 63.0 -44.0
474 63.0 -46.0
475 63.0 -48.0
476 63.0 -50.0
477 63.0 -52.0
478 63.0 -54.0
479 63.0 -60.0
480 63.0 -62.0
481 63.0 -64.0
482 63.0 -66.0
483 63.0 -68.0
484 63.0 -70.0
485 63.0 -76.0
486 63.0 -82.0
487 63.0 -84.0
488 63.0 -86.0
489 63.0 -88.0
490 63.0 -90.0
491 63.0 -92.0
492 63.0 -100.0
493 63.0 -102.0
494 63.0 -104.0
495 63.0 -112.0
496 64.17 -56.0
497 64.0 -58.5
498 64.17 -72.0
499 64.0 -74.5
500 64.17 -78.0
501 64.0 -80.5
502 64.17 -94.0
503 64.0 -96.5
504 64.0 -98.5
505 64.17 -106.0
506 64.0 -108.5
507 64.0 -110.5
508 64.17 -114.0
509 64.0 -116.5
510 64.0 -118.5
511 64.0 -120.5
512 64.0 -122.5
513 64.0 -124.25
514 64.5 -35.0
515 65.0 -37.0
516 65.0 -39.0
517 65.0 -41.0
518 65.0 -43.0
519 65.0 -45.0
520 65.0 -47.0
521 65.0 -49.0
522 65.0 -51.0
523 65.0 -53.0
524 65.0 -61.0
525 65.0 -63.0
526 65.0 -65.0
527 65.0 -67.0
528 65.0 -69.0
529 65.0 -83.0
530 65.0 -85.0
531 65.0 -87.0
532 65.0 -89.0
533 65.0 -91.0
534 65.0 -101.0
535 65.0 -103.0
536 66.0 -55.0
537 66.0 -57.0
538 66.0 -59.0
539 66.0 -71.0
540 66.0 -73.0
541 66.0 -75.0
542 66.0 -77.0
543 66.0 -79.0
544 66.0 -81.0
545 66.0 -93.0
546 66.0 -95.0
547 66.0 -97.0
548 66.0 -99.0
549 66.0 -105.0
550 66.0 -107.0
551 66.0 -109.0
552 66.0 -111.0
553 66.0 -113.0
554 66.0 -115.0
555 66.0 -117.0
556 66.0 -119.0
557 66.0 -121.0
558 65.83 -123.5
559 66.5 -41.0
560 67.0 -43.5
561 67.0 -45.5
562 67.0 -47.5
563 67.0 -49.5
564 67.0 -51.5
565 67.0 -53.5
566 67.17 -61.0
567 67.0 -63.5
568 67.0 -65.5
569 67.0 -67.5
570 67.0 -69.5
571 67.17 -83.0
572 67.0 -85.5
573 67.0 -87.5
574 67.0 -89.5
575 67.0 -91.5
576 67.17 -101.0
577 67.0 -103.5
578 67.17 -124.83
579 67.5 -56.0
580 67.5 -58.0
581 68.0 -72.0
582 68.0 -74.0
583 68.0 -76.0
584 68.0 -78.0
585 68.0 -80.0
586 68.0 -94.0
587 68.0 -96.0
588 68.0 -98.0
589 68.0 -106.0
590 68.0 -108.0
591 68.0 -110.0
592 68.0 -112.0
593 68.0 -114.0
594 68.0 -116.0
595 68.0 -118.0
596 68.0 -120.0
597 68.0 -122.0
598 69.0 -62.5
599 69.0 -64.5
600 69.0 -66.5
601 69.0 -68.5
602 69.0 -70.5
603 69.17 -82.0
604 69.0 -84.5
605 69.0 -86.5
606 69.0 -88.5
607 69.0 -90.5
608 69.0 -92.5
609 69.17 -100.0
610 69.0 -102.5
611 69.0 -104.5
612 69.17 -124.0
613 69.0 -126.5
614 69.0 -128.5
615 69.0 -130.5
616 70.0 -73.0
617 70.0 -75.0
618 70.0 -77.0
619 70.0 -79.0
620 70.0 -95.0
621 70.0 -97.0
622 70.0 -107.0
623 70.0 -109.0
624 70.0 -111.0
625 70.0 -113.0
626 70.0 -115.0
627 70.0 -117.0
628 70.0 -119.5
629 69.5 -121.0
630 71.0 -63.5
631 71.0 -65.5
632 71.0 -67.5
633 71.0 -69.5
634 71.0 -71.5
635 71.17 -81.0
636 71.0 -83.5
637 71.0 -85.5
638 71.0 -87.5
639 71.0 -89.5
640 71.0 -91.5
641 71.0 -93.5
642 71.17 -99.0
643 71.0 -101.5
644 71.0 -103.5
645 71.0 -105.5
646 70.5 -129.0
647 70.5 -131.0
648 72.0 -74.0
649 72.0 -76.0
650 72.0 -78.0
651 72.0 -96.0
652 72.0 -108.0
653 72.0 -110.0
654 72.0 -112.0
655 72.0 -114.0
656 71.83 -116.5
657 73.0 -64.5
658 73.0 -66.5
659 73.0 -68.5
660 73.0 -70.5
661 73.0 -72.5
662 73.17 -80.0
663 73.0 -82.5
664 73.0 -84.5
665 73.0 -86.5
666 73.0 -88.5
667 73.0 -90.5
668 73.0 -92.5
669 73.0 -94.5
670 73.17 -98.0
671 73.0 -100.5
672 73.0 -102.5
673 73.0 -104.5
674 73.0 -106.5
675 74.17 -75.0
676 74.0 -77.5
677 74.17 -109.0
678 74.0 -111.5
679 74.0 -113.5
680 74.0 -115.25
681 75.0 -66.5
682 75.0 -68.5
683 75.0 -70.5
684 75.0 -72.5
685 75.17 -80.0
686 75.0 -82.5
687 75.0 -84.5
688 75.0 -86.5
689 75.0 -88.5
690 75.0 -90.5
691 75.0 -92.5
692 75.0 -94.5
693 75.0 -96.5
694 75.0 -98.5
695 75.0 -100.5
696 75.0 -102.5
697 75.0 -104.5
698 75.0 -106.5
699 76.17 -75.0
700 76.0 -77.5
701 76.17 -109.0
702 76.0 -111.5
703 76.0 -113.5
704 75.5 -115.0
705 77.0 -68.5
706 77.0 -70.5
707 77.0 -72.5
708 77.17 -80.0
709 77.0 -82.5
710 77.0 -84.5
711 77.0 -86.5
712 77.0 -88.5
713 77.0 -90.5
714 77.0 -92.5
715 77.0 -94.5
716 77.0 -96.5
717 77.0 -98.5
718 77.0 -100.5
719 77.0 -102.5
720 77.0 -104.5
721 77.0 -106.5
722 78.0 -75.0
723 78.0 -77.0
724 78.0 -109.0
725 78.17 -111.5
726 77.5 -113.0
727 79.0 -69.5
728 79.0 -71.5
729 79.0 -73.5
730 79.17 -79.0
731 79.0 -81.5
732 79.0 -83.5
733 79.0 -85.5
734 79.0 -87.5
735 79.0 -89.5
736 79.0 -91.5
737 79.0 -93.5
738 79.0 -95.5
739 79.0 -97.5
740 79.0 -99.5
741 79.0 -101.5
742 79.0 -103.5
743 79.0 -105.5
744 79.0 -107.5
745 80.17 -76.0
746 80.17 -110.0
747 79.5 -112.0
748 81.0 -71.0
749 81.0 -73.0
750 81.0 -79.0
751 81.0 -81.0
752 81.0 -83.0
753 81.0 -85.0
754 81.0 -87.0
755 81.0 -89.0
756 81.0 -91.0
757 81.0 -93.0
758 81.0 -95.0
759 81.0 -97.0
760 81.0 -99.0
761 81.0 -101.0
762 81.0 -103.0
763 81.0 -105.0
764 81.0 -107.0
765 82.17 -75.0
766 82.0 -77.5
767 82.17 -109.0
768 82.0 -111.25
769 82.5 -72.0
770 83.0 -80.0
771 83.0 -82.0
772 83.0 -84.0
773 83.0 -86.0
774 83.0 -88.0
775 83.0 -90.0
776 83.0 -92.0
777 83.0 -94.0
778 83.0 -96.0
779 83.0 -98.0
780 83.0 -100.0
781 83.0 -102.0
782 83.0 -104.0
783 83.0 -106.0
784 84.0 -74.5
785 84.0 -76.5
786 84.0 -78.5
787 84.17 -108.0
788 83.83 -110.83
789 85.17 -81.0
790 85.0 -83.5
791 85.0 -85.5
792 85.0 -87.5
793 85.0 -89.5
794 85.0 -91.5
795 85.0 -93.5
796 85.0 -95.5
797 85.0 -97.5
798 85.0 -99.5
799 85.0 -101.5
800 85.0 -103.5
801 85.0 -105.5
802 85.5 -76.0
803 86.0 -78.0
804 86.0 -108.0
805 85.83 -110.5
806 87.0 -80.0
807 87.0 -82.0
808 87.0 -84.0
809 87.0 -86.0
810 87.0 -88.0
811 87.0 -90.0
812 87.0 -92.0
813 87.0 -94.0
814 87.0 -96.0
815 87.0 -98.0
816 87.0 -100.0
817 87.0 -102.0
818 87.0 -104.0
819 87.0 -106.0
820 88.0 -78.0
821 88.0 -108.0
822 88.0 -110.0
823 89.17 -80.0
824 89.0 -82.5
825 89.0 -84.5
826 89.0 -86.5
827 89.0 -88.5
828 89.0 -90.5
829 89.0 -92.5
830 89.0 -94.5
831 89.0 -96.5
832 89.0 -98.5
833 89.0 -100.5
834 89.0 -102.5
835 89.0 -104.5
836 89.0 -106.5
837 90.0 -109.75
838 91.0 -81.0
839 91.0 -83.0
840 91.0 -85.0
841 91.0 -87.0
842 91.0 -89.0
843 91.0 -91.0
844 91.0 -93.0
845 91.0 -95.0
846 91.0 -97.0
847 91.0 -99.0
848 91.0 -101.0
849 91.0 -103.0
850 91.0 -105.0
851 91.0 -107.0
852 92.0 -109.38
853 92.5 -82.0
854 93.0 -84.0
855 93.0 -86.0
856 93.0 -88.0
857 93.0 -90.0
858 93.0 -92.0
859 93.0 -94.0
860 93.0 -96.0
861 93.0 -98.0
862 93.0 -100.0
863 93.0 -102.0
864 93.0 -104.0
865 93.0 -106.0
866 94.17 -108.0
867 94.0 -110.25
868 95.0 -85.5
869 95.0 -87.5
870 95.0 -89.5
871 95.0 -91.5
872 95.0 -93.5
873 95.0 -95.5
874 95.0 -97.5
875 95.0 -99.5
876 95.0 -101.5
877 95.0 -103.5
878 95.0 -105.5
879 96.17 -108.0
880 96.0 -110.25
881 97.0 -87.5
882 97.0 -89.5
883 97.0 -91.5
884 97.0 -93.5
885 97.0 -95.5
886 97.0 -97.5
887 97.0 -99.5
888 97.0 -101.5
889 97.0 -103.5
890 97.0 -105.5
891 98.0 -108.0
892 98.0 -110.0
893 98.5 -88.0
894 99.0 -90.0
895 99.0 -92.0
896 99.0 -94.0
897 99.0 -96.0
898 99.0 -98.0
899 99.0 -100.0
900 99.0 -102.0
901 99.0 -104.0
902 99.0 -106.0
903 100.0 -108.0
904 100.0 -110.0
905 101.0 -92.5
906 101.0 -94.5
907 101.0 -96.5
908 101.0 -98.5
909 101.0 -100.5
910 101.0 -102.5
911 101.0 -104.5
912 101.0 -106.5
913 102.0 -109.75
914 103.0 -95.0
915 103.0 -97.0
916 103.0 -99.0
917 103.0 -101.0
918 103.0 -103.0
919 103.0 -105.0
920 103.0 -107.0
921 104.0 -109.38
922 105.0 -96.5
923 105.0 -98.5
924 105.0 -100.5
925 105.0 -102.5
926 105.0 -104.5
927 105.0 -106.5
928 106.0 -109.38
929 107.0 -98.5
930 107.0 -100.5
931 107.0 -102.5
932 107.0 -104.5
933 107.0 -106.5
934 108.0 -109.75
935 109.0 -99.0
936 109.0 -101.0
937 109.0 -103.0
938 109.0 -105.0
939 109.0 -107.0
940 110.0 -109.75
941 111.0 -99.5
942 111.0 -101.5
943 111.0 -103.5
944 111.0 -105.5
945 111.0 -107.5
946 112.0 -110.0
947 113.0 -100.0
948 113.0 -102.0
949 113.0 -104.0
950 113.0 -106.0
951 113.0 -108.0
952 114.17 -109.83
953 115.0 -101.0
954 115.0 -103.0
955 115.0 -105.0
956 115.0 -107.0
957 116.0 -109.75
958 117.0 -101.0
959 117.0 -103.0
960 117.0 -105.0
961 117.0 -107.0
962 118.0 -109.75
963 119.0 -101.5
964 119.0 -103.5
965 119.0 -105.5
966 119.0 -107.5
967 120.0 -110.0
968 121.0 -102.0
969 121.0 -104.0
970 121.0 -106.0
971 121.0 -108.0
972 122.17 -109.83
973 123.0 -103.0
974 123.0 -105.0
975 123.0 -107.0
976 124.0 -109.0
977 124.0 -111.0
978 125.0 -103.0
979 125.0 -105.0
980 125.0 -107.0
981 126.0 -109.0
982 126.0 -111.0
983 127.0 -103.0
984 127.0 -105.0
985 127.0 -107.0
986 128.0 -109.0
987 128.0 -111.0
988 129.0 -103.5
989 129.0 -105.5
990 129.0 -107.5
991 130.0 -110.75
992 131.0 -104.5
993 131.0 -106.5
994 131.0 -108.5
995 132.0 -110.75
996 133.0 -105.0
997 133.0 -107.0
998 133.17 -109.5
999 135.0 -105.0
1000 135.0 -107.0
1001 135.0 -109.75
1002 137.0 -105.0
1003 137.0 -107.0
1004 137.0 -109.75
1005 139.0 -105.0
1006 139.0 -107.0
1007 139.0 -109.75
1008 141.0 -105.0
1009 141.0 -107.0
1010 141.0 -109.75
1011 143.0 -105.0
1012 143.0 -107.0
1013 142.83 -109.5
1014 145.0 -105.0
1015 145.0 -107.0
1016 144.5 -109.0
1017 146.5 -105.0
1018 146.5 -107.0
1019 70.22 -125.99
1020 70.47 -127.75
1021 7.91 -50.25
