0 2 0 0
149 0
0 1016 1018
1 0 1021
2 82 104
3 50 53
4 1010 1013
5 987 995
6 982 987
7 977 982
8 0 3
9 3 5
10 79 82
11 53 79
12 363 400
13 5 10
14 10 16
15 515 559
16 514 515
17 934 946
18 559 560
19 2 1021
20 244 254
21 212 244
22 646 647
23 615 647
24 612 1019
25 467 513
26 914 922
27 922 935
28 28 36
29 36 40
30 11 17
31 8 11
32 400 431
33 1013 1016
34 1002 1005
35 1007 1010
36 1004 1007
37 947 958
38 96 102
39 102 103
40 1019 1020
41 513 578
42 935 941
43 941 947
44 2 6
45 6 8
46 23 32
47 32 39
48 431 468
49 468 514
50 657 681
51 560 561
52 1014 1017
53 963 968
54 958 963
55 867 880
56 880 904
57 904 913
58 837 867
59 769 784
60 748 769
61 727 748
62 160 190
63 190 212
64 96 101
65 52 81
66 39 52
67 614 615
68 578 614
69 646 1020
70 612 629
71 326 363
72 40 43
73 43 50
74 19 23
75 16 19
76 563 564
77 561 562
78 681 727
79 562 563
80 1005 1008
81 1001 1004
82 995 1001
83 999 1002
84 992 999
85 988 992
86 967 977
87 957 967
88 868 893
89 853 868
90 103 123
91 152 160
92 101 121
93 913 921
94 952 957
95 946 952
96 222 255
97 104 130
98 255 290
99 130 131
100 290 326
101 131 161
102 161 191
103 191 222
104 630 657
105 564 579
106 1008 1011
107 1011 1014
108 968 978
109 822 837
110 805 822
111 768 788
112 788 805
113 905 914
114 123 129
115 129 152
116 466 467
117 466 509
118 495 509
119 254 289
120 289 313
121 24 28
122 17 24
123 579 580
124 983 988
125 978 983
126 747 768
127 313 362
128 81 100
129 100 121
130 580 598
131 598 630
132 820 838
133 838 853
134 784 802
135 802 820
136 893 894
137 894 905
138 656 704
139 465 495
140 726 747
141 704 726
142 628 629
143 628 656
144 362 424
145 430 465
146 424 430
147 1017 1018
148 921 934
0
